<svg width="48" height="48" viewBox="0 0 48 48" fill="none" xmlns="http://www.w3.org/2000/svg">
<rect width="48" height="48" rx="24" fill="#CFCED8"/>
<path d="M27 19.75C27 21.4069 25.6569 22.75 24 22.75C22.3431 22.75 21 21.4069 21 19.75C21 18.0931 22.3431 16.75 24 16.75C25.6569 16.75 27 18.0931 27 19.75Z" fill="#CFCED8"/>
<path d="M18 28.75C18 27.0931 19.3431 25.75 21 25.75H27C28.6569 25.75 30 27.0931 30 28.75C30 30.4069 28.6569 31.75 27 31.75H21C19.3431 31.75 18 30.4069 18 28.75Z" fill="#CFCED8"/>
<path d="M26.25 19.75C26.25 20.9926 25.2426 22 24 22V23.5C26.0711 23.5 27.75 21.8211 27.75 19.75H26.25ZM24 22C22.7574 22 21.75 20.9926 21.75 19.75H20.25C20.25 21.8211 21.9289 23.5 24 23.5V22ZM21.75 19.75C21.75 18.5074 22.7574 17.5 24 17.5V16C21.9289 16 20.25 17.6789 20.25 19.75H21.75ZM24 17.5C25.2426 17.5 26.25 18.5074 26.25 19.75H27.75C27.75 17.6789 26.0711 16 24 16V17.5ZM21 26.5H27V25H21V26.5ZM27 31H21V32.5H27V31ZM21 31C19.7574 31 18.75 29.9926 18.75 28.75H17.25C17.25 30.8211 18.9289 32.5 21 32.5V31ZM29.25 28.75C29.25 29.9926 28.2426 31 27 31V32.5C29.0711 32.5 30.75 30.8211 30.75 28.75H29.25ZM27 26.5C28.2426 26.5 29.25 27.5074 29.25 28.75H30.75C30.75 26.6789 29.0711 25 27 25V26.5ZM21 25C18.9289 25 17.25 26.6789 17.25 28.75H18.75C18.75 27.5074 19.7574 26.5 21 26.5V25Z" fill="#363062"/>
<path d="M19.7521 22.3887C19.5944 22.1353 19.2985 22 19 22C17.7574 22 16.75 20.9926 16.75 19.75C16.75 18.5074 17.7574 17.5 19 17.5C19.2985 17.5 19.5944 17.3647 19.7521 17.1113C19.7591 17.1001 19.7661 17.089 19.7732 17.0778C20.0358 16.6633 19.9027 16.0764 19.415 16.0227C19.2787 16.0077 19.1403 16 19 16C16.9289 16 15.25 17.6789 15.25 19.75C15.25 21.8211 16.9289 23.5 19 23.5C19.1403 23.5 19.2787 23.4923 19.415 23.4773C19.9027 23.4236 20.0358 22.8367 19.7732 22.4222C19.7661 22.411 19.7591 22.3999 19.7521 22.3887Z" fill="#2D264B"/>
<path d="M16.7083 30.3169C16.5948 30.1275 16.3944 30 16.1736 30H16C14.7574 30 13.75 28.9926 13.75 27.75C13.75 26.5074 14.7574 25.5 16 25.5H16.1736C16.3944 25.5 16.5948 25.3725 16.7083 25.1831C16.9854 24.7208 16.6847 24 16.1457 24H16C13.9289 24 12.25 25.6789 12.25 27.75C12.25 29.8211 13.9289 31.5 16 31.5H16.1457C16.6847 31.5 16.9854 30.7792 16.7083 30.3169Z" fill="#2D264B"/>
<path d="M28.2268 22.4222C27.9642 22.8367 28.0973 23.4236 28.585 23.4773C28.7213 23.4923 28.8597 23.5 29 23.5C31.0711 23.5 32.75 21.8211 32.75 19.75C32.75 17.6789 31.0711 16 29 16C28.8597 16 28.7213 16.0077 28.585 16.0227C28.0973 16.0764 27.9642 16.6633 28.2268 17.0778C28.2339 17.089 28.2409 17.1001 28.2479 17.1113C28.4056 17.3647 28.7015 17.5 29 17.5C30.2426 17.5 31.25 18.5074 31.25 19.75C31.25 20.9926 30.2426 22 29 22C28.7015 22 28.4056 22.1353 28.2479 22.3887C28.2409 22.3999 28.2339 22.411 28.2268 22.4222Z" fill="#2D264B"/>
<path d="M31.2917 30.3169C31.0146 30.7792 31.3153 31.5 31.8543 31.5H32C34.0711 31.5 35.75 29.8211 35.75 27.75C35.75 25.6789 34.0711 24 32 24H31.8543C31.3153 24 31.0146 24.7208 31.2917 25.1831C31.4052 25.3725 31.6056 25.5 31.8264 25.5H32C33.2426 25.5 34.25 26.5074 34.25 27.75C34.25 28.9926 33.2426 30 32 30H31.8264C31.6056 30 31.4052 30.1275 31.2917 30.3169Z" fill="#2D264B"/>
</svg>
