<svg width="48" height="48" viewBox="0 0 48 48" fill="none" xmlns="http://www.w3.org/2000/svg">
<rect width="48" height="48" rx="24" fill="#008CFF" fill-opacity="0.4"/>
<rect width="48" height="48" rx="24" fill="white" fill-opacity="0.2"/>
<path d="M16.3875 33.2632L16.7794 32.6237L16.3875 33.2632ZM14.7368 31.6125L15.3763 31.2206H15.3763L14.7368 31.6125ZM33.2632 31.6125L32.6237 31.2206L33.2632 31.6125ZM31.6125 33.2632L31.2206 32.6237L31.6125 33.2632ZM31.6125 17.7368L31.2206 18.3763L31.6125 17.7368ZM33.2632 19.3875L32.6237 19.7794L33.2632 19.3875ZM16.3875 17.7368L16.7794 18.3763H16.7794L16.3875 17.7368ZM14.7368 19.3875L15.3763 19.7794H15.3763L14.7368 19.3875ZM30.4768 14.5464L31.0181 14.0273V14.0273L30.4768 14.5464ZM15.8442 14.8908L16.2971 15.4886V15.4886L15.8442 14.8908ZM14.8545 15.9227L15.4698 16.3515L14.8545 15.9227ZM31 17.1303H31.75L31.75 17.1266L31 17.1303ZM30.3637 25.6137C30.7779 25.6137 31.1137 25.2779 31.1137 24.8637C31.1137 24.4494 30.7779 24.1137 30.3637 24.1137V25.6137ZM27.6364 24.1137C27.2222 24.1137 26.8864 24.4494 26.8864 24.8637C26.8864 25.2779 27.2222 25.6137 27.6364 25.6137V24.1137ZM22.5 17.75H25.5V16.25H22.5V17.75ZM25.5 33.25H22.5V34.75H25.5V33.25ZM22.5 33.25C20.8488 33.25 19.663 33.2492 18.7381 33.1613C17.8244 33.0744 17.2429 32.9078 16.7794 32.6237L15.9957 33.9027C16.7345 34.3554 17.5726 34.5572 18.5961 34.6545C19.6085 34.7508 20.8778 34.75 22.5 34.75V33.25ZM13.25 25.5C13.25 27.1222 13.2492 28.3915 13.3455 29.4039C13.4428 30.4274 13.6446 31.2655 14.0973 32.0044L15.3763 31.2206C15.0923 30.7571 14.9256 30.1757 14.8388 29.2619C14.7508 28.337 14.75 27.1512 14.75 25.5H13.25ZM16.7794 32.6237C16.2075 32.2733 15.7267 31.7925 15.3763 31.2206L14.0973 32.0044C14.5715 32.7781 15.222 33.4286 15.9957 33.9027L16.7794 32.6237ZM25.5 34.75C27.1222 34.75 28.3915 34.7508 29.4039 34.6545C30.4275 34.5572 31.2656 34.3554 32.0044 33.9027L31.2206 32.6237C30.7571 32.9078 30.1757 33.0744 29.2619 33.1613C28.337 33.2492 27.1513 33.25 25.5 33.25V34.75ZM32.6237 31.2206C32.2733 31.7925 31.7925 32.2733 31.2206 32.6237L32.0044 33.9027C32.7781 33.4286 33.4286 32.7781 33.9027 32.0044L32.6237 31.2206ZM31.2206 18.3763C31.7925 18.7267 32.2733 19.2075 32.6237 19.7794L33.9027 18.9956C33.4286 18.2219 32.7781 17.5714 32.0044 17.0973L31.2206 18.3763ZM22.5 16.25C20.8778 16.25 19.6085 16.2492 18.5961 16.3455C17.5726 16.4428 16.7345 16.6446 15.9957 17.0973L16.7794 18.3763C17.2429 18.0922 17.8244 17.9256 18.7381 17.8387C19.663 17.7508 20.8488 17.75 22.5 17.75V16.25ZM14.75 25.5C14.75 23.8488 14.7508 22.663 14.8388 21.7381C14.9256 20.8243 15.0923 20.2429 15.3763 19.7794L14.0973 18.9956C13.6446 19.7345 13.4428 20.5726 13.3455 21.5961C13.2492 22.6085 13.25 23.8778 13.25 25.5H14.75ZM15.9957 17.0973C15.222 17.5714 14.5715 18.2219 14.0973 18.9956L15.3763 19.7794C15.7267 19.2075 16.2075 18.7267 16.7794 18.3763L15.9957 17.0973ZM22.0531 14.75H27.4218V13.25H22.0531V14.75ZM27.4218 14.75C28.2875 14.75 28.8582 14.7517 29.2814 14.811C29.6797 14.8669 29.8346 14.9604 29.9355 15.0656L31.0181 14.0273C30.5949 13.5861 30.0659 13.4064 29.4896 13.3256C28.9381 13.2483 28.2434 13.25 27.4218 13.25V14.75ZM22.0531 13.25C20.3929 13.25 19.085 13.2489 18.0473 13.3661C16.9937 13.4851 16.1297 13.7337 15.3914 14.2929L16.2971 15.4886C16.7348 15.1571 17.2977 14.9603 18.2157 14.8566C19.1496 14.7511 20.3581 14.75 22.0531 14.75V13.25ZM14.75 22.3956C14.75 20.6306 14.751 19.3647 14.8528 18.3847C14.9534 17.417 15.1455 16.8168 15.4698 16.3515L14.2392 15.4939C13.709 16.2546 13.4739 17.1419 13.3609 18.2297C13.2491 19.3052 13.25 20.6627 13.25 22.3956H14.75ZM15.3914 14.2929C14.9481 14.6287 14.5595 15.0342 14.2392 15.4939L15.4698 16.3515C15.7014 16.0192 15.9808 15.7282 16.2971 15.4886L15.3914 14.2929ZM31.75 17.1266C31.7467 16.45 31.7322 15.8636 31.6475 15.3775C31.5594 14.8723 31.3854 14.4103 31.0181 14.0273L29.9355 15.0656C30.0289 15.1629 30.1131 15.3099 30.1698 15.6351C30.2298 15.9793 30.2466 16.4447 30.25 17.134L31.75 17.1266ZM13.25 22.3956C13.25 23.3713 13.2299 24.2642 13.2503 25.0202L14.7497 24.9798C14.73 24.2482 14.75 23.424 14.75 22.3956H13.25ZM33.5 26.8409H27.6364V28.3409H33.5V26.8409ZM24.1591 24.8637C24.1591 26.7841 25.7159 28.3409 27.6364 28.3409V26.8409C26.5444 26.8409 25.6591 25.9557 25.6591 24.8637H24.1591ZM25.6591 24.8637C25.6591 23.7716 26.5444 22.8864 27.6364 22.8864V21.3864C25.7159 21.3864 24.1591 22.9432 24.1591 24.8637H25.6591ZM30.3637 24.1137H27.6364V25.6137H30.3637V24.1137ZM25.5 17.75C26.8847 17.75 27.9449 17.7503 28.8035 17.8033C29.6613 17.8562 30.261 17.9594 30.7338 18.139L31.2663 16.7367C30.5862 16.4784 29.8119 16.3627 28.8959 16.3061C27.9807 16.2497 26.8674 16.25 25.5 16.25V17.75ZM30.7338 18.139C30.9108 18.2062 31.071 18.2846 31.2206 18.3763L32.0044 17.0973C31.771 16.9543 31.5261 16.8353 31.2663 16.7367L30.7338 18.139ZM30.25 17.1303V17.4378H31.75V17.1303H30.25ZM27.6364 22.8864H33.9444V21.3864H27.6364V22.8864ZM34.75 25.5C34.75 24.1255 34.7504 23.0077 34.693 22.0896L33.1959 22.1832C33.2497 23.0439 33.25 24.108 33.25 25.5H34.75ZM34.693 22.0896C34.6145 20.8348 34.4247 19.8475 33.9027 18.9956L32.6237 19.7794C32.9527 20.3161 33.1224 21.0071 33.1959 22.1832L34.693 22.0896ZM33.25 25.5C33.25 26.2875 33.25 26.9722 33.2399 27.5785L34.7397 27.6034C34.75 26.9821 34.75 26.2839 34.75 25.5H33.25ZM33.2399 27.5785C33.2074 29.537 33.0635 30.5031 32.6237 31.2206L33.9027 32.0044C34.5829 30.8944 34.7077 29.5313 34.7397 27.6034L33.2399 27.5785ZM33.5 28.3409H33.9898V26.8409H33.5V28.3409Z" fill="#008CFF"/>
</svg>
