<svg width="48" height="48" viewBox="0 0 48 48" fill="none" xmlns="http://www.w3.org/2000/svg">
<rect width="48" height="48" rx="24" fill="#E987A0" fill-opacity="0.4"/>
<rect width="48" height="48" rx="24" fill="white" fill-opacity="0.2"/>
<path d="M27.25 18C27.25 19.7949 25.7949 21.25 24 21.25V22.75C26.6234 22.75 28.75 20.6234 28.75 18H27.25ZM24 21.25C22.2051 21.25 20.75 19.7949 20.75 18H19.25C19.25 20.6234 21.3766 22.75 24 22.75V21.25ZM20.75 18C20.75 16.2051 22.2051 14.75 24 14.75V13.25C21.3766 13.25 19.25 15.3766 19.25 18H20.75ZM24 14.75C25.7949 14.75 27.25 16.2051 27.25 18H28.75C28.75 15.3766 26.6234 13.25 24 13.25V14.75ZM21 25.75H27V24.25H21V25.75ZM27 32.25H21V33.75H27V32.25ZM21 32.25C19.2051 32.25 17.75 30.7949 17.75 29H16.25C16.25 31.6234 18.3766 33.75 21 33.75V32.25ZM30.25 29C30.25 30.7949 28.7949 32.25 27 32.25V33.75C29.6234 33.75 31.75 31.6234 31.75 29H30.25ZM27 25.75C28.7949 25.75 30.25 27.2051 30.25 29H31.75C31.75 26.3766 29.6234 24.25 27 24.25V25.75ZM21 24.25C18.3766 24.25 16.25 26.3766 16.25 29H17.75C17.75 27.2051 19.2051 25.75 21 25.75V24.25Z" fill="#E987A0"/>
</svg>
