<svg width="48" height="48" viewBox="0 0 48 48" fill="none" xmlns="http://www.w3.org/2000/svg">
<rect width="48" height="48" rx="24" fill="#34A853" fill-opacity="0.4"/>
<rect width="48" height="48" rx="24" fill="white" fill-opacity="0.2"/>
<path d="M20.5489 16.5074C21.6351 13.1642 26.3648 13.1642 27.451 16.5074C27.9368 18.0025 29.3301 19.0147 30.9021 19.0147C34.4173 19.0147 35.8788 23.5129 33.035 25.579C31.7632 26.5031 31.231 28.1409 31.7168 29.636C32.803 32.9792 28.9767 35.7592 26.1328 33.693C24.861 32.769 23.1389 32.769 21.8671 33.693C19.0232 35.7592 15.1969 32.9792 16.2831 29.636C16.7689 28.1409 16.2367 26.5031 14.9649 25.579C12.1211 23.5129 13.5826 19.0147 17.0978 19.0147C18.6698 19.0147 20.0631 18.0025 20.5489 16.5074Z" fill="#34A853" fill-opacity="0.4"/>
<path d="M20.5489 16.5074C21.6351 13.1642 26.3648 13.1642 27.451 16.5074C27.9368 18.0025 29.3301 19.0147 30.9021 19.0147C34.4173 19.0147 35.8788 23.5129 33.035 25.579C31.7632 26.5031 31.231 28.1409 31.7168 29.636C32.803 32.9792 28.9767 35.7592 26.1328 33.693C24.861 32.769 23.1389 32.769 21.8671 33.693C19.0232 35.7592 15.1969 32.9792 16.2831 29.636C16.7689 28.1409 16.2367 26.5031 14.9649 25.579C12.1211 23.5129 13.5826 19.0147 17.0978 19.0147C18.6698 19.0147 20.0631 18.0025 20.5489 16.5074Z" fill="white" fill-opacity="0.2"/>
<path d="M20.5489 16.5074C21.6351 13.1642 26.3648 13.1642 27.451 16.5074C27.9368 18.0025 29.3301 19.0147 30.9021 19.0147C34.4173 19.0147 35.8788 23.5129 33.035 25.579C31.7632 26.5031 31.231 28.1409 31.7168 29.636C32.803 32.9792 28.9767 35.7592 26.1328 33.693C24.861 32.769 23.1389 32.769 21.8671 33.693C19.0232 35.7592 15.1969 32.9792 16.2831 29.636C16.7689 28.1409 16.2367 26.5031 14.9649 25.579C12.1211 23.5129 13.5826 19.0147 17.0978 19.0147C18.6698 19.0147 20.0631 18.0025 20.5489 16.5074Z" stroke="#34A853" stroke-width="1.5"/>
</svg>
