<svg width="48" height="48" viewBox="0 0 48 48" fill="none" xmlns="http://www.w3.org/2000/svg">
<rect width="48" height="48" rx="24" fill="#9747FF" fill-opacity="0.4"/>
<rect width="48" height="48" rx="24" fill="white" fill-opacity="0.2"/>
<path d="M23.0175 19.7374C23.3268 18.7542 24.6732 18.7542 24.9825 19.7374C25.1208 20.177 25.5174 20.4747 25.965 20.4747C26.9657 20.4747 27.3818 21.7976 26.5722 22.4052C26.2101 22.6769 26.0586 23.1586 26.1969 23.5983C26.5062 24.5814 25.4168 25.399 24.6072 24.7914C24.2451 24.5196 23.7549 24.5196 23.3928 24.7914C22.5832 25.399 21.4938 24.5814 21.8031 23.5983C21.9414 23.1586 21.7899 22.6769 21.4278 22.4052C20.6182 21.7976 21.0343 20.4747 22.035 20.4747C22.4826 20.4747 22.8792 20.177 23.0175 19.7374Z" fill="#9747FF" fill-opacity="0.4"/>
<path d="M23.0175 19.7374C23.3268 18.7542 24.6732 18.7542 24.9825 19.7374C25.1208 20.177 25.5174 20.4747 25.965 20.4747C26.9657 20.4747 27.3818 21.7976 26.5722 22.4052C26.2101 22.6769 26.0586 23.1586 26.1969 23.5983C26.5062 24.5814 25.4168 25.399 24.6072 24.7914C24.2451 24.5196 23.7549 24.5196 23.3928 24.7914C22.5832 25.399 21.4938 24.5814 21.8031 23.5983C21.9414 23.1586 21.7899 22.6769 21.4278 22.4052C20.6182 21.7976 21.0343 20.4747 22.035 20.4747C22.4826 20.4747 22.8792 20.177 23.0175 19.7374Z" fill="white" fill-opacity="0.2"/>
<path d="M17.0001 21C17.0001 19.5583 17.0001 18.675 17.1138 18C17.1469 17.8035 17.1897 17.6247 17.2448 17.4549C17.7394 15.9327 18.9328 14.7393 20.455 14.2447C21.2082 14 22.1388 14 24.0001 14C25.8614 14 26.792 14 27.5452 14.2447C29.0674 14.7393 30.2608 15.9327 30.7554 17.4549C30.8106 17.6247 30.8533 17.8035 30.8864 18C31.0001 18.675 31.0001 19.5583 31.0001 21V22.3004C31.0001 23.9037 31.0001 24.8042 30.7564 25.6074C30.7221 25.7204 30.683 25.8314 30.6383 25.9422C30.4198 26.4851 29.9758 27.1631 29.5655 27.5804C28.8863 28.2711 28.2017 28.5696 26.8325 29.1666C25.75 29.6385 24.6943 30 24.0001 30C23.3059 30 22.2502 29.6385 21.1677 29.1666C19.7985 28.5696 19.1139 28.2711 18.4347 27.5804C18.0244 27.1631 17.5804 26.4851 17.3619 25.9422C17.3159 25.8281 17.2758 25.7137 17.2408 25.5973C17.0001 24.7966 17.0001 23.897 17.0001 22.3004V21Z" fill="#9747FF" fill-opacity="0.4"/>
<path d="M17.0001 21C17.0001 19.5583 17.0001 18.675 17.1138 18C17.1469 17.8035 17.1897 17.6247 17.2448 17.4549C17.7394 15.9327 18.9328 14.7393 20.455 14.2447C21.2082 14 22.1388 14 24.0001 14C25.8614 14 26.792 14 27.5452 14.2447C29.0674 14.7393 30.2608 15.9327 30.7554 17.4549C30.8106 17.6247 30.8533 17.8035 30.8864 18C31.0001 18.675 31.0001 19.5583 31.0001 21V22.3004C31.0001 23.9037 31.0001 24.8042 30.7564 25.6074C30.7221 25.7204 30.683 25.8314 30.6383 25.9422C30.4198 26.4851 29.9758 27.1631 29.5655 27.5804C28.8863 28.2711 28.2017 28.5696 26.8325 29.1666C25.75 29.6385 24.6943 30 24.0001 30C23.3059 30 22.2502 29.6385 21.1677 29.1666C19.7985 28.5696 19.1139 28.2711 18.4347 27.5804C18.0244 27.1631 17.5804 26.4851 17.3619 25.9422C17.3159 25.8281 17.2758 25.7137 17.2408 25.5973C17.0001 24.7966 17.0001 23.897 17.0001 22.3004V21Z" fill="white" fill-opacity="0.2"/>
<path d="M23.0175 19.7374L23.733 19.9624L23.0175 19.7374ZM21.4278 22.4052L21.878 21.8053L21.4278 22.4052ZM21.8031 23.5983L22.5185 23.8233L21.8031 23.5983ZM23.3928 24.7914L22.9426 24.1915L23.3928 24.7914ZM24.6072 24.7914L25.0574 24.1915L24.6072 24.7914ZM26.1969 23.5983L25.4815 23.8233L26.1969 23.5983ZM26.5722 22.4052L26.122 21.8053L26.5722 22.4052ZM24.9825 19.7374L25.6979 19.5123L24.9825 19.7374ZM17.3619 25.9422L18.0576 25.6621V25.6621L17.3619 25.9422ZM21.1677 29.1666L20.8679 29.8541L21.1677 29.1666ZM18.4347 27.5804L18.9695 27.0546L18.4347 27.5804ZM30.6383 25.9422L29.9426 25.6621L30.6383 25.9422ZM26.8325 29.1666L27.1323 29.8541L26.8325 29.1666ZM29.5655 27.5804L30.1003 28.1062L29.5655 27.5804ZM30.7554 17.4549L30.0421 17.6867L30.7554 17.4549ZM27.5452 14.2447L27.3134 14.958L27.5452 14.2447ZM17.2448 17.4549L17.9581 17.6867L17.2448 17.4549ZM20.455 14.2447L20.6868 14.958L20.455 14.2447ZM14.3326 23.6072L13.8771 24.203L13.8877 24.2111L13.8986 24.2189L14.3326 23.6072ZM33.6677 23.6072L34.1017 24.2189L34.1126 24.2111L34.1233 24.203L33.6677 23.6072ZM23.2501 34C23.2501 34.4142 23.5859 34.75 24.0001 34.75C24.4143 34.75 24.7501 34.4142 24.7501 34H23.2501ZM28.0001 34.75C28.4143 34.75 28.7501 34.4142 28.7501 34C28.7501 33.5858 28.4143 33.25 28.0001 33.25V34.75ZM20.0001 33.25C19.5859 33.25 19.2501 33.5858 19.2501 34C19.2501 34.4142 19.5859 34.75 20.0001 34.75V33.25ZM17.2408 25.5973L17.9591 25.3814L17.2408 25.5973ZM30.8864 18L30.1468 18.1246L30.8864 18ZM31.2173 25.3459L30.7833 24.7342L31.2173 25.3459ZM16.7886 25.3498L16.3546 25.9615L16.7886 25.3498ZM22.035 21.2247C22.8234 21.2247 23.5004 20.7016 23.733 19.9624L22.3021 19.5123C22.258 19.6525 22.1417 19.7247 22.035 19.7247V21.2247ZM21.878 21.8053C21.7616 21.718 21.7221 21.5831 21.768 21.4371C21.7907 21.3649 21.8305 21.3103 21.8723 21.2768C21.909 21.2475 21.9582 21.2247 22.035 21.2247V19.7247C20.2595 19.7247 19.6352 21.9975 20.9776 23.005L21.878 21.8053ZM22.5185 23.8233C22.7499 23.0877 22.5007 22.2726 21.878 21.8053L20.9776 23.005C21.0791 23.0812 21.1329 23.2295 21.0877 23.3732L22.5185 23.8233ZM22.9426 24.1915C22.8755 24.2419 22.8223 24.2511 22.7826 24.2499C22.7367 24.2485 22.6815 24.2312 22.6286 24.1915C22.5252 24.1139 22.4676 23.9851 22.5185 23.8233L21.0877 23.3732C20.8293 24.1946 21.1618 24.9661 21.7282 25.3912C22.2981 25.8189 23.141 25.918 23.843 25.3912L22.9426 24.1915ZM25.0574 24.1915C24.4286 23.7196 23.5714 23.7196 22.9426 24.1915L23.843 25.3912C23.9383 25.3197 24.0617 25.3197 24.157 25.3912L25.0574 24.1915ZM25.4815 23.8233C25.5324 23.9851 25.4748 24.1139 25.3714 24.1915C25.3185 24.2312 25.2633 24.2485 25.2174 24.2499C25.1777 24.2511 25.1245 24.2419 25.0574 24.1915L24.157 25.3912C24.859 25.918 25.7019 25.8189 26.2718 25.3912C26.8382 24.9661 27.1707 24.1946 26.9123 23.3732L25.4815 23.8233ZM26.122 21.8053C25.4993 22.2726 25.2501 23.0877 25.4815 23.8233L26.9123 23.3732C26.8671 23.2295 26.9209 23.0812 27.0224 23.005L26.122 21.8053ZM25.965 21.2247C26.0418 21.2247 26.091 21.2475 26.1277 21.2768C26.1695 21.3103 26.2093 21.3649 26.232 21.4371C26.2779 21.5831 26.2384 21.718 26.122 21.8053L27.0224 23.005C28.3648 21.9975 27.7405 19.7247 25.965 19.7247V21.2247ZM24.267 19.9624C24.4996 20.7016 25.1766 21.2247 25.965 21.2247V19.7247C25.8583 19.7247 25.742 19.6525 25.6979 19.5123L24.267 19.9624ZM25.6979 19.5123C25.1685 17.8292 22.8315 17.8292 22.3021 19.5123L23.733 19.9624C23.822 19.6792 24.178 19.6792 24.267 19.9624L25.6979 19.5123ZM30.2501 21V22.3004H31.7501V21H30.2501ZM17.7501 22.3004V21H16.2501V22.3004H17.7501ZM26.5328 28.4791C26.0066 28.7085 25.5001 28.9052 25.0504 29.0434C24.5897 29.1849 24.2361 29.25 24.0001 29.25V30.75C24.4583 30.75 24.9797 30.6343 25.491 30.4772C26.0134 30.3167 26.5759 30.0966 27.1323 29.8541L26.5328 28.4791ZM24.0001 29.25C23.7641 29.25 23.4105 29.1849 22.9498 29.0434C22.5002 28.9052 21.9936 28.7085 21.4674 28.4791L20.8679 29.8541C21.4243 30.0966 21.9869 30.3167 22.5092 30.4772C23.0206 30.6343 23.5419 30.75 24.0001 30.75V29.25ZM21.4674 28.4791C20.071 27.8702 19.529 27.6236 18.9695 27.0546L17.8999 28.1062C18.6987 28.9187 19.526 29.269 20.8679 29.8541L21.4674 28.4791ZM16.6661 26.2223C16.9216 26.8569 17.4203 27.6184 17.8999 28.1062L18.9695 27.0546C18.6286 26.7078 18.2392 26.1133 18.0576 25.6621L16.6661 26.2223ZM27.1323 29.8541C28.4742 29.269 29.3015 28.9187 30.1003 28.1062L29.0307 27.0546C28.4712 27.6236 27.9293 27.8702 26.5328 28.4791L27.1323 29.8541ZM29.9426 25.6621C29.761 26.1133 29.3717 26.7078 29.0307 27.0546L30.1003 28.1062C30.5799 27.6184 31.0786 26.8569 31.3341 26.2223L29.9426 25.6621ZM24.0001 14.75C25.9198 14.75 26.7017 14.7593 27.3134 14.958L27.777 13.5314C26.8823 13.2407 25.803 13.25 24.0001 13.25V14.75ZM31.4687 17.2232C30.8999 15.4726 29.5275 14.1002 27.777 13.5314L27.3134 14.958C28.6073 15.3784 29.6217 16.3928 30.0421 17.6867L31.4687 17.2232ZM24.0001 13.25C22.1972 13.25 21.1179 13.2407 20.2233 13.5314L20.6868 14.958C21.2985 14.7593 22.0805 14.75 24.0001 14.75V13.25ZM17.9581 17.6867C18.3785 16.3928 19.3929 15.3784 20.6868 14.958L20.2233 13.5314C18.4727 14.1002 17.1003 15.4726 16.5315 17.2232L17.9581 17.6867ZM17.2226 24.7382L14.7666 22.9956L13.8986 24.2189L16.3546 25.9615L17.2226 24.7382ZM14.7882 23.0115C12.9842 21.6319 13.9598 18.75 16.2309 18.75V17.25C12.5253 17.25 10.9335 21.9521 13.8771 24.203L14.7882 23.0115ZM31.6513 25.9575L34.1017 24.2189L33.2337 22.9956L30.7833 24.7342L31.6513 25.9575ZM34.1233 24.203C37.0668 21.9521 35.475 17.25 31.7695 17.25V18.75C34.0406 18.75 35.0162 21.6319 33.2121 23.0115L34.1233 24.203ZM23.2501 30V34H24.7501V30H23.2501ZM28.0001 33.25H20.0001V34.75H28.0001V33.25ZM17.7501 21C17.7501 19.5281 17.7527 18.7222 17.8534 18.1246L16.3742 17.8754C16.2475 18.6278 16.2501 19.5885 16.2501 21H17.7501ZM17.8534 18.1246C17.8812 17.9593 17.9158 17.8169 17.9581 17.6867L16.5315 17.2232C16.4635 17.4326 16.4126 17.6477 16.3742 17.8754L17.8534 18.1246ZM16.2501 22.3004C16.2501 23.8535 16.2428 24.8826 16.5226 25.8132L17.9591 25.3814C17.7574 24.7106 17.7501 23.9404 17.7501 22.3004H16.2501ZM16.5226 25.8132C16.5641 25.9515 16.6118 26.0872 16.6661 26.2223L18.0576 25.6621C18.0201 25.569 17.9875 25.476 17.9591 25.3814L16.5226 25.8132ZM30.2501 22.3004C30.2501 23.9475 30.2427 24.7174 30.0387 25.3896L31.474 25.8252C31.7575 24.891 31.7501 23.8599 31.7501 22.3004H30.2501ZM30.0387 25.3896C30.0108 25.4814 29.979 25.5717 29.9426 25.6621L31.3341 26.2223C31.3869 26.0912 31.4333 25.9593 31.474 25.8252L30.0387 25.3896ZM31.7501 21C31.7501 19.5885 31.7527 18.6278 31.626 17.8754L30.1468 18.1246C30.2475 18.7222 30.2501 19.5281 30.2501 21H31.7501ZM31.626 17.8754C31.5876 17.6477 31.5367 17.4326 31.4687 17.2232L30.0421 17.6867C30.0844 17.8169 30.119 17.9593 30.1468 18.1246L31.626 17.8754ZM30.7833 24.7342C30.6801 24.8074 30.5698 24.87 30.454 24.9211L31.0587 26.2937C31.2671 26.2019 31.4657 26.0893 31.6513 25.9575L30.7833 24.7342ZM16.3546 25.9615C16.5427 26.095 16.7458 26.2061 16.9596 26.2926L17.522 24.902C17.4162 24.8592 17.3157 24.8042 17.2226 24.7382L16.3546 25.9615ZM16.2309 18.75H17.1138V17.25H16.2309V18.75ZM31.7695 17.25H30.8864V18.75H31.7695V17.25Z" fill="#9747FF"/>
</svg>
