<svg width="48" height="48" viewBox="0 0 48 48" fill="none" xmlns="http://www.w3.org/2000/svg">
<rect width="48" height="48" rx="24" fill="#FF0404" fill-opacity="0.4"/>
<rect width="48" height="48" rx="24" fill="white" fill-opacity="0.2"/>
<path d="M20.7991 30.6744L20.2587 31.1945H20.2587L20.7991 30.6744ZM20.7912 30.6662L20.2537 31.1893L20.7912 30.6662ZM20.0801 30.3637L20.0842 29.6137L20.0801 30.3637ZM27.9199 30.3637L27.9158 29.6137L27.9199 30.3637ZM27.2009 30.6744L26.6605 30.1543L27.2009 30.6744ZM27.2088 30.6662L27.7463 31.1893L27.2088 30.6662ZM26.8819 31.0058L27.4223 31.5259L26.8819 31.0058ZM21.1181 31.0058L21.6584 30.4857H21.6584L21.1181 31.0058ZM24 33.1159V33.8659V33.1159ZM15.0003 25.4176L14.2503 25.4257L15.0003 25.4176ZM19.946 30.3633L19.9379 31.1133L19.946 30.3633ZM32.9997 25.4176L33.7497 25.4257L32.9997 25.4176ZM28.054 30.3633L28.0621 31.1133L28.054 30.3633ZM30.3962 14.6116L30.0368 15.2699L30.3962 14.6116ZM32.3884 16.6038L31.7301 16.9632L32.3884 16.6038ZM17.6038 14.6116L17.9632 15.2699L17.6038 14.6116ZM15.6116 16.6038L16.2699 16.9632L15.6116 16.6038ZM17.2697 29.553L16.8597 30.181L17.2697 29.553ZM30.7303 29.553L31.1403 30.181L30.7303 29.553ZM27.25 20C27.25 21.7949 25.7949 23.25 24 23.25V24.75C26.6234 24.75 28.75 22.6234 28.75 20H27.25ZM24 23.25C22.2051 23.25 20.75 21.7949 20.75 20H19.25C19.25 22.6234 21.3766 24.75 24 24.75V23.25ZM20.75 20C20.75 18.2051 22.2051 16.75 24 16.75V15.25C21.3766 15.25 19.25 17.3766 19.25 20H20.75ZM24 16.75C25.7949 16.75 27.25 18.2051 27.25 20H28.75C28.75 17.3766 26.6234 15.25 24 15.25V16.75ZM23.1818 14.75H24.8182V13.25H23.1818V14.75ZM32.25 22.1818V25.2949H33.75V22.1818H32.25ZM15.75 25.2949V22.1818H14.25V25.2949H15.75ZM26.6605 30.1543L26.3416 30.4857L27.4223 31.5259L27.7413 31.1945L26.6605 30.1543ZM21.6584 30.4857L21.3395 30.1543L20.2587 31.1945L20.5777 31.5259L21.6584 30.4857ZM21.3395 30.1543C21.3361 30.1508 21.3324 30.147 21.3287 30.1431L20.2537 31.1893C20.2536 31.1892 20.2537 31.1893 20.2545 31.1901C20.2554 31.1911 20.2566 31.1923 20.2587 31.1945L21.3395 30.1543ZM20.0687 31.1136C20.0717 31.1136 20.0734 31.1136 20.0747 31.1136C20.0758 31.1136 20.076 31.1136 20.0759 31.1136L20.0842 29.6137C20.0789 29.6136 20.0736 29.6136 20.0687 29.6136V31.1136ZM21.3287 30.1431C21.0016 29.807 20.5532 29.6163 20.0842 29.6137L20.0759 31.1136C20.1429 31.114 20.207 31.1413 20.2537 31.1893L21.3287 30.1431ZM27.9313 29.6136C27.9264 29.6136 27.9211 29.6136 27.9158 29.6137L27.9241 31.1136C27.924 31.1136 27.9242 31.1136 27.9253 31.1136C27.9266 31.1136 27.9283 31.1136 27.9313 31.1136V29.6136ZM27.7413 31.1945C27.7457 31.1899 27.7461 31.1895 27.7463 31.1893L26.6713 30.1431C26.6677 30.1469 26.6641 30.1506 26.6605 30.1543L27.7413 31.1945ZM27.9158 29.6137C27.4468 29.6163 26.9984 29.807 26.6713 30.1431L27.7463 31.1893C27.793 31.1413 27.8571 31.114 27.9241 31.1136L27.9158 29.6137ZM26.3416 30.4857C25.6496 31.2046 25.1826 31.6875 24.7872 32.0001C24.4088 32.2991 24.1884 32.3659 24 32.3659V33.8659C24.6625 33.8659 25.206 33.5811 25.7174 33.1768C26.2118 32.786 26.7603 32.2137 27.4223 31.5259L26.3416 30.4857ZM20.5777 31.5259C21.2397 32.2137 21.7882 32.7859 22.2826 33.1768C22.794 33.5811 23.3375 33.8659 24 33.8659V32.3659C23.8116 32.3659 23.5912 32.2991 23.2128 32.0001C22.8174 31.6875 22.3504 31.2046 21.6584 30.4857L20.5777 31.5259ZM14.25 25.2949C14.25 25.3568 14.25 25.3936 14.2503 25.4257L15.7502 25.4095C15.75 25.3876 15.75 25.3607 15.75 25.2949H14.25ZM20.0687 29.6136C20.0029 29.6136 19.976 29.6136 19.9541 29.6134L19.9379 31.1133C19.97 31.1136 20.0069 31.1136 20.0687 31.1136V29.6136ZM32.25 25.2949C32.25 25.3607 32.25 25.3876 32.2498 25.4095L33.7497 25.4257C33.75 25.3936 33.75 25.3568 33.75 25.2949H32.25ZM27.9313 31.1136C27.9931 31.1136 28.03 31.1136 28.0621 31.1133L28.0459 29.6134C28.024 29.6136 27.9971 29.6136 27.9313 29.6136V31.1136ZM24.8182 14.75C26.3173 14.75 27.3938 14.7507 28.237 14.8237C29.0706 14.8958 29.6056 15.0344 30.0368 15.2699L30.7557 13.9533C30.0668 13.5772 29.2988 13.41 28.3664 13.3292C27.4435 13.2493 26.291 13.25 24.8182 13.25V14.75ZM33.75 22.1818C33.75 20.709 33.7507 19.5565 33.6708 18.6336C33.59 17.7012 33.4228 16.9332 33.0467 16.2443L31.7301 16.9632C31.9656 17.3944 32.1042 17.9294 32.1763 18.763C32.2493 19.6062 32.25 20.6827 32.25 22.1818H33.75ZM30.0368 15.2699C30.7519 15.6603 31.3397 16.2481 31.7301 16.9632L33.0467 16.2443C32.5184 15.2769 31.7231 14.4816 30.7557 13.9533L30.0368 15.2699ZM23.1818 13.25C21.709 13.25 20.5565 13.2493 19.6336 13.3292C18.7012 13.41 17.9332 13.5772 17.2443 13.9533L17.9632 15.2699C18.3944 15.0344 18.9294 14.8958 19.763 14.8237C20.6062 14.7507 21.6827 14.75 23.1818 14.75V13.25ZM15.75 22.1818C15.75 20.6827 15.7507 19.6062 15.8237 18.763C15.8958 17.9294 16.0344 17.3944 16.2699 16.9632L14.9533 16.2443C14.5772 16.9332 14.41 17.7012 14.3292 18.6336C14.2493 19.5565 14.25 20.709 14.25 22.1818H15.75ZM17.2443 13.9533C16.2769 14.4816 15.4816 15.2769 14.9533 16.2443L16.2699 16.9632C16.6603 16.2481 17.2481 15.6603 17.9632 15.2699L17.2443 13.9533ZM21 27.75H27V26.25H21V27.75ZM21 26.25C18.9814 26.25 17.2587 27.5088 16.5706 29.2816L17.9689 29.8244C18.4406 28.6093 19.6209 27.75 21 27.75V26.25ZM14.2503 25.4257C14.2718 27.4183 15.3061 29.1666 16.8597 30.181L17.6798 28.9251C16.5284 28.1732 15.7661 26.881 15.7502 25.4095L14.2503 25.4257ZM16.8597 30.181C17.7466 30.7601 18.8038 31.1011 19.9379 31.1133L19.9541 29.6134C19.114 29.6043 18.3345 29.3526 17.6798 28.9251L16.8597 30.181ZM27 27.75C28.3791 27.75 29.5594 28.6093 30.0311 29.8244L31.4294 29.2816C30.7413 27.5088 29.0186 26.25 27 26.25V27.75ZM32.2498 25.4095C32.2339 26.881 31.4716 28.1732 30.3202 28.9251L31.1403 30.181C32.6939 29.1666 33.7282 27.4183 33.7497 25.4257L32.2498 25.4095ZM30.3202 28.9251C29.6655 29.3526 28.886 29.6043 28.0459 29.6134L28.0621 31.1133C29.1962 31.1011 30.2534 30.7601 31.1403 30.181L30.3202 28.9251Z" fill="#FF0404"/>
</svg>
