<svg width="64" height="64" viewBox="0 0 64 64" fill="none" xmlns="http://www.w3.org/2000/svg">
<path d="M64 32C64 49.6731 49.6731 64 32 64C14.3269 64 0 49.6731 0 32C0 14.3269 14.3269 0 32 0C49.6731 0 64 14.3269 64 32Z" fill="url(#paint0_linear_145_53)"/>
<path fill-rule="evenodd" clip-rule="evenodd" d="M49.175 13.4155C49.7624 13.4034 50.3661 13.3933 50.996 13.3933H51L41.2227 23.153C38.1359 20.4043 34.5182 19.0764 30.2766 19.7867C27.6816 20.2046 25.2906 21.4481 23.4589 23.3326C19.5707 27.2559 18.747 33.2517 21.3876 38.1336C23.9738 42.9146 29.4428 45.4453 34.8674 44.3777C39.6258 43.4413 43.9724 39.2295 44.4307 34.9591H29.57L30.963 33.5504C32.3883 32.1135 33.7026 30.7856 35.0451 29.4879C35.2611 29.2821 35.7315 29.2821 36.0908 29.2821H36.1171C37.6514 29.278 39.1878 29.278 40.7241 29.2821C43.5646 29.2841 46.4051 29.2881 49.2456 29.2518C50.1985 29.2397 50.4771 29.5929 50.5478 30.4546C51.5915 43.2112 39.8136 52.8963 27.7672 49.7278C24.6561 48.9064 21.9731 47.3182 19.6131 45.1305C19.5404 45.1749 19.4717 45.2112 19.4071 45.2455C19.288 45.3061 19.1911 45.3565 19.1366 45.4393C17.7678 47.4453 15.8378 47.8974 13.5444 47.6511C12.5956 47.5502 11.6346 47.5745 10.5787 47.5987C10.0781 47.6108 9.55518 47.6249 9 47.6249C9.1716 47.4312 9.3109 47.2677 9.43405 47.1244C9.64805 46.8742 9.80956 46.6845 9.9852 46.5089L11.0491 45.4373C12.5027 43.9721 13.9563 42.5069 15.4421 41.0781C15.9872 40.5534 16.0437 40.1376 15.7349 39.4414C10.9724 28.6686 17.5478 16.3034 29.1521 14.1905C32.7658 13.5346 36.2887 13.9281 39.638 15.4417C40.4495 15.805 40.9704 15.7444 41.459 15.0502C42.4482 13.6435 43.7847 13.2177 45.4845 13.359C46.6797 13.4599 47.8869 13.4397 49.175 13.4155Z" fill="white"/>
<defs>
<linearGradient id="paint0_linear_145_53" x1="32" y1="0" x2="32" y2="64" gradientUnits="userSpaceOnUse">
<stop stop-color="#6933FF"/>
<stop offset="1" stop-color="#1A85FF"/>
</linearGradient>
</defs>
</svg>
