<svg xmlns="http://www.w3.org/2000/svg" xmlns:xlink="http://www.w3.org/1999/xlink" width="500" zoomAndPan="magnify" viewBox="0 0 375 374.999991" height="500" preserveAspectRatio="xMidYMid meet" version="1.0"><defs><clipPath id="1ac8e7c068"><path d="M 11.066406 18.75 L 364 18.75 L 364 356.25 L 11.066406 356.25 Z M 11.066406 18.75 " clip-rule="nonzero"/></clipPath><clipPath id="c3f43fb532"><path d="M 86.066406 18.75 L 288.933594 18.75 C 330.355469 18.75 363.933594 52.328125 363.933594 93.75 L 363.933594 281.25 C 363.933594 322.671875 330.355469 356.25 288.933594 356.25 L 86.066406 356.25 C 44.644531 356.25 11.066406 322.671875 11.066406 281.25 L 11.066406 93.75 C 11.066406 52.328125 44.644531 18.75 86.066406 18.75 Z M 86.066406 18.75 " clip-rule="nonzero"/></clipPath><clipPath id="7b60438a7e"><path d="M 0.0664062 0.75 L 353 0.75 L 353 338.25 L 0.0664062 338.25 Z M 0.0664062 0.75 " clip-rule="nonzero"/></clipPath><clipPath id="dfb0b50583"><path d="M 75.066406 0.75 L 277.933594 0.75 C 319.355469 0.75 352.933594 34.328125 352.933594 75.75 L 352.933594 263.25 C 352.933594 304.671875 319.355469 338.25 277.933594 338.25 L 75.066406 338.25 C 33.644531 338.25 0.0664062 304.671875 0.0664062 263.25 L 0.0664062 75.75 C 0.0664062 34.328125 33.644531 0.75 75.066406 0.75 Z M 75.066406 0.75 " clip-rule="nonzero"/></clipPath><clipPath id="3105e215fa"><rect x="0" width="353" y="0" height="339"/></clipPath><clipPath id="676bf8c9fe"><path d="M 11.066406 18.753906 L 363.539062 18.753906 L 363.539062 355.972656 L 11.066406 355.972656 Z M 11.066406 18.753906 " clip-rule="nonzero"/></clipPath><clipPath id="b299c8034e"><path d="M 86.0625 18.753906 L 288.914062 18.753906 C 330.332031 18.753906 363.910156 52.332031 363.910156 93.75 L 363.910156 281.238281 C 363.910156 322.65625 330.332031 356.230469 288.914062 356.230469 L 86.0625 356.230469 C 44.644531 356.230469 11.066406 322.65625 11.066406 281.238281 L 11.066406 93.75 C 11.066406 52.332031 44.644531 18.753906 86.0625 18.753906 Z M 86.0625 18.753906 " clip-rule="nonzero"/></clipPath><clipPath id="c52f3cb18f"><path d="M 269 260 L 304 260 L 304 294.046875 L 269 294.046875 Z M 269 260 " clip-rule="nonzero"/></clipPath><clipPath id="16cfde3097"><path d="M 71 80.527344 L 277 80.527344 L 277 268 L 71 268 Z M 71 80.527344 " clip-rule="nonzero"/></clipPath><clipPath id="9150ca4769"><rect x="0" width="375" y="0" height="375"/></clipPath></defs><g transform="matrix(1, 0, 0, 1, 0, 0)"><g clip-path="url(#9150ca4769)"><g clip-path="url(#1ac8e7c068)"><g clip-path="url(#c3f43fb532)"><g transform="matrix(1, 0, 0, 1, 11, 18)"><g clip-path="url(#3105e215fa)"><g clip-path="url(#7b60438a7e)"><g clip-path="url(#dfb0b50583)"><path fill="#9D99B4" d="M 0.0664062 0.75 L 353.386719 0.75 L 353.386719 338.25 L 0.0664062 338.25 Z M 0.0664062 0.75 " fill-opacity="1" fill-rule="nonzero"/></g></g></g></g></g></g><g clip-path="url(#676bf8c9fe)"><g clip-path="url(#b299c8034e)"><path stroke-linecap="butt" transform="matrix(1.694581, 0, 0, 1.694581, 11.066895, 18.754053)" fill="none" stroke-linejoin="miter" d="M 44.256131 -0.0000863685 L 163.962149 -0.0000863685 C 188.403568 -0.0000863685 208.218567 19.814913 208.218567 44.256333 L 208.218567 154.896227 C 208.218567 179.337647 188.403568 199.150341 163.962149 199.150341 L 44.256131 199.150341 C 19.814711 199.150341 -0.000288168 179.337647 -0.000288168 154.896227 L -0.000288168 44.256333 C -0.000288168 19.814913 19.814711 -0.0000863685 44.256131 -0.0000863685 Z M 44.256131 -0.0000863685 " stroke="#9D99B4" stroke-width="11.507266" stroke-opacity="1" stroke-miterlimit="4"/></g></g><g clip-path="url(#c52f3cb18f)"><path fill="#ffffff" d="M 286.945312 294.46875 C 296.355469 294.46875 303.980469 286.84375 303.980469 277.433594 C 303.980469 268.027344 296.355469 260.398438 286.945312 260.398438 C 277.539062 260.398438 269.910156 268.027344 269.910156 277.433594 C 269.910156 286.84375 277.539062 294.46875 286.945312 294.46875 Z M 286.945312 294.46875 " fill-opacity="1" fill-rule="nonzero"/></g><g clip-path="url(#16cfde3097)"><path fill="#ffffff" d="M 141.699219 264.925781 C 125.964844 260.871094 111.425781 252.625 99.65625 241.082031 C 81.804688 223.554688 71.835938 200.121094 71.597656 175.097656 C 71.105469 123.441406 112.734375 81.019531 164.382812 80.527344 C 172.648438 80.449219 180.867188 81.445312 188.808594 83.496094 C 214.6875 90.171875 236.097656 107.378906 248.265625 130.679688 L 215.375 141.824219 C 207.359375 129.386719 194.933594 120.269531 180.234375 116.480469 C 175.179688 115.179688 169.945312 114.535156 164.703125 114.589844 C 131.839844 114.902344 105.34375 141.902344 105.65625 174.769531 C 105.914062 201.707031 124.316406 225.222656 150.398438 231.945312 C 155.425781 233.238281 160.613281 233.871094 165.835938 233.824219 C 175.3125 233.738281 184.34375 231.5 192.667969 227.183594 L 193.027344 226.996094 L 193.363281 226.792969 C 205.070312 219.882812 224.9375 213.414062 242.390625 217.90625 C 249.792969 219.8125 256.421875 223.601562 262.09375 229.171875 L 276.195312 243.015625 L 252.332031 267.324219 L 239.398438 254.632812 C 236.464844 251.753906 232.453125 250.246094 228.34375 250.476562 C 222.46875 250.816406 215.042969 253.667969 210.640625 256.164062 L 209.382812 256.878906 C 196.171875 263.9375 181.222656 267.746094 166.15625 267.886719 C 157.859375 267.96875 149.632812 266.96875 141.707031 264.925781 Z M 141.699219 264.925781 " fill-opacity="1" fill-rule="nonzero"/></g></g></g></svg>
<svg xmlns="http://www.w3.org/2000/svg" xmlns:xlink="http://www.w3.org/1999/xlink" width="500" zoomAndPan="magnify" viewBox="0 0 375 374.999991" height="500" preserveAspectRatio="xMidYMid meet" version="1.0"><defs><clipPath id="c6c66fd5bc"><path d="M 11.066406 18.75 L 364 18.75 L 364 356.25 L 11.066406 356.25 Z M 11.066406 18.75 " clip-rule="nonzero"/></clipPath><clipPath id="f1f3168014"><path d="M 56.066406 18.75 L 318.933594 18.75 C 343.785156 18.75 363.933594 38.898438 363.933594 63.75 L 363.933594 311.25 C 363.933594 336.101562 343.785156 356.25 318.933594 356.25 L 56.066406 356.25 C 31.214844 356.25 11.066406 336.101562 11.066406 311.25 L 11.066406 63.75 C 11.066406 38.898438 31.214844 18.75 56.066406 18.75 Z M 56.066406 18.75 " clip-rule="nonzero"/></clipPath><clipPath id="f03413e77e"><path d="M 0.0664062 0.75 L 353 0.75 L 353 338.25 L 0.0664062 338.25 Z M 0.0664062 0.75 " clip-rule="nonzero"/></clipPath><clipPath id="302c843c5b"><path d="M 45.066406 0.75 L 307.933594 0.75 C 332.785156 0.75 352.933594 20.898438 352.933594 45.75 L 352.933594 293.25 C 352.933594 318.101562 332.785156 338.25 307.933594 338.25 L 45.066406 338.25 C 20.214844 338.25 0.0664062 318.101562 0.0664062 293.25 L 0.0664062 45.75 C 0.0664062 20.898438 20.214844 0.75 45.066406 0.75 Z M 45.066406 0.75 " clip-rule="nonzero"/></clipPath><clipPath id="014423f8c9"><rect x="0" width="353" y="0" height="339"/></clipPath><clipPath id="f28675606b"><path d="M 11.066406 18.753906 L 363.539062 18.753906 L 363.539062 355.972656 L 11.066406 355.972656 Z M 11.066406 18.753906 " clip-rule="nonzero"/></clipPath><clipPath id="592aa147b8"><path d="M 56.0625 18.753906 L 318.914062 18.753906 C 343.765625 18.753906 363.910156 38.898438 363.910156 63.75 L 363.910156 311.234375 C 363.910156 336.085938 343.765625 356.230469 318.914062 356.230469 L 56.0625 356.230469 C 31.210938 356.230469 11.066406 336.085938 11.066406 311.234375 L 11.066406 63.75 C 11.066406 38.898438 31.210938 18.753906 56.0625 18.753906 Z M 56.0625 18.753906 " clip-rule="nonzero"/></clipPath><clipPath id="b4007ab652"><path d="M 269 260 L 304 260 L 304 294.046875 L 269 294.046875 Z M 269 260 " clip-rule="nonzero"/></clipPath><clipPath id="a8ab5f2472"><path d="M 71 80.527344 L 277 80.527344 L 277 268 L 71 268 Z M 71 80.527344 " clip-rule="nonzero"/></clipPath><clipPath id="0d4984946f"><rect x="0" width="375" y="0" height="375"/></clipPath></defs><g transform="matrix(1, 0, 0, 1, 0, 0)"><g clip-path="url(#0d4984946f)"><g clip-path="url(#c6c66fd5bc)"><g clip-path="url(#f1f3168014)"><g transform="matrix(1, 0, 0, 1, 11, 18)"><g clip-path="url(#014423f8c9)"><g clip-path="url(#f03413e77e)"><g clip-path="url(#302c843c5b)"><path fill="#9D99B4" d="M 0.0664062 0.75 L 353.386719 0.75 L 353.386719 338.25 L 0.0664062 338.25 Z M 0.0664062 0.75 " fill-opacity="1" fill-rule="nonzero"/></g></g></g></g></g></g><g clip-path="url(#f28675606b)"><g clip-path="url(#592aa147b8)"><path stroke-linecap="butt" transform="matrix(1.694581, 0, 0, 1.694581, 11.066895, 18.754053)" fill="none" stroke-linejoin="miter" d="M 26.552641 -0.0000863685 L 181.665638 -0.0000863685 C 196.330951 -0.0000863685 208.218567 11.88753 208.218567 26.552843 L 208.218567 172.597412 C 208.218567 187.262724 196.330951 199.150341 181.665638 199.150341 L 26.552641 199.150341 C 11.887328 199.150341 -0.000288168 187.262724 -0.000288168 172.597412 L -0.000288168 26.552843 C -0.000288168 11.88753 11.887328 -0.0000863685 26.552641 -0.0000863685 Z M 26.552641 -0.0000863685 " stroke="#9D99B4" stroke-width="11.507266" stroke-opacity="1" stroke-miterlimit="4"/></g></g><g clip-path="url(#b4007ab652)"><path fill="#ffffff" d="M 286.945312 294.46875 C 296.355469 294.46875 303.980469 286.84375 303.980469 277.433594 C 303.980469 268.027344 296.355469 260.398438 286.945312 260.398438 C 277.539062 260.398438 269.910156 268.027344 269.910156 277.433594 C 269.910156 286.84375 277.539062 294.46875 286.945312 294.46875 Z M 286.945312 294.46875 " fill-opacity="1" fill-rule="nonzero"/></g><g clip-path="url(#a8ab5f2472)"><path fill="#ffffff" d="M 141.699219 264.925781 C 125.964844 260.871094 111.425781 252.625 99.65625 241.082031 C 81.804688 223.554688 71.835938 200.121094 71.597656 175.097656 C 71.105469 123.441406 112.734375 81.019531 164.382812 80.527344 C 172.648438 80.449219 180.867188 81.445312 188.808594 83.496094 C 214.6875 90.171875 236.097656 107.378906 248.265625 130.679688 L 215.375 141.824219 C 207.359375 129.386719 194.933594 120.269531 180.234375 116.480469 C 175.179688 115.179688 169.945312 114.535156 164.703125 114.589844 C 131.839844 114.902344 105.34375 141.902344 105.65625 174.769531 C 105.914062 201.707031 124.316406 225.222656 150.398438 231.945312 C 155.425781 233.238281 160.613281 233.871094 165.835938 233.824219 C 175.3125 233.738281 184.34375 231.5 192.667969 227.183594 L 193.027344 226.996094 L 193.363281 226.792969 C 205.070312 219.882812 224.9375 213.414062 242.390625 217.90625 C 249.792969 219.8125 256.421875 223.601562 262.09375 229.171875 L 276.195312 243.015625 L 252.332031 267.324219 L 239.398438 254.632812 C 236.464844 251.753906 232.453125 250.246094 228.34375 250.476562 C 222.46875 250.816406 215.042969 253.667969 210.640625 256.164062 L 209.382812 256.878906 C 196.171875 263.9375 181.222656 267.746094 166.15625 267.886719 C 157.859375 267.96875 149.632812 266.96875 141.707031 264.925781 Z M 141.699219 264.925781 " fill-opacity="1" fill-rule="nonzero"/></g></g></g></svg>

<svg xmlns="http://www.w3.org/2000/svg" xmlns:xlink="http://www.w3.org/1999/xlink" width="500" zoomAndPan="magnify" viewBox="0 0 375 374.999991" height="500" preserveAspectRatio="xMidYMid meet" version="1.0"><defs><clipPath id="ae4f6b1eb7"><path d="M 37.5 40.03125 L 337.886719 40.03125 L 337.886719 326.96875 L 37.5 326.96875 Z M 37.5 40.03125 " clip-rule="nonzero"/></clipPath><clipPath id="628fa1cd5d"><path d="M 82.5 40.03125 L 292.5 40.03125 C 304.433594 40.03125 315.878906 44.773438 324.320312 53.210938 C 332.757812 61.652344 337.5 73.097656 337.5 85.03125 L 337.5 281.96875 C 337.5 293.902344 332.757812 305.347656 324.320312 313.789062 C 315.878906 322.226562 304.433594 326.96875 292.5 326.96875 L 82.5 326.96875 C 70.566406 326.96875 59.121094 322.226562 50.679688 313.789062 C 42.242188 305.347656 37.5 293.902344 37.5 281.96875 L 37.5 85.03125 C 37.5 73.097656 42.242188 61.652344 50.679688 53.210938 C 59.121094 44.773438 70.566406 40.03125 82.5 40.03125 Z M 82.5 40.03125 " clip-rule="nonzero"/></clipPath><clipPath id="29488a5a45"><path d="M 0.5 0.03125 L 300.679688 0.03125 L 300.679688 286.96875 L 0.5 286.96875 Z M 0.5 0.03125 " clip-rule="nonzero"/></clipPath><clipPath id="af064c0341"><path d="M 45.5 0.03125 L 255.5 0.03125 C 267.433594 0.03125 278.878906 4.773438 287.320312 13.210938 C 295.757812 21.652344 300.5 33.097656 300.5 45.03125 L 300.5 241.96875 C 300.5 253.902344 295.757812 265.347656 287.320312 273.789062 C 278.878906 282.226562 267.433594 286.96875 255.5 286.96875 L 45.5 286.96875 C 33.566406 286.96875 22.121094 282.226562 13.679688 273.789062 C 5.242188 265.347656 0.5 253.902344 0.5 241.96875 L 0.5 45.03125 C 0.5 33.097656 5.242188 21.652344 13.679688 13.210938 C 22.121094 4.773438 33.566406 0.03125 45.5 0.03125 Z M 45.5 0.03125 " clip-rule="nonzero"/></clipPath><clipPath id="89f380e740"><rect x="0" width="301" y="0" height="287"/></clipPath><clipPath id="01408d836c"><path d="M 37.5 40.035156 L 337.164062 40.035156 L 337.164062 326.730469 L 37.5 326.730469 Z M 37.5 40.035156 " clip-rule="nonzero"/></clipPath><clipPath id="39c8877525"><path d="M 82.496094 40.035156 L 292.484375 40.035156 C 304.417969 40.035156 315.863281 44.777344 324.300781 53.214844 C 332.738281 61.652344 337.480469 73.097656 337.480469 85.03125 L 337.480469 281.957031 C 337.480469 293.890625 332.738281 305.335938 324.300781 313.773438 C 315.863281 322.210938 304.417969 326.953125 292.484375 326.953125 L 82.496094 326.953125 C 70.5625 326.953125 59.117188 322.210938 50.679688 313.773438 C 42.242188 305.335938 37.5 293.890625 37.5 281.957031 L 37.5 85.03125 C 37.5 73.097656 42.242188 61.652344 50.679688 53.214844 C 59.117188 44.777344 70.5625 40.035156 82.496094 40.035156 Z M 82.496094 40.035156 " clip-rule="nonzero"/></clipPath><clipPath id="ae92c704da"><path d="M 257 245 L 286.875 245 L 286.875 274.082031 L 257 274.082031 Z M 257 245 " clip-rule="nonzero"/></clipPath><clipPath id="48ea642f2a"><path d="M 88.058594 92.554688 L 263 92.554688 L 263 252 L 88.058594 252 Z M 88.058594 92.554688 " clip-rule="nonzero"/></clipPath><clipPath id="4bcd1ecef3"><rect x="0" width="375" y="0" height="371"/></clipPath></defs><g transform="matrix(1, 0, 0, 1, 0, 4)"><g clip-path="url(#4bcd1ecef3)"><g clip-path="url(#ae4f6b1eb7)"><g clip-path="url(#628fa1cd5d)"><g transform="matrix(1, 0, 0, 1, 37, 40)"><g clip-path="url(#89f380e740)"><g clip-path="url(#29488a5a45)"><g clip-path="url(#af064c0341)"><path fill="#9D99B4" d="M 0.5 0.03125 L 300.886719 0.03125 L 300.886719 286.96875 L 0.5 286.96875 Z M 0.5 0.03125 " fill-opacity="1" fill-rule="nonzero"/></g></g></g></g></g></g><g clip-path="url(#01408d836c)"><g clip-path="url(#39c8877525)"><path stroke-linecap="butt" transform="matrix(1.4407, 0, 0, 1.4407, 37.500002, 40.035478)" fill="none" stroke-linejoin="miter" d="M 31.232102 -0.000223432 L 176.986439 -0.000223432 C 185.26963 -0.000223432 193.213902 3.291362 199.07043 9.14789 C 204.926957 15.004418 208.218543 22.948689 208.218543 31.23188 L 208.218543 167.919444 C 208.218543 176.202635 204.926957 184.146907 199.07043 190.003435 C 193.213902 195.859963 185.26963 199.151548 176.986439 199.151548 L 31.232102 199.151548 C 22.948911 199.151548 15.00464 195.859963 9.148112 190.003435 C 3.291584 184.146907 -0.00000141424 176.202635 -0.00000141424 167.919444 L -0.00000141424 31.23188 C -0.00000141424 22.948689 3.291584 15.004418 9.148112 9.14789 C 15.00464 3.291362 22.948911 -0.000223432 31.232102 -0.000223432 Z M 31.232102 -0.000223432 " stroke="#9D99B4" stroke-width="13.535085" stroke-opacity="1" stroke-miterlimit="4"/></g></g><g clip-path="url(#ae92c704da)"><path fill="#ffffff" d="M 272.046875 274.441406 C 280.046875 274.441406 286.53125 267.957031 286.53125 259.960938 C 286.53125 251.960938 280.046875 245.476562 272.046875 245.476562 C 264.046875 245.476562 257.5625 251.960938 257.5625 259.960938 C 257.5625 267.957031 264.046875 274.441406 272.046875 274.441406 Z M 272.046875 274.441406 " fill-opacity="1" fill-rule="nonzero"/></g><g clip-path="url(#48ea642f2a)"><path fill="#ffffff" d="M 148.558594 249.328125 C 135.183594 245.878906 122.824219 238.867188 112.820312 229.054688 C 97.636719 214.15625 89.164062 194.230469 88.960938 172.957031 C 88.542969 129.039062 123.9375 92.972656 167.847656 92.554688 C 174.871094 92.488281 181.859375 93.335938 188.613281 95.078125 C 210.613281 100.753906 228.816406 115.382812 239.164062 135.191406 L 211.199219 144.664062 C 204.382812 134.09375 193.820312 126.339844 181.320312 123.121094 C 177.023438 122.011719 172.578125 121.46875 168.121094 121.511719 C 140.175781 121.777344 117.652344 144.734375 117.917969 172.675781 C 118.140625 195.578125 133.78125 215.570312 155.957031 221.285156 C 160.230469 222.386719 164.640625 222.921875 169.082031 222.886719 C 177.140625 222.808594 184.816406 220.90625 191.894531 217.238281 L 192.199219 217.078125 L 192.484375 216.90625 C 202.4375 211.03125 219.328125 205.53125 234.167969 209.351562 C 240.457031 210.972656 246.097656 214.191406 250.917969 218.929688 L 262.90625 230.699219 L 242.617188 251.367188 L 231.621094 240.574219 C 229.128906 238.125 225.71875 236.84375 222.222656 237.042969 C 217.230469 237.332031 210.917969 239.753906 207.171875 241.878906 L 206.105469 242.484375 C 194.871094 248.484375 182.164062 251.722656 169.355469 251.84375 C 162.300781 251.910156 155.304688 251.0625 148.566406 249.328125 Z M 148.558594 249.328125 " fill-opacity="1" fill-rule="nonzero"/></g></g></g></svg>

