<svg xmlns="http://www.w3.org/2000/svg" xmlns:xlink="http://www.w3.org/1999/xlink" width="500" zoomAndPan="magnify" viewBox="0 0 375 374.999991" height="500" preserveAspectRatio="xMidYMid meet" version="1.0"><defs><clipPath id="1ac8e7c068"><path d="M 11.066406 18.75 L 364 18.75 L 364 356.25 L 11.066406 356.25 Z M 11.066406 18.75 " clip-rule="nonzero"/></clipPath><clipPath id="c3f43fb532"><path d="M 86.066406 18.75 L 288.933594 18.75 C 330.355469 18.75 363.933594 52.328125 363.933594 93.75 L 363.933594 281.25 C 363.933594 322.671875 330.355469 356.25 288.933594 356.25 L 86.066406 356.25 C 44.644531 356.25 11.066406 322.671875 11.066406 281.25 L 11.066406 93.75 C 11.066406 52.328125 44.644531 18.75 86.066406 18.75 Z M 86.066406 18.75 " clip-rule="nonzero"/></clipPath><clipPath id="7b60438a7e"><path d="M 0.0664062 0.75 L 353 0.75 L 353 338.25 L 0.0664062 338.25 Z M 0.0664062 0.75 " clip-rule="nonzero"/></clipPath><clipPath id="dfb0b50583"><path d="M 75.066406 0.75 L 277.933594 0.75 C 319.355469 0.75 352.933594 34.328125 352.933594 75.75 L 352.933594 263.25 C 352.933594 304.671875 319.355469 338.25 277.933594 338.25 L 75.066406 338.25 C 33.644531 338.25 0.0664062 304.671875 0.0664062 263.25 L 0.0664062 75.75 C 0.0664062 34.328125 33.644531 0.75 75.066406 0.75 Z M 75.066406 0.75 " clip-rule="nonzero"/></clipPath><clipPath id="3105e215fa"><rect x="0" width="353" y="0" height="339"/></clipPath><clipPath id="676bf8c9fe"><path d="M 11.066406 18.753906 L 363.539062 18.753906 L 363.539062 355.972656 L 11.066406 355.972656 Z M 11.066406 18.753906 " clip-rule="nonzero"/></clipPath><clipPath id="b299c8034e"><path d="M 86.0625 18.753906 L 288.914062 18.753906 C 330.332031 18.753906 363.910156 52.332031 363.910156 93.75 L 363.910156 281.238281 C 363.910156 322.65625 330.332031 356.230469 288.914062 356.230469 L 86.0625 356.230469 C 44.644531 356.230469 11.066406 322.65625 11.066406 281.238281 L 11.066406 93.75 C 11.066406 52.332031 44.644531 18.753906 86.0625 18.753906 Z M 86.0625 18.753906 " clip-rule="nonzero"/></clipPath><clipPath id="c52f3cb18f"><path d="M 269 260 L 304 260 L 304 294.046875 L 269 294.046875 Z M 269 260 " clip-rule="nonzero"/></clipPath><clipPath id="16cfde3097"><path d="M 71 80.527344 L 277 80.527344 L 277 268 L 71 268 Z M 71 80.527344 " clip-rule="nonzero"/></clipPath><clipPath id="9150ca4769"><rect x="0" width="375" y="0" height="375"/></clipPath></defs><g transform="matrix(1, 0, 0, 1, 0, 0)"><g clip-path="url(#9150ca4769)"><g clip-path="url(#1ac8e7c068)"><g clip-path="url(#c3f43fb532)"><g transform="matrix(1, 0, 0, 1, 11, 18)"><g clip-path="url(#3105e215fa)"><g clip-path="url(#7b60438a7e)"><g clip-path="url(#dfb0b50583)"><path fill="#3d0c6d" d="M 0.0664062 0.75 L 353.386719 0.75 L 353.386719 338.25 L 0.0664062 338.25 Z M 0.0664062 0.75 " fill-opacity="1" fill-rule="nonzero"/></g></g></g></g></g></g><g clip-path="url(#676bf8c9fe)"><g clip-path="url(#b299c8034e)"><path stroke-linecap="butt" transform="matrix(1.694581, 0, 0, 1.694581, 11.066895, 18.754053)" fill="none" stroke-linejoin="miter" d="M 44.256131 -0.0000863685 L 163.962149 -0.0000863685 C 188.403568 -0.0000863685 208.218567 19.814913 208.218567 44.256333 L 208.218567 154.896227 C 208.218567 179.337647 188.403568 199.150341 163.962149 199.150341 L 44.256131 199.150341 C 19.814711 199.150341 -0.000288168 179.337647 -0.000288168 154.896227 L -0.000288168 44.256333 C -0.000288168 19.814913 19.814711 -0.0000863685 44.256131 -0.0000863685 Z M 44.256131 -0.0000863685 " stroke="#3d0c6d" stroke-width="11.507266" stroke-opacity="1" stroke-miterlimit="4"/></g></g><g clip-path="url(#c52f3cb18f)"><path fill="#ffffff" d="M 286.945312 294.46875 C 296.355469 294.46875 303.980469 286.84375 303.980469 277.433594 C 303.980469 268.027344 296.355469 260.398438 286.945312 260.398438 C 277.539062 260.398438 269.910156 268.027344 269.910156 277.433594 C 269.910156 286.84375 277.539062 294.46875 286.945312 294.46875 Z M 286.945312 294.46875 " fill-opacity="1" fill-rule="nonzero"/></g><g clip-path="url(#16cfde3097)"><path fill="#ffffff" d="M 141.699219 264.925781 C 125.964844 260.871094 111.425781 252.625 99.65625 241.082031 C 81.804688 223.554688 71.835938 200.121094 71.597656 175.097656 C 71.105469 123.441406 112.734375 81.019531 164.382812 80.527344 C 172.648438 80.449219 180.867188 81.445312 188.808594 83.496094 C 214.6875 90.171875 236.097656 107.378906 248.265625 130.679688 L 215.375 141.824219 C 207.359375 129.386719 194.933594 120.269531 180.234375 116.480469 C 175.179688 115.179688 169.945312 114.535156 164.703125 114.589844 C 131.839844 114.902344 105.34375 141.902344 105.65625 174.769531 C 105.914062 201.707031 124.316406 225.222656 150.398438 231.945312 C 155.425781 233.238281 160.613281 233.871094 165.835938 233.824219 C 175.3125 233.738281 184.34375 231.5 192.667969 227.183594 L 193.027344 226.996094 L 193.363281 226.792969 C 205.070312 219.882812 224.9375 213.414062 242.390625 217.90625 C 249.792969 219.8125 256.421875 223.601562 262.09375 229.171875 L 276.195312 243.015625 L 252.332031 267.324219 L 239.398438 254.632812 C 236.464844 251.753906 232.453125 250.246094 228.34375 250.476562 C 222.46875 250.816406 215.042969 253.667969 210.640625 256.164062 L 209.382812 256.878906 C 196.171875 263.9375 181.222656 267.746094 166.15625 267.886719 C 157.859375 267.96875 149.632812 266.96875 141.707031 264.925781 Z M 141.699219 264.925781 " fill-opacity="1" fill-rule="nonzero"/></g></g></g></svg>