<svg xmlns="http://www.w3.org/2000/svg" xmlns:xlink="http://www.w3.org/1999/xlink" width="500" zoomAndPan="magnify" viewBox="0 0 375 374.999991" height="500" preserveAspectRatio="xMidYMid meet" version="1.0"><defs><clipPath id="ae4f6b1eb7"><path d="M 37.5 40.03125 L 337.886719 40.03125 L 337.886719 326.96875 L 37.5 326.96875 Z M 37.5 40.03125 " clip-rule="nonzero"/></clipPath><clipPath id="628fa1cd5d"><path d="M 82.5 40.03125 L 292.5 40.03125 C 304.433594 40.03125 315.878906 44.773438 324.320312 53.210938 C 332.757812 61.652344 337.5 73.097656 337.5 85.03125 L 337.5 281.96875 C 337.5 293.902344 332.757812 305.347656 324.320312 313.789062 C 315.878906 322.226562 304.433594 326.96875 292.5 326.96875 L 82.5 326.96875 C 70.566406 326.96875 59.121094 322.226562 50.679688 313.789062 C 42.242188 305.347656 37.5 293.902344 37.5 281.96875 L 37.5 85.03125 C 37.5 73.097656 42.242188 61.652344 50.679688 53.210938 C 59.121094 44.773438 70.566406 40.03125 82.5 40.03125 Z M 82.5 40.03125 " clip-rule="nonzero"/></clipPath><clipPath id="29488a5a45"><path d="M 0.5 0.03125 L 300.679688 0.03125 L 300.679688 286.96875 L 0.5 286.96875 Z M 0.5 0.03125 " clip-rule="nonzero"/></clipPath><clipPath id="af064c0341"><path d="M 45.5 0.03125 L 255.5 0.03125 C 267.433594 0.03125 278.878906 4.773438 287.320312 13.210938 C 295.757812 21.652344 300.5 33.097656 300.5 45.03125 L 300.5 241.96875 C 300.5 253.902344 295.757812 265.347656 287.320312 273.789062 C 278.878906 282.226562 267.433594 286.96875 255.5 286.96875 L 45.5 286.96875 C 33.566406 286.96875 22.121094 282.226562 13.679688 273.789062 C 5.242188 265.347656 0.5 253.902344 0.5 241.96875 L 0.5 45.03125 C 0.5 33.097656 5.242188 21.652344 13.679688 13.210938 C 22.121094 4.773438 33.566406 0.03125 45.5 0.03125 Z M 45.5 0.03125 " clip-rule="nonzero"/></clipPath><clipPath id="89f380e740"><rect x="0" width="301" y="0" height="287"/></clipPath><clipPath id="01408d836c"><path d="M 37.5 40.035156 L 337.164062 40.035156 L 337.164062 326.730469 L 37.5 326.730469 Z M 37.5 40.035156 " clip-rule="nonzero"/></clipPath><clipPath id="39c8877525"><path d="M 82.496094 40.035156 L 292.484375 40.035156 C 304.417969 40.035156 315.863281 44.777344 324.300781 53.214844 C 332.738281 61.652344 337.480469 73.097656 337.480469 85.03125 L 337.480469 281.957031 C 337.480469 293.890625 332.738281 305.335938 324.300781 313.773438 C 315.863281 322.210938 304.417969 326.953125 292.484375 326.953125 L 82.496094 326.953125 C 70.5625 326.953125 59.117188 322.210938 50.679688 313.773438 C 42.242188 305.335938 37.5 293.890625 37.5 281.957031 L 37.5 85.03125 C 37.5 73.097656 42.242188 61.652344 50.679688 53.214844 C 59.117188 44.777344 70.5625 40.035156 82.496094 40.035156 Z M 82.496094 40.035156 " clip-rule="nonzero"/></clipPath><clipPath id="ae92c704da"><path d="M 257 245 L 286.875 245 L 286.875 274.082031 L 257 274.082031 Z M 257 245 " clip-rule="nonzero"/></clipPath><clipPath id="48ea642f2a"><path d="M 88.058594 92.554688 L 263 92.554688 L 263 252 L 88.058594 252 Z M 88.058594 92.554688 " clip-rule="nonzero"/></clipPath><clipPath id="4bcd1ecef3"><rect x="0" width="375" y="0" height="371"/></clipPath></defs><g transform="matrix(1, 0, 0, 1, 0, 4)"><g clip-path="url(#4bcd1ecef3)"><g clip-path="url(#ae4f6b1eb7)"><g clip-path="url(#628fa1cd5d)"><g transform="matrix(1, 0, 0, 1, 37, 40)"><g clip-path="url(#89f380e740)"><g clip-path="url(#29488a5a45)"><g clip-path="url(#af064c0341)"><path fill="#3d0c6d" d="M 0.5 0.03125 L 300.886719 0.03125 L 300.886719 286.96875 L 0.5 286.96875 Z M 0.5 0.03125 " fill-opacity="1" fill-rule="nonzero"/></g></g></g></g></g></g><g clip-path="url(#01408d836c)"><g clip-path="url(#39c8877525)"><path stroke-linecap="butt" transform="matrix(1.4407, 0, 0, 1.4407, 37.500002, 40.035478)" fill="none" stroke-linejoin="miter" d="M 31.232102 -0.000223432 L 176.986439 -0.000223432 C 185.26963 -0.000223432 193.213902 3.291362 199.07043 9.14789 C 204.926957 15.004418 208.218543 22.948689 208.218543 31.23188 L 208.218543 167.919444 C 208.218543 176.202635 204.926957 184.146907 199.07043 190.003435 C 193.213902 195.859963 185.26963 199.151548 176.986439 199.151548 L 31.232102 199.151548 C 22.948911 199.151548 15.00464 195.859963 9.148112 190.003435 C 3.291584 184.146907 -0.00000141424 176.202635 -0.00000141424 167.919444 L -0.00000141424 31.23188 C -0.00000141424 22.948689 3.291584 15.004418 9.148112 9.14789 C 15.00464 3.291362 22.948911 -0.000223432 31.232102 -0.000223432 Z M 31.232102 -0.000223432 " stroke="#3d0c6d" stroke-width="13.535085" stroke-opacity="1" stroke-miterlimit="4"/></g></g><g clip-path="url(#ae92c704da)"><path fill="#ffffff" d="M 272.046875 274.441406 C 280.046875 274.441406 286.53125 267.957031 286.53125 259.960938 C 286.53125 251.960938 280.046875 245.476562 272.046875 245.476562 C 264.046875 245.476562 257.5625 251.960938 257.5625 259.960938 C 257.5625 267.957031 264.046875 274.441406 272.046875 274.441406 Z M 272.046875 274.441406 " fill-opacity="1" fill-rule="nonzero"/></g><g clip-path="url(#48ea642f2a)"><path fill="#ffffff" d="M 148.558594 249.328125 C 135.183594 245.878906 122.824219 238.867188 112.820312 229.054688 C 97.636719 214.15625 89.164062 194.230469 88.960938 172.957031 C 88.542969 129.039062 123.9375 92.972656 167.847656 92.554688 C 174.871094 92.488281 181.859375 93.335938 188.613281 95.078125 C 210.613281 100.753906 228.816406 115.382812 239.164062 135.191406 L 211.199219 144.664062 C 204.382812 134.09375 193.820312 126.339844 181.320312 123.121094 C 177.023438 122.011719 172.578125 121.46875 168.121094 121.511719 C 140.175781 121.777344 117.652344 144.734375 117.917969 172.675781 C 118.140625 195.578125 133.78125 215.570312 155.957031 221.285156 C 160.230469 222.386719 164.640625 222.921875 169.082031 222.886719 C 177.140625 222.808594 184.816406 220.90625 191.894531 217.238281 L 192.199219 217.078125 L 192.484375 216.90625 C 202.4375 211.03125 219.328125 205.53125 234.167969 209.351562 C 240.457031 210.972656 246.097656 214.191406 250.917969 218.929688 L 262.90625 230.699219 L 242.617188 251.367188 L 231.621094 240.574219 C 229.128906 238.125 225.71875 236.84375 222.222656 237.042969 C 217.230469 237.332031 210.917969 239.753906 207.171875 241.878906 L 206.105469 242.484375 C 194.871094 248.484375 182.164062 251.722656 169.355469 251.84375 C 162.300781 251.910156 155.304688 251.0625 148.566406 249.328125 Z M 148.558594 249.328125 " fill-opacity="1" fill-rule="nonzero"/></g></g></g></svg>