<svg width="30" height="31" viewBox="0 0 30 31" fill="none" xmlns="http://www.w3.org/2000/svg">
<rect y="0.5" width="30" height="30" rx="10" fill="#625C89"/>
<path d="M19.1459 7.35196C18.2711 6.51769 17.0852 6 15.7656 6H14.0627C11.1183 6 8.84014 8.58064 9.20535 11.5023L9.28471 12.1372C9.43085 13.3063 9.00379 14.4741 8.13791 15.2731C6.95519 16.3645 6.6266 18.1016 7.32896 19.5496L7.43231 19.7627C8.09608 21.1311 9.48331 22 11.0042 22H19.225C20.5283 22 21.7413 21.3342 22.4411 20.2347C23.4289 18.6826 23.1672 16.6465 21.8192 15.3945L21.7753 15.3538C21.5317 15.1275 21.321 14.8738 21.1459 14.5999M11.1459 22L11.5459 22.6857C13.3459 25.7714 16.9459 25.7714 18.7459 22.6857L19.1459 22" stroke="white" stroke-width="1.5" stroke-linecap="round"/>
<path d="M22.146 11C22.146 12.1046 21.2506 13 20.146 13C19.0414 13 18.146 12.1046 18.146 11C18.146 9.89543 19.0414 9 20.146 9C21.2506 9 22.146 9.89543 22.146 11Z" fill="#FF0404"/>
</svg>
