<svg width="13" height="15" viewBox="0 0 13 15" fill="none" xmlns="http://www.w3.org/2000/svg">
<path d="M8.5 0.666016C8.59205 0.666016 8.66699 0.740961 8.66699 0.833008V2.02148L8.97949 2.04102C9.84531 2.09532 10.4863 2.22382 11.0078 2.52734L11.2236 2.66797C11.4465 2.82992 11.6496 3.01754 11.8281 3.22656L11.998 3.44238C12.2976 3.8547 12.4613 4.33819 12.5518 4.9541L12.5859 5.22656C12.666 5.96586 12.667 6.90453 12.667 8.13574V8.17383C12.667 8.56135 12.6665 8.91989 12.6641 9.25195L12.6475 10.1719C12.6075 11.3385 12.4855 12.1379 12.083 12.7666L11.998 12.8906C11.8361 13.1134 11.6484 13.3157 11.4395 13.4941L11.2236 13.665C10.6572 14.0764 9.95371 14.232 8.95312 14.293L8.50586 14.3135C7.94126 14.3328 7.28208 14.333 6.50684 14.333H6.46973L5.59961 14.332C4.91766 14.3288 4.34092 14.3177 3.84668 14.2793L3.56055 14.2529C2.90543 14.182 2.39098 14.0471 1.95703 13.7852L1.77637 13.665C1.55353 13.5031 1.35036 13.3154 1.17188 13.1064L1.00195 12.8906C0.702286 12.4782 0.538714 11.9941 0.448242 11.3779L0.414062 11.1064C0.333955 10.3671 0.333002 9.42771 0.333008 8.19629V8.13574L0.334961 7.26562C0.338194 6.58409 0.349327 6.0077 0.387695 5.51367L0.414062 5.22656C0.48503 4.57155 0.619937 4.05793 0.881836 3.62402L1.00195 3.44238C1.16385 3.21957 1.35161 3.01733 1.56055 2.83887L1.77637 2.66797C2.33561 2.26176 3.03138 2.10305 4.02051 2.04102L4.33301 2.02148V0.833008C4.33301 0.74096 4.40795 0.666016 4.5 0.666016C4.59205 0.666016 4.66699 0.74096 4.66699 0.833008V2.01172L5.00488 2.00684C5.44775 1.99982 5.94091 2 6.49219 2H6.50781C7.05909 2 7.55225 1.99982 7.99512 2.00684L8.33301 2.01172V0.833008C8.33301 0.740961 8.40795 0.666016 8.5 0.666016ZM11.9512 10.335C11.8153 10.3365 11.7026 10.3391 11.6035 10.3447L11.3379 10.3721C10.0676 10.5733 9.05438 11.5199 8.75586 12.7539L8.70605 13.0039C8.68034 13.1663 8.67209 13.3457 8.66895 13.6172L8.66406 13.9785L9.02441 13.9541C9.83406 13.8983 10.3956 13.7771 10.8428 13.5156L11.0283 13.3945C11.2298 13.2481 11.4128 13.0786 11.5742 12.8896L11.7285 12.6943C12.0749 12.2175 12.2233 11.6166 12.2871 10.6914L12.3125 10.3311L11.9512 10.335ZM3.16699 10.5C3.35094 10.5002 3.5 10.649 3.5 10.833C3.5 11.017 3.35094 11.1658 3.16699 11.166C2.9829 11.166 2.83301 11.0171 2.83301 10.833C2.83301 10.6489 2.9829 10.5 3.16699 10.5ZM6.5 10.5C6.6841 10.5 6.83301 10.6489 6.83301 10.833C6.83301 11.0171 6.68409 11.166 6.5 11.166C6.31591 11.166 6.16699 11.0171 6.16699 10.833C6.16699 10.6489 6.3159 10.5 6.5 10.5ZM3.16699 7.83301C3.35083 7.83318 3.49982 7.98218 3.5 8.16602C3.5 8.35 3.35094 8.49982 3.16699 8.5C2.9829 8.5 2.83301 8.35011 2.83301 8.16602C2.83318 7.98207 2.98301 7.83301 3.16699 7.83301ZM6.5 7.83301C6.68399 7.83301 6.83283 7.98207 6.83301 8.16602C6.83301 8.35011 6.6841 8.5 6.5 8.5C6.3159 8.5 6.16699 8.35011 6.16699 8.16602C6.16717 7.98207 6.31601 7.83301 6.5 7.83301ZM9.83301 7.83301C10.017 7.83301 10.1668 7.98207 10.167 8.16602C10.167 8.35011 10.0171 8.5 9.83301 8.5C9.64906 8.49982 9.5 8.35 9.5 8.16602C9.50018 7.98218 9.64917 7.83318 9.83301 7.83301ZM3.16699 5.16602C3.35094 5.16619 3.5 5.31601 3.5 5.5C3.49982 5.68384 3.35083 5.83283 3.16699 5.83301C2.98301 5.83301 2.83318 5.68395 2.83301 5.5C2.83301 5.3159 2.9829 5.16602 3.16699 5.16602ZM6.5 5.16602C6.68409 5.16602 6.83301 5.31591 6.83301 5.5C6.83283 5.68394 6.68399 5.83301 6.5 5.83301C6.31601 5.83301 6.16717 5.68395 6.16699 5.5C6.16699 5.3159 6.31591 5.16602 6.5 5.16602ZM9.83301 5.16602C10.0171 5.16602 10.167 5.3159 10.167 5.5C10.1668 5.68395 10.017 5.83301 9.83301 5.83301C9.64917 5.83283 9.50018 5.68384 9.5 5.5C9.5 5.31601 9.64906 5.16619 9.83301 5.16602ZM8.33301 2.3457L8.00586 2.33984C7.56288 2.33263 7.06429 2.33301 6.5 2.33301C5.93571 2.33301 5.43712 2.33263 4.99414 2.33984L4.66699 2.3457V2.83301C4.66699 2.92506 4.59205 3 4.5 3C4.40795 3 4.33301 2.92506 4.33301 2.83301V2.35449L3.97754 2.37891C3.16703 2.43465 2.60467 2.55489 2.15723 2.81641L1.97168 2.9375C1.77005 3.084 1.58727 3.25428 1.42578 3.44336L1.27148 3.63867C1.01406 3.99306 0.864057 4.41925 0.77832 5.00293L0.745117 5.2627C0.66677 5.98604 0.666992 6.91279 0.666992 8.16602C0.666992 9.26283 0.667179 10.1099 0.719727 10.7891L0.745117 11.0703C0.813427 11.7007 0.940202 12.1614 1.16797 12.5381L1.27148 12.6943C1.41798 12.896 1.58729 13.0797 1.77637 13.2412L1.97168 13.3945C2.32597 13.6519 2.75251 13.8019 3.33594 13.8877L3.5957 13.9209C4.31914 13.9993 5.24646 14 6.5 14C7.06481 14 7.56354 13.9994 8.00684 13.9922L8.33203 13.9873L8.33496 13.6621C8.33713 13.4266 8.34322 13.2485 8.3584 13.0967L8.37598 12.9521C8.59835 11.5481 9.6449 10.4276 11.0088 10.0977L11.2861 10.043C11.4699 10.0139 11.6821 10.0039 11.9961 10.001L12.3203 9.99805L12.3262 9.67285C12.3334 9.2296 12.333 8.73076 12.333 8.16602C12.333 7.06953 12.3328 6.22301 12.2803 5.54395L12.2549 5.2627C12.1866 4.63235 12.0597 4.17157 11.832 3.79492L11.7285 3.63867C11.5821 3.43709 11.4126 3.25327 11.2236 3.0918L11.0283 2.9375C10.5511 2.5908 9.94891 2.44262 9.02246 2.37891L8.66699 2.35449V2.83301C8.66699 2.92506 8.59205 3 8.5 3C8.40795 3 8.33301 2.92506 8.33301 2.83301V2.3457Z" stroke="#737373" stroke-width="0.666667"/>
</svg>
