<svg width="157" height="148" viewBox="0 0 157 148" fill="none" xmlns="http://www.w3.org/2000/svg">
<rect x="3.88377" y="3.88377" width="149.095" height="140.233" rx="34.2785" fill="white"/>
<rect x="3.88377" y="3.88377" width="149.095" height="140.233" rx="34.2785" stroke="#363062" stroke-width="6.23246"/>
<path d="M126.094 125.42C130.616 125.42 134.282 121.754 134.282 117.231C134.282 112.709 130.616 109.043 126.094 109.043C121.572 109.043 117.906 112.709 117.906 117.231C117.906 121.754 121.572 125.42 126.094 125.42Z" fill="#363062"/>
<path d="M56.2783 111.217C48.7158 109.268 41.7274 105.304 36.0716 99.7555C27.4893 91.3317 22.6989 80.0672 22.5832 68.0399C22.3476 43.21 42.3573 22.819 67.1829 22.5833C71.1549 22.5447 75.1054 23.0246 78.9231 24.0101C91.3617 27.2194 101.654 35.4889 107.502 46.6892L91.6916 52.0451C87.8396 46.0679 81.8667 41.6846 74.8012 39.8636C72.3717 39.238 69.8566 38.9295 67.3372 38.9552C51.5394 39.1052 38.8052 52.0836 38.9552 67.8814C39.0794 80.8298 47.9231 92.1329 60.4602 95.3636C62.8768 95.9849 65.3705 96.2891 67.8814 96.2677C72.436 96.2249 76.7764 95.1494 80.7784 93.0756L80.9498 92.9856L81.1126 92.8871C86.7384 89.5664 96.2891 86.4557 104.679 88.6152C108.235 89.5321 111.423 91.3531 114.148 94.0311L120.926 100.685L109.456 112.37L103.239 106.268C101.829 104.884 99.9011 104.16 97.9259 104.272C95.1022 104.434 91.533 105.806 89.4164 107.005L88.8122 107.348C82.4623 110.742 75.2768 112.571 68.0356 112.64C64.0465 112.678 60.0917 112.198 56.2826 111.217H56.2783Z" fill="#363062"/>
</svg>
