<svg width="17" height="17" viewBox="0 0 17 17" fill="none" xmlns="http://www.w3.org/2000/svg">
<path d="M9.25 5.87952C9.25 5.4653 8.91421 5.12952 8.5 5.12952C8.08579 5.12952 7.75 5.4653 7.75 5.87952H9.25ZM10.75 10.244C11.1642 10.244 11.5 9.90819 11.5 9.49398C11.5 9.07976 11.1642 8.74398 10.75 8.74398V10.244ZM1.29203 1.85185C0.964004 2.10478 0.903132 2.57574 1.15606 2.90376C1.409 3.23178 1.87995 3.29265 2.20797 3.03972L1.29203 1.85185ZM4.08297 1.59394C4.411 1.341 4.47187 0.870047 4.21894 0.542026C3.966 0.214004 3.49505 0.153132 3.16703 0.406064L4.08297 1.59394ZM14.792 3.03972C15.12 3.29265 15.591 3.23178 15.8439 2.90376C16.0969 2.57574 16.036 2.10478 15.708 1.85185L14.792 3.03972ZM13.833 0.406064C13.505 0.153132 13.034 0.214004 12.7811 0.542026C12.5281 0.870047 12.589 1.341 12.917 1.59394L13.833 0.406064ZM7.75 5.87952L7.75 8.36898L9.25 8.36898L9.25 5.87952H7.75ZM15.25 8.77108C15.25 12.3235 12.2542 15.25 8.5 15.25V16.75C13.0301 16.75 16.75 13.2035 16.75 8.77108H15.25ZM8.5 15.25C4.74581 15.25 1.75 12.3235 1.75 8.77108H0.25C0.25 13.2035 3.96991 16.75 8.5 16.75V15.25ZM1.75 8.77108C1.75 5.21866 4.74581 2.29217 8.5 2.29217V0.792169C3.96991 0.792169 0.25 4.33867 0.25 8.77108H1.75ZM8.5 2.29217C12.2542 2.29217 15.25 5.21866 15.25 8.77108H16.75C16.75 4.33867 13.0301 0.792169 8.5 0.792169V2.29217ZM2.20797 3.03972L4.08297 1.59394L3.16703 0.406064L1.29203 1.85185L2.20797 3.03972ZM15.708 1.85185L13.833 0.406064L12.917 1.59394L14.792 3.03972L15.708 1.85185ZM9.625 10.244H10.75V8.74398H9.625V10.244ZM7.75 8.36898C7.75 9.40451 8.58947 10.244 9.625 10.244V8.74398C9.41789 8.74398 9.25 8.57608 9.25 8.36898L7.75 8.36898Z" fill="#363062"/>
</svg>
