<svg width="18" height="24" viewBox="0 0 18 24" fill="none" xmlns="http://www.w3.org/2000/svg">
<path d="M12.1701 21.6444L11.6899 22.2205L12.1701 21.6444ZM11.2313 20.8619L11.7115 20.2858H11.7115L11.2313 20.8619ZM6.76871 20.8619L6.28852 20.2858H6.28852L6.76871 20.8619ZM5.82993 21.6444L6.31013 22.2205H6.31013L5.82993 21.6444ZM14.9996 14.3125L14.2498 14.2998L14.2496 14.307L14.2496 14.3142L14.9996 14.3125ZM15 14.2916L14.4377 13.7953L15 14.2916ZM3.0004 14.2921L3.56267 13.7958L3.0004 14.2921ZM1.75 9C1.75 4.99594 4.99594 1.75 9 1.75V0.25C4.16751 0.25 0.25 4.16751 0.25 9H1.75ZM9 1.75C13.0041 1.75 16.25 4.99594 16.25 9H17.75C17.75 4.16751 13.8325 0.25 9 0.25V1.75ZM14.25 14.8346V20.3787H15.75V14.8346H14.25ZM3.75 20.3787V14.8346H2.25V20.3787H3.75ZM12.6503 21.0683L11.7115 20.2858L10.7511 21.438L11.6899 22.2205L12.6503 21.0683ZM6.28852 20.2858L5.34973 21.0683L6.31013 22.2205L7.24891 21.438L6.28852 20.2858ZM11.7115 20.2858C11.1938 19.8543 10.7533 19.4854 10.3595 19.2324C9.94762 18.9679 9.51415 18.7807 9 18.7807V20.2807C9.12 20.2807 9.26981 20.3153 9.54887 20.4945C9.84595 20.6853 10.204 20.982 10.7511 21.438L11.7115 20.2858ZM7.24891 21.438C7.79599 20.982 8.15405 20.6853 8.45113 20.4945C8.73019 20.3153 8.88 20.2807 9 20.2807V18.7807C8.48585 18.7807 8.05238 18.9679 7.64053 19.2324C7.2467 19.4854 6.80619 19.8543 6.28852 20.2858L7.24891 21.438ZM2.25 20.3787C2.25 21.1346 2.24796 21.7892 2.32055 22.2768C2.39181 22.7554 2.57441 23.3562 3.19277 23.6328L3.80519 22.2635C3.92457 22.3169 3.85768 22.4151 3.8042 22.0559C3.75204 21.7055 3.75 21.1869 3.75 20.3787H2.25ZM5.34973 21.0683C4.7198 21.5933 4.31089 21.9317 4.0001 22.1232C3.67835 22.3215 3.69524 22.2143 3.80519 22.2635L3.19277 23.6328C3.8017 23.9052 4.3734 23.6551 4.78705 23.4002C5.21167 23.1385 5.71874 22.7134 6.31013 22.2205L5.34973 21.0683ZM14.25 20.3787C14.25 21.1869 14.248 21.7055 14.1958 22.0559C14.1423 22.4151 14.0754 22.3169 14.1948 22.2635L14.8072 23.6328C15.4256 23.3562 15.6082 22.7554 15.6795 22.2768C15.752 21.7892 15.75 21.1346 15.75 20.3787H14.25ZM11.6899 22.2205C12.2813 22.7134 12.7883 23.1385 13.2129 23.4002C13.6266 23.6551 14.1983 23.9052 14.8072 23.6328L14.1948 22.2635C14.3048 22.2143 14.3216 22.3215 13.9999 22.1232C13.6891 21.9317 13.2802 21.5933 12.6503 21.0683L11.6899 22.2205ZM15.75 14.8346C15.75 14.6501 15.75 14.4756 15.7496 14.3109L14.2496 14.3142C14.25 14.4769 14.25 14.6497 14.25 14.8346H15.75ZM16.25 9C16.25 10.8392 15.5661 12.5168 14.4377 13.7953L15.5623 14.7879C16.9233 13.2459 17.75 11.2186 17.75 9H16.25ZM14.4377 13.7953C13.1081 15.3017 11.1653 16.25 9 16.25V17.75C11.6135 17.75 13.9601 16.6033 15.5623 14.7879L14.4377 13.7953ZM15.7495 14.3252L15.7499 14.3044L14.2501 14.2789L14.2498 14.2998L15.7495 14.3252ZM3.75 14.8346C3.75 14.642 3.75 14.4625 3.7504 14.2939L2.2504 14.2903C2.25 14.4611 2.25 14.6424 2.25 14.8346H3.75ZM9 16.25C6.83492 16.25 4.89222 15.3019 3.56267 13.7958L2.43813 14.7884C4.04034 16.6035 6.38674 17.75 9 17.75V16.25ZM3.56267 13.7958C2.43402 12.5172 1.75 10.8394 1.75 9H0.25C0.25 11.2188 1.07685 13.2464 2.43813 14.7884L3.56267 13.7958Z" fill="#363062"/>
</svg>
