<svg width="18" height="18" viewBox="0 0 18 18" fill="none" xmlns="http://www.w3.org/2000/svg">
<path d="M12.5556 8.11111V13.4444M9 4.55556V13.4444M5.44444 9.88889V13.4444M9 17C5.6669 17 4.00036 17 2.83207 16.1512C2.45476 15.8771 2.12294 15.5452 1.84881 15.1679C1 13.9996 1 12.3331 1 9C1 5.6669 1 4.00036 1.84881 2.83207C2.12294 2.45476 2.45476 2.12294 2.83207 1.84881C4.00036 1 5.6669 1 9 1C12.3331 1 13.9996 1 15.1679 1.84881C15.5452 2.12294 15.8771 2.45476 16.1512 2.83207C17 4.00036 17 5.6669 17 9C17 12.3331 17 13.9996 16.1512 15.1679C15.8771 15.5452 15.5452 15.8771 15.1679 16.1512C13.9996 17 12.3331 17 9 17Z" stroke="#363062" stroke-width="1.5" stroke-linecap="round"/>
</svg>
