<svg xmlns="http://www.w3.org/2000/svg" fill="none" viewBox="0 0 218 54">
    <g clip-path="url(#a)">
        <rect width="218" height="54" fill="#fafafa" rx="8"/>
        <path fill="#333" fill-rule="evenodd"
              d="M205.2 1H12.8c-2.257 0-3.89 0-5.173.106-1.272.104-2.114.305-2.805.657a7 7 0 0 0-3.059 3.06c-.352.69-.553 1.532-.657 2.804C1 8.911 1 10.543 1 12.8v28.4c0 2.257 0 3.89.106 5.173.104 1.272.305 2.114.657 2.805a7 7 0 0 0 3.06 3.059c.69.352 1.532.553 2.804.657C8.911 53 10.543 53 12.8 53h192.4c2.257 0 3.889 0 5.173-.106 1.272-.104 2.114-.305 2.805-.657a7 7 0 0 0 3.059-3.06c.352-.69.553-1.532.657-2.804.105-1.284.106-2.916.106-5.173V12.8c0-2.257-.001-3.89-.106-5.173-.104-1.272-.305-2.114-.657-2.805a7 7 0 0 0-3.059-3.059c-.691-.352-1.533-.553-2.805-.657C209.089 1 207.457 1 205.2 1ZM.872 4.368C0 6.08 0 8.32 0 12.8v28.4c0 4.48 0 6.72.872 8.432a8 8 0 0 0 3.496 3.496C6.08 54 8.32 54 12.8 54h192.4c4.48 0 6.721 0 8.432-.872a8.002 8.002 0 0 0 3.496-3.496C218 47.92 218 45.68 218 41.2V12.8c0-4.48 0-6.72-.872-8.432a8.001 8.001 0 0 0-3.496-3.496C211.921 0 209.68 0 205.2 0H12.8C8.32 0 6.08 0 4.368.872A8 8 0 0 0 .872 4.368Z"
              clip-rule="evenodd"/>
        <path fill="#49FF87" d="m14.463 34.475 4.177-2.413 4.177 2.413-4.177 2.413-4.177-2.413Z"/>
        <path fill="#33B05D" d="m18.64 17.605 4.178 2.39v14.48l-4.177-2.413V17.605Z"/>
        <path fill="#41E278" d="m18.64 17.605-4.177 2.39v14.48l4.177-2.413V17.605Z"/>
        <path fill="#49FF87" d="m26.994 12.76.002 4.823-4.179 2.411-.001-4.824 4.178-2.41Z"/>
        <path fill="#41E278" d="m39.517 24.812.018-4.813-12.54-7.24.001 4.824 12.52 7.229Z"/>
        <path fill="#33B05D" d="m39.516 24.812-4.159 2.422-12.54-7.24 4.179-2.41 12.52 7.228Z"/>
        <path fill="#49FF87" d="m35.358 27.235-.001 4.824 4.178 2.41.002-4.823-4.179-2.411Z"/>
        <path fill="#33B05D" d="m22.836 39.288 4.159 2.422 12.54-7.24-4.178-2.411-12.521 7.229Z"/>
        <path fill="#41E278" d="m22.837 39.288-.019-4.813 12.54-7.24-.002 4.824-12.52 7.229Z"/>
        <path fill="#1B1B1C"
              d="M200.456 32.936c-1.624 0-2.99-.245-4.098-.736-1.108-.504-1.945-1.253-2.512-2.248-.554-.994-.831-2.24-.831-3.74 0-2.177.636-3.84 1.908-4.985 1.284-1.146 3.128-1.718 5.533-1.718 1.335 0 2.518.207 3.55.623 1.045.403 1.857.994 2.437 1.775.591.78.887 1.731.887 2.852h-3.059c0-.592-.164-1.09-.491-1.492-.315-.416-.762-.73-1.341-.944-.579-.227-1.253-.34-2.021-.34-.894 0-1.655.157-2.285.472a3.263 3.263 0 0 0-1.435 1.36c-.327.591-.491 1.303-.491 2.133v.53c0 .83.164 1.548.491 2.152a3.281 3.281 0 0 0 1.416 1.36c.63.315 1.398.472 2.304.472.819 0 1.517-.1 2.097-.302.591-.214 1.045-.523 1.359-.925.328-.416.491-.92.491-1.511h2.965c0 1.108-.289 2.052-.868 2.832-.567.768-1.366 1.36-2.399 1.776-1.032.403-2.235.604-3.607.604ZM162.918 32.71V19.734h9.273c.944 0 1.719.183 2.323.548a3.448 3.448 0 0 1 1.378 1.473c.303.617.454 1.31.454 2.077a4.29 4.29 0 0 1-.586 2.21c-.39.655-.969 1.17-1.737 1.549l2.682 5.117h-3.475l-2.285-4.589h-4.911v4.59h-3.116Zm3.116-7.026h5.402c.541 0 .963-.164 1.265-.49.315-.328.472-.763.472-1.304 0-.352-.069-.655-.208-.907a1.22 1.22 0 0 0-.585-.566 2.01 2.01 0 0 0-.944-.208h-5.402v3.475ZM178.146 32.71V19.734h9.273c.944 0 1.719.183 2.323.548a3.448 3.448 0 0 1 1.378 1.473c.303.617.454 1.31.454 2.077a4.29 4.29 0 0 1-.586 2.21c-.39.655-.969 1.17-1.737 1.549 0 0-1.155.528-3.078.528h-4.911v4.59h-3.116Zm3.116-7.026h5.402c.541 0 .963-.164 1.265-.49.315-.328.472-.763.472-1.304 0-.352-.069-.655-.208-.907a1.22 1.22 0 0 0-.585-.566 2.01 2.01 0 0 0-.944-.208h-5.402v3.475ZM153.95 32.925c-1.007 0-1.888-.189-2.644-.566a4.101 4.101 0 0 1-1.775-1.719c-.428-.768-.642-1.737-.642-2.908 0-1.196.208-2.172.623-2.927.428-.768 1.014-1.341 1.757-1.719.742-.378 1.592-.566 2.549-.566.491 0 .963.056 1.416.17.466.1.888.258 1.266.472.39.214.724.478 1.001.793h.132v-4.212h2.927v12.969h-2.606V31.15h-.151c-.466.655-1.033 1.114-1.7 1.379a5.694 5.694 0 0 1-2.153.396Zm.812-2.341c.617 0 1.14-.108 1.568-.322a2.34 2.34 0 0 0 .982-.963c.226-.415.34-.912.34-1.492v-.15c0-.441-.063-.832-.189-1.172a2.242 2.242 0 0 0-.567-.887 2.503 2.503 0 0 0-.925-.548 3.814 3.814 0 0 0-1.246-.189c-.605 0-1.121.107-1.549.321a2.276 2.276 0 0 0-.963.926c-.214.402-.321.887-.321 1.454v.32c0 .567.107 1.052.321 1.455.226.403.554.711.982.925.428.214.95.322 1.567.322Z"/>
        <path fill="#1B1B1C"
              d="M136.4 36.195a3.31 3.31 0 0 1-.646-.057 14.485 14.485 0 0 0-.437-.057v-1.026h.741c.329 0 .646-.057.95-.171.304-.114.589-.342.855-.684.266-.33.506-.817.722-1.463l-3.876-9.994h1.444l2.052 5.32c.101.24.209.545.323.912.126.355.253.722.38 1.102.139.367.253.697.342.988h.114c.05-.203.114-.437.19-.703a58.806 58.806 0 0 0 .513-1.615c.088-.253.164-.475.228-.665l1.767-5.339h1.387l-3.42 9.823c-.19.557-.393 1.058-.608 1.501a5.108 5.108 0 0 1-.741 1.14 2.599 2.599 0 0 1-.969.722c-.368.177-.805.266-1.311.266ZM129.754 32.965c-.684 0-1.292-.14-1.824-.418-.519-.279-.956-.703-1.311-1.273h-.133l-.152 1.463h-1.083V19h1.368v5.035h.133c.228-.367.501-.659.817-.874a3.175 3.175 0 0 1 1.045-.494c.38-.101.773-.152 1.178-.152.798 0 1.489.184 2.071.551.596.367 1.052.931 1.368 1.691.317.747.475 1.71.475 2.888 0 1.254-.158 2.274-.475 3.059-.304.773-.753 1.343-1.349 1.71-.582.367-1.292.551-2.128.551Zm-.228-1.197c.558 0 1.039-.12 1.444-.361.418-.24.741-.633.969-1.178.228-.557.342-1.305.342-2.242v-.475c0-.9-.107-1.628-.323-2.185-.202-.557-.519-.963-.95-1.216-.418-.266-.943-.399-1.577-.399-.342 0-.684.057-1.026.171a2.072 2.072 0 0 0-.893.57c-.266.279-.481.671-.646 1.178-.164.507-.247 1.153-.247 1.938v.342c0 .823.095 1.52.285 2.09.203.57.52 1.007.95 1.311.431.304.988.456 1.672.456ZM114.031 32.965c-.823 0-1.533-.184-2.128-.551-.595-.367-1.051-.937-1.368-1.71-.304-.785-.456-1.805-.456-3.059 0-1.178.158-2.14.475-2.888.317-.76.766-1.324 1.349-1.691.595-.367 1.292-.551 2.09-.551.431 0 .836.05 1.216.152.38.101.722.266 1.026.494.304.215.57.507.798.874h.114V19h1.368v13.737h-1.064l-.152-1.463h-.133c-.355.57-.811.994-1.368 1.273a3.825 3.825 0 0 1-1.767.418Zm.228-1.197c.684 0 1.235-.152 1.653-.456.431-.304.741-.741.931-1.311.203-.57.304-1.267.304-2.09v-.342c0-.785-.082-1.431-.247-1.938-.152-.507-.367-.9-.646-1.178a2.072 2.072 0 0 0-.893-.57 3.057 3.057 0 0 0-1.007-.171c-.633 0-1.165.133-1.596.399-.418.253-.735.659-.95 1.216-.203.557-.304 1.286-.304 2.185v.475c0 .937.114 1.685.342 2.242.228.545.545.937.95 1.178.418.24.906.361 1.463.361ZM104.227 32.965c-.95 0-1.755-.184-2.413-.551-.659-.38-1.159-.956-1.501-1.729-.342-.773-.513-1.754-.513-2.945 0-1.203.17-2.185.513-2.945.342-.773.848-1.343 1.52-1.71.671-.38 1.507-.57 2.508-.57.924 0 1.697.184 2.318.551.633.367 1.108.9 1.425 1.596.329.697.494 1.552.494 2.565v.874h-7.353c0 .874.12 1.59.361 2.147.24.557.582.963 1.026 1.216.456.24 1.013.361 1.672.361.481 0 .899-.063 1.254-.19a2.44 2.44 0 0 0 .893-.513c.24-.228.424-.494.551-.798.126-.304.19-.62.19-.95h1.33c0 .494-.095.963-.285 1.406-.178.43-.444.81-.798 1.14-.342.33-.779.589-1.311.779-.532.177-1.159.266-1.881.266Zm-3.002-5.947h5.928c0-.633-.076-1.159-.228-1.577-.14-.43-.336-.773-.589-1.026a2.154 2.154 0 0 0-.912-.57 3.658 3.658 0 0 0-1.159-.171c-.621 0-1.153.12-1.596.361-.444.228-.786.589-1.026 1.083-.228.494-.368 1.127-.418 1.9ZM94.525 32.737v-9.994h1.102l.114 1.672h.133c.088-.304.221-.602.399-.893.177-.291.418-.532.722-.722.304-.19.69-.285 1.159-.285.177 0 .342.019.494.057.152.025.266.05.342.076v1.254h-.59c-.443 0-.823.082-1.14.247a1.976 1.976 0 0 0-.778.665 3.18 3.18 0 0 0-.456 1.007 4.923 4.923 0 0 0-.133 1.159v5.757h-1.368ZM88.103 32.965c-.95 0-1.755-.184-2.413-.551-.66-.38-1.16-.956-1.501-1.729-.342-.773-.513-1.754-.513-2.945 0-1.203.17-2.185.513-2.945.342-.773.848-1.343 1.52-1.71.67-.38 1.507-.57 2.507-.57.925 0 1.698.184 2.319.551.633.367 1.108.9 1.425 1.596.329.697.494 1.552.494 2.565v.874H85.1c0 .874.12 1.59.36 2.147.241.557.583.963 1.026 1.216.457.24 1.014.361 1.672.361.482 0 .9-.063 1.254-.19.368-.127.666-.298.894-.513.24-.228.424-.494.55-.798.127-.304.19-.62.19-.95h1.33c0 .494-.094.963-.284 1.406a3.21 3.21 0 0 1-.799 1.14c-.341.33-.778.589-1.31.779-.532.177-1.16.266-1.881.266ZM85.1 27.018h5.927c0-.633-.076-1.159-.228-1.577-.139-.43-.335-.773-.588-1.026a2.145 2.145 0 0 0-.913-.57 3.655 3.655 0 0 0-1.159-.171c-.62 0-1.152.12-1.596.361-.443.228-.785.589-1.025 1.083-.229.494-.368 1.127-.419 1.9ZM72.918 32.737l-3.04-9.994h1.425l1.596 5.529c.076.253.152.545.228.874.089.317.17.627.247.931.076.291.133.526.17.703h.115c.05-.24.114-.52.19-.836.076-.33.145-.646.209-.95.076-.304.14-.551.19-.741l1.368-5.51h1.5l1.407 5.51c.063.228.127.5.19.817.076.304.146.608.209.912.076.304.133.57.17.798h.115c.05-.215.114-.475.19-.779.088-.304.17-.608.247-.912l.228-.817 1.596-5.529h1.292l-3.021 9.994h-1.35l-1.367-5.358c-.05-.228-.12-.507-.21-.836-.075-.342-.151-.69-.227-1.045a42.45 42.45 0 0 1-.19-.931h-.114c-.05.228-.108.507-.171.836-.064.33-.14.665-.228 1.007-.076.342-.152.671-.228.988l-1.368 5.339h-1.368ZM64.466 32.965c-.963 0-1.786-.184-2.47-.551-.671-.38-1.184-.956-1.539-1.729-.342-.773-.513-1.754-.513-2.945 0-1.203.171-2.185.513-2.945.355-.773.868-1.343 1.54-1.71.683-.38 1.506-.57 2.47-.57.987 0 1.81.19 2.47.57.67.367 1.177.937 1.52 1.71.354.76.531 1.742.531 2.945 0 1.19-.177 2.172-.532 2.945-.342.773-.849 1.349-1.52 1.729-.659.367-1.482.551-2.47.551Zm0-1.159c.671 0 1.235-.133 1.691-.399.456-.266.804-.678 1.045-1.235.24-.57.361-1.305.361-2.204v-.456c0-.9-.12-1.628-.36-2.185-.242-.57-.59-.988-1.046-1.254-.456-.266-1.02-.399-1.69-.399-.672 0-1.236.133-1.692.399-.456.266-.804.684-1.045 1.254-.24.557-.36 1.286-.36 2.185v.456c0 .9.12 1.634.36 2.204.24.557.59.969 1.045 1.235.456.266 1.02.399 1.691.399ZM48.5 32.737V19.703h6.384c.887 0 1.615.171 2.185.513.583.33 1.013.785 1.292 1.368.291.583.437 1.248.437 1.995 0 .773-.165 1.463-.494 2.071a3.613 3.613 0 0 1-1.368 1.425c-.583.33-1.254.494-2.014.494h-4.921v5.168H48.5Zm1.501-6.46h4.807c.735 0 1.33-.234 1.786-.703.456-.481.684-1.14.684-1.976 0-.545-.095-1.007-.285-1.387a1.87 1.87 0 0 0-.817-.893c-.367-.215-.823-.323-1.368-.323h-4.807v5.282Z"/>
    </g>
    <defs>
        <clipPath id="a">
            <rect width="218" height="54" fill="#fff" rx="8"/>
        </clipPath>
    </defs>
</svg>
