<svg width="48" height="48" viewBox="0 0 48 48" fill="none" xmlns="http://www.w3.org/2000/svg">
<rect width="48" height="48" rx="24" fill="#FF9A6C" fill-opacity="0.4"/>
<rect width="48" height="48" rx="24" fill="white" fill-opacity="0.2"/>
<path d="M22.69 17.9832C23.1023 16.6723 24.8977 16.6723 25.31 17.9832C25.4944 18.5694 26.0232 18.9663 26.62 18.9663C27.9543 18.9663 28.5091 20.7301 27.4296 21.5402C26.9468 21.9026 26.7448 22.5448 26.9292 23.131C27.3415 24.4419 25.8891 25.532 24.8096 24.7218C24.3269 24.3595 23.6731 24.3595 23.1904 24.7218C22.1109 25.532 20.6585 24.4419 21.0708 23.131C21.2552 22.5448 21.0532 21.9026 20.5704 21.5402C19.4909 20.7301 20.0457 18.9663 21.38 18.9663C21.9768 18.9663 22.5056 18.5694 22.69 17.9832Z" fill="#FF9A6C" fill-opacity="0.4"/>
<path d="M22.69 17.9832C23.1023 16.6723 24.8977 16.6723 25.31 17.9832C25.4944 18.5694 26.0232 18.9663 26.62 18.9663C27.9543 18.9663 28.5091 20.7301 27.4296 21.5402C26.9468 21.9026 26.7448 22.5448 26.9292 23.131C27.3415 24.4419 25.8891 25.532 24.8096 24.7218C24.3269 24.3595 23.6731 24.3595 23.1904 24.7218C22.1109 25.532 20.6585 24.4419 21.0708 23.131C21.2552 22.5448 21.0532 21.9026 20.5704 21.5402C19.4909 20.7301 20.0457 18.9663 21.38 18.9663C21.9768 18.9663 22.5056 18.5694 22.69 17.9832Z" fill="white" fill-opacity="0.2"/>
<path d="M32 21C32 23.0289 31.2447 24.8814 30 26.2916C28.5341 27.9525 26.3894 29 24 29C21.6108 29 19.4663 27.9527 18.0004 26.2921C16.7554 24.8818 16 23.0291 16 21C16 16.5817 19.5817 13 24 13C28.4183 13 32 16.5817 32 21Z" fill="#FF9A6C" fill-opacity="0.4"/>
<path d="M32 21C32 23.0289 31.2447 24.8814 30 26.2916C28.5341 27.9525 26.3894 29 24 29C21.6108 29 19.4663 27.9527 18.0004 26.2921C16.7554 24.8818 16 23.0291 16 21C16 16.5817 19.5817 13 24 13C28.4183 13 32 16.5817 32 21Z" fill="white" fill-opacity="0.2"/>
<path d="M22.69 17.9832L21.9746 17.7581L22.69 17.9832ZM20.5704 21.5402L21.0206 20.9404L20.5704 21.5402ZM21.0708 23.131L21.7862 23.3561L21.0708 23.131ZM23.1904 24.7218L22.7402 24.122L23.1904 24.7218ZM24.8096 24.7218L25.2598 24.122L24.8096 24.7218ZM26.9292 23.131L26.2138 23.3561L26.9292 23.131ZM27.4296 21.5402L26.9794 20.9404L27.4296 21.5402ZM25.31 17.9832L26.0254 17.7581L25.31 17.9832ZM27.1701 33.6444L26.6899 34.2205L27.1701 33.6444ZM26.2313 32.8619L26.7115 32.2858H26.7115L26.2313 32.8619ZM21.7687 32.8619L21.2885 32.2858H21.2885L21.7687 32.8619ZM20.8299 33.6444L21.3101 34.2205H21.3101L20.8299 33.6444ZM29.9996 26.3125L29.2498 26.2998L29.2496 26.307L29.2496 26.3142L29.9996 26.3125ZM30 26.2916L29.4377 25.7953L30 26.2916ZM18.0004 26.2921L18.5627 25.7958L18.0004 26.2921ZM21.38 19.7163C22.3176 19.7163 23.1268 19.094 23.4055 18.2082L21.9746 17.7581C21.8844 18.0448 21.6359 18.2163 21.38 18.2163V19.7163ZM21.0206 20.9404C20.7693 20.7518 20.697 20.456 20.7855 20.1745C20.8735 19.8947 21.09 19.7163 21.38 19.7163V18.2163C19.271 18.2163 18.5079 20.93 20.1202 22.1401L21.0206 20.9404ZM21.7862 23.3561C22.0637 22.4739 21.764 21.4983 21.0206 20.9404L20.1202 22.1401C20.3424 22.3068 20.4467 22.6157 20.3553 22.906L21.7862 23.3561ZM22.7402 24.122C22.4976 24.304 22.2328 24.2807 22.0214 24.122C21.8064 23.9606 21.6838 23.6818 21.7862 23.3561L20.3553 22.906C20.0455 23.8912 20.4429 24.8128 21.121 25.3217C21.8025 25.8332 22.8037 25.9498 23.6406 25.3217L22.7402 24.122ZM25.2598 24.122C24.5103 23.5594 23.4897 23.5594 22.7402 24.122L23.6406 25.3217C23.8566 25.1595 24.1434 25.1595 24.3594 25.3217L25.2598 24.122ZM26.2138 23.3561C26.3162 23.6818 26.1936 23.9606 25.9786 24.122C25.7672 24.2807 25.5024 24.304 25.2598 24.122L24.3594 25.3217C25.1963 25.9498 26.1975 25.8332 26.879 25.3217C27.5571 24.8128 27.9545 23.8912 27.6447 22.906L26.2138 23.3561ZM26.9794 20.9404C26.236 21.4983 25.9363 22.4739 26.2138 23.3561L27.6447 22.906C27.5533 22.6157 27.6576 22.3068 27.8798 22.1401L26.9794 20.9404ZM26.62 19.7163C26.91 19.7163 27.1265 19.8947 27.2145 20.1745C27.303 20.456 27.2307 20.7518 26.9794 20.9404L27.8798 22.1401C29.4921 20.93 28.729 18.2163 26.62 18.2163V19.7163ZM24.5945 18.2082C24.8732 19.094 25.6824 19.7163 26.62 19.7163V18.2163C26.3641 18.2163 26.1156 18.0448 26.0254 17.7581L24.5945 18.2082ZM26.0254 17.7581C25.3929 15.7473 22.6071 15.7473 21.9746 17.7581L23.4055 18.2082C23.5976 17.5973 24.4024 17.5973 24.5945 18.2082L26.0254 17.7581ZM16.75 21C16.75 16.9959 19.9959 13.75 24 13.75V12.25C19.1675 12.25 15.25 16.1675 15.25 21H16.75ZM24 13.75C28.0041 13.75 31.25 16.9959 31.25 21H32.75C32.75 16.1675 28.8325 12.25 24 12.25V13.75ZM29.25 26.8346V32.3787H30.75V26.8346H29.25ZM18.75 32.3787V26.8346H17.25V32.3787H18.75ZM27.6503 33.0683L26.7115 32.2858L25.7511 33.438L26.6899 34.2205L27.6503 33.0683ZM21.2885 32.2858L20.3497 33.0683L21.3101 34.2205L22.2489 33.438L21.2885 32.2858ZM26.7115 32.2858C26.1938 31.8543 25.7533 31.4854 25.3595 31.2324C24.9476 30.9679 24.5142 30.7807 24 30.7807V32.2807C24.12 32.2807 24.2698 32.3153 24.5489 32.4945C24.846 32.6853 25.204 32.982 25.7511 33.438L26.7115 32.2858ZM22.2489 33.438C22.796 32.982 23.154 32.6853 23.4511 32.4945C23.7302 32.3153 23.88 32.2807 24 32.2807V30.7807C23.4858 30.7807 23.0524 30.9679 22.6405 31.2324C22.2467 31.4854 21.8062 31.8543 21.2885 32.2858L22.2489 33.438ZM17.25 32.3787C17.25 33.1346 17.248 33.7892 17.3205 34.2768C17.3918 34.7554 17.5744 35.3562 18.1928 35.6328L18.8052 34.2635C18.9246 34.3169 18.8577 34.4151 18.8042 34.0559C18.752 33.7055 18.75 33.1869 18.75 32.3787H17.25ZM20.3497 33.0683C19.7198 33.5933 19.3109 33.9317 19.0001 34.1232C18.6784 34.3215 18.6952 34.2143 18.8052 34.2635L18.1928 35.6328C18.8017 35.9052 19.3734 35.6551 19.7871 35.4002C20.2117 35.1385 20.7187 34.7134 21.3101 34.2205L20.3497 33.0683ZM29.25 32.3787C29.25 33.1869 29.248 33.7055 29.1958 34.0559C29.1423 34.4151 29.0754 34.3169 29.1948 34.2635L29.8072 35.6328C30.4256 35.3562 30.6082 34.7554 30.6795 34.2768C30.752 33.7892 30.75 33.1346 30.75 32.3787H29.25ZM26.6899 34.2205C27.2813 34.7134 27.7883 35.1385 28.2129 35.4002C28.6266 35.6551 29.1983 35.9052 29.8072 35.6328L29.1948 34.2635C29.3048 34.2143 29.3216 34.3215 28.9999 34.1232C28.6891 33.9317 28.2802 33.5933 27.6503 33.0683L26.6899 34.2205ZM30.75 26.8346C30.75 26.6501 30.75 26.4756 30.7496 26.3109L29.2496 26.3142C29.25 26.4769 29.25 26.6497 29.25 26.8346H30.75ZM31.25 21C31.25 22.8392 30.5661 24.5168 29.4377 25.7953L30.5623 26.7879C31.9233 25.2459 32.75 23.2186 32.75 21H31.25ZM29.4377 25.7953C28.1081 27.3017 26.1653 28.25 24 28.25V29.75C26.6135 29.75 28.9601 28.6033 30.5623 26.7879L29.4377 25.7953ZM30.7495 26.3252L30.7499 26.3044L29.2501 26.2789L29.2498 26.2998L30.7495 26.3252ZM18.75 26.8346C18.75 26.642 18.75 26.4625 18.7504 26.2939L17.2504 26.2903C17.25 26.4611 17.25 26.6424 17.25 26.8346H18.75ZM24 28.25C21.8349 28.25 19.8922 27.3019 18.5627 25.7958L17.4381 26.7884C19.0403 28.6035 21.3867 29.75 24 29.75V28.25ZM18.5627 25.7958C17.434 24.5172 16.75 22.8394 16.75 21H15.25C15.25 23.2188 16.0769 25.2464 17.4381 26.7884L18.5627 25.7958Z" fill="#FF9A6C"/>
</svg>
