<svg width="25" height="24" viewBox="0 0 25 24" fill="none" xmlns="http://www.w3.org/2000/svg">
<path d="M14.3992 4C15.7325 2.66667 16.3992 2 17.2276 2C18.0561 2 18.7227 2.66667 20.0561 4C21.3894 5.33333 22.0561 6 22.0561 6.82843C22.0561 7.65685 21.3894 8.32352 20.0561 9.65685L14.6843 15.0287C14.193 15.5199 13.9473 15.7656 13.6403 15.9131C13.3334 16.0607 12.9881 16.099 12.2976 16.1758C10.0042 16.4306 8.85748 16.558 8.17777 15.8783C7.49807 15.1986 7.62548 14.0519 7.8803 11.7585C7.95702 11.068 7.99539 10.7227 8.14293 10.4157C8.29048 10.1087 8.53612 9.86308 9.0274 9.3718L14.3992 4Z" fill="#CFCED8"/>
<path d="M4.56107 20.2164L5.00191 19.6096H5.00191L4.56107 20.2164ZM3.45491 19.1102L2.84815 19.5511L2.84815 19.5511L3.45491 19.1102ZM18.4389 20.2164L17.9981 19.6096H17.9981L18.4389 20.2164ZM19.5451 19.1102L18.9383 18.6694L19.5451 19.1102ZM3.45491 5.23238L2.84815 4.79155L2.84815 4.79155L3.45491 5.23238ZM4.56107 4.12623L5.00191 4.73299V4.73299L4.56107 4.12623ZM9.50899 3.92846C9.92317 3.9235 10.2549 3.58371 10.2499 3.16953C10.245 2.75534 9.90519 2.42361 9.49101 2.42857L9.50899 3.92846ZM21.2427 14.1803C21.2477 13.7661 20.916 13.4263 20.5018 13.4214C20.0876 13.4164 19.7478 13.7481 19.7428 14.1623L21.2427 14.1803ZM12.2976 16.1758L12.2147 15.4303L12.2976 16.1758ZM8.17777 15.8783L7.64744 16.4086L7.64744 16.4086L8.17777 15.8783ZM7.8803 11.7585L8.62571 11.8413L7.8803 11.7585ZM9.0274 9.3718L8.49707 8.84147L9.0274 9.3718ZM8.14293 10.4157L7.46696 10.0908L7.46695 10.0908L8.14293 10.4157ZM14.6843 15.0287L15.2146 15.559L14.6843 15.0287ZM13.6403 15.9131L13.9652 16.5891H13.9652L13.6403 15.9131ZM11.5 20.4213C9.60843 20.4213 8.24999 20.4203 7.19804 20.3063C6.16013 20.1939 5.50992 19.9787 5.00191 19.6096L4.12024 20.8232C4.92656 21.409 5.87094 21.6713 7.03648 21.7976C8.18798 21.9223 9.64184 21.9213 11.5 21.9213V20.4213ZM1.75 12.1713C1.75 14.0295 1.74897 15.4833 1.87373 16.6348C2.00001 17.8004 2.26232 18.7448 2.84815 19.5511L4.06168 18.6694C3.69259 18.1614 3.47745 17.5112 3.365 16.4733C3.25103 15.4213 3.25 14.0629 3.25 12.1713H1.75ZM5.00191 19.6096C4.64111 19.3475 4.32382 19.0302 4.06168 18.6694L2.84815 19.5511C3.20281 20.0392 3.63209 20.4685 4.12024 20.8232L5.00191 19.6096ZM11.5 21.9213C13.3582 21.9213 14.812 21.9223 15.9635 21.7976C17.1291 21.6713 18.0734 21.409 18.8798 20.8232L17.9981 19.6096C17.4901 19.9787 16.8399 20.1939 15.802 20.3063C14.75 20.4203 13.3916 20.4213 11.5 20.4213V21.9213ZM18.9383 18.6694C18.6762 19.0302 18.3589 19.3475 17.9981 19.6096L18.8798 20.8232C19.3679 20.4685 19.7972 20.0392 20.1518 19.5511L18.9383 18.6694ZM3.25 12.1713C3.25 10.2797 3.25103 8.9213 3.365 7.86936C3.47745 6.83144 3.69259 6.18123 4.06168 5.67322L2.84815 4.79155C2.26232 5.59787 2.00001 6.54225 1.87373 7.70779C1.74897 8.85929 1.75 10.3132 1.75 12.1713H3.25ZM4.12023 3.51946C3.63209 3.87412 3.20281 4.3034 2.84815 4.79155L4.06168 5.67322C4.32382 5.31242 4.64111 4.99513 5.00191 4.73299L4.12023 3.51946ZM9.49101 2.42857C7.06449 2.45766 5.39894 2.59043 4.12023 3.51946L5.00191 4.73299C5.83627 4.1268 7.00819 3.95844 9.50899 3.92846L9.49101 2.42857ZM19.7428 14.1623C19.7129 16.6631 19.5445 17.835 18.9383 18.6694L20.1518 19.5511C21.0809 18.2724 21.2137 16.6068 21.2427 14.1803L19.7428 14.1623ZM19.5257 9.12652L14.1539 14.4983L15.2146 15.559L20.5864 10.1872L19.5257 9.12652ZM9.55773 9.90213L14.9295 4.53033L13.8689 3.46967L8.49707 8.84147L9.55773 9.90213ZM12.2147 15.4303C11.0448 15.5603 10.2484 15.647 9.65674 15.6279C9.08517 15.6094 8.85441 15.4943 8.7081 15.348L7.64744 16.4086C8.18084 16.942 8.86328 17.103 9.60833 17.1271C10.3333 17.1505 11.257 17.046 12.3804 16.9212L12.2147 15.4303ZM7.13488 11.6757C7.01006 12.7991 6.90557 13.7228 6.92898 14.4477C6.95304 15.1928 7.11405 15.8752 7.64744 16.4086L8.7081 15.348C8.56179 15.2016 8.44665 14.9709 8.4282 14.3993C8.40909 13.8076 8.49571 13.0113 8.62571 11.8413L7.13488 11.6757ZM8.49707 8.84147C8.04195 9.2966 7.68261 9.64213 7.46696 10.0908L8.81891 10.7406C8.89835 10.5753 9.03029 10.4296 9.55773 9.90213L8.49707 8.84147ZM8.62571 11.8413C8.70808 11.1 8.73947 10.9059 8.81891 10.7406L7.46695 10.0908C7.2513 10.5395 7.20596 11.036 7.13488 11.6757L8.62571 11.8413ZM14.1539 14.4983C13.6265 15.0258 13.4807 15.1577 13.3155 15.2372L13.9652 16.5891C14.4139 16.3734 14.7595 16.0141 15.2146 15.559L14.1539 14.4983ZM12.3804 16.9212C13.0201 16.8501 13.5165 16.8048 13.9652 16.5891L13.3155 15.2372C13.1502 15.3166 12.9561 15.348 12.2147 15.4303L12.3804 16.9212ZM19.5257 4.53033C20.2074 5.21199 20.6642 5.67101 20.9598 6.05849C21.2422 6.42866 21.3061 6.64413 21.3061 6.82843H22.8061C22.8061 6.1843 22.5366 5.65222 22.1523 5.14862C21.7813 4.66232 21.2381 4.12134 20.5864 3.46967L19.5257 4.53033ZM20.5864 10.1872C21.2381 9.53551 21.7813 8.99453 22.1523 8.50824C22.5366 8.00463 22.8061 7.47256 22.8061 6.82843H21.3061C21.3061 7.01272 21.2422 7.22819 20.9598 7.59836C20.6642 7.98584 20.2074 8.44486 19.5257 9.12652L20.5864 10.1872ZM20.5864 3.46967C19.9347 2.818 19.3937 2.27476 18.9074 1.90373C18.4038 1.5195 17.8718 1.25 17.2276 1.25V2.75C17.4119 2.75 17.6274 2.81383 17.9976 3.09627C18.3851 3.3919 18.8441 3.84867 19.5257 4.53033L20.5864 3.46967ZM14.9295 4.53033C15.6112 3.84867 16.0702 3.3919 16.4577 3.09627C16.8279 2.81383 17.0433 2.75 17.2276 2.75V1.25C16.5835 1.25 16.0514 1.5195 15.5478 1.90373C15.0615 2.27476 14.5206 2.818 13.8689 3.46967L14.9295 4.53033ZM20.5864 9.12652L14.9295 3.46967L13.8689 4.53033L19.5257 10.1872L20.5864 9.12652Z" fill="#363062"/>
</svg>
