<svg xmlns="http://www.w3.org/2000/svg" xmlns:xlink="http://www.w3.org/1999/xlink" width="500" zoomAndPan="magnify" viewBox="0 0 375 374.999991" height="500" preserveAspectRatio="xMidYMid meet" version="1.0"><defs><clipPath id="12b0303099"><path d="M 37.5 40.03125 L 337.886719 40.03125 L 337.886719 326.96875 L 37.5 326.96875 Z M 37.5 40.03125 " clip-rule="nonzero"/></clipPath><clipPath id="5322b267d8"><path d="M 82.5 40.03125 L 292.5 40.03125 C 304.433594 40.03125 315.878906 44.773438 324.320312 53.210938 C 332.757812 61.652344 337.5 73.097656 337.5 85.03125 L 337.5 281.96875 C 337.5 293.902344 332.757812 305.347656 324.320312 313.789062 C 315.878906 322.226562 304.433594 326.96875 292.5 326.96875 L 82.5 326.96875 C 70.566406 326.96875 59.121094 322.226562 50.679688 313.789062 C 42.242188 305.347656 37.5 293.902344 37.5 281.96875 L 37.5 85.03125 C 37.5 73.097656 42.242188 61.652344 50.679688 53.210938 C 59.121094 44.773438 70.566406 40.03125 82.5 40.03125 Z M 82.5 40.03125 " clip-rule="nonzero"/></clipPath><clipPath id="e395993a9d"><path d="M 0.5 0.03125 L 300.679688 0.03125 L 300.679688 286.96875 L 0.5 286.96875 Z M 0.5 0.03125 " clip-rule="nonzero"/></clipPath><clipPath id="cf65f97f89"><path d="M 45.5 0.03125 L 255.5 0.03125 C 267.433594 0.03125 278.878906 4.773438 287.320312 13.210938 C 295.757812 21.652344 300.5 33.097656 300.5 45.03125 L 300.5 241.96875 C 300.5 253.902344 295.757812 265.347656 287.320312 273.789062 C 278.878906 282.226562 267.433594 286.96875 255.5 286.96875 L 45.5 286.96875 C 33.566406 286.96875 22.121094 282.226562 13.679688 273.789062 C 5.242188 265.347656 0.5 253.902344 0.5 241.96875 L 0.5 45.03125 C 0.5 33.097656 5.242188 21.652344 13.679688 13.210938 C 22.121094 4.773438 33.566406 0.03125 45.5 0.03125 Z M 45.5 0.03125 " clip-rule="nonzero"/></clipPath><clipPath id="c403fd56d5"><rect x="0" width="301" y="0" height="287"/></clipPath><clipPath id="0f1d820482"><path d="M 37.5 40.035156 L 337.164062 40.035156 L 337.164062 326.730469 L 37.5 326.730469 Z M 37.5 40.035156 " clip-rule="nonzero"/></clipPath><clipPath id="6ca64383f3"><path d="M 82.496094 40.035156 L 292.484375 40.035156 C 304.417969 40.035156 315.863281 44.777344 324.300781 53.214844 C 332.738281 61.652344 337.480469 73.097656 337.480469 85.03125 L 337.480469 281.957031 C 337.480469 293.890625 332.738281 305.335938 324.300781 313.773438 C 315.863281 322.210938 304.417969 326.953125 292.484375 326.953125 L 82.496094 326.953125 C 70.5625 326.953125 59.117188 322.210938 50.679688 313.773438 C 42.242188 305.335938 37.5 293.890625 37.5 281.957031 L 37.5 85.03125 C 37.5 73.097656 42.242188 61.652344 50.679688 53.214844 C 59.117188 44.777344 70.5625 40.035156 82.496094 40.035156 Z M 82.496094 40.035156 " clip-rule="nonzero"/></clipPath><linearGradient x1="0.511" gradientTransform="matrix(4.588898, 0, 0, 4.588898, 0, -0.000000000000007105)" y1="43.876001" x2="44.85639" gradientUnits="userSpaceOnUse" y2="-0.470388" id="e602b97fb0"><stop stop-opacity="1" stop-color="rgb(26.290894%, 6.277466%, 26.278687%)" offset="0"/><stop stop-opacity="1" stop-color="rgb(26.51062%, 6.359863%, 26.373291%)" offset="0.00390625"/><stop stop-opacity="1" stop-color="rgb(26.731873%, 6.442261%, 26.467896%)" offset="0.0078125"/><stop stop-opacity="1" stop-color="rgb(26.951599%, 6.524658%, 26.5625%)" offset="0.0117187"/><stop stop-opacity="1" stop-color="rgb(27.172852%, 6.608582%, 26.65863%)" offset="0.015625"/><stop stop-opacity="1" stop-color="rgb(27.392578%, 6.690979%, 26.753235%)" offset="0.0195312"/><stop stop-opacity="1" stop-color="rgb(27.613831%, 6.773376%, 26.847839%)" offset="0.0234375"/><stop stop-opacity="1" stop-color="rgb(27.833557%, 6.855774%, 26.942444%)" offset="0.0273438"/><stop stop-opacity="1" stop-color="rgb(28.05481%, 6.938171%, 27.038574%)" offset="0.03125"/><stop stop-opacity="1" stop-color="rgb(28.274536%, 7.020569%, 27.133179%)" offset="0.0351563"/><stop stop-opacity="1" stop-color="rgb(28.495789%, 7.104492%, 27.227783%)" offset="0.0390625"/><stop stop-opacity="1" stop-color="rgb(28.715515%, 7.18689%, 27.322388%)" offset="0.0429688"/><stop stop-opacity="1" stop-color="rgb(28.935242%, 7.269287%, 27.416992%)" offset="0.046875"/><stop stop-opacity="1" stop-color="rgb(29.154968%, 7.351685%, 27.511597%)" offset="0.0507812"/><stop stop-opacity="1" stop-color="rgb(29.376221%, 7.434082%, 27.607727%)" offset="0.0546875"/><stop stop-opacity="1" stop-color="rgb(29.595947%, 7.516479%, 27.702332%)" offset="0.0585938"/><stop stop-opacity="1" stop-color="rgb(29.8172%, 7.600403%, 27.796936%)" offset="0.0625"/><stop stop-opacity="1" stop-color="rgb(30.036926%, 7.6828%, 27.891541%)" offset="0.0664062"/><stop stop-opacity="1" stop-color="rgb(30.258179%, 7.765198%, 27.987671%)" offset="0.0703125"/><stop stop-opacity="1" stop-color="rgb(30.477905%, 7.847595%, 28.082275%)" offset="0.0742188"/><stop stop-opacity="1" stop-color="rgb(30.699158%, 7.929993%, 28.17688%)" offset="0.078125"/><stop stop-opacity="1" stop-color="rgb(30.918884%, 8.01239%, 28.271484%)" offset="0.0820312"/><stop stop-opacity="1" stop-color="rgb(31.140137%, 8.096313%, 28.366089%)" offset="0.0859375"/><stop stop-opacity="1" stop-color="rgb(31.359863%, 8.178711%, 28.460693%)" offset="0.0898437"/><stop stop-opacity="1" stop-color="rgb(31.581116%, 8.261108%, 28.556824%)" offset="0.09375"/><stop stop-opacity="1" stop-color="rgb(31.800842%, 8.343506%, 28.651428%)" offset="0.0976563"/><stop stop-opacity="1" stop-color="rgb(32.022095%, 8.425903%, 28.746033%)" offset="0.101563"/><stop stop-opacity="1" stop-color="rgb(32.241821%, 8.508301%, 28.840637%)" offset="0.105469"/><stop stop-opacity="1" stop-color="rgb(32.463074%, 8.592224%, 28.936768%)" offset="0.109375"/><stop stop-opacity="1" stop-color="rgb(32.6828%, 8.674622%, 29.031372%)" offset="0.113281"/><stop stop-opacity="1" stop-color="rgb(32.904053%, 8.757019%, 29.125977%)" offset="0.117188"/><stop stop-opacity="1" stop-color="rgb(33.123779%, 8.839417%, 29.220581%)" offset="0.121094"/><stop stop-opacity="1" stop-color="rgb(33.345032%, 8.921814%, 29.315186%)" offset="0.125"/><stop stop-opacity="1" stop-color="rgb(33.564758%, 9.004211%, 29.40979%)" offset="0.128906"/><stop stop-opacity="1" stop-color="rgb(33.786011%, 9.088135%, 29.50592%)" offset="0.132812"/><stop stop-opacity="1" stop-color="rgb(34.005737%, 9.170532%, 29.600525%)" offset="0.136719"/><stop stop-opacity="1" stop-color="rgb(34.225464%, 9.25293%, 29.695129%)" offset="0.140625"/><stop stop-opacity="1" stop-color="rgb(34.44519%, 9.335327%, 29.789734%)" offset="0.144531"/><stop stop-opacity="1" stop-color="rgb(34.666443%, 9.417725%, 29.885864%)" offset="0.148438"/><stop stop-opacity="1" stop-color="rgb(34.886169%, 9.500122%, 29.980469%)" offset="0.152344"/><stop stop-opacity="1" stop-color="rgb(35.107422%, 9.584045%, 30.075073%)" offset="0.15625"/><stop stop-opacity="1" stop-color="rgb(35.327148%, 9.666443%, 30.169678%)" offset="0.160156"/><stop stop-opacity="1" stop-color="rgb(35.548401%, 9.74884%, 30.264282%)" offset="0.164062"/><stop stop-opacity="1" stop-color="rgb(35.768127%, 9.831238%, 30.358887%)" offset="0.167969"/><stop stop-opacity="1" stop-color="rgb(35.98938%, 9.913635%, 30.455017%)" offset="0.171875"/><stop stop-opacity="1" stop-color="rgb(36.209106%, 9.996033%, 30.549622%)" offset="0.175781"/><stop stop-opacity="1" stop-color="rgb(36.430359%, 10.079956%, 30.644226%)" offset="0.179687"/><stop stop-opacity="1" stop-color="rgb(36.650085%, 10.162354%, 30.738831%)" offset="0.183594"/><stop stop-opacity="1" stop-color="rgb(36.871338%, 10.244751%, 30.834961%)" offset="0.1875"/><stop stop-opacity="1" stop-color="rgb(37.091064%, 10.327148%, 30.929565%)" offset="0.191406"/><stop stop-opacity="1" stop-color="rgb(37.312317%, 10.409546%, 31.02417%)" offset="0.195312"/><stop stop-opacity="1" stop-color="rgb(37.532043%, 10.491943%, 31.118774%)" offset="0.199219"/><stop stop-opacity="1" stop-color="rgb(37.753296%, 10.575867%, 31.213379%)" offset="0.203125"/><stop stop-opacity="1" stop-color="rgb(37.973022%, 10.658264%, 31.307983%)" offset="0.207031"/><stop stop-opacity="1" stop-color="rgb(38.194275%, 10.740662%, 31.404114%)" offset="0.210937"/><stop stop-opacity="1" stop-color="rgb(38.414001%, 10.823059%, 31.498718%)" offset="0.214844"/><stop stop-opacity="1" stop-color="rgb(38.635254%, 10.906982%, 31.593323%)" offset="0.21875"/><stop stop-opacity="1" stop-color="rgb(38.85498%, 10.98938%, 31.687927%)" offset="0.222656"/><stop stop-opacity="1" stop-color="rgb(39.074707%, 11.071777%, 31.784058%)" offset="0.226562"/><stop stop-opacity="1" stop-color="rgb(39.294434%, 11.154175%, 31.878662%)" offset="0.230469"/><stop stop-opacity="1" stop-color="rgb(39.515686%, 11.236572%, 31.973267%)" offset="0.234375"/><stop stop-opacity="1" stop-color="rgb(39.735413%, 11.31897%, 32.067871%)" offset="0.238281"/><stop stop-opacity="1" stop-color="rgb(39.956665%, 11.402893%, 32.162476%)" offset="0.242188"/><stop stop-opacity="1" stop-color="rgb(40.176392%, 11.485291%, 32.25708%)" offset="0.246094"/><stop stop-opacity="1" stop-color="rgb(40.397644%, 11.567688%, 32.35321%)" offset="0.25"/><stop stop-opacity="1" stop-color="rgb(40.617371%, 11.650085%, 32.447815%)" offset="0.253906"/><stop stop-opacity="1" stop-color="rgb(40.838623%, 11.732483%, 32.542419%)" offset="0.257813"/><stop stop-opacity="1" stop-color="rgb(41.05835%, 11.81488%, 32.637024%)" offset="0.261719"/><stop stop-opacity="1" stop-color="rgb(41.279602%, 11.898804%, 32.733154%)" offset="0.265625"/><stop stop-opacity="1" stop-color="rgb(41.499329%, 11.981201%, 32.827759%)" offset="0.269531"/><stop stop-opacity="1" stop-color="rgb(41.720581%, 12.063599%, 32.922363%)" offset="0.273438"/><stop stop-opacity="1" stop-color="rgb(41.940308%, 12.145996%, 33.016968%)" offset="0.277344"/><stop stop-opacity="1" stop-color="rgb(42.16156%, 12.228394%, 33.111572%)" offset="0.28125"/><stop stop-opacity="1" stop-color="rgb(42.381287%, 12.310791%, 33.206177%)" offset="0.285156"/><stop stop-opacity="1" stop-color="rgb(42.602539%, 12.394714%, 33.302307%)" offset="0.289063"/><stop stop-opacity="1" stop-color="rgb(42.822266%, 12.477112%, 33.396912%)" offset="0.292969"/><stop stop-opacity="1" stop-color="rgb(43.043518%, 12.559509%, 33.491516%)" offset="0.296875"/><stop stop-opacity="1" stop-color="rgb(43.263245%, 12.641907%, 33.586121%)" offset="0.300781"/><stop stop-opacity="1" stop-color="rgb(43.484497%, 12.724304%, 33.682251%)" offset="0.304688"/><stop stop-opacity="1" stop-color="rgb(43.704224%, 12.806702%, 33.776855%)" offset="0.308594"/><stop stop-opacity="1" stop-color="rgb(43.925476%, 12.890625%, 33.87146%)" offset="0.3125"/><stop stop-opacity="1" stop-color="rgb(44.145203%, 12.973022%, 33.966064%)" offset="0.316406"/><stop stop-opacity="1" stop-color="rgb(44.364929%, 13.05542%, 34.060669%)" offset="0.320313"/><stop stop-opacity="1" stop-color="rgb(44.584656%, 13.137817%, 34.155273%)" offset="0.324219"/><stop stop-opacity="1" stop-color="rgb(44.805908%, 13.220215%, 34.251404%)" offset="0.328125"/><stop stop-opacity="1" stop-color="rgb(45.025635%, 13.302612%, 34.346008%)" offset="0.332031"/><stop stop-opacity="1" stop-color="rgb(45.246887%, 13.386536%, 34.440613%)" offset="0.335938"/><stop stop-opacity="1" stop-color="rgb(45.466614%, 13.468933%, 34.535217%)" offset="0.339844"/><stop stop-opacity="1" stop-color="rgb(45.687866%, 13.551331%, 34.631348%)" offset="0.34375"/><stop stop-opacity="1" stop-color="rgb(45.907593%, 13.633728%, 34.725952%)" offset="0.347656"/><stop stop-opacity="1" stop-color="rgb(46.128845%, 13.716125%, 34.820557%)" offset="0.351562"/><stop stop-opacity="1" stop-color="rgb(46.348572%, 13.798523%, 34.915161%)" offset="0.355469"/><stop stop-opacity="1" stop-color="rgb(46.569824%, 13.882446%, 35.011292%)" offset="0.359375"/><stop stop-opacity="1" stop-color="rgb(46.789551%, 13.964844%, 35.105896%)" offset="0.363281"/><stop stop-opacity="1" stop-color="rgb(47.010803%, 14.047241%, 35.2005%)" offset="0.367188"/><stop stop-opacity="1" stop-color="rgb(47.23053%, 14.129639%, 35.295105%)" offset="0.371094"/><stop stop-opacity="1" stop-color="rgb(47.451782%, 14.212036%, 35.389709%)" offset="0.375"/><stop stop-opacity="1" stop-color="rgb(47.671509%, 14.294434%, 35.484314%)" offset="0.378906"/><stop stop-opacity="1" stop-color="rgb(47.892761%, 14.378357%, 35.580444%)" offset="0.382812"/><stop stop-opacity="1" stop-color="rgb(48.112488%, 14.460754%, 35.675049%)" offset="0.386719"/><stop stop-opacity="1" stop-color="rgb(48.33374%, 14.543152%, 35.769653%)" offset="0.390625"/><stop stop-opacity="1" stop-color="rgb(48.553467%, 14.625549%, 35.864258%)" offset="0.394531"/><stop stop-opacity="1" stop-color="rgb(48.774719%, 14.707947%, 35.960388%)" offset="0.398438"/><stop stop-opacity="1" stop-color="rgb(48.994446%, 14.790344%, 36.054993%)" offset="0.402344"/><stop stop-opacity="1" stop-color="rgb(49.214172%, 14.874268%, 36.149597%)" offset="0.40625"/><stop stop-opacity="1" stop-color="rgb(49.433899%, 14.956665%, 36.244202%)" offset="0.410156"/><stop stop-opacity="1" stop-color="rgb(49.655151%, 15.039062%, 36.338806%)" offset="0.414062"/><stop stop-opacity="1" stop-color="rgb(49.874878%, 15.12146%, 36.433411%)" offset="0.417969"/><stop stop-opacity="1" stop-color="rgb(50.09613%, 15.203857%, 36.529541%)" offset="0.421875"/><stop stop-opacity="1" stop-color="rgb(50.315857%, 15.286255%, 36.624146%)" offset="0.425781"/><stop stop-opacity="1" stop-color="rgb(50.537109%, 15.370178%, 36.71875%)" offset="0.429688"/><stop stop-opacity="1" stop-color="rgb(50.756836%, 15.452576%, 36.813354%)" offset="0.433594"/><stop stop-opacity="1" stop-color="rgb(50.978088%, 15.534973%, 36.909485%)" offset="0.4375"/><stop stop-opacity="1" stop-color="rgb(51.197815%, 15.617371%, 37.004089%)" offset="0.441406"/><stop stop-opacity="1" stop-color="rgb(51.419067%, 15.699768%, 37.098694%)" offset="0.445312"/><stop stop-opacity="1" stop-color="rgb(51.638794%, 15.782166%, 37.193298%)" offset="0.449219"/><stop stop-opacity="1" stop-color="rgb(51.860046%, 15.866089%, 37.287903%)" offset="0.453125"/><stop stop-opacity="1" stop-color="rgb(52.079773%, 15.948486%, 37.382507%)" offset="0.457031"/><stop stop-opacity="1" stop-color="rgb(52.301025%, 16.030884%, 37.478638%)" offset="0.460937"/><stop stop-opacity="1" stop-color="rgb(52.520752%, 16.113281%, 37.573242%)" offset="0.464844"/><stop stop-opacity="1" stop-color="rgb(52.742004%, 16.195679%, 37.667847%)" offset="0.46875"/><stop stop-opacity="1" stop-color="rgb(52.961731%, 16.278076%, 37.762451%)" offset="0.472656"/><stop stop-opacity="1" stop-color="rgb(53.182983%, 16.362%, 37.858582%)" offset="0.476562"/><stop stop-opacity="1" stop-color="rgb(53.40271%, 16.444397%, 37.953186%)" offset="0.480469"/><stop stop-opacity="1" stop-color="rgb(53.623962%, 16.526794%, 38.047791%)" offset="0.484375"/><stop stop-opacity="1" stop-color="rgb(53.843689%, 16.609192%, 38.142395%)" offset="0.488281"/><stop stop-opacity="1" stop-color="rgb(54.064941%, 16.691589%, 38.237%)" offset="0.492187"/><stop stop-opacity="1" stop-color="rgb(54.284668%, 16.773987%, 38.331604%)" offset="0.496094"/><stop stop-opacity="1" stop-color="rgb(54.504395%, 16.85791%, 38.427734%)" offset="0.5"/><stop stop-opacity="1" stop-color="rgb(54.724121%, 16.940308%, 38.522339%)" offset="0.503906"/><stop stop-opacity="1" stop-color="rgb(54.945374%, 17.022705%, 38.616943%)" offset="0.507812"/><stop stop-opacity="1" stop-color="rgb(55.1651%, 17.105103%, 38.711548%)" offset="0.511719"/><stop stop-opacity="1" stop-color="rgb(55.386353%, 17.189026%, 38.807678%)" offset="0.515625"/><stop stop-opacity="1" stop-color="rgb(55.606079%, 17.271423%, 38.902283%)" offset="0.519531"/><stop stop-opacity="1" stop-color="rgb(55.827332%, 17.353821%, 38.996887%)" offset="0.523438"/><stop stop-opacity="1" stop-color="rgb(56.047058%, 17.436218%, 39.091492%)" offset="0.527344"/><stop stop-opacity="1" stop-color="rgb(56.268311%, 17.518616%, 39.186096%)" offset="0.53125"/><stop stop-opacity="1" stop-color="rgb(56.488037%, 17.601013%, 39.280701%)" offset="0.535156"/><stop stop-opacity="1" stop-color="rgb(56.70929%, 17.684937%, 39.376831%)" offset="0.539062"/><stop stop-opacity="1" stop-color="rgb(56.929016%, 17.767334%, 39.471436%)" offset="0.542969"/><stop stop-opacity="1" stop-color="rgb(57.150269%, 17.849731%, 39.56604%)" offset="0.546875"/><stop stop-opacity="1" stop-color="rgb(57.369995%, 17.932129%, 39.660645%)" offset="0.550781"/><stop stop-opacity="1" stop-color="rgb(57.591248%, 18.014526%, 39.756775%)" offset="0.554688"/><stop stop-opacity="1" stop-color="rgb(57.810974%, 18.096924%, 39.851379%)" offset="0.558594"/><stop stop-opacity="1" stop-color="rgb(58.032227%, 18.180847%, 39.945984%)" offset="0.5625"/><stop stop-opacity="1" stop-color="rgb(58.251953%, 18.263245%, 40.040588%)" offset="0.566406"/><stop stop-opacity="1" stop-color="rgb(58.473206%, 18.345642%, 40.135193%)" offset="0.570312"/><stop stop-opacity="1" stop-color="rgb(58.692932%, 18.42804%, 40.229797%)" offset="0.574219"/><stop stop-opacity="1" stop-color="rgb(58.914185%, 18.510437%, 40.325928%)" offset="0.578125"/><stop stop-opacity="1" stop-color="rgb(59.133911%, 18.592834%, 40.420532%)" offset="0.582031"/><stop stop-opacity="1" stop-color="rgb(59.353638%, 18.676758%, 40.515137%)" offset="0.585938"/><stop stop-opacity="1" stop-color="rgb(59.573364%, 18.759155%, 40.609741%)" offset="0.589844"/><stop stop-opacity="1" stop-color="rgb(59.794617%, 18.841553%, 40.705872%)" offset="0.59375"/><stop stop-opacity="1" stop-color="rgb(60.014343%, 18.92395%, 40.800476%)" offset="0.597656"/><stop stop-opacity="1" stop-color="rgb(60.235596%, 19.006348%, 40.895081%)" offset="0.601562"/><stop stop-opacity="1" stop-color="rgb(60.455322%, 19.088745%, 40.989685%)" offset="0.605469"/><stop stop-opacity="1" stop-color="rgb(60.676575%, 19.172668%, 41.08429%)" offset="0.609375"/><stop stop-opacity="1" stop-color="rgb(60.896301%, 19.255066%, 41.178894%)" offset="0.613281"/><stop stop-opacity="1" stop-color="rgb(61.117554%, 19.337463%, 41.275024%)" offset="0.617188"/><stop stop-opacity="1" stop-color="rgb(61.33728%, 19.419861%, 41.369629%)" offset="0.621094"/><stop stop-opacity="1" stop-color="rgb(61.558533%, 19.502258%, 41.464233%)" offset="0.625"/><stop stop-opacity="1" stop-color="rgb(61.778259%, 19.584656%, 41.558838%)" offset="0.628906"/><stop stop-opacity="1" stop-color="rgb(61.999512%, 19.668579%, 41.654968%)" offset="0.632812"/><stop stop-opacity="1" stop-color="rgb(62.219238%, 19.750977%, 41.749573%)" offset="0.636719"/><stop stop-opacity="1" stop-color="rgb(62.440491%, 19.833374%, 41.844177%)" offset="0.640625"/><stop stop-opacity="1" stop-color="rgb(62.660217%, 19.915771%, 41.938782%)" offset="0.644531"/><stop stop-opacity="1" stop-color="rgb(62.88147%, 19.998169%, 42.033386%)" offset="0.648438"/><stop stop-opacity="1" stop-color="rgb(63.101196%, 20.080566%, 42.127991%)" offset="0.652344"/><stop stop-opacity="1" stop-color="rgb(63.322449%, 20.16449%, 42.224121%)" offset="0.65625"/><stop stop-opacity="1" stop-color="rgb(63.542175%, 20.246887%, 42.318726%)" offset="0.660156"/><stop stop-opacity="1" stop-color="rgb(63.763428%, 20.329285%, 42.41333%)" offset="0.664062"/><stop stop-opacity="1" stop-color="rgb(63.983154%, 20.411682%, 42.507935%)" offset="0.667969"/><stop stop-opacity="1" stop-color="rgb(64.204407%, 20.49408%, 42.604065%)" offset="0.671875"/><stop stop-opacity="1" stop-color="rgb(64.424133%, 20.576477%, 42.698669%)" offset="0.675781"/><stop stop-opacity="1" stop-color="rgb(64.64386%, 20.6604%, 42.793274%)" offset="0.679688"/><stop stop-opacity="1" stop-color="rgb(64.863586%, 20.742798%, 42.887878%)" offset="0.683594"/><stop stop-opacity="1" stop-color="rgb(65.084839%, 20.825195%, 42.984009%)" offset="0.6875"/><stop stop-opacity="1" stop-color="rgb(65.304565%, 20.907593%, 43.078613%)" offset="0.691406"/><stop stop-opacity="1" stop-color="rgb(65.525818%, 20.98999%, 43.173218%)" offset="0.695312"/><stop stop-opacity="1" stop-color="rgb(65.745544%, 21.072388%, 43.267822%)" offset="0.699219"/><stop stop-opacity="1" stop-color="rgb(65.966797%, 21.156311%, 43.362427%)" offset="0.703125"/><stop stop-opacity="1" stop-color="rgb(66.186523%, 21.238708%, 43.457031%)" offset="0.707031"/><stop stop-opacity="1" stop-color="rgb(66.407776%, 21.321106%, 43.553162%)" offset="0.710937"/><stop stop-opacity="1" stop-color="rgb(66.627502%, 21.403503%, 43.647766%)" offset="0.714844"/><stop stop-opacity="1" stop-color="rgb(66.848755%, 21.485901%, 43.742371%)" offset="0.71875"/><stop stop-opacity="1" stop-color="rgb(67.068481%, 21.568298%, 43.836975%)" offset="0.722656"/><stop stop-opacity="1" stop-color="rgb(67.289734%, 21.652222%, 43.933105%)" offset="0.726562"/><stop stop-opacity="1" stop-color="rgb(67.50946%, 21.734619%, 44.02771%)" offset="0.730469"/><stop stop-opacity="1" stop-color="rgb(67.730713%, 21.817017%, 44.122314%)" offset="0.734375"/><stop stop-opacity="1" stop-color="rgb(67.950439%, 21.899414%, 44.216919%)" offset="0.738281"/><stop stop-opacity="1" stop-color="rgb(68.171692%, 21.981812%, 44.311523%)" offset="0.742188"/><stop stop-opacity="1" stop-color="rgb(68.391418%, 22.064209%, 44.406128%)" offset="0.746094"/><stop stop-opacity="1" stop-color="rgb(68.612671%, 22.148132%, 44.502258%)" offset="0.75"/><stop stop-opacity="1" stop-color="rgb(68.832397%, 22.23053%, 44.596863%)" offset="0.753906"/><stop stop-opacity="1" stop-color="rgb(69.05365%, 22.312927%, 44.691467%)" offset="0.757812"/><stop stop-opacity="1" stop-color="rgb(69.273376%, 22.395325%, 44.786072%)" offset="0.761719"/><stop stop-opacity="1" stop-color="rgb(69.493103%, 22.477722%, 44.882202%)" offset="0.765625"/><stop stop-opacity="1" stop-color="rgb(69.71283%, 22.56012%, 44.976807%)" offset="0.769531"/><stop stop-opacity="1" stop-color="rgb(69.934082%, 22.644043%, 45.071411%)" offset="0.773438"/><stop stop-opacity="1" stop-color="rgb(70.153809%, 22.72644%, 45.166016%)" offset="0.777344"/><stop stop-opacity="1" stop-color="rgb(70.375061%, 22.808838%, 45.26062%)" offset="0.78125"/><stop stop-opacity="1" stop-color="rgb(70.594788%, 22.891235%, 45.355225%)" offset="0.785156"/><stop stop-opacity="1" stop-color="rgb(70.81604%, 22.975159%, 45.451355%)" offset="0.789063"/><stop stop-opacity="1" stop-color="rgb(71.035767%, 23.057556%, 45.545959%)" offset="0.792969"/><stop stop-opacity="1" stop-color="rgb(71.257019%, 23.139954%, 45.640564%)" offset="0.796875"/><stop stop-opacity="1" stop-color="rgb(71.476746%, 23.222351%, 45.735168%)" offset="0.800781"/><stop stop-opacity="1" stop-color="rgb(71.697998%, 23.304749%, 45.831299%)" offset="0.804688"/><stop stop-opacity="1" stop-color="rgb(71.917725%, 23.387146%, 45.925903%)" offset="0.808594"/><stop stop-opacity="1" stop-color="rgb(72.138977%, 23.471069%, 46.020508%)" offset="0.8125"/><stop stop-opacity="1" stop-color="rgb(72.358704%, 23.553467%, 46.115112%)" offset="0.816406"/><stop stop-opacity="1" stop-color="rgb(72.579956%, 23.635864%, 46.209717%)" offset="0.820313"/><stop stop-opacity="1" stop-color="rgb(72.799683%, 23.718262%, 46.304321%)" offset="0.824219"/><stop stop-opacity="1" stop-color="rgb(73.020935%, 23.800659%, 46.400452%)" offset="0.828125"/><stop stop-opacity="1" stop-color="rgb(73.240662%, 23.883057%, 46.495056%)" offset="0.832031"/><stop stop-opacity="1" stop-color="rgb(73.461914%, 23.96698%, 46.589661%)" offset="0.835938"/><stop stop-opacity="1" stop-color="rgb(73.681641%, 24.049377%, 46.684265%)" offset="0.839844"/><stop stop-opacity="1" stop-color="rgb(73.902893%, 24.131775%, 46.780396%)" offset="0.84375"/><stop stop-opacity="1" stop-color="rgb(74.12262%, 24.214172%, 46.875%)" offset="0.847656"/><stop stop-opacity="1" stop-color="rgb(74.343872%, 24.29657%, 46.969604%)" offset="0.851563"/><stop stop-opacity="1" stop-color="rgb(74.563599%, 24.378967%, 47.064209%)" offset="0.855469"/><stop stop-opacity="1" stop-color="rgb(74.783325%, 24.462891%, 47.158813%)" offset="0.859375"/><stop stop-opacity="1" stop-color="rgb(75.003052%, 24.545288%, 47.253418%)" offset="0.863281"/><stop stop-opacity="1" stop-color="rgb(75.224304%, 24.627686%, 47.349548%)" offset="0.867188"/><stop stop-opacity="1" stop-color="rgb(75.444031%, 24.710083%, 47.444153%)" offset="0.871094"/><stop stop-opacity="1" stop-color="rgb(75.665283%, 24.79248%, 47.538757%)" offset="0.875"/><stop stop-opacity="1" stop-color="rgb(75.88501%, 24.874878%, 47.633362%)" offset="0.878906"/><stop stop-opacity="1" stop-color="rgb(76.106262%, 24.958801%, 47.729492%)" offset="0.882813"/><stop stop-opacity="1" stop-color="rgb(76.325989%, 25.041199%, 47.824097%)" offset="0.886719"/><stop stop-opacity="1" stop-color="rgb(76.547241%, 25.123596%, 47.918701%)" offset="0.890625"/><stop stop-opacity="1" stop-color="rgb(76.766968%, 25.205994%, 48.013306%)" offset="0.894531"/><stop stop-opacity="1" stop-color="rgb(76.98822%, 25.288391%, 48.10791%)" offset="0.898438"/><stop stop-opacity="1" stop-color="rgb(77.207947%, 25.370789%, 48.202515%)" offset="0.902344"/><stop stop-opacity="1" stop-color="rgb(77.429199%, 25.454712%, 48.298645%)" offset="0.90625"/><stop stop-opacity="1" stop-color="rgb(77.648926%, 25.537109%, 48.39325%)" offset="0.910156"/><stop stop-opacity="1" stop-color="rgb(77.870178%, 25.619507%, 48.487854%)" offset="0.914062"/><stop stop-opacity="1" stop-color="rgb(78.089905%, 25.701904%, 48.582458%)" offset="0.917969"/><stop stop-opacity="1" stop-color="rgb(78.311157%, 25.784302%, 48.678589%)" offset="0.921875"/><stop stop-opacity="1" stop-color="rgb(78.530884%, 25.866699%, 48.773193%)" offset="0.925781"/><stop stop-opacity="1" stop-color="rgb(78.752136%, 25.950623%, 48.867798%)" offset="0.929688"/><stop stop-opacity="1" stop-color="rgb(78.971863%, 26.03302%, 48.962402%)" offset="0.933594"/><stop stop-opacity="1" stop-color="rgb(79.193115%, 26.115417%, 49.057007%)" offset="0.9375"/><stop stop-opacity="1" stop-color="rgb(79.412842%, 26.197815%, 49.151611%)" offset="0.941406"/><stop stop-opacity="1" stop-color="rgb(79.632568%, 26.280212%, 49.247742%)" offset="0.945312"/><stop stop-opacity="1" stop-color="rgb(79.852295%, 26.36261%, 49.342346%)" offset="0.949219"/><stop stop-opacity="1" stop-color="rgb(80.073547%, 26.446533%, 49.436951%)" offset="0.953125"/><stop stop-opacity="1" stop-color="rgb(80.293274%, 26.528931%, 49.531555%)" offset="0.957031"/><stop stop-opacity="1" stop-color="rgb(80.514526%, 26.611328%, 49.627686%)" offset="0.960938"/><stop stop-opacity="1" stop-color="rgb(80.734253%, 26.693726%, 49.72229%)" offset="0.964844"/><stop stop-opacity="1" stop-color="rgb(80.955505%, 26.776123%, 49.816895%)" offset="0.96875"/><stop stop-opacity="1" stop-color="rgb(81.175232%, 26.858521%, 49.911499%)" offset="0.972656"/><stop stop-opacity="1" stop-color="rgb(81.396484%, 26.942444%, 50.006104%)" offset="0.976562"/><stop stop-opacity="1" stop-color="rgb(81.616211%, 27.024841%, 50.100708%)" offset="0.980469"/><stop stop-opacity="1" stop-color="rgb(81.837463%, 27.107239%, 50.196838%)" offset="0.984375"/><stop stop-opacity="1" stop-color="rgb(82.05719%, 27.189636%, 50.291443%)" offset="0.988281"/><stop stop-opacity="1" stop-color="rgb(82.278442%, 27.272034%, 50.386047%)" offset="0.992188"/><stop stop-opacity="1" stop-color="rgb(82.498169%, 27.354431%, 50.480652%)" offset="0.996094"/><stop stop-opacity="1" stop-color="rgb(82.719421%, 27.438354%, 50.576782%)" offset="1"/></linearGradient><clipPath id="0773b6178f"><path d="M 257 245 L 286.875 245 L 286.875 274.082031 L 257 274.082031 Z M 257 245 " clip-rule="nonzero"/></clipPath><clipPath id="8d36c37ed6"><path d="M 88.058594 92.554688 L 263 92.554688 L 263 252 L 88.058594 252 Z M 88.058594 92.554688 " clip-rule="nonzero"/></clipPath><clipPath id="3bb6cf2532"><rect x="0" width="375" y="0" height="371"/></clipPath><clipPath id="cd93d3779a"><path d="M 256.125 247.746094 L 287.789062 247.746094 L 287.789062 279.410156 L 256.125 279.410156 Z M 256.125 247.746094 " clip-rule="nonzero"/></clipPath></defs><g transform="matrix(1, 0, 0, 1, 0, 4)"><g clip-path="url(#3bb6cf2532)"><g clip-path="url(#12b0303099)"><g clip-path="url(#5322b267d8)"><g transform="matrix(1, 0, 0, 1, 37, 40)"><g clip-path="url(#c403fd56d5)"><g clip-path="url(#e395993a9d)"><g clip-path="url(#cf65f97f89)"><path fill="#ffffff" d="M 0.5 0.03125 L 300.886719 0.03125 L 300.886719 286.96875 L 0.5 286.96875 Z M 0.5 0.03125 " fill-opacity="1" fill-rule="nonzero"/></g></g></g></g></g></g><g clip-path="url(#0f1d820482)"><g clip-path="url(#6ca64383f3)"><path stroke-linecap="butt" transform="matrix(1.4407, 0, 0, 1.4407, 37.500002, 40.035478)" fill="none" stroke-linejoin="miter" d="M 31.232102 -0.000223432 L 176.986439 -0.000223432 C 185.26963 -0.000223432 193.213902 3.291362 199.07043 9.14789 C 204.926957 15.004418 208.218543 22.948689 208.218543 31.23188 L 208.218543 167.919444 C 208.218543 176.202635 204.926957 184.146907 199.07043 190.003435 C 193.213902 195.859963 185.26963 199.151548 176.986439 199.151548 L 31.232102 199.151548 C 22.948911 199.151548 15.00464 195.859963 9.148112 190.003435 C 3.291584 184.146907 -0.00000141424 176.202635 -0.00000141424 167.919444 L -0.00000141424 31.23188 C -0.00000141424 22.948689 3.291584 15.004418 9.148112 9.14789 C 15.00464 3.291362 22.948911 -0.000223432 31.232102 -0.000223432 Z M 31.232102 -0.000223432 " stroke="url(#e602b97fb0)" stroke-width="13.535085" stroke-miterlimit="4"/></g></g><g clip-path="url(#0773b6178f)"><path fill="#731c60" d="M 272.046875 274.441406 C 280.046875 274.441406 286.53125 267.957031 286.53125 259.960938 C 286.53125 251.960938 280.046875 245.476562 272.046875 245.476562 C 264.046875 245.476562 257.5625 251.960938 257.5625 259.960938 C 257.5625 267.957031 264.046875 274.441406 272.046875 274.441406 Z M 272.046875 274.441406 " fill-opacity="1" fill-rule="nonzero"/></g><g clip-path="url(#8d36c37ed6)"><path fill="#731c60" d="M 148.558594 249.328125 C 135.183594 245.878906 122.824219 238.867188 112.820312 229.054688 C 97.636719 214.15625 89.164062 194.230469 88.960938 172.957031 C 88.542969 129.039062 123.9375 92.972656 167.847656 92.554688 C 174.871094 92.488281 181.859375 93.335938 188.613281 95.078125 C 210.613281 100.753906 228.816406 115.382812 239.164062 135.191406 L 211.199219 144.664062 C 204.382812 134.09375 193.820312 126.339844 181.320312 123.121094 C 177.023438 122.011719 172.578125 121.46875 168.121094 121.511719 C 140.175781 121.777344 117.652344 144.734375 117.917969 172.675781 C 118.140625 195.578125 133.78125 215.570312 155.957031 221.285156 C 160.230469 222.386719 164.640625 222.921875 169.082031 222.886719 C 177.140625 222.808594 184.816406 220.90625 191.894531 217.238281 L 192.199219 217.078125 L 192.484375 216.90625 C 202.4375 211.03125 219.328125 205.53125 234.167969 209.351562 C 240.457031 210.972656 246.097656 214.191406 250.917969 218.929688 L 262.90625 230.699219 L 242.617188 251.367188 L 231.621094 240.574219 C 229.128906 238.125 225.71875 236.84375 222.222656 237.042969 C 217.230469 237.332031 210.917969 239.753906 207.171875 241.878906 L 206.105469 242.484375 C 194.871094 248.484375 182.164062 251.722656 169.355469 251.84375 C 162.300781 251.910156 155.304688 251.0625 148.566406 249.328125 Z M 148.558594 249.328125 " fill-opacity="1" fill-rule="nonzero"/></g></g></g><path fill="#ffffff" d="M 287.875 263.578125 C 287.875 264.097656 287.851562 264.617188 287.800781 265.136719 C 287.75 265.65625 287.671875 266.171875 287.570312 266.683594 C 287.46875 267.195312 287.34375 267.699219 287.191406 268.199219 C 287.039062 268.699219 286.863281 269.1875 286.664062 269.667969 C 286.464844 270.152344 286.242188 270.621094 285.996094 271.082031 C 285.75 271.542969 285.484375 271.988281 285.195312 272.421875 C 284.902344 272.855469 284.59375 273.273438 284.261719 273.675781 C 283.933594 274.082031 283.582031 274.464844 283.214844 274.835938 C 282.84375 275.203125 282.457031 275.554688 282.054688 275.882812 C 281.652344 276.214844 281.234375 276.523438 280.800781 276.816406 C 280.367188 277.105469 279.921875 277.371094 279.460938 277.617188 C 279 277.863281 278.53125 278.085938 278.046875 278.285156 C 277.566406 278.484375 277.074219 278.660156 276.578125 278.8125 C 276.078125 278.964844 275.574219 279.089844 275.0625 279.191406 C 274.550781 279.292969 274.035156 279.371094 273.515625 279.421875 C 272.996094 279.472656 272.476562 279.5 271.957031 279.5 C 271.433594 279.5 270.914062 279.472656 270.394531 279.421875 C 269.875 279.371094 269.359375 279.292969 268.847656 279.191406 C 268.335938 279.089844 267.832031 278.964844 267.332031 278.8125 C 266.835938 278.660156 266.34375 278.484375 265.863281 278.285156 C 265.378906 278.085938 264.910156 277.863281 264.449219 277.617188 C 263.988281 277.371094 263.542969 277.105469 263.109375 276.816406 C 262.675781 276.523438 262.257812 276.214844 261.855469 275.882812 C 261.453125 275.554688 261.066406 275.203125 260.695312 274.835938 C 260.328125 274.464844 259.980469 274.082031 259.648438 273.675781 C 259.316406 273.273438 259.007812 272.855469 258.71875 272.421875 C 258.425781 271.988281 258.160156 271.542969 257.914062 271.082031 C 257.667969 270.621094 257.445312 270.152344 257.246094 269.667969 C 257.046875 269.1875 256.871094 268.699219 256.71875 268.199219 C 256.566406 267.699219 256.441406 267.195312 256.339844 266.683594 C 256.238281 266.171875 256.160156 265.65625 256.109375 265.136719 C 256.058594 264.617188 256.035156 264.097656 256.035156 263.578125 C 256.035156 263.054688 256.058594 262.535156 256.109375 262.015625 C 256.160156 261.496094 256.238281 260.980469 256.339844 260.46875 C 256.441406 259.960938 256.566406 259.453125 256.71875 258.953125 C 256.871094 258.457031 257.046875 257.964844 257.246094 257.484375 C 257.445312 257.003906 257.667969 256.53125 257.914062 256.070312 C 258.160156 255.613281 258.425781 255.164062 258.71875 254.730469 C 259.007812 254.296875 259.316406 253.878906 259.648438 253.476562 C 259.980469 253.074219 260.328125 252.6875 260.695312 252.320312 C 261.066406 251.949219 261.453125 251.601562 261.855469 251.269531 C 262.257812 250.9375 262.675781 250.628906 263.109375 250.339844 C 263.542969 250.046875 263.988281 249.78125 264.449219 249.535156 C 264.910156 249.289062 265.378906 249.066406 265.863281 248.867188 C 266.34375 248.667969 266.835938 248.492188 267.332031 248.339844 C 267.832031 248.1875 268.335938 248.0625 268.847656 247.960938 C 269.359375 247.859375 269.875 247.78125 270.394531 247.730469 C 270.914062 247.679688 271.433594 247.65625 271.957031 247.65625 C 272.476562 247.65625 272.996094 247.679688 273.515625 247.730469 C 274.035156 247.78125 274.550781 247.859375 275.0625 247.960938 C 275.574219 248.0625 276.078125 248.1875 276.578125 248.339844 C 277.074219 248.492188 277.566406 248.667969 278.046875 248.867188 C 278.53125 249.066406 279 249.289062 279.460938 249.535156 C 279.921875 249.78125 280.367188 250.046875 280.800781 250.339844 C 281.234375 250.628906 281.652344 250.9375 282.054688 251.269531 C 282.457031 251.601562 282.84375 251.949219 283.214844 252.320312 C 283.582031 252.6875 283.933594 253.074219 284.261719 253.476562 C 284.59375 253.878906 284.902344 254.296875 285.195312 254.730469 C 285.484375 255.164062 285.75 255.613281 285.996094 256.070312 C 286.242188 256.53125 286.464844 257.003906 286.664062 257.484375 C 286.863281 257.964844 287.039062 258.457031 287.191406 258.953125 C 287.34375 259.453125 287.46875 259.960938 287.570312 260.46875 C 287.671875 260.980469 287.75 261.496094 287.800781 262.015625 C 287.851562 262.535156 287.875 263.054688 287.875 263.578125 Z M 287.875 263.578125 " fill-opacity="1" fill-rule="nonzero"/><g clip-path="url(#cd93d3779a)"><path fill="#731c60" d="M 287.789062 263.578125 C 287.789062 254.832031 280.699219 247.746094 271.957031 247.746094 C 263.214844 247.746094 256.125 254.832031 256.125 263.578125 C 256.125 272.320312 263.214844 279.410156 271.957031 279.410156 C 280.699219 279.410156 287.789062 272.320312 287.789062 263.578125 M 279.855469 256.078125 L 276.648438 259.285156 C 276.648438 259.28125 276.648438 259.28125 276.648438 259.28125 L 275.816406 260.117188 C 275.515625 259.816406 275.179688 259.554688 274.816406 259.335938 C 274.449219 259.117188 274.066406 258.945312 273.65625 258.824219 C 273.25 258.699219 272.832031 258.625 272.40625 258.605469 C 271.984375 258.585938 271.5625 258.617188 271.144531 258.699219 C 270.726562 258.78125 270.324219 258.914062 269.941406 259.097656 C 269.554688 259.277344 269.199219 259.503906 268.871094 259.773438 C 268.539062 260.046875 268.25 260.351562 267.996094 260.691406 C 267.742188 261.035156 267.53125 261.402344 267.371094 261.796875 C 267.207031 262.1875 267.09375 262.597656 267.03125 263.019531 C 266.96875 263.4375 266.960938 263.863281 267 264.285156 C 267.042969 264.707031 267.136719 265.121094 267.277344 265.523438 C 267.421875 265.921875 267.613281 266.300781 267.847656 266.65625 C 268.085938 267.007812 268.359375 267.328125 268.675781 267.613281 C 268.992188 267.898438 269.335938 268.144531 269.714844 268.34375 C 270.089844 268.546875 270.484375 268.695312 270.894531 268.800781 C 271.308594 268.902344 271.726562 268.957031 272.152344 268.957031 C 272.738281 268.953125 273.308594 268.859375 273.863281 268.664062 C 274.414062 268.46875 274.921875 268.191406 275.378906 267.824219 C 275.835938 267.460938 276.222656 267.03125 276.535156 266.535156 C 276.847656 266.039062 277.070312 265.503906 277.203125 264.933594 L 270.996094 264.933594 L 273.308594 262.621094 L 279.554688 262.621094 C 279.613281 263.003906 279.644531 263.390625 279.644531 263.777344 C 279.644531 267.910156 276.285156 271.269531 272.152344 271.269531 C 271.160156 271.269531 270.207031 271.078125 269.289062 270.699219 C 268.371094 270.320312 267.5625 269.777344 266.859375 269.074219 L 265.769531 270.164062 L 262.496094 270.164062 L 265.480469 267.179688 C 264.933594 266.113281 264.660156 264.976562 264.664062 263.777344 C 264.664062 259.648438 268.023438 256.285156 272.152344 256.285156 C 273.355469 256.285156 274.492188 256.554688 275.558594 257.101562 L 276.585938 256.078125 Z M 279.855469 256.078125 " fill-opacity="1" fill-rule="nonzero"/></g></svg>