<svg width="170" height="171" viewBox="0 0 170 171" fill="none" xmlns="http://www.w3.org/2000/svg">
<path d="M43.0844 0.986328H10.4175V35.0382H43.0844V0.986328Z" fill="#E0E0E0"/>
<path d="M40.8724 0.986328H8.20557V35.0382H40.8724V0.986328Z" fill="#EBEBEB"/>
<path d="M36.4828 5.56445H12.5991V30.4599H36.4828V5.56445Z" fill="#FAFAFA"/>
<path d="M12.5987 30.6255C12.423 30.8764 12.2233 31.1096 12.0024 31.3218C11.6177 31.7066 11.0791 32.2644 10.4635 32.8607C9.84795 33.4571 9.30934 33.9841 8.92461 34.3573C8.71652 34.5732 8.48853 34.769 8.24365 34.9421C8.41249 34.6904 8.60719 34.457 8.82458 34.2457C9.20931 33.861 9.74792 33.2993 10.3635 32.7068C10.979 32.1144 11.5176 31.5834 11.9216 31.2064C12.1254 30.9886 12.3524 30.7938 12.5987 30.6255Z" fill="#E0E0E0"/>
<path d="M36.4824 30.5522C36.7266 30.729 36.9534 30.9286 37.1595 31.1486C37.5443 31.5333 38.1021 32.0719 38.6984 32.6875C39.2947 33.303 39.818 33.8416 40.195 34.2264C40.412 34.4334 40.6079 34.6615 40.7798 34.9073C40.5337 34.7344 40.3067 34.5358 40.1027 34.3148C39.7179 33.9301 39.1601 33.3915 38.5638 32.7759C37.9675 32.1604 37.4442 31.6218 37.0672 31.2371C36.8487 31.03 36.6527 30.8005 36.4824 30.5522Z" fill="#E0E0E0"/>
<path d="M36.417 5.62988C36.5922 5.3845 36.792 5.15762 37.0133 4.95277C37.398 4.56804 37.9328 4.0102 38.533 3.41387C39.1331 2.81755 39.6871 2.29048 40.0911 1.9173C40.2999 1.70066 40.5293 1.50482 40.7759 1.33252C40.5999 1.57611 40.4001 1.80164 40.1796 2.00579C39.7949 2.39051 39.2601 2.95221 38.6407 3.54468C38.0213 4.13715 37.4865 4.66807 37.0787 5.0451C36.8785 5.26187 36.6567 5.4578 36.417 5.62988Z" fill="#E0E0E0"/>
<path d="M12.5337 5.6915C12.2895 5.51478 12.0627 5.3151 11.8566 5.09517C11.4719 4.71045 10.9102 4.17184 10.3177 3.55628C9.72521 2.94072 9.19429 2.40211 8.81726 2.01739C8.60062 1.81107 8.40594 1.58286 8.23633 1.33643C8.47961 1.51139 8.70512 1.70983 8.90959 1.9289C9.29432 2.31362 9.85601 2.85224 10.4485 3.46779C11.041 4.08335 11.5719 4.62196 11.9489 5.00669C12.1674 5.21371 12.3634 5.44325 12.5337 5.6915Z" fill="#E0E0E0"/>
<path d="M36.417 30.4599C36.417 30.4599 36.417 30.4176 36.417 30.3407C36.417 30.2637 36.417 30.1406 36.417 29.9944C36.417 29.6828 36.417 29.225 36.417 28.6517C36.417 27.4745 36.417 25.7586 36.417 23.5772C36.417 19.2183 36.3939 13.005 36.3746 5.56447L36.4554 5.64142H12.6372L12.7257 5.55293C12.7257 14.6901 12.7257 23.2502 12.7257 30.4484L12.6487 30.3714L29.8997 30.4099L34.7396 30.433H36.0207H34.7588H29.9305L12.618 30.4715H12.541V30.3945C12.541 23.1848 12.541 14.6209 12.541 5.49907V5.40674H12.6333H36.4516H36.5285V5.48753C36.5285 12.9473 36.4978 19.1798 36.4901 23.5695C36.4901 25.7432 36.4901 27.4514 36.467 28.6248C36.467 29.2019 36.467 29.6482 36.467 29.9521C36.467 30.0983 36.467 30.2099 36.467 30.2907C36.467 30.3714 36.417 30.4599 36.417 30.4599Z" fill="#E0E0E0"/>
<path d="M18.9007 15.9634C18.9007 15.9634 18.389 22.119 25.0562 22.119C25.0639 18.8373 22.3516 16.2404 18.9007 15.9634Z" fill="#EBEBEB"/>
<path d="M31.1155 15.9671C31.1155 15.9671 24.96 15.4554 24.96 22.1226C28.2417 22.1342 30.8385 19.418 31.1155 15.9671Z" fill="#EBEBEB"/>
<path d="M24.7677 12.5933C24.7677 12.5933 19.7317 17.1138 25.0447 22.1267C27.5147 19.5106 27.2915 15.4056 24.7677 12.5933Z" fill="#E0E0E0"/>
<path d="M127.189 125.679C125.156 124.408 122.86 123.618 120.476 123.37C119.379 123.259 118.167 123.29 117.298 123.955C117.197 124.015 117.114 124.1 117.056 124.202C116.999 124.304 116.969 124.419 116.971 124.536C117.026 124.697 117.136 124.834 117.282 124.921C120.014 127.002 124.146 127.268 127.189 125.671" fill="#E0E0E0"/>
<path d="M127.015 125.487C125.461 124.346 124.01 123.07 122.68 121.674C121.344 120.268 120.406 118.533 119.96 116.646C119.844 116.072 119.81 115.418 120.175 114.964C123.638 117.657 126.331 121.155 127.015 125.487Z" fill="#E0E0E0"/>
<path d="M127.154 125.652C126.833 123.765 126.86 121.836 127.231 119.958C127.666 118.1 128.678 116.323 130.267 115.261C130.863 116.657 130.605 118.265 130.186 119.724C129.534 121.984 128.518 124.123 127.177 126.056" fill="#E0E0E0"/>
<path d="M130.54 131.734C128.485 131.984 126.692 133.069 125.153 134.458C123.612 135.865 122.538 137.709 122.076 139.744C124.095 139.621 125.808 138.205 127.046 136.605C128.285 135.005 129.151 133.258 130.509 131.765" fill="#E0E0E0"/>
<path d="M131.278 132.693C130.469 130.637 130.186 128.412 130.455 126.219C130.724 124.026 131.536 121.935 132.817 120.135C133.991 124.302 133.56 129.011 131.278 132.693Z" fill="#E0E0E0"/>
<path d="M135.753 138.024C133.873 137.907 132 138.346 130.367 139.286C128.735 140.226 127.416 141.626 126.573 143.311C126.458 143.538 126.358 143.826 126.512 144.03C126.591 144.107 126.688 144.163 126.794 144.194C126.9 144.225 127.012 144.229 127.12 144.207C128.928 144.092 130.532 143.003 131.856 141.764C133.179 140.525 134.333 139.09 135.795 138.021" fill="#E0E0E0"/>
<path d="M135.611 137.736C134.647 134.633 134.589 131.319 135.441 128.184C135.776 126.952 136.342 125.66 137.48 125.083C137.526 125.052 137.577 125.032 137.63 125.022C137.684 125.013 137.739 125.015 137.792 125.029C137.884 125.077 137.954 125.158 137.988 125.256C138.369 126.116 138.535 127.056 138.469 127.995C138.401 128.93 138.257 129.857 138.038 130.769C137.68 132.465 137.492 134.289 136.561 135.751C136.34 136.102 136.142 136.467 135.968 136.844C135.791 137.228 135.791 137.348 135.63 137.644" fill="#E0E0E0"/>
<path d="M147.46 139.502C146.583 136.159 147.514 132.111 149.618 129.372C149.776 129.172 149.98 128.957 150.234 128.987C150.618 129.022 150.722 129.541 150.703 129.93C150.545 133.365 149.421 136.685 147.46 139.51" fill="#E0E0E0"/>
<path d="M148.529 140.229C152.588 141.287 157.243 140.26 160.617 137.771C158.595 136.757 156.284 136.474 154.077 136.971C151.892 137.471 149.895 138.448 148.533 140.229" fill="#E0E0E0"/>
<path d="M149.43 138.005C151.703 134.3 156.058 131.884 160.402 131.665C159.902 133.431 158.448 134.801 156.813 135.632C155.177 136.463 153.35 136.82 151.546 137.17C150.845 137.305 149.884 137.455 149.43 138.005Z" fill="#E0E0E0"/>
<path d="M147.687 127.218C148.302 125.11 148.922 122.986 149.091 120.793C149.26 118.6 148.945 116.319 147.81 114.438C145.686 118.546 145.475 123.344 147.621 127.437" fill="#E0E0E0"/>
<path d="M154.835 123.605C157.316 119.092 162.379 115.491 167.504 114.983C165.526 119.908 160.136 123.709 154.835 123.605Z" fill="#E0E0E0"/>
<path d="M153.273 124.49C156.974 125.052 160.129 127.418 163.587 128.849C164.312 129.2 165.116 129.354 165.919 129.295C166.293 129.293 166.658 129.176 166.964 128.96C167.269 128.743 167.501 128.438 167.627 128.086C167.753 127.733 167.767 127.35 167.668 126.989C167.569 126.628 167.361 126.306 167.073 126.067C166.583 125.616 166.007 125.266 165.38 125.04C161.61 123.471 157.57 123.432 153.6 124.382" fill="#E0E0E0"/>
<path d="M151.13 127.087C151.969 127.326 152.254 127.76 152.919 128.326C155.182 130.249 157.859 131.624 160.741 132.342C161.041 132.416 161.429 132.446 161.579 132.177C161.729 131.908 161.545 131.654 161.376 131.446C160.119 129.972 158.488 128.863 156.655 128.237C154.847 127.568 153.285 126.756 151.13 126.929" fill="#E0E0E0"/>
<path d="M148.71 111.402C150.23 112.8 152.025 113.864 153.98 114.527C155.935 115.189 158.008 115.435 160.064 115.249C160.252 115.253 160.436 115.187 160.579 115.064C160.864 114.753 160.521 114.272 160.194 114.014C156.855 111.413 152.815 110.332 148.714 111.386" fill="#E0E0E0"/>
<path d="M151.577 110.355C153.586 108.876 155.917 107.893 158.379 107.486C160.841 107.08 163.364 107.261 165.742 108.016C163.957 109.774 161.483 110.709 158.99 110.979C156.502 111.207 153.992 110.996 151.577 110.355Z" fill="#E0E0E0"/>
<path d="M150.437 103.15C150.11 99.8178 150.322 97.1901 150.091 93.8431C150.091 93.5737 150.018 93.2544 149.768 93.1582C149.418 93.0236 149.129 93.4506 148.999 93.8046C148.513 95.3561 148.389 96.9979 148.635 98.6048C148.881 100.212 149.491 101.741 150.418 103.076" fill="#E0E0E0"/>
<path d="M150.199 103.515C152.458 102.118 154.15 100.299 155.716 98.1558C156.805 96.6631 157.724 94.878 157.478 93.0467C155.939 93.0159 154.493 93.8585 153.496 95.0242C152.547 96.2308 151.857 97.6205 151.469 99.1061C151.026 100.572 150.719 102.076 150.199 103.515Z" fill="#E0E0E0"/>
<path d="M155.62 102.011C160.586 100.171 165.184 97.4601 169.197 94.0044C167.577 93.3504 165.734 93.7428 164.099 94.3892C160.394 95.8857 157.367 98.4095 155.551 101.964" fill="#E0E0E0"/>
<path d="M151.723 105.339C154.231 105.612 156.778 105.793 159.263 105.377C161.749 104.962 164.018 104 166.3 103.038C166.503 102.976 166.675 102.838 166.781 102.653C166.816 102.547 166.819 102.433 166.788 102.326C166.757 102.219 166.694 102.124 166.608 102.053C166.433 101.913 166.227 101.817 166.007 101.772C163.526 101.076 160.844 101.388 158.401 102.226C156.074 103.016 153.835 104.048 151.723 105.304" fill="#E0E0E0"/>
<path d="M137.411 111.517C135.703 108.055 135.814 104.038 137.288 100.479C138.33 102.065 138.442 104.08 138.265 105.969C138.088 107.858 137.496 109.794 137.465 111.69" fill="#E0E0E0"/>
<path d="M130.578 108.07C128.438 108.042 126.315 108.462 124.345 109.301C122.376 110.14 120.603 111.381 119.141 112.945C121.272 113.279 123.465 112.729 125.404 111.79C127.343 110.852 129.066 109.517 130.79 108.197" fill="#E0E0E0"/>
<path d="M125.988 106.535C123.899 106.366 121.887 106.108 119.879 106.724C117.871 107.339 116.032 108.736 115.228 110.671C117.198 110.829 119.175 110.456 120.952 109.59C122.719 108.724 124.404 107.701 125.988 106.535Z" fill="#E0E0E0"/>
<path d="M132.787 106.604C130.909 105.373 128.978 104.123 126.793 103.611C124.608 103.099 122.068 103.476 120.541 105.127C122.315 106.166 124.461 106.281 126.516 106.281C128.57 106.281 131.086 106.254 133.021 106.939" fill="#E0E0E0"/>
<path d="M132.798 106.704C129.586 103.55 128.37 97.8826 129.663 93.5737C132.198 97.4551 133.306 102.096 132.798 106.704Z" fill="#E0E0E0"/>
<path d="M141.631 97.7673C142.239 96.3592 142.662 94.8819 143.209 93.4468C143.703 91.9922 144.464 90.642 145.452 89.465C146.458 88.2824 147.887 87.542 149.434 87.4028C148.939 89.5756 147.996 91.6214 146.667 93.4098C145.337 95.1983 143.65 96.6901 141.712 97.7904" fill="#E0E0E0"/>
<path d="M140.035 99.6292C139.03 98.2519 137.872 96.3783 136.514 95.3473C135.156 94.3162 133.383 93.6929 131.725 94.0892C132.584 95.5948 133.783 96.8793 135.225 97.841C136.668 98.8026 138.314 99.4149 140.035 99.6292Z" fill="#E0E0E0"/>
<path d="M140.354 97.8788C139.696 96.2091 139.034 94.5202 138.769 92.7466C138.503 90.9731 138.665 89.0764 139.573 87.5298C141.335 90.8615 141.904 94.4548 140.442 97.9173" fill="#E0E0E0"/>
<path d="M141.646 87.5336C142.647 84.2289 145.671 81.7936 148.937 80.6779C149.343 80.5135 149.782 80.4476 150.218 80.4855C150.435 80.5107 150.64 80.5988 150.807 80.739C150.975 80.8791 151.098 81.0651 151.161 81.2742C151.28 81.8359 150.814 82.3399 150.391 82.7131C147.837 84.8929 144.867 86.5327 141.662 87.5336" fill="#E0E0E0"/>
<path d="M141.685 84.8292C141.812 82.7017 141.943 80.5395 142.635 78.5197C143.328 76.4999 144.667 74.6071 146.61 73.7261C146.941 75.8767 145.99 78.0157 144.844 79.8817C143.697 81.7476 142.32 83.4788 141.631 85.5448" fill="#E0E0E0"/>
<path d="M141.631 86.2984C140.808 83.89 140.719 80.8315 139.281 78.7309C138.273 77.2651 136.657 76.2648 135.787 74.7144C135.263 76.2032 135.336 77.8372 135.991 79.2733C136.646 80.6948 137.549 81.9884 138.657 83.0936C139.727 84.2478 140.639 85.0903 141.631 86.2984Z" fill="#E0E0E0"/>
<path d="M141.647 157.215C141.585 157.215 141.528 141.149 141.524 121.339C141.52 101.53 141.566 85.4561 141.631 85.4561C141.697 85.4561 141.751 101.518 141.754 121.339C141.758 141.16 141.712 157.215 141.647 157.215Z" fill="#E0E0E0"/>
<path d="M155.685 109.093C155.492 109.188 155.289 109.264 155.081 109.32L153.419 109.882C152.019 110.359 150.092 111.036 148.003 111.906C145.913 112.775 143.982 113.514 142.87 114.476C142.428 114.847 142.075 115.314 141.839 115.841C141.682 116.226 141.655 116.449 141.632 116.445C141.622 116.389 141.622 116.332 141.632 116.276C141.657 116.116 141.696 115.959 141.751 115.807C141.96 115.247 142.305 114.747 142.755 114.352C143.426 113.786 144.176 113.32 144.982 112.971C145.871 112.556 146.86 112.121 147.906 111.69C150.003 110.832 151.946 110.151 153.362 109.724C154.07 109.505 154.647 109.339 155.051 109.232C155.257 109.166 155.47 109.119 155.685 109.093Z" fill="#E0E0E0"/>
<path d="M160.286 97.7905C160.286 97.7905 160.236 97.8598 160.117 97.9713L159.602 98.4561L157.678 100.203L151.272 105.908C148.772 108.132 146.613 110.259 145.117 111.86C144.367 112.66 143.774 113.322 143.37 113.783C143.185 113.999 143.032 114.168 142.905 114.314C142.778 114.461 142.739 114.499 142.731 114.491C142.771 114.419 142.818 114.351 142.87 114.287C142.966 114.157 143.108 113.964 143.301 113.726C143.686 113.245 144.259 112.572 144.994 111.748C146.927 109.636 148.971 107.629 151.118 105.735C153.627 103.511 155.912 101.503 157.57 100.08L159.544 98.3869L160.086 97.9367C160.147 97.8805 160.214 97.8315 160.286 97.7905Z" fill="#E0E0E0"/>
<path d="M148.575 108.17C148.51 108.139 149.029 106.935 149.553 105.408C150.076 103.88 150.322 102.595 150.391 102.607C150.461 102.619 150.303 103.938 149.772 105.485C149.55 106.139 149.293 106.781 149.002 107.408C148.897 107.681 148.754 107.938 148.575 108.17Z" fill="#E0E0E0"/>
<path d="M141.662 117.885C141.518 117.75 141.389 117.6 141.277 117.438L140.289 116.173C139.461 115.099 138.315 113.622 137.03 112.002C135.745 110.383 134.564 108.924 133.71 107.882L132.706 106.639C132.574 106.493 132.458 106.333 132.359 106.162C132.512 106.287 132.651 106.428 132.775 106.581C133.033 106.858 133.398 107.27 133.841 107.782C134.729 108.809 135.933 110.244 137.218 111.868C138.503 113.491 139.634 114.984 140.431 116.08C140.816 116.63 141.143 117.077 141.358 117.392C141.473 117.547 141.575 117.712 141.662 117.885Z" fill="#E0E0E0"/>
<path d="M138.584 113.941C138.546 113.983 137.726 113.006 137.295 111.529C137.053 110.741 136.954 109.916 137.003 109.094H137.103C137.061 109.278 137.026 109.378 137.007 109.374C136.988 109.371 136.988 109.267 137.007 109.078H137.111C137.159 109.88 137.297 110.673 137.522 111.444C137.934 112.883 138.646 113.903 138.584 113.941Z" fill="#E0E0E0"/>
<path d="M134.629 108.943C134.353 108.731 134.05 108.556 133.729 108.42C132.919 108.178 132.067 108.11 131.228 108.22C130.38 108.286 129.538 108.422 128.712 108.628C128.374 108.736 128.028 108.819 127.677 108.874C127.986 108.691 128.321 108.555 128.67 108.47C129.496 108.213 130.35 108.052 131.213 107.989C132.082 107.874 132.966 107.969 133.791 108.266C134.141 108.386 134.438 108.626 134.629 108.943Z" fill="#E0E0E0"/>
<path d="M133.668 107.731C133.668 107.766 133.144 107.52 132.29 107.227C130.056 106.462 127.663 106.28 125.338 106.7C124.45 106.858 123.911 107.024 123.899 106.985C124.012 106.914 124.135 106.862 124.265 106.831C124.606 106.712 124.954 106.614 125.308 106.539C127.655 106.023 130.102 106.209 132.344 107.074C132.681 107.203 133.01 107.352 133.329 107.52C133.556 107.643 133.675 107.716 133.668 107.731Z" fill="#E0E0E0"/>
<path d="M141.631 102.607C141.57 102.607 141.12 101.068 140.627 99.1136C140.135 97.1592 139.781 95.578 139.858 95.5626C139.935 95.5472 140.369 97.1015 140.862 99.0559C141.354 101.01 141.693 102.592 141.631 102.607Z" fill="#E0E0E0"/>
<path d="M141.697 102.607C141.628 102.63 141.335 101.584 140.581 100.514C140.108 99.8819 139.556 99.313 138.938 98.8213C139.173 98.8797 139.39 98.9916 139.573 99.1483C140.039 99.4895 140.443 99.907 140.77 100.383C141.267 101.031 141.587 101.798 141.697 102.607Z" fill="#E0E0E0"/>
<path d="M141.647 148.662C141.624 148.662 141.574 148.278 141.393 147.593C141.128 146.633 140.768 145.701 140.32 144.811C139.212 142.545 137.192 139.668 134.626 136.79C133.352 135.336 132.121 133.966 131.075 132.654C130.135 131.499 129.285 130.273 128.532 128.988C128.028 128.12 127.599 127.212 127.251 126.272C127.131 125.933 127.047 125.675 126.997 125.502C126.963 125.402 126.943 125.299 126.935 125.194C126.958 125.194 127.074 125.579 127.339 126.218C127.719 127.139 128.167 128.032 128.678 128.888C129.445 130.152 130.302 131.36 131.244 132.5C132.294 133.797 133.529 135.163 134.803 136.617C137.376 139.506 139.392 142.415 140.473 144.723C140.912 145.627 141.251 146.577 141.485 147.554C141.549 147.819 141.597 148.088 141.628 148.359C141.646 148.459 141.652 148.561 141.647 148.662Z" fill="#E0E0E0"/>
<path d="M154.335 134.324C154.121 134.465 153.898 134.594 153.669 134.708C153.067 135.051 152.491 135.437 151.946 135.863C151.137 136.491 150.38 137.182 149.68 137.929C148.883 138.767 148.064 139.744 147.229 140.787C145.559 142.884 143.997 144.738 143.062 146.219C142.585 146.954 142.239 147.574 142.012 148.008C141.907 148.24 141.785 148.464 141.646 148.678C141.657 148.612 141.678 148.549 141.708 148.489C141.758 148.37 141.827 148.189 141.931 147.97C142.225 147.338 142.555 146.724 142.92 146.131C143.832 144.615 145.382 142.734 147.048 140.641C147.887 139.594 148.714 138.617 149.526 137.779C150.237 137.034 151.009 136.349 151.834 135.732C152.395 135.317 152.991 134.953 153.615 134.643C153.835 134.531 154 134.462 154.135 134.412C154.194 134.369 154.263 134.339 154.335 134.324Z" fill="#E0E0E0"/>
<path d="M154.581 138.971C154.119 139.075 153.65 139.143 153.177 139.175C152.049 139.292 150.934 139.511 149.845 139.829C148.77 140.18 147.76 140.709 146.86 141.395C146.171 141.93 145.848 142.368 145.817 142.341C145.866 142.221 145.936 142.112 146.025 142.018C146.243 141.739 146.488 141.481 146.756 141.249C147.646 140.508 148.67 139.945 149.772 139.59C150.876 139.263 152.013 139.062 153.162 138.99C153.633 138.94 154.109 138.934 154.581 138.971Z" fill="#E0E0E0"/>
<path d="M146.225 141.833C146.152 141.791 146.787 140.822 147.275 139.525C147.764 138.228 147.845 137.063 147.929 137.074C147.966 137.33 147.958 137.59 147.906 137.844C147.836 138.45 147.698 139.046 147.495 139.621C147.282 140.191 147.009 140.737 146.679 141.249C146.561 141.467 146.407 141.664 146.225 141.833Z" fill="#E0E0E0"/>
<path d="M158.444 121.843C158.372 121.89 158.296 121.93 158.217 121.963L157.555 122.263C157.266 122.386 156.916 122.543 156.52 122.751C156.124 122.959 155.662 123.167 155.177 123.459L154.408 123.894C154.142 124.048 153.877 124.229 153.6 124.402C153.034 124.748 152.469 125.171 151.865 125.598C149.277 127.531 147.019 129.869 145.178 132.523C144.771 133.143 144.367 133.724 144.043 134.301C143.878 134.585 143.705 134.855 143.562 135.124L143.151 135.893C142.878 136.386 142.685 136.855 142.493 137.259C142.301 137.663 142.151 138.029 142.039 138.313L141.762 138.983C141.734 139.064 141.696 139.141 141.65 139.214C141.662 139.129 141.684 139.046 141.716 138.967C141.781 138.786 141.858 138.559 141.954 138.279C142.076 137.915 142.216 137.558 142.374 137.209C142.554 136.797 142.739 136.32 143.005 135.82L143.389 135.028C143.528 134.755 143.697 134.481 143.863 134.189C144.178 133.604 144.578 133.035 144.986 132.392C146.819 129.705 149.095 127.349 151.719 125.425C152.334 124.994 152.907 124.575 153.481 124.236C153.765 124.063 154.031 123.886 154.3 123.736L155.07 123.309C155.558 123.028 156.031 122.824 156.435 122.632C156.778 122.461 157.13 122.308 157.489 122.174L158.17 121.916C158.257 121.879 158.349 121.854 158.444 121.843Z" fill="#E0E0E0"/>
<path d="M148.402 128.568C148.496 128.245 148.689 127.958 148.953 127.749C149.57 127.209 150.36 126.907 151.18 126.895C151.983 126.889 152.778 127.045 153.519 127.352C153.833 127.452 154.131 127.596 154.404 127.78C154.088 127.717 153.779 127.624 153.481 127.503C152.746 127.251 151.976 127.121 151.199 127.118C150.43 127.134 149.686 127.396 149.076 127.864C148.835 128.083 148.61 128.318 148.402 128.568Z" fill="#E0E0E0"/>
<path d="M146.902 130.119C146.837 130.084 147.402 129.253 147.533 128.064C147.664 126.876 147.322 125.937 147.391 125.918C147.46 125.898 147.545 126.125 147.652 126.518C147.927 127.552 147.799 128.652 147.295 129.596C147.098 129.95 146.941 130.134 146.902 130.119Z" fill="#E0E0E0"/>
<path d="M130.551 150.971C130.898 157.126 132.748 163.355 135.595 169.668H147.968C150.684 163.397 152.404 157.165 152.711 150.971H130.551Z" fill="#E0E0E0"/>
<path d="M150.707 160.885C150.707 160.95 146.633 161.004 141.605 161.004C136.576 161.004 132.506 160.95 132.506 160.885C132.506 160.82 136.58 160.77 141.605 160.77C146.629 160.77 150.707 160.823 150.707 160.885Z" fill="#FAFAFA"/>
<path d="M150.43 163.109C150.43 163.174 146.61 163.228 141.901 163.228C137.192 163.228 133.368 163.174 133.368 163.109C133.368 163.043 137.188 162.993 141.901 162.993C146.614 162.993 150.43 163.047 150.43 163.109Z" fill="#FAFAFA"/>
<path d="M135.783 154.983C135.937 156.881 135.937 158.788 135.783 160.685C135.718 160.685 135.668 159.408 135.668 157.834C135.668 156.261 135.73 154.983 135.783 154.983Z" fill="#FAFAFA"/>
<path d="M142.424 154.983C142.489 154.983 142.539 156.303 142.539 157.934C142.539 159.565 142.489 160.885 142.424 160.885C142.359 160.885 142.309 159.565 142.309 157.934C142.309 156.303 142.359 154.983 142.424 154.983Z" fill="#FAFAFA"/>
<path d="M148.649 154.933C148.714 154.933 148.764 156.28 148.764 157.942C148.764 159.604 148.714 160.954 148.649 160.954C148.583 160.954 148.533 159.607 148.533 157.942C148.533 156.276 148.583 154.933 148.649 154.933Z" fill="#FAFAFA"/>
<path d="M152.326 154.983C152.326 155.048 147.548 155.099 141.654 155.099C135.76 155.099 130.982 155.048 130.982 154.983C130.982 154.918 135.756 154.868 141.654 154.868C147.552 154.868 152.326 154.918 152.326 154.983Z" fill="#FAFAFA"/>
<path d="M145.679 93.7354H5.45459V98.0558H145.679V93.7354Z" fill="#EBEBEB"/>
<path d="M17.5849 97.5249L7.07812 169.649H9.33261L22.2901 98.0558L17.5849 97.5249Z" fill="#EBEBEB"/>
<path d="M135.776 97.0669L146.86 169.649H144.609L131.067 97.7286L135.776 97.0669Z" fill="#EBEBEB"/>
<path d="M10.7793 76.3345V86.0603H9.15576V87.1067H10.7793V93.6163H41.1417V87.6915H38.8949V86.3988H41.1417V84.4752H42.142V83.5981H40.9493V76.3345H10.7793Z" fill="#F5F5F5"/>
<path d="M33.0737 76.3497V93.5045H41.1337V87.5836H38.8869V86.4025L41.1337 86.441V84.5058H42.1532L42.134 83.5055L40.949 83.4786V76.3228L33.0737 76.3497Z" fill="#E0E0E0"/>
<path d="M33.6471 86.9642C33.6471 87.0257 28.1571 87.0719 21.3821 87.0719C14.6071 87.0719 9.11328 87.0257 9.11328 86.9642C9.11328 86.9026 14.6071 86.8564 21.3821 86.8564C28.1571 86.8564 33.6471 86.9065 33.6471 86.9642Z" fill="#E0E0E0"/>
<path d="M33.6471 85.9754C33.6471 86.037 28.1571 86.0831 21.3821 86.0831C14.6071 86.0831 9.11328 86.037 9.11328 85.9754C9.11328 85.9138 14.6071 85.8677 21.3821 85.8677C28.1571 85.8677 33.6471 85.9177 33.6471 85.9754Z" fill="#E0E0E0"/>
<path d="M35.2247 83.3172C35.2247 83.3788 29.7309 83.4249 22.9598 83.4249C16.1886 83.4249 10.6909 83.3788 10.6909 83.3172C10.6909 83.2556 16.1809 83.2095 22.9598 83.2095C29.7386 83.2095 35.2247 83.2595 35.2247 83.3172Z" fill="#E0E0E0"/>
<path d="M35.3707 90.5691C35.3707 90.6307 29.8807 90.6807 23.1057 90.6807C16.3308 90.6807 10.8369 90.6307 10.8369 90.5691C10.8369 90.5076 16.3269 90.4614 23.1057 90.4614C29.8846 90.4614 35.3707 90.5037 35.3707 90.5691Z" fill="#E0E0E0"/>
<path d="M43.3846 69.8096H38.0908V76.1036H43.3846V69.8096Z" fill="#F5F5F5"/>
<path d="M38.2717 69.3975H14.3496V76.4956H38.2717V69.3975Z" fill="#E0E0E0"/>
<path d="M43.5421 69.9978H37.6289V69.4092H43.5421C43.6217 69.4092 43.698 69.4408 43.7543 69.4971C43.8106 69.5533 43.8422 69.6297 43.8422 69.7093C43.8392 69.7868 43.8063 69.8602 43.7503 69.914C43.6944 69.9678 43.6197 69.9979 43.5421 69.9978Z" fill="#E0E0E0"/>
<path d="M43.5421 76.4996H37.6289V75.8994H43.5421C43.6217 75.8994 43.698 75.931 43.7543 75.9873C43.8106 76.0436 43.8422 76.1199 43.8422 76.1995C43.8422 76.2791 43.8106 76.3554 43.7543 76.4117C43.698 76.468 43.6217 76.4996 43.5421 76.4996Z" fill="#E0E0E0"/>
<path d="M36.3941 69.3975H33.5664V76.4956H36.3941V69.3975Z" fill="#EBEBEB"/>
<path d="M19.4547 69.4785H16.627V76.5767H19.4547V69.4785Z" fill="#EBEBEB"/>
<path d="M43.3843 70.852C43.3843 70.852 42.2302 70.8828 40.8259 70.8828C39.4217 70.8828 38.2637 70.8828 38.2637 70.852C38.2637 70.8212 39.4178 70.8174 40.8259 70.8174C42.234 70.8174 43.3843 70.8328 43.3843 70.852Z" fill="#E0E0E0"/>
<path d="M43.3843 71.7945C43.3843 71.7945 42.2302 71.8252 40.8259 71.8252C39.4217 71.8252 38.2637 71.8252 38.2637 71.7945C38.2637 71.7637 39.4178 71.7637 40.8259 71.7637C42.234 71.7637 43.3843 71.7752 43.3843 71.7945Z" fill="#E0E0E0"/>
<path d="M43.3843 72.9566C43.3843 72.9566 42.2302 72.9873 40.8259 72.9873C39.4217 72.9873 38.2637 72.9873 38.2637 72.9566C38.2637 72.9258 39.4178 72.9258 40.8259 72.9258C42.234 72.9258 43.3843 72.9373 43.3843 72.9566Z" fill="#E0E0E0"/>
<path d="M43.3843 74.1182C43.3843 74.1182 42.2302 74.149 40.8259 74.149C39.4217 74.149 38.2637 74.149 38.2637 74.1182C38.2637 74.0874 39.4178 74.0874 40.8259 74.0874C42.234 74.0874 43.3843 74.0989 43.3843 74.1182Z" fill="#E0E0E0"/>
<path d="M43.3843 75.2803C43.3843 75.2803 42.2302 75.3111 40.8259 75.3111C39.4217 75.3111 38.2637 75.3111 38.2637 75.2803C38.2637 75.2495 39.4178 75.2495 40.8259 75.2495C42.234 75.2495 43.3843 75.2611 43.3843 75.2803Z" fill="#E0E0E0"/>
<path d="M32.0429 72.3179H21.2822V73.5952H32.0429V72.3179Z" fill="#EBEBEB"/>
<path d="M33.247 62.5073L36.2247 69.5016H34.3088L32.9854 65.7659L33.247 62.5073Z" fill="#E0E0E0"/>
<path d="M24.1059 56.1826L22.9556 69.5017H32.6852L33.7548 56.1826H24.1059Z" fill="#EBEBEB"/>
<path d="M25.0563 57.2368L24.0483 68.3938L31.3542 68.49L32.3391 57.1714L25.0563 57.2368Z" fill="#FAFAFA"/>
<path d="M26.6069 58.7832L26.0337 66.4584H29.9309L30.6157 58.7832H26.6069Z" fill="#E0E0E0"/>
<path d="M138.415 6.67487L134.818 6.69434L134.915 24.5953L138.512 24.5758L138.415 6.67487Z" fill="#E0E0E0"/>
<path d="M112.967 6.72009L103.649 6.77051L103.702 16.6539L113.02 16.6035L112.967 6.72009Z" fill="#EBEBEB"/>
<path d="M122.238 6.67371L112.92 6.72412L112.974 16.6075L122.292 16.5571L122.238 6.67371Z" fill="#F5F5F5"/>
<path d="M103.663 9.50794C109.853 9.56181 116.062 9.50795 122.253 9.42331C122.275 9.41879 122.296 9.40654 122.31 9.38865C122.325 9.37077 122.333 9.34834 122.333 9.3252C122.333 9.30206 122.325 9.27963 122.31 9.26175C122.296 9.24386 122.275 9.23161 122.253 9.2271C116.064 9.19119 109.868 9.22838 103.667 9.33867C103.644 9.33867 103.623 9.34758 103.607 9.36346C103.591 9.37933 103.582 9.40086 103.582 9.42331C103.582 9.44575 103.591 9.46728 103.607 9.48315C103.623 9.49903 103.644 9.50794 103.667 9.50794H103.663Z" fill="#E0E0E0"/>
<path d="M114.77 16.4436L97.8423 16.5352L97.8859 24.5873L114.813 24.4957L114.77 16.4436Z" fill="#EBEBEB"/>
<path d="M131.617 16.3488L114.689 16.4404L114.733 24.4926L131.66 24.401L131.617 16.3488Z" fill="#F5F5F5"/>
<path d="M97.8498 18.7797C109.095 18.9067 120.379 18.7797 131.625 18.6143C131.651 18.6143 131.677 18.6037 131.695 18.585C131.714 18.5662 131.725 18.5408 131.725 18.5143C131.725 18.4877 131.714 18.4623 131.695 18.4435C131.677 18.4248 131.651 18.4142 131.625 18.4142C120.379 18.3565 109.091 18.3604 97.8498 18.6104C97.8273 18.6104 97.8058 18.6194 97.7899 18.6352C97.7741 18.6511 97.7651 18.6726 97.7651 18.6951C97.7651 18.7175 97.7741 18.7391 97.7899 18.7549C97.8058 18.7708 97.8273 18.7797 97.8498 18.7797Z" fill="#E0E0E0"/>
<path d="M157.101 24.5928H91.521V27.4782H157.101V24.5928Z" fill="#E0E0E0"/>
<path d="M104.921 25.9814H102.259V35.8265H104.921V25.9814Z" fill="#E0E0E0"/>
<path d="M144.663 25.9814H142V35.8265H144.663V25.9814Z" fill="#E0E0E0"/>
<path d="M141.923 6.87988e-05L138.326 0.0195312L138.459 24.6415L142.056 24.622L141.923 6.87988e-05Z" fill="#EBEBEB"/>
<path d="M147.546 4.58645L141.956 4.6167L142.064 24.5682L147.653 24.5379L147.546 4.58645Z" fill="#F5F5F5"/>
<path d="M147.51 8.43456C146.581 8.53091 145.646 8.56305 144.713 8.53074C143.781 8.56313 142.848 8.53099 141.92 8.43456C143.781 8.30632 145.649 8.30632 147.51 8.43456Z" fill="#E0E0E0"/>
<path d="M147.51 7.59569C146.581 7.69205 145.646 7.72418 144.713 7.69187C143.781 7.72426 142.848 7.69213 141.92 7.59569C143.781 7.46745 145.649 7.46745 147.51 7.59569Z" fill="#E0E0E0"/>
<path d="M147.51 21.542C145.649 21.6702 143.781 21.6702 141.92 21.542C143.781 21.4137 145.649 21.4137 147.51 21.542Z" fill="#E0E0E0"/>
<path d="M147.51 20.7031C145.649 20.8313 143.781 20.8313 141.92 20.7031C143.781 20.5749 145.649 20.5749 147.51 20.7031Z" fill="#E0E0E0"/>
<path d="M144.805 18.8758C144.751 18.8758 144.705 16.8637 144.705 14.3783C144.705 11.893 144.751 9.88477 144.805 9.88477C144.859 9.88477 144.901 11.8969 144.901 14.3783C144.901 16.8598 144.855 18.8758 144.805 18.8758Z" fill="#E0E0E0"/>
<path d="M153.654 9.49219H147.567V24.5541H153.654V9.49219Z" fill="#EBEBEB"/>
<path d="M141.108 4.21026C141.109 4.41511 141.049 4.61557 140.935 4.78627C140.822 4.95696 140.661 5.09021 140.472 5.16913C140.283 5.24805 140.074 5.26909 139.873 5.22959C139.672 5.1901 139.488 5.09184 139.343 4.94726C139.197 4.80268 139.099 4.61828 139.058 4.41743C139.018 4.21657 139.038 4.00829 139.116 3.81896C139.195 3.62963 139.327 3.46777 139.498 3.35388C139.668 3.24 139.868 3.1792 140.073 3.1792C140.347 3.1792 140.609 3.2877 140.803 3.48095C140.997 3.67421 141.107 3.93645 141.108 4.21026Z" fill="#E0E0E0"/>
<path d="M140.393 7.05713H139.754V21.7036H140.393V7.05713Z" fill="#E0E0E0"/>
<path d="M162.272 169.649C162.272 169.703 126.108 169.749 81.5413 169.749C36.9749 169.749 0.803223 169.703 0.803223 169.649C0.803223 169.595 36.9441 169.549 81.5413 169.549C126.138 169.549 162.272 169.591 162.272 169.649Z" fill="#263238"/>
<path d="M80.8793 120.912L96.7414 169.649H93.8522L75.27 120.912H80.8793Z" fill="#E0E0E0"/>
<path d="M80.8793 120.912H80.4946H79.4174L75.2546 120.935L75.2931 120.877C78.4786 129.176 85.3459 147.123 93.302 167.898C93.5175 168.468 93.7329 169.052 93.9484 169.595L93.856 169.533H96.7415L96.6453 169.664C92.2171 156.003 88.266 143.826 85.4229 135.062C84.0071 130.672 82.8683 127.141 82.0835 124.698C81.6988 123.478 81.391 122.532 81.1832 121.885L80.9524 121.151C80.9024 120.985 80.8793 120.897 80.8793 120.897C80.8793 120.897 80.9101 120.974 80.9639 121.135L81.2063 121.855C81.4179 122.497 81.7295 123.432 82.1297 124.64C82.9299 127.075 84.084 130.596 85.5229 134.966C88.3891 143.742 92.371 155.93 96.8338 169.591L96.8761 169.722H93.7983L93.7714 169.656C93.5598 169.095 93.3405 168.529 93.1251 167.96C85.219 147.154 78.3901 129.187 75.2393 120.9V120.843H75.3008L79.4866 120.866H80.5523C80.7677 120.904 80.8793 120.912 80.8793 120.912Z" fill="#263238"/>
<path d="M49.6629 120.912L33.8008 169.649H36.6862L55.2722 120.912H49.6629Z" fill="#E0E0E0"/>
<path d="M49.663 120.912C49.663 120.912 49.7823 120.912 50.0208 120.912H51.0865L55.2723 120.889H55.3338L55.3107 120.946C52.1637 129.233 45.3349 147.2 37.4288 168.006L36.7786 169.702L36.7555 169.768H33.6777L33.7201 169.637L45.0348 135.012L48.428 124.686C48.8128 123.478 49.1398 122.543 49.3514 121.9L49.5937 121.181C49.6476 121.019 49.6784 120.943 49.6784 120.943C49.6784 120.943 49.6553 121.031 49.6053 121.196L49.3745 121.931C49.1667 122.578 48.8628 123.524 48.4742 124.744C47.6855 127.187 46.5506 130.718 45.1348 135.108C42.2878 143.872 38.3406 156.049 33.9124 169.71L33.8162 169.579H36.7017L36.6093 169.641L37.2557 167.944C45.2117 147.169 52.0791 129.206 55.2453 120.927L55.2877 120.985L51.1211 120.962H50.0477L49.663 120.912Z" fill="#263238"/>
<path d="M75.6779 121.981C75.591 122.055 75.4984 122.122 75.4009 122.182L74.5853 122.72L71.5806 124.69C69.0453 126.36 65.5482 128.676 61.7048 131.253L51.8635 137.89L48.8781 139.894L48.0663 140.41C47.9747 140.478 47.8768 140.537 47.7739 140.587C47.8586 140.511 47.9486 140.442 48.0432 140.379L48.8358 139.813L51.7866 137.759C54.2834 136.035 57.7498 133.669 61.597 131.092C65.4443 128.514 68.9491 126.213 71.5075 124.574C72.7848 123.759 73.8159 123.101 74.5468 122.651L75.3817 122.143C75.4762 122.082 75.5752 122.028 75.6779 121.981Z" fill="#263238"/>
<path d="M45.2464 68.955C45.2464 68.955 40.2758 69.4667 39.5525 72.4599C38.8293 75.453 36.4747 112.471 39.5525 117.715C42.6303 122.959 82.2568 122.228 85.0076 121.508C87.7584 120.789 89.0549 119.004 88.7741 116.822C88.4932 114.641 61.5087 111.936 61.5087 111.936L63.1553 73.3024C63.1553 73.3024 53.4526 68.4164 45.2464 68.955Z" fill="#263238"/>
<path d="M88.7973 117.757H88.678H88.3241L86.966 117.792C85.7849 117.823 84.0767 117.838 81.9646 117.834C77.7326 117.834 71.9041 117.688 65.4753 117.226C62.2629 116.992 59.2043 116.695 56.4305 116.38C53.6566 116.064 51.1636 115.718 49.0784 115.391C48.032 115.237 47.0933 115.072 46.2661 114.933C45.4389 114.795 44.7272 114.668 44.1463 114.549L42.8113 114.291L42.465 114.222L42.3496 114.191C42.3892 114.186 42.4293 114.186 42.4689 114.191L42.819 114.241L44.1617 114.46C44.7426 114.56 45.4543 114.679 46.2853 114.803C47.1163 114.926 48.0551 115.087 49.0977 115.23C51.1867 115.541 53.6797 115.861 56.4497 116.176C59.2197 116.492 62.2783 116.772 65.4907 117.007C71.9156 117.469 77.7442 117.626 81.9646 117.673C84.0729 117.696 85.781 117.7 86.966 117.696H88.6819L88.7973 117.757Z" fill="#455A64"/>
<path d="M82.9799 141.133C82.9492 141.179 76.6705 136.767 68.9606 131.284C61.2507 125.802 55.0221 121.312 55.0528 121.281C55.0836 121.251 61.3623 125.648 69.076 131.134C76.7897 136.62 83.0107 141.087 82.9799 141.133Z" fill="#263238"/>
<path d="M48.759 35.7186L45.5851 30.1285C47.5454 26.9457 48.2443 23.1447 47.5444 19.4727C46.8445 15.8007 44.7964 12.5233 41.8027 10.2847C38.8091 8.04606 35.0863 7.00819 31.3662 7.37505C27.6462 7.74191 24.1979 9.48698 21.6991 12.2672C19.2004 15.0475 17.832 18.6618 17.8628 22.3998C17.8937 26.1378 19.3216 29.729 21.8659 32.4676C24.4101 35.2063 27.8868 36.8942 31.6124 37.1996C35.338 37.505 39.0431 36.4058 41.9994 34.1181L48.759 35.7186Z" fill="white"/>
<path d="M48.7589 35.7188L41.9801 34.1799H41.8877L41.9454 34.103L42.0301 34.1876C39.9462 35.8158 37.4676 36.8619 34.8473 37.2192C34.0626 37.3308 33.2695 37.372 32.4774 37.3423C32.0696 37.3192 31.6541 37.3077 31.2347 37.2731L29.969 37.0846C26.1972 36.3445 22.8489 34.1958 20.6048 31.0752C19.3586 29.354 18.4942 27.3865 18.0695 25.3043C17.6385 23.0959 17.6989 20.8196 18.2465 18.6371C18.8132 16.3592 19.9144 14.2491 21.4589 12.4815C23.027 10.6672 25.0054 9.25327 27.2298 8.35726C29.3634 7.51475 31.659 7.16239 33.9471 7.32621C36.1078 7.47525 38.2093 8.09782 40.1026 9.14979C43.5053 11.032 46.0557 14.1484 47.2277 17.8561C47.6895 19.4387 47.9087 21.0822 47.8779 22.7305C47.7963 25.3598 47.0226 27.921 45.6349 30.1557V30.0941L48.7589 35.715C48.5512 35.361 47.574 33.6721 45.5349 30.1518V30.1249V30.0941C46.8927 27.8699 47.6423 25.3279 47.7086 22.7228C47.7337 21.0955 47.5106 19.4739 47.0469 17.9138C45.8887 14.2486 43.3707 11.1661 40.0103 9.29984C38.1423 8.26628 36.0695 7.6568 33.9394 7.51472C31.6863 7.35477 29.4262 7.7032 27.326 8.53424C25.137 9.41765 23.1903 10.8104 21.6474 12.5969C20.126 14.3376 19.0418 16.4163 18.485 18.6602C17.9421 20.8079 17.8803 23.0491 18.3042 25.2235C18.7155 27.2834 19.5629 29.2315 20.7895 30.9367C22.9983 34.0227 26.3001 36.151 30.0229 36.8884L31.2732 37.0807C31.6887 37.1153 32.0965 37.1269 32.5005 37.1538C33.2832 37.1853 34.0672 37.1479 34.8435 37.0422C37.4396 36.6996 39.8997 35.6792 41.9762 34.0837L42.361 33.7952L42.0724 34.1799L42.0378 34.0876L48.7589 35.7188Z" fill="#263238"/>
<path d="M30.2806 20.2915H31.227L33.2891 17.4138V15.5248C33.2891 15.5248 34.7511 15.4363 34.5818 17.9062C34.4125 20.3762 34.5818 19.7491 34.5818 19.7491C34.5818 19.7491 37.6865 19.7491 37.9443 20.0338C38.1328 20.2261 38.2174 23.3116 38.2482 24.9813C38.2697 25.3848 38.1551 25.7839 37.9228 26.1145C37.6905 26.4452 37.354 26.6883 36.9671 26.8049C36.8581 26.8353 36.7455 26.8508 36.6324 26.8511C35.8629 26.8511 31.9041 26.2201 31.9041 26.2201H30.269L30.2806 20.2915Z" fill="#FF725E"/>
<path d="M27.5723 19.772L28.157 26.2392H29.7767V19.9028L27.5723 19.772Z" fill="#FF725E"/>
<path d="M108.61 101.726C108.61 101.726 117.513 101.726 117.878 110.021C118.244 118.315 91.9633 162.074 91.9633 162.074L83.6417 158.123L101.485 115.661L62.7666 111.852L63.8631 102.111L108.61 101.726Z" fill="#FFBE9D"/>
<path d="M93.7214 159.55L93.4636 160.138C93.4636 160.138 101.62 168.525 100.889 170.457L81.2256 161.608L84.438 155.183C86.7502 157.857 89.7434 159.388 93.7214 159.55Z" fill="#455A64"/>
<g opacity="0.6">
<path d="M85.4883 158.176C85.2732 158.149 85.0557 158.202 84.877 158.325C84.6983 158.447 84.5708 158.631 84.5188 158.842C84.4832 159.056 84.5312 159.275 84.6529 159.455C84.7747 159.635 84.9608 159.761 85.1728 159.807C85.4006 159.835 85.6306 159.778 85.8188 159.647C86.007 159.515 86.14 159.319 86.1923 159.096C86.2074 158.869 86.1334 158.645 85.9861 158.472C85.8389 158.299 85.6299 158.19 85.4036 158.168" fill="white"/>
</g>
<g opacity="0.6">
<path d="M81.2256 161.612L81.995 160.073L100.558 169.118C100.558 169.118 101.262 169.888 100.885 170.465L81.2256 161.612Z" fill="white"/>
</g>
<path d="M93.5059 160.223C93.4598 160.315 92.9596 160.146 92.3518 160.242C91.7439 160.338 91.3053 160.627 91.2322 160.55C91.1591 160.473 91.5554 159.981 92.2979 159.877C93.0404 159.773 93.5675 160.142 93.5059 160.223Z" fill="#263238"/>
<path d="M95.1872 162.004C95.1679 162.104 94.6755 162.081 94.1676 162.343C93.6598 162.605 93.3713 162.989 93.2789 162.943C93.1866 162.897 93.3674 162.324 94.0061 162.012C94.6447 161.7 95.2256 161.912 95.1872 162.004Z" fill="#263238"/>
<path d="M95.2485 164.997C95.1524 164.997 95.2485 164.439 95.714 164.024C96.1796 163.608 96.7413 163.605 96.7451 163.701C96.749 163.797 96.3604 163.955 95.9757 164.301C95.5909 164.647 95.3486 165.032 95.2485 164.997Z" fill="#263238"/>
<path d="M91.7672 70.4517L93.3484 75.2876L84.7268 75.9609L83.7227 73.3717L91.7672 70.4517Z" fill="#FFBE9D"/>
<path d="M116.247 76.7959C116.412 77.1268 116.843 77.1806 117.174 77.3537C117.482 77.5302 117.735 77.7896 117.903 78.1025C118.071 78.4154 118.148 78.7691 118.124 79.1235C118.069 79.8322 117.835 80.5152 117.443 81.1087C117.323 81.3498 117.148 81.5594 116.932 81.7204C116.822 81.7965 116.692 81.8373 116.559 81.8373C116.425 81.8373 116.295 81.7965 116.185 81.7204C115.931 81.5088 115.962 81.1163 116.016 80.7893C116.22 79.5621 115.955 78.0116 116.243 76.7997" fill="#FFBE9D"/>
<path d="M58.9079 16.1595C58.8348 15.62 58.9665 15.0727 59.277 14.6255C59.5875 14.1783 60.0543 13.8636 60.5853 13.7435L70.1033 7.68791C73.7313 6.8723 78.3018 12.9317 78.952 16.5866C79.609 20.6037 79.8667 24.6759 79.7214 28.7438C79.4598 34.9994 75.3587 35.6689 75.3587 35.6689L78.4365 56.4709L63.6054 47.326L58.9079 16.1595Z" fill="#FFBE9D"/>
<path d="M76.9743 21.7764C76.9997 21.9809 76.9444 22.1874 76.8202 22.3518C76.6959 22.5163 76.5124 22.6259 76.3087 22.6574C76.1082 22.6945 75.9012 22.6505 75.7331 22.5351C75.5651 22.4196 75.4497 22.2422 75.4123 22.0418C75.3869 21.8372 75.4422 21.6308 75.5664 21.4663C75.6907 21.3018 75.8741 21.1922 76.0779 21.1608C76.2784 21.1237 76.4854 21.1677 76.6534 21.2831C76.8215 21.3985 76.9369 21.5759 76.9743 21.7764Z" fill="#263238"/>
<path d="M78.1977 19.5294C78.1207 19.6141 77.4898 19.6025 76.6934 19.9141C75.897 20.2258 75.3699 20.6413 75.2699 20.6182C75.1699 20.5951 75.2699 20.4835 75.5123 20.2912C75.8465 20.0182 76.2252 19.8047 76.6318 19.6602C77.0198 19.5109 77.4318 19.434 77.8476 19.4332C78.1246 19.4255 78.2361 19.4909 78.1977 19.5294Z" fill="#263238"/>
<path d="M69.0953 22.1572C69.1197 22.3622 69.0635 22.5686 68.9386 22.733C68.8137 22.8973 68.6299 23.0068 68.4259 23.0382C68.226 23.0742 68.02 23.0297 67.8528 22.9144C67.6856 22.7991 67.5708 22.6223 67.5334 22.4227C67.5069 22.2179 67.5618 22.011 67.6862 21.8463C67.8107 21.6815 67.9948 21.5722 68.1989 21.5417C68.3994 21.5046 68.6064 21.5485 68.7745 21.664C68.9426 21.7794 69.058 21.9568 69.0953 22.1572Z" fill="#263238"/>
<path d="M69.9226 21.1416C69.8071 21.1878 69.2147 20.8339 68.2952 20.6992C67.3757 20.5645 66.6563 20.6992 66.5678 20.6376C66.4793 20.5761 66.6563 20.5107 66.9525 20.4376C67.414 20.3459 67.8882 20.3368 68.3529 20.4107C68.8033 20.4723 69.2379 20.6185 69.634 20.8415C69.9072 20.9993 69.9957 21.1224 69.9226 21.1416Z" fill="#263238"/>
<path d="M73.6771 26.3737C74.1065 26.1794 74.559 26.041 75.0237 25.962C75.2353 25.9159 75.4353 25.8505 75.4545 25.6966C75.4478 25.4711 75.3711 25.2534 75.2353 25.0733C74.9788 24.5604 74.7018 24.0359 74.4043 23.4998C73.2501 21.2569 72.3729 19.4025 72.4806 19.3563C72.5884 19.3102 73.5886 21.0914 74.7505 23.3344L75.5546 24.9194C75.7217 25.1654 75.7966 25.4624 75.7662 25.7581C75.7434 25.838 75.7029 25.9117 75.6475 25.9737C75.5922 26.0356 75.5236 26.0843 75.4469 26.1159C75.3306 26.1615 75.2091 26.1925 75.0852 26.2083C74.6246 26.3219 74.1516 26.3775 73.6771 26.3737Z" fill="#263238"/>
<path d="M75.3545 35.684C72.4809 36.1089 69.5456 35.7086 66.8906 34.5298C66.8906 34.5298 69.4183 38.8541 75.4969 37.5614L75.3545 35.684Z" fill="#EB996E"/>
<path d="M73.7736 28.4473C73.5667 28.1778 73.3021 27.9581 72.9992 27.8043C72.6963 27.6505 72.3627 27.5665 72.0231 27.5586C71.8268 27.5627 71.6363 27.6263 71.4769 27.741C71.3175 27.8558 71.1967 28.0162 71.1305 28.2011C71.0641 28.4399 71.0563 28.6913 71.1079 28.9338C71.1595 29.1762 71.2689 29.4027 71.4268 29.5938C71.5819 29.796 71.7927 29.9485 72.0332 30.0326C72.2738 30.1167 72.5337 30.1286 72.781 30.067C73.1823 29.9014 73.5243 29.6185 73.762 29.2552C73.8483 29.1627 73.9104 29.0504 73.9429 28.9282C73.9569 28.8511 73.9539 28.7719 73.934 28.6961C73.914 28.6203 73.8777 28.5498 73.8275 28.4896" fill="#EB996E"/>
<path d="M71.2498 27.2511C71.3883 27.2241 71.496 28.1436 72.3578 28.7053C73.2195 29.267 74.189 29.0516 74.2121 29.1785C74.2121 29.2362 74.0159 29.3824 73.6004 29.444C73.0632 29.514 72.5184 29.3928 72.0615 29.1016C71.6229 28.8197 71.311 28.3782 71.192 27.8705C71.1113 27.4742 71.1882 27.2511 71.2498 27.2511Z" fill="#263238"/>
<path d="M70.1918 17.3599C70.111 17.5908 69.2569 17.4946 68.2682 17.6331C67.2795 17.7716 66.4639 18.0524 66.3254 17.8485C66.2638 17.7485 66.4023 17.5292 66.7101 17.2984C67.1404 17.0143 67.6298 16.832 68.1411 16.7653C68.6524 16.6986 69.1721 16.7494 69.6609 16.9137C70.0379 17.0868 70.2264 17.2484 70.1918 17.3599Z" fill="#263238"/>
<path d="M78.2438 17.6331C78.0784 17.8447 77.332 17.7293 76.4587 17.8178C75.5853 17.9063 74.8621 18.1294 74.6697 17.9447C74.5812 17.8563 74.6697 17.6485 74.9813 17.4331C75.4049 17.1616 75.8879 16.9967 76.389 16.9525C76.8901 16.9083 77.3945 16.986 77.8591 17.1791C78.1899 17.3446 78.313 17.5292 78.2438 17.6331Z" fill="#263238"/>
<path d="M54.7337 32.1486C54.8876 29.3593 55.3339 20.4299 57.1344 15.5593C58.9349 10.6887 61.4702 8.50732 64.0786 7.48011C65.0638 7.05918 66.1409 6.89963 67.2058 7.0169C68.2707 7.13417 69.2873 7.5243 70.1573 8.14953C71.4961 9.09595 72.2732 12.2122 72.2732 12.2122C72.2732 12.2122 65.9445 14.3974 64.194 18.3678C62.1666 22.9075 61.8049 25.1158 61.8049 25.1158L61.2586 27.5357C61.2586 27.5357 62.4474 38.0541 62.9822 40.2316L54.4028 48.5263C54.6837 45.787 54.5798 34.934 54.7337 32.1486Z" fill="#263238"/>
<path d="M72.4618 12.2277C72.4618 12.2277 76.1282 11.4006 77.9787 15.4363C78.8174 17.2638 79.6484 22.7961 79.6484 22.7961C79.6484 22.7961 79.96 18.2756 79.4753 15.8172C78.9905 13.3588 77.3939 10.358 75.2933 8.83832C73.1927 7.31867 71.6 6.74543 68.3145 7.32251C69.3038 7.56989 70.202 8.09441 70.9036 8.83448C71.3999 9.41541 71.6462 9.93094 72.4618 12.2277Z" fill="#263238"/>
<path d="M61.8738 25.4161C61.6506 24.0618 60.0656 23.3232 58.9653 24.1426C58.3613 24.5889 57.9534 25.3968 58.1766 26.8357C58.7768 30.6829 62.497 29.2748 62.4855 29.1671C62.4739 29.0594 62.1354 26.9973 61.8738 25.4161Z" fill="#FFBE9D"/>
<path d="M61.0893 27.8935C61.0893 27.8935 61.0316 27.9512 60.9277 28.0204C60.778 28.1115 60.5995 28.1431 60.4276 28.1089C60.0005 28.0243 59.562 27.4318 59.435 26.747C59.3735 26.42 59.3866 26.0833 59.4735 25.7621C59.4892 25.6365 59.5357 25.5167 59.6089 25.4133C59.682 25.31 59.7796 25.2263 59.8928 25.1696C59.9668 25.1386 60.0492 25.1338 60.1262 25.1562C60.2033 25.1786 60.2703 25.2268 60.316 25.2927C60.3853 25.3928 60.3699 25.4697 60.393 25.4736C60.416 25.4774 60.4661 25.3966 60.393 25.2427C60.3571 25.1512 60.2904 25.075 60.2045 25.0273C60.0862 24.9646 59.9481 24.9508 59.8197 24.9888C59.6669 25.0449 59.531 25.1389 59.4246 25.2621C59.3183 25.3853 59.245 25.5335 59.2119 25.6929C59.1014 26.049 59.0803 26.4269 59.1503 26.7932C59.2927 27.5626 59.8005 28.2243 60.3814 28.2974C60.4886 28.311 60.5974 28.3005 60.6999 28.2665C60.8024 28.2326 60.8961 28.1761 60.9739 28.1012C61.097 27.9858 61.1047 27.8973 61.0893 27.8935Z" fill="#EB996E"/>
<path d="M65.5903 7.05692C65.5903 7.0877 66.1213 7.01075 66.9676 7.02614C67.4629 7.03586 67.9535 7.12283 68.4219 7.28391C68.9908 7.49427 69.5134 7.81308 69.9608 8.22263C70.7888 8.96262 71.4341 9.88442 71.8459 10.9157C72.1614 11.6851 72.2307 12.2315 72.2768 12.2238C72.2713 12.1004 72.2532 11.978 72.223 11.8583C71.9163 10.4169 71.1558 9.11172 70.0531 8.13415C69.5917 7.70668 69.0486 7.37691 68.4565 7.16464C67.9755 7.00372 67.471 6.92439 66.9638 6.92996C66.6242 6.92982 66.2849 6.95167 65.9481 6.99537C65.8274 7.00594 65.7077 7.02653 65.5903 7.05692Z" fill="#455A64"/>
<path d="M58.6308 28.6055C58.6322 28.5837 58.6322 28.5619 58.6308 28.5401L58.5769 28.367C58.55 28.2862 58.5231 28.19 58.4885 28.0823L58.3846 27.6975C58.1749 26.8565 58.0868 25.9898 58.123 25.1237C58.1719 23.8391 58.4876 22.5787 59.0502 21.4227C59.7692 20.0231 60.795 18.804 62.051 17.8563C62.6956 17.3588 63.3701 16.9014 64.0708 16.4867C64.7479 16.0789 65.4289 15.7403 66.0598 15.3633C67.1632 14.6902 68.2128 13.9326 69.1992 13.0973C70.0417 12.3856 70.6919 11.7738 71.1228 11.343C71.3421 11.1275 71.5075 10.9582 71.6191 10.839L71.746 10.7043C71.773 10.6735 71.7883 10.6581 71.7845 10.6543L71.7383 10.6928L71.5998 10.8197L71.092 11.316C70.6419 11.7354 69.984 12.3355 69.1338 13.0319C68.1438 13.8533 67.0945 14.6005 65.9944 15.2671C65.3712 15.6519 64.6825 15.9712 64.0015 16.3828C63.294 16.7974 62.6142 17.2575 61.9664 17.7601C60.6892 18.7169 59.6471 19.9524 58.9193 21.3727C58.355 22.5448 58.0455 23.8233 58.0114 25.1237C57.9849 25.9971 58.0874 26.8695 58.3153 27.7129L58.4307 28.0977C58.4731 28.2054 58.5077 28.2977 58.5346 28.3785L58.6039 28.5516C58.6193 28.5863 58.627 28.6055 58.6308 28.6055Z" fill="#455A64"/>
<path d="M57.5729 27.2511C57.5729 27.2511 57.5729 27.228 57.5729 27.1895L57.5498 27.0049C57.5498 26.8433 57.4883 26.6202 57.4575 26.3008C57.3669 25.4343 57.3527 24.5614 57.4152 23.6924C57.5091 22.4054 57.7677 21.1357 58.1846 19.9144C58.7054 18.4228 59.4655 17.0259 60.4353 15.7786C61.4339 14.546 62.5992 13.4583 63.8978 12.547C65.0519 11.6852 66.2061 11.0081 67.1256 10.4002C68.0451 9.79235 68.8107 9.32683 69.3224 8.97289C69.5801 8.80361 69.7725 8.66126 69.9033 8.56508L70.0534 8.45736L70.1034 8.41504C70.1034 8.41504 70.0803 8.41504 70.0457 8.44582L69.8879 8.542L69.2916 8.92672C68.7761 9.26143 68.0143 9.73464 67.0717 10.3117C66.1292 10.8888 65.0058 11.5813 63.8208 12.4431C62.5195 13.3555 61.3538 14.4474 60.3583 15.6863C59.3693 16.9455 58.5958 18.36 58.0692 19.8721C57.6474 21.1053 57.3888 22.3883 57.2998 23.6886C57.2463 24.5614 57.2759 25.4374 57.3883 26.3047C57.4267 26.6125 57.4806 26.8471 57.5075 27.0087C57.5075 27.0818 57.5345 27.1434 57.546 27.1895C57.5575 27.2357 57.5691 27.2511 57.5729 27.2511Z" fill="#455A64"/>
<path d="M78.1133 42.0669C78.1133 42.0669 83.0724 44.0829 84.0226 46.6643C84.9729 49.2458 92.1826 70.5634 92.1826 70.5634L83.8149 73.772L79.9984 56.2286L78.1133 42.0669Z" fill="#455A64"/>
<path d="M52.4751 102.603C52.4751 102.603 103.643 100.252 106.856 101.099C110.068 101.945 111.988 103.565 112.627 107.416C113.265 111.267 123.13 162.289 123.13 162.289L114.158 164.928C114.158 164.928 101.57 136.19 101.035 131.38C100.5 126.571 98.7266 116.715 98.7266 116.715C98.7266 116.715 79.275 117.034 64.9517 116.715C50.6284 116.395 52.5521 103.138 52.5521 103.138L52.4751 102.603Z" fill="#FFBE9D"/>
<path d="M114.046 165.159L113.981 165.005C113.465 163.828 101.377 136.185 100.846 131.4C100.354 126.987 98.8034 118.203 98.5726 116.907C96.649 116.938 78.4246 117.207 64.9555 116.907C60.5042 116.807 57.1533 115.457 54.9873 112.898C51.7094 109.024 52.2942 103.599 52.3673 103.142L52.248 102.422H52.4635C54.5564 102.326 103.705 100.079 106.906 100.926C110.499 101.876 112.211 103.749 112.819 107.393C113.45 111.194 123.206 161.754 123.322 162.266L123.353 162.435L114.046 165.159ZM98.8919 116.518L98.9227 116.68C98.9419 116.776 100.7 126.598 101.231 131.357C101.735 135.901 113.269 162.408 114.269 164.693L122.914 162.154C122.283 158.888 113.057 111.14 112.442 107.447C111.865 103.984 110.234 102.191 106.81 101.291C103.778 100.487 56.33 102.626 52.702 102.791L52.7597 103.142V103.169C52.7597 103.226 51.9903 108.762 55.2912 112.656C57.3841 115.126 60.6389 116.426 64.9709 116.526C79.1248 116.842 98.5418 116.526 98.738 116.526L98.8919 116.518Z" fill="#EB996E"/>
<path d="M55.9298 75.007L57.2187 82.9785C57.2187 82.9785 51.6209 93.5853 50.99 102.703C50.6899 107.035 53.1752 115.907 53.1752 115.907C53.1752 115.907 72.8884 118.073 83.5222 117.796L94.8677 117.3L96.8683 99.5755L84.1339 97.7365L84.3263 73.5835C84.3263 73.5835 86.6346 67.2241 86.8116 65.3428C87.2194 61.3724 87.0501 57.3559 83.0836 52.2083L78.113 42.067L76.4548 41.2975L77.2435 53.5818L62.9549 40.0049L55.7182 42.6018L53.6677 52.2776L55.9298 75.007Z" fill="#455A64"/>
<g opacity="0.3">
<path d="M80.6985 100.672C79.7713 100.833 73.081 100.93 72.1538 101.091C71.996 101.139 71.8301 101.155 71.666 101.137C71.502 101.119 71.3433 101.068 71.1997 100.987C71.0839 100.878 71.0036 100.736 70.9693 100.58C70.935 100.424 70.9483 100.262 71.0073 100.114C71.13 99.816 71.3226 99.5521 71.569 99.3445C73.1887 97.8056 75.2931 96.9169 77.3398 96.0474C77.9939 95.7742 78.7018 95.4934 79.3866 95.6627C79.7224 95.7737 80.026 95.9648 80.2714 96.2195C80.5167 96.4743 80.6963 96.7849 80.7947 97.1246C80.9898 97.8029 81.0704 98.5089 81.0332 99.2137" fill="black"/>
</g>
<g opacity="0.3">
<path d="M56.4571 80.5658C58.8463 80.008 60.3467 77.6535 61.3162 75.399C62.2857 73.1445 63.0859 70.6553 64.9864 69.101C66.3791 67.9469 68.245 67.439 69.4492 66.1002C70.0216 65.4444 70.4011 64.6428 70.5458 63.7845C70.6904 62.9261 70.5945 62.0445 70.2687 61.2373C69.9224 60.414 69.2261 59.6368 68.3451 59.5907C67.3063 59.5368 66.4984 60.4371 65.8636 61.2642C62.9602 65.0679 60.2223 68.992 57.6498 73.0368C56.2686 75.2105 54.8913 77.8497 55.8531 80.2388" fill="black"/>
</g>
<path d="M56.4724 43.8711C56.4724 43.8711 52.4289 45.1561 50.967 47.6914C49.505 50.2267 47.0813 62.5379 46.4965 65.8542C45.9117 69.1705 43.084 82.8167 46.4965 84.9634C49.909 87.1102 54.3949 83.8092 55.5644 81.8433C56.734 79.8774 61.5084 69.6553 61.5084 69.6553L57.2187 66.0504C57.2187 66.0504 57.9882 56.3015 57.7073 54.2509C57.4265 52.2004 56.4724 43.8711 56.4724 43.8711Z" fill="#FFBE9D"/>
<path d="M43.792 69.182L53.1754 69.7938L57.4612 64.7616L58.6462 56.8363L58.3307 41.6743C58.3307 41.6743 49.9553 43.7172 48.1432 50.0844C46.8005 54.7895 43.792 69.182 43.792 69.182Z" fill="#455A64"/>
<path d="M60.3965 51.2503C59.8579 51.1772 59.1692 51.812 59.6271 53.3432C60.0118 54.6204 60.7351 55.8631 60.6812 56.5748C60.6273 57.2866 60.3503 58.7678 60.3503 59.5372C60.3168 60.2895 60.2436 61.0394 60.131 61.784L53.7446 69.4785L59.2731 74.3568L63.6474 67.4856C63.6474 67.4856 64.967 67.7049 65.7326 66.8277L66.8868 65.5081C66.8868 65.5081 69.8492 64.4117 69.2451 62.8151C69.2451 62.8151 70.1223 61.9802 69.3259 60.6414C69.3259 60.6414 69.7414 59.2487 69.1374 58.4292C69.1374 58.4292 69.0836 56.5633 68.5873 56.2324C68.091 55.9016 62.9588 55.8477 62.9588 55.8477C62.6793 54.9946 62.357 54.1561 61.9931 53.3355C61.4314 52.4083 61.1467 51.3503 60.3965 51.2503Z" fill="#FFBE9D"/>
<path d="M62.5821 58.8178C62.5821 58.837 62.4474 58.7639 62.3282 58.5831C62.1728 58.3395 62.1049 58.0502 62.1357 57.7628C62.1664 57.4755 62.294 57.2071 62.4974 57.0019C62.6513 56.8519 62.7821 56.8057 62.7937 56.8249C62.5649 57.1019 62.4077 57.4309 62.3359 57.7829C62.3362 58.1423 62.4206 58.4967 62.5821 58.8178Z" fill="#EB996E"/>
<path d="M68.9223 58.2905C68.1486 58.5161 67.3526 58.6567 66.5485 58.7099C65.7512 58.8258 64.9434 58.8529 64.1401 58.7907C64.9307 58.653 65.7283 58.5592 66.5293 58.5098C67.3221 58.391 68.1211 58.3178 68.9223 58.2905Z" fill="#EB996E"/>
<path d="M69.3759 60.4913C68.7382 60.7503 68.065 60.9111 67.3792 60.9684C66.7029 61.0935 66.0118 61.1169 65.3286 61.0376C65.3286 60.9799 66.2366 60.9222 67.3523 60.7683C68.468 60.6144 69.3644 60.4375 69.3759 60.4913Z" fill="#EB996E"/>
<path d="M69.2643 62.7493C68.2689 63.0546 67.2225 63.1579 66.1865 63.0533C66.6927 62.9426 67.2077 62.8769 67.7254 62.8571C68.2343 62.7766 68.7492 62.7405 69.2643 62.7493Z" fill="#EB996E"/>
<path d="M64.4169 63.4419C64.4169 63.465 64.3092 63.4419 64.1784 63.3688C64.006 63.2513 63.8849 63.0724 63.8399 62.8687C63.7906 62.6672 63.818 62.4547 63.9168 62.2724C63.9937 62.1377 64.0784 62.0838 64.0976 62.0992C64.1169 62.1146 63.9399 62.4339 64.0322 62.8225C64.1246 63.2111 64.4439 63.3919 64.4169 63.4419Z" fill="#EB996E"/>
<path d="M63.155 61.6105C63.155 61.6297 63.0281 61.5643 62.9088 61.3989C62.7557 61.1804 62.6677 60.9229 62.6549 60.6564C62.639 60.3892 62.6976 60.1228 62.8242 59.8869C62.928 59.71 63.0281 59.633 63.0473 59.6484C62.9296 59.9666 62.8647 60.3019 62.8549 60.641C62.904 60.9778 63.0053 61.3049 63.155 61.6105Z" fill="#EB996E"/>
<path d="M67.6871 65.1772C67.4081 65.3251 67.1017 65.4141 66.7869 65.4388C66.4821 65.5265 66.1622 65.5488 65.8481 65.5042C66.1265 65.3547 66.4333 65.2655 66.7484 65.2426C67.0528 65.1526 67.3732 65.1303 67.6871 65.1772Z" fill="#EB996E"/>
<path d="M65.2132 55.8823C65.2132 55.9401 64.4437 55.9401 63.4704 56.0362C62.497 56.1324 61.7468 56.2825 61.7314 56.2286C62.2768 55.9976 62.8594 55.8673 63.4512 55.8439C64.0362 55.7523 64.6328 55.7653 65.2132 55.8823Z" fill="#EB996E"/>
<path d="M82.1068 74.376H113.908C114.469 74.376 115.007 74.5989 115.404 74.9957C115.801 75.3926 116.024 75.9308 116.024 76.492V99.0329H79.9985V76.4881C79.9995 75.9289 80.2219 75.3929 80.6169 74.9971C81.012 74.6013 81.5476 74.378 82.1068 74.376Z" fill="#E0E0E0"/>
<path d="M116.024 100.672H73.7041C73.7041 100.241 73.8752 99.8283 74.1796 99.5239C74.4841 99.2194 74.897 99.0483 75.3276 99.0483H116.024V100.672Z" fill="#E0E0E0"/>
<path d="M114.693 75.9609H81.0908V99.0482H114.693V75.9609Z" fill="white"/>
<path d="M114.689 99.0326C114.689 99.0326 114.689 98.8864 114.689 98.6094C114.689 98.3324 114.689 97.9169 114.689 97.3859C114.689 96.3126 114.689 94.7429 114.666 92.7346C114.666 88.7181 114.643 82.9588 114.623 75.9453L114.704 76.0261H81.1064L81.2064 75.9261C81.2064 84.1707 81.2064 91.9998 81.2064 99.0095L81.1179 98.9171L105.321 98.9633L112.246 98.9902H114.089H114.562H114.727H114.573H114.108H112.284L105.394 99.0133L81.1294 99.0595H81.0371V99.0326C81.0371 92.019 81.0371 84.1899 81.0371 75.9491V75.8491H81.1371H114.735H114.816V75.9491C114.816 82.9819 114.785 88.7604 114.774 92.7885C114.774 94.7891 114.774 96.351 114.774 97.4052C114.774 97.9322 114.774 98.3362 114.774 98.6132C114.774 98.8902 114.689 99.0326 114.689 99.0326Z" fill="#263238"/>
<path d="M115.847 99.0326C115.847 99.0904 106.763 99.1327 95.5603 99.1327C84.3572 99.1327 75.27 99.0904 75.27 99.0326C75.27 98.9749 84.3533 98.9326 95.5603 98.9326C106.767 98.9326 115.847 98.9942 115.847 99.0326Z" fill="#263238"/>
<path d="M97.888 96.3361C102.764 96.3361 106.717 92.383 106.717 87.5067C106.717 82.6303 102.764 78.6772 97.888 78.6772C93.0117 78.6772 89.0586 82.6303 89.0586 87.5067C89.0586 92.383 93.0117 96.3361 97.888 96.3361Z" fill="#FF725E"/>
<path d="M92.4019 87.7221L94.2716 85.9524L96.8531 88.33L101.935 83.5479L103.782 85.2945L96.8262 91.8964L92.4019 87.7221Z" fill="white"/>
<path d="M60.1388 61.784C60.1811 61.8186 57.5303 65.0195 54.2179 68.9283C50.9054 72.8371 48.1854 75.9764 48.1431 75.9495C48.1008 75.9226 50.7515 72.7178 54.064 68.8052C57.3764 64.8925 60.0964 61.7493 60.1388 61.784Z" fill="#EB996E"/>
<path d="M59.6812 56.8247C59.5947 57.9408 59.4418 59.0508 59.2234 60.1487C59.0719 61.2586 58.8535 62.3584 58.5693 63.442C58.6557 62.3246 58.8086 61.2133 59.0272 60.1141C59.1811 59.0059 59.3995 57.9075 59.6812 56.8247Z" fill="#263238"/>
<path d="M84.3267 73.5835C84.3404 73.5049 84.361 73.4277 84.3882 73.3527L84.596 72.7063C84.7807 72.1485 85.0538 71.3406 85.3655 70.3364C85.7376 69.1633 86.0483 67.9716 86.2965 66.7662C86.6064 65.2944 86.7446 63.7916 86.7081 62.288C86.5691 59.5503 85.8002 56.8817 84.4613 54.4897C84.0637 53.7613 83.6271 53.055 83.1533 52.3737C82.9917 52.1313 82.8532 51.9505 82.7686 51.8235C82.7191 51.7603 82.6765 51.692 82.6416 51.6196C82.7004 51.6728 82.7532 51.7321 82.7993 51.7966C82.8994 51.9197 83.0494 52.0928 83.2225 52.3314C83.7226 52.9982 84.1801 53.6959 84.5922 54.4204C85.2045 55.499 85.7084 56.6357 86.0964 57.8137C86.5791 59.2567 86.8575 60.7602 86.9236 62.2803C86.9624 63.8003 86.8177 65.3194 86.4927 66.8047C86.2337 68.0133 85.9075 69.2065 85.5155 70.3788C85.1846 71.379 84.8922 72.1831 84.6845 72.7333C84.5845 72.9897 84.5037 73.2013 84.4421 73.368C84.4125 73.4443 84.3738 73.5167 84.3267 73.5835Z" fill="#263238"/>
<path d="M76.1513 61.603C76.167 61.7822 76.167 61.9624 76.1513 62.1416C76.1507 62.3528 76.1353 62.5636 76.1051 62.7726C76.0774 63.0516 76.035 63.329 75.9781 63.6036C75.9166 63.9367 75.8343 64.2656 75.7319 64.5885C75.6235 64.9631 75.4951 65.3317 75.3472 65.6926C74.9921 66.5068 74.551 67.2806 74.0314 68.001C73.4989 68.72 72.8886 69.378 72.2117 69.9631C71.915 70.2165 71.6042 70.4528 71.2807 70.671C71.0039 70.8676 70.7147 71.0462 70.415 71.2057C70.1666 71.3494 69.9096 71.4778 69.6456 71.5904C69.4565 71.6826 69.2611 71.761 69.0608 71.8251C68.8943 71.8937 68.7217 71.9465 68.5453 71.9829C68.5261 71.9405 69.2647 71.7136 70.3266 71.0942C70.617 70.9273 70.8982 70.7449 71.1691 70.5478C71.4692 70.3478 71.7577 70.0939 72.0732 69.8361C73.3988 68.6698 74.4499 67.2246 75.151 65.6041C75.2977 65.2519 75.4261 64.8924 75.5357 64.5269C75.642 64.2089 75.7307 63.8852 75.8012 63.5574C76.1205 62.3725 76.1128 61.603 76.1513 61.603Z" fill="#263238"/>
<path d="M86.7269 65.0999C86.705 65.0787 86.6868 65.054 86.673 65.0268L86.5384 64.7922C86.4114 64.5806 86.2383 64.292 86.019 63.9342C85.7997 63.5764 85.4573 63.1378 85.0995 62.6377C84.7417 62.1376 84.2877 61.5912 83.8068 60.9795C81.8294 58.5635 78.9093 55.3895 75.5622 52.0001C72.2151 48.6107 69.0719 45.656 66.7674 43.5362L65.1978 42.1319C64.7361 41.7241 64.336 41.3625 64.0013 41.0855L63.2318 40.4353L63.0356 40.2622C63.0103 40.2442 62.9882 40.2221 62.9702 40.1968C62.9978 40.2103 63.0236 40.2271 63.0472 40.2468C63.1049 40.2891 63.1741 40.3391 63.2549 40.4045L64.0474 41.0239L65.267 42.0473C65.7402 42.4551 66.2711 42.9206 66.8559 43.4323C69.1912 45.5098 72.3421 48.4606 75.7046 51.8462C79.067 55.2318 81.964 58.4327 83.9146 60.8757C84.3916 61.4951 84.8225 62.0529 85.1918 62.5531L86.0844 63.8765C86.2883 64.2612 86.4691 64.5382 86.573 64.7575L86.6961 64.9884C86.7218 65.0627 86.732 65.0999 86.7269 65.0999Z" fill="#263238"/>
<path d="M79.2556 82.8973C79.185 82.922 79.1111 82.9363 79.0363 82.9397L78.4092 83.0281C77.8629 83.1012 77.0665 83.1859 76.1009 83.2744C74.1349 83.4513 71.4072 83.5937 68.4064 83.5591C65.4055 83.5244 62.6663 83.3051 60.7119 83.082C59.7309 82.9704 58.9383 82.8627 58.4036 82.7742L57.7765 82.6742C57.7029 82.6661 57.6306 82.6494 57.561 82.6242C57.6351 82.6149 57.7101 82.6149 57.7842 82.6242L58.4151 82.6896C58.9614 82.755 59.7578 82.8396 60.7235 82.932C62.6817 83.1205 65.4017 83.3167 68.4179 83.3513C71.4342 83.3859 74.1465 83.2628 76.1124 83.1243C77.0935 83.0551 77.8898 82.9935 78.4207 82.9435L79.0517 82.8935C79.1196 82.8877 79.188 82.889 79.2556 82.8973Z" fill="#263238"/>
<path d="M95.918 74.3491C95.918 74.3491 102.22 71.8907 102.816 71.6945C103.412 71.4983 108.922 71.0674 108.922 71.0674L116.024 73.6181C116.024 73.6181 116.089 75.0762 114.431 74.88C112.969 74.6331 111.527 74.2782 110.118 73.8182L109.122 74.4106L95.918 74.3491Z" fill="#FFBE9D"/>
<path d="M115.682 75.2836C115.847 75.6183 116.278 75.6684 116.609 75.8453C116.915 76.0241 117.166 76.284 117.333 76.5963C117.501 76.9086 117.579 77.2612 117.559 77.6151C117.504 78.3225 117.269 79.0043 116.878 79.5964C116.758 79.8354 116.584 80.0435 116.37 80.2042C116.261 80.2804 116.131 80.3212 115.997 80.3212C115.864 80.3212 115.733 80.2804 115.624 80.2042C115.519 80.0763 115.448 79.9236 115.419 79.7607C115.389 79.5978 115.401 79.43 115.455 79.2732C115.659 78.0459 115.393 76.4917 115.682 75.2798" fill="#FFBE9D"/>
<path d="M122.822 160.385L123.037 160.985C123.037 160.985 134.733 161.443 135.533 163.343L115.189 170.491L113.084 163.624C116.605 163.963 119.825 163.009 122.822 160.385Z" fill="#455A64"/>
<g opacity="0.6">
<path d="M115.908 165.063C115.733 165.192 115.611 165.381 115.567 165.594C115.522 165.807 115.557 166.029 115.666 166.217C115.788 166.4 115.977 166.529 116.192 166.575C116.408 166.622 116.633 166.583 116.82 166.467C117.006 166.331 117.134 166.131 117.18 165.906C117.226 165.68 117.187 165.446 117.07 165.248C116.923 165.074 116.715 164.964 116.49 164.941C116.264 164.917 116.038 164.982 115.858 165.121" fill="white"/>
</g>
<g opacity="0.6">
<path d="M115.189 170.491L114.685 168.841L134.368 162.593C134.368 162.593 135.41 162.67 135.522 163.362L115.189 170.491Z" fill="white"/>
</g>
<path d="M123.13 161.019C123.16 161.119 122.679 161.339 122.302 161.831C121.925 162.324 121.814 162.831 121.71 162.824C121.606 162.816 121.548 162.189 122.014 161.604C122.479 161.019 123.118 160.919 123.13 161.019Z" fill="#263238"/>
<path d="M125.573 161.15C125.63 161.239 125.257 161.558 125.069 162.096C124.88 162.635 124.938 163.116 124.838 163.147C124.738 163.178 124.476 162.635 124.726 161.969C124.976 161.304 125.538 161.058 125.573 161.15Z" fill="#263238"/>
<path d="M127.681 163.281C127.6 163.335 127.296 162.897 127.35 162.254C127.404 161.612 127.804 161.242 127.873 161.308C127.943 161.373 127.762 161.769 127.716 162.289C127.669 162.808 127.777 163.235 127.681 163.281Z" fill="#263238"/>
</svg>
