<svg width="48" height="48" viewBox="0 0 48 48" fill="none" xmlns="http://www.w3.org/2000/svg">
<rect width="48" height="48" rx="24" fill="#9747FF" fill-opacity="0.4"/>
<rect width="48" height="48" rx="24" fill="white" fill-opacity="0.2"/>
<path d="M17.0611 32.0451L17.5019 31.4383L17.0611 32.0451ZM15.9549 30.9389L16.5617 30.4981L15.9549 30.9389ZM32.0451 30.9389L31.4383 30.4981L32.0451 30.9389ZM30.9389 32.0451L30.4981 31.4383L30.9389 32.0451ZM30.9389 15.9549L30.4981 16.5617L30.9389 15.9549ZM32.0451 17.0611L31.4383 17.5019L32.0451 17.0611ZM17.0611 15.9549L17.5019 16.5617L17.0611 15.9549ZM15.9549 17.0611L16.5617 17.5019L15.9549 17.0611ZM24.75 23C24.75 22.5858 24.4142 22.25 24 22.25C23.5858 22.25 23.25 22.5858 23.25 23H24.75ZM23.25 29C23.25 29.4142 23.5858 29.75 24 29.75C24.4142 29.75 24.75 29.4142 24.75 29H23.25ZM24 32.25C22.1084 32.25 20.75 32.249 19.698 32.135C18.6601 32.0225 18.0099 31.8074 17.5019 31.4383L16.6202 32.6518C17.4266 33.2377 18.3709 33.5 19.5365 33.6263C20.688 33.751 22.1418 33.75 24 33.75V32.25ZM14.25 24C14.25 25.8582 14.249 27.312 14.3737 28.4635C14.5 29.6291 14.7623 30.5734 15.3482 31.3798L16.5617 30.4981C16.1926 29.9901 15.9775 29.3399 15.865 28.302C15.751 27.25 15.75 25.8916 15.75 24H14.25ZM17.5019 31.4383C17.1411 31.1762 16.8238 30.8589 16.5617 30.4981L15.3482 31.3798C15.7028 31.8679 16.1321 32.2972 16.6202 32.6518L17.5019 31.4383ZM32.25 24C32.25 25.8916 32.249 27.25 32.135 28.302C32.0225 29.3399 31.8074 29.9901 31.4383 30.4981L32.6518 31.3798C33.2377 30.5734 33.5 29.6291 33.6263 28.4635C33.751 27.312 33.75 25.8582 33.75 24H32.25ZM24 33.75C25.8582 33.75 27.312 33.751 28.4635 33.6263C29.6291 33.5 30.5734 33.2377 31.3798 32.6518L30.4981 31.4383C29.9901 31.8074 29.3399 32.0225 28.302 32.135C27.25 32.249 25.8916 32.25 24 32.25V33.75ZM31.4383 30.4981C31.1762 30.8589 30.8589 31.1762 30.4981 31.4383L31.3798 32.6518C31.8679 32.2972 32.2972 31.8679 32.6518 31.3798L31.4383 30.4981ZM24 15.75C25.8916 15.75 27.25 15.751 28.302 15.865C29.3399 15.9775 29.9901 16.1926 30.4981 16.5617L31.3798 15.3482C30.5734 14.7623 29.6291 14.5 28.4635 14.3737C27.312 14.249 25.8582 14.25 24 14.25V15.75ZM33.75 24C33.75 22.1418 33.751 20.688 33.6263 19.5365C33.5 18.3709 33.2377 17.4266 32.6518 16.6202L31.4383 17.5019C31.8074 18.0099 32.0225 18.6601 32.135 19.698C32.249 20.75 32.25 22.1084 32.25 24H33.75ZM30.4981 16.5617C30.8589 16.8238 31.1762 17.1411 31.4383 17.5019L32.6518 16.6202C32.2972 16.1321 31.8679 15.7028 31.3798 15.3482L30.4981 16.5617ZM24 14.25C22.1418 14.25 20.688 14.249 19.5365 14.3737C18.3709 14.5 17.4266 14.7623 16.6202 15.3482L17.5019 16.5617C18.0099 16.1926 18.6601 15.9775 19.698 15.865C20.75 15.751 22.1084 15.75 24 15.75V14.25ZM15.75 24C15.75 22.1084 15.751 20.75 15.865 19.698C15.9775 18.6601 16.1926 18.0099 16.5617 17.5019L15.3482 16.6202C14.7623 17.4266 14.5 18.3709 14.3737 19.5365C14.249 20.688 14.25 22.1418 14.25 24H15.75ZM16.6202 15.3482C16.1321 15.7028 15.7028 16.1321 15.3482 16.6202L16.5617 17.5019C16.8238 17.1411 17.1411 16.8238 17.5019 16.5617L16.6202 15.3482ZM23.25 23V29H24.75V23H23.25Z" fill="#9747FF"/>
<path d="M25 20C25 20.5523 24.5523 21 24 21C23.4477 21 23 20.5523 23 20C23 19.4477 23.4477 19 24 19C24.5523 19 25 19.4477 25 20Z" fill="#9747FF"/>
</svg>
