<svg width="48" height="48" viewBox="0 0 48 48" fill="none" xmlns="http://www.w3.org/2000/svg">
<rect width="48" height="48" rx="24" fill="#CFCED8"/>
<path d="M15 24C15 23.2365 15 22.577 15.011 22C15.0405 20.4608 15.1486 19.508 15.545 18.73C16.0243 17.7892 16.7892 17.0243 17.73 16.545C18.7996 16 20.1997 16 23 16H25C27.8003 16 29.2004 16 30.27 16.545C31.2108 17.0243 31.9757 17.7892 32.455 18.73C32.8514 19.508 32.9595 20.4608 32.989 22C33 22.577 33 23.2365 33 24C33 26.8003 33 28.2004 32.455 29.27C31.9757 30.2108 31.2108 30.9757 30.27 31.455C29.2004 32 27.8003 32 25 32H23C20.1997 32 18.7996 32 17.73 31.455C16.7892 30.9757 16.0243 30.2108 15.545 29.27C15 28.2004 15 26.8003 15 24Z" fill="#CFCED8"/>
<path d="M29 29H25M32.989 22C33 22.577 33 23.2365 33 24C33 26.8003 33 28.2004 32.455 29.27C31.9757 30.2108 31.2108 30.9757 30.27 31.455C29.2004 32 27.8003 32 25 32H23C20.1997 32 18.7996 32 17.73 31.455C16.7892 30.9757 16.0243 30.2108 15.545 29.27C15 28.2004 15 26.8003 15 24C15 23.2365 15 22.577 15.011 22M32.989 22C32.9595 20.4608 32.8514 19.508 32.455 18.73C31.9757 17.7892 31.2108 17.0243 30.27 16.545C29.2004 16 27.8003 16 25 16H23C20.1997 16 18.7996 16 17.73 16.545C16.7892 17.0243 16.0243 17.7892 15.545 18.73C15.1486 19.508 15.0405 20.4608 15.011 22M32.989 22H15.011" stroke="#363062" stroke-width="1.5" stroke-linecap="round"/>
</svg>
