<svg width="11" height="12" viewBox="0 0 11 12" fill="none" xmlns="http://www.w3.org/2000/svg">
<path d="M8.12945 1.36737C8.58909 1.36525 8.9049 1.36433 9.14547 1.39144C9.22365 1.40025 9.28899 1.4116 9.34448 1.42532L4.49492 6.4292C4.36128 6.5671 4.36128 6.79067 4.49492 6.92856C4.62856 7.06646 4.84524 7.06646 4.97888 6.92856L9.82843 1.92468C9.84173 1.98193 9.85273 2.04935 9.86127 2.13002C9.88754 2.37824 9.88665 2.70411 9.8846 3.17837L9.87955 4.34697C9.87871 4.54198 10.0312 4.70077 10.2202 4.70164C10.4092 4.70251 10.5631 4.54513 10.564 4.35012L10.5691 3.16048C10.5711 2.71241 10.5726 2.34621 10.5416 2.05335C10.5094 1.74883 10.4384 1.47922 10.2644 1.24721C10.2268 1.19699 10.1861 1.14931 10.1428 1.10442C10.0983 1.05839 10.051 1.01531 10.001 0.975456C9.7762 0.79591 9.5149 0.722668 9.21977 0.689412C8.93595 0.657431 8.58104 0.659072 8.1468 0.661079L6.99384 0.666387C6.80485 0.667257 6.65232 0.826049 6.65316 1.02106C6.65401 1.21607 6.8079 1.37345 6.9969 1.37258L8.12945 1.36737Z" fill="#363062"/>
<path d="M5.86539 2.16298C5.58905 2.15956 5.28467 2.15956 4.95021 2.15956H4.92808C4.09011 2.15955 3.43324 2.15955 2.91211 2.21781C2.3803 2.27726 1.9494 2.40076 1.58149 2.67657C1.35876 2.84354 1.16289 3.04565 1.00106 3.27546C0.733763 3.65508 0.614073 4.0997 0.556455 4.64843C0.499993 5.18615 0.499996 5.86391 0.5 6.72855V6.77116C0.499996 7.6358 0.499993 8.31357 0.556455 8.85128C0.614073 9.40002 0.733763 9.84463 1.00106 10.2242C1.16289 10.4541 1.35876 10.6562 1.58149 10.8231C1.9494 11.099 2.3803 11.2225 2.91211 11.2819C3.43324 11.3402 4.09008 11.3402 4.92804 11.3402H4.96938C5.80734 11.3402 6.46422 11.3402 6.98534 11.2819C7.51715 11.2225 7.94805 11.099 8.31596 10.8231C8.53869 10.6562 8.73457 10.4541 8.89639 10.2242C9.16369 9.84463 9.28338 9.40002 9.341 8.85128C9.39746 8.31358 9.39746 7.63583 9.39745 6.77121V6.74823C9.39745 6.40316 9.39745 6.08913 9.39414 5.80403C9.39188 5.60903 9.23684 5.45285 9.04785 5.45518C8.85887 5.45752 8.70751 5.61749 8.70977 5.81249C8.71303 6.09298 8.71303 6.40303 8.71303 6.74986C8.71303 7.64041 8.71256 8.27996 8.66056 8.77522C8.60925 9.26387 8.51109 9.56999 8.34268 9.80916C8.22307 9.97902 8.0783 10.1284 7.91367 10.2518C7.68188 10.4256 7.3852 10.5269 6.91162 10.5798C6.43164 10.6335 5.81181 10.634 4.94873 10.634C4.08564 10.634 3.46581 10.6335 2.98583 10.5798C2.51225 10.5269 2.21557 10.4256 1.98378 10.2518C1.81916 10.1284 1.67438 9.97902 1.55477 9.80916C1.38636 9.56999 1.2882 9.26387 1.23689 8.77522C1.18489 8.27996 1.18442 7.64041 1.18442 6.74986C1.18442 5.85931 1.18489 5.21975 1.23689 4.7245C1.2882 4.23585 1.38637 3.92973 1.55477 3.69056C1.67438 3.52069 1.81915 3.37131 1.98378 3.2479C2.21557 3.07413 2.51225 2.97284 2.98583 2.9199C3.46581 2.86624 4.08564 2.86576 4.94873 2.86576C5.28486 2.86576 5.58535 2.86576 5.85718 2.86912C6.04617 2.87146 6.20121 2.71528 6.20347 2.52028C6.20574 2.32528 6.05437 2.16531 5.86539 2.16298Z" fill="#363062"/>
</svg>
