<svg width="48" height="48" viewBox="0 0 48 48" fill="none" xmlns="http://www.w3.org/2000/svg">
<rect width="48" height="48" rx="24" fill="#CFCED8"/>
<path d="M15 23C15 19.2503 15 17.3754 15.9549 16.0611C16.2633 15.6366 16.6366 15.2633 17.0611 14.9549C18.3754 14 20.2503 14 24 14C25.1689 14 26.1557 14 27 14.0289C28.8642 14.0928 30.0343 14.2977 30.9389 14.9549C31.3634 15.2633 31.7367 15.6366 32.0451 16.0611C32.7023 16.9657 32.9072 18.1358 32.9711 20C33 20.8443 33 21.8311 33 23V25C33 28.7497 33 30.6246 32.0451 31.9389C31.7367 32.3634 31.3634 32.7367 30.9389 33.0451C29.6246 34 27.7497 34 24 34C20.2503 34 18.3754 34 17.0611 33.0451C16.6366 32.7367 16.2633 32.3634 15.9549 31.9389C15 30.6246 15 28.7497 15 25V23Z" fill="#CFCED8"/>
<path d="M31.2178 19.9384L31.1005 20.6792H31.1005L31.2178 19.9384ZM27.0616 15.7822L26.3208 15.8995V15.8995L27.0616 15.7822ZM17.0611 33.0451L17.5019 32.4383L17.0611 33.0451ZM15.9549 31.9389L16.5617 31.4981L15.9549 31.9389ZM32.0451 31.9389L31.4383 31.4981L32.0451 31.9389ZM30.9389 33.0451L30.4981 32.4383L30.9389 33.0451ZM30.9389 14.9549L31.3798 14.3482L30.9389 14.9549ZM32.0451 16.0611L32.6518 15.6202L32.0451 16.0611ZM17.0611 14.9549L17.5019 15.5617L17.0611 14.9549ZM15.9549 16.0611L16.5617 16.5019L15.9549 16.0611ZM27 14.0289L27.0257 13.2794L27 14.0289ZM32.9711 20L33.7206 19.9743L32.9711 20ZM20 25.25C19.5858 25.25 19.25 25.5858 19.25 26C19.25 26.4142 19.5858 26.75 20 26.75V25.25ZM28 26.75C28.4142 26.75 28.75 26.4142 28.75 26C28.75 25.5858 28.4142 25.25 28 25.25V26.75ZM20 21.25C19.5858 21.25 19.25 21.5858 19.25 22C19.25 22.4142 19.5858 22.75 20 22.75V21.25ZM23 22.75C23.4142 22.75 23.75 22.4142 23.75 22C23.75 21.5858 23.4142 21.25 23 21.25V22.75ZM31.3352 19.1977C29.5166 18.9096 28.0904 17.4834 27.8023 15.6648L26.3208 15.8995C26.7105 18.3599 28.6401 20.2895 31.1005 20.6792L31.3352 19.1977ZM32.25 23V25H33.75V23H32.25ZM15.75 25V23H14.25V25H15.75ZM24 33.25C22.1084 33.25 20.75 33.249 19.698 33.135C18.6601 33.0225 18.0099 32.8074 17.5019 32.4383L16.6202 33.6518C17.4266 34.2377 18.3709 34.5 19.5365 34.6263C20.688 34.751 22.1418 34.75 24 34.75V33.25ZM14.25 25C14.25 26.8582 14.249 28.312 14.3737 29.4635C14.5 30.6291 14.7623 31.5734 15.3482 32.3798L16.5617 31.4981C16.1926 30.9901 15.9775 30.3399 15.865 29.302C15.751 28.25 15.75 26.8916 15.75 25H14.25ZM17.5019 32.4383C17.1411 32.1762 16.8238 31.8589 16.5617 31.4981L15.3482 32.3798C15.7028 32.8679 16.1321 33.2972 16.6202 33.6518L17.5019 32.4383ZM32.25 25C32.25 26.8916 32.249 28.25 32.135 29.302C32.0225 30.3399 31.8074 30.9901 31.4383 31.4981L32.6518 32.3798C33.2377 31.5734 33.5 30.6291 33.6263 29.4635C33.751 28.312 33.75 26.8582 33.75 25H32.25ZM24 34.75C25.8582 34.75 27.312 34.751 28.4635 34.6263C29.6291 34.5 30.5734 34.2377 31.3798 33.6518L30.4981 32.4383C29.9901 32.8074 29.3399 33.0225 28.302 33.135C27.25 33.249 25.8916 33.25 24 33.25V34.75ZM31.4383 31.4981C31.1762 31.8589 30.8589 32.1762 30.4981 32.4383L31.3798 33.6518C31.8679 33.2972 32.2972 32.8679 32.6518 32.3798L31.4383 31.4981ZM30.4981 15.5617C30.8589 15.8238 31.1762 16.1411 31.4383 16.5019L32.6518 15.6202C32.2972 15.1321 31.8679 14.7028 31.3798 14.3482L30.4981 15.5617ZM24 13.25C22.1418 13.25 20.688 13.249 19.5365 13.3737C18.3709 13.5 17.4266 13.7623 16.6202 14.3482L17.5019 15.5617C18.0099 15.1926 18.6601 14.9775 19.698 14.865C20.75 14.751 22.1084 14.75 24 14.75V13.25ZM15.75 23C15.75 21.1084 15.751 19.75 15.865 18.698C15.9775 17.6601 16.1926 17.0099 16.5617 16.5019L15.3482 15.6202C14.7623 16.4266 14.5 17.3709 14.3737 18.5365C14.249 19.688 14.25 21.1418 14.25 23H15.75ZM16.6202 14.3482C16.1321 14.7028 15.7028 15.1321 15.3482 15.6202L16.5617 16.5019C16.8238 16.1411 17.1411 15.8238 17.5019 15.5617L16.6202 14.3482ZM24 14.75C25.1731 14.75 26.1456 14.7501 26.9743 14.7785L27.0257 13.2794C26.1658 13.2499 25.1648 13.25 24 13.25V14.75ZM26.9743 14.7785C28.8292 14.842 29.7925 15.0491 30.4981 15.5617L31.3798 14.3482C30.2761 13.5463 28.8991 13.3436 27.0257 13.2794L26.9743 14.7785ZM26.25 14.0289C26.25 14.9112 26.2484 15.4421 26.3208 15.8995L27.8023 15.6648C27.7529 15.353 27.75 14.9662 27.75 14.0289L26.25 14.0289ZM33.75 23C33.75 21.8352 33.7501 20.8342 33.7206 19.9743L32.2215 20.0257C32.2499 20.8544 32.25 21.8269 32.25 23H33.75ZM33.7206 19.9743C33.6564 18.1009 33.4537 16.7239 32.6518 15.6202L31.4383 16.5019C31.9509 17.2075 32.158 18.1708 32.2215 20.0257L33.7206 19.9743ZM32.9711 19.25C32.0338 19.25 31.647 19.2471 31.3352 19.1977L31.1005 20.6792C31.5579 20.7516 32.0888 20.75 32.9711 20.75L32.9711 19.25ZM20 26.75H28V25.25H20V26.75ZM20 22.75H23V21.25H20V22.75Z" fill="#363062"/>
</svg>
