<svg width="395" height="324" viewBox="0 0 395 324" fill="none" xmlns="http://www.w3.org/2000/svg">
<path d="M294.035 68.3896H250.676V131.237H294.035V68.3896Z" fill="#E0E0E0"/>
<path d="M291.865 68.3896H248.505V131.237H291.865V68.3896Z" fill="#F5F5F5"/>
<path d="M286.478 75.1943H253.892V124.433H286.478V75.1943Z" fill="white"/>
<path d="M286.47 124.424C286.47 124.424 286.47 124.346 286.47 124.191V123.49C286.47 122.868 286.47 121.969 286.47 120.793C286.47 118.433 286.47 114.991 286.47 110.643C286.47 101.997 286.47 89.6673 286.418 75.1939L286.522 75.2977H253.944L254.065 75.1766C254.065 93.7482 254.065 110.876 254.065 124.407L253.97 124.32H277.694H284.239H286.47H285.899H284.17H277.634H253.857H253.762V124.225C253.762 110.694 253.762 93.5667 253.762 74.9951V74.874H286.574V74.9864C286.574 89.4944 286.531 101.789 286.522 110.513C286.522 114.836 286.522 118.294 286.522 120.629C286.522 121.796 286.522 122.695 286.522 123.309V123.992C286.52 124.137 286.502 124.282 286.47 124.424Z" fill="#E0E0E0"/>
<path d="M291.986 68.3896C291.763 68.7865 291.506 69.1627 291.216 69.5136C290.715 70.1794 289.997 71.0958 289.185 72.1074C288.372 73.119 287.602 73.975 287.04 74.5975C286.748 74.9491 286.427 75.2759 286.081 75.5745C286.342 75.1933 286.631 74.832 286.945 74.4937L289.038 71.9604L291.121 69.4272C291.378 69.0566 291.668 68.7094 291.986 68.3896Z" fill="#E0E0E0"/>
<path d="M286.643 124.269C288.267 126.843 290.175 129.227 292.332 131.376L286.643 124.269Z" fill="white"/>
<path d="M292.332 131.376C291.97 131.124 291.636 130.835 291.337 130.511C290.582 129.741 289.866 128.933 289.193 128.09C288.519 127.26 287.89 126.394 287.308 125.496C287.046 125.132 286.823 124.741 286.643 124.329C286.942 124.662 287.211 125.021 287.447 125.401C287.922 126.076 288.597 126.992 289.375 127.995C290.153 128.998 290.914 129.837 291.458 130.45C291.772 130.737 292.064 131.046 292.332 131.376Z" fill="#E0E0E0"/>
<path d="M248.505 131.185L254.177 124.182L248.505 131.185Z" fill="white"/>
<path d="M254.177 124.182C253.326 125.419 252.411 126.611 251.436 127.753C249.863 129.689 248.549 131.211 248.505 131.211C249.355 129.97 250.27 128.775 251.246 127.632C252.164 126.433 253.143 125.282 254.177 124.182Z" fill="#E0E0E0"/>
<path d="M248.505 68.3896C249.486 69.435 250.407 70.5348 251.263 71.6838C252.187 72.7909 253.053 73.9452 253.857 75.1422C252.877 74.0968 251.956 72.9971 251.099 71.848C250.171 70.7444 249.305 69.5898 248.505 68.3896Z" fill="#E0E0E0"/>
<path d="M276.328 85.1892H265.417V116.168H276.328V85.1892Z" fill="#E0E0E0"/>
<path d="M207.791 244.232C205.819 244.883 203.999 245.926 202.439 247.297C200.879 248.668 199.612 250.34 198.713 252.212C196.941 255.974 196.054 260.09 196.119 264.248C196.015 272.262 199.482 280.805 203.511 287.73C210.904 282.767 213.722 272.842 214.838 267.715C216.567 259.605 214.838 243.895 207.8 244.232" fill="#F5F5F5"/>
<path d="M194.122 299.8C194.865 297.597 195.012 295.237 194.547 292.959C194.083 290.681 193.023 288.567 191.477 286.831C189.906 285.126 188.011 283.751 185.903 282.786C183.795 281.821 181.516 281.286 179.199 281.211C177.064 281.099 174.695 281.427 173.259 283.018C172.635 283.802 172.231 284.739 172.089 285.732C171.948 286.724 172.074 287.736 172.455 288.664C173.244 290.514 174.509 292.122 176.121 293.324C181.421 297.647 187.361 300.907 194.122 299.783" fill="#F5F5F5"/>
<path d="M199.664 319.063C199.763 317.296 199.682 315.523 199.422 313.772C199.211 311.847 198.769 309.954 198.107 308.135C197.367 305.897 196.48 303.711 195.453 301.59C193.559 297.693 190.732 294.325 187.222 291.785C186.136 291.044 184.977 290.415 183.764 289.909C183.331 289.701 182.866 289.567 182.389 289.511C182.32 289.658 184.248 290.376 186.816 292.295C190.098 294.911 192.756 298.225 194.597 301.996C195.604 304.084 196.496 306.226 197.269 308.411C197.945 310.172 198.438 311.997 198.739 313.858C199.275 317.066 199.525 319.081 199.664 319.063Z" fill="#E0E0E0"/>
<path d="M208.06 256.336C207.782 257.181 207.58 258.049 207.454 258.93C207.126 260.659 206.685 263.08 206.166 266.115C205.12 272.167 203.78 280.588 202.517 289.908C201.255 299.229 200.365 307.693 199.846 313.84C199.586 316.91 199.405 319.391 199.31 321.112C199.207 322.001 199.19 322.899 199.258 323.792C199.467 322.923 199.6 322.038 199.656 321.146C199.872 319.27 200.148 316.823 200.52 313.901C201.203 307.78 202.198 299.332 203.451 290.029C204.705 280.726 205.95 272.461 206.832 266.21C207.247 263.287 207.584 260.849 207.843 258.99C207.991 258.113 208.064 257.225 208.06 256.336Z" fill="#E0E0E0"/>
<path d="M203.771 304.106C205.813 299.66 208.885 295.764 212.733 292.742C216.58 289.72 221.093 287.658 225.896 286.727C228.334 286.277 231.343 286.364 232.683 288.456C234.023 290.549 232.847 293.333 231.369 295.373C228.205 299.487 223.894 302.573 218.98 304.242C214.066 305.911 208.768 306.089 203.753 304.754" fill="#F5F5F5"/>
<path d="M222.489 293.168C222.018 293.191 221.554 293.29 221.115 293.462C220.25 293.705 218.996 294.128 217.483 294.69C213.481 296.144 209.782 298.325 206.572 301.123C204.841 302.721 203.381 304.59 202.249 306.656C201.343 308.352 200.677 310.164 200.269 312.043C199.991 313.299 199.829 314.578 199.785 315.864C199.705 316.331 199.705 316.807 199.785 317.273C199.966 317.273 200.036 315.276 200.84 312.198C201.896 308.19 204.088 304.572 207.151 301.78C210.298 299.064 213.859 296.869 217.699 295.278C220.682 293.99 222.558 293.307 222.489 293.168Z" fill="#E0E0E0"/>
<path d="M372.575 92.7195C372.575 92.7195 363.514 90.0479 359.848 110.876C356.183 131.704 355.889 143.178 355.889 143.178C355.889 143.178 354.618 147.699 351.263 146.022C347.908 144.345 342.211 138.44 338.19 141.051C334.014 143.757 334.075 149.325 337.248 156.553C340.421 163.781 346.758 179.897 347.346 181.35C347.934 182.802 347.727 185.197 345.263 184.428C342.799 183.658 327.106 174.199 323.042 181.981C318.979 189.762 331.135 208.403 332.423 210.513C333.712 212.622 333.565 213.677 332.665 214.559C331.766 215.441 326.786 211.766 322.204 209.259C317.621 206.752 311.872 204.651 309.918 209.302C307.964 213.954 311.647 229.637 333.971 250.137L344.917 258.956L358.171 254.08C385.899 241.906 394.484 228.28 394.156 223.239C393.827 218.199 387.689 218.294 382.544 219.159C377.4 220.023 371.495 221.917 370.924 220.784C370.353 219.651 370.578 218.571 372.472 217.032C374.365 215.493 391.908 201.728 390.585 193.108C389.262 184.488 371.33 188.353 368.745 188.284C366.16 188.215 366.783 185.871 367.768 184.704C368.754 183.537 380.02 170.335 385.363 164.516C390.706 158.697 392.565 153.458 389.496 149.541C386.539 145.763 379.224 149.541 375.515 150.008C371.806 150.475 372.057 145.823 372.057 145.823C372.057 145.823 375.515 134.877 378.775 113.971C382.034 93.0654 372.377 92.7022 372.377 92.7022" fill="#F5F5F5"/>
<path d="M369.264 111.386C369.264 111.386 369.264 111.533 369.221 111.827L369.039 113.116C368.866 114.266 368.616 115.934 368.304 118.061C367.656 122.384 366.679 128.575 365.442 136.218C362.97 151.564 359.39 172.73 355.335 196.1C351.28 219.47 347.64 240.627 345.09 255.956C343.819 263.608 342.79 269.79 342.081 274.113C341.726 276.24 341.45 277.9 341.216 279.05C341.121 279.594 341.052 280.018 340.992 280.329C340.931 280.64 340.896 280.761 340.896 280.761C340.896 280.761 340.896 280.615 340.948 280.321C341 280.027 341.052 279.586 341.121 279.032C341.294 277.882 341.545 276.214 341.856 274.087C342.505 269.764 343.482 263.573 344.718 255.93C347.191 240.584 350.77 219.41 354.834 196.039C358.897 172.669 362.555 151.521 365.148 136.157C366.411 128.506 367.44 122.324 368.157 118.001L368.979 113.064L369.203 111.784C369.217 111.651 369.237 111.518 369.264 111.386Z" fill="#E0E0E0"/>
<path d="M345.833 149.662C346.07 149.906 346.279 150.176 346.456 150.466C346.836 151.002 347.321 151.789 347.995 152.766C349.266 154.729 350.952 157.478 352.75 160.547L357.324 168.441L358.716 170.819C358.913 171.084 359.074 171.375 359.192 171.683C358.951 171.444 358.739 171.177 358.56 170.888C358.189 170.352 357.696 169.565 357.039 168.58C355.785 166.6 354.134 163.824 352.335 160.755L347.71 152.896C347.156 151.962 346.681 151.167 346.3 150.518C346.108 150.255 345.951 149.967 345.833 149.662Z" fill="#E0E0E0"/>
<path d="M360.506 171.606C360.428 171.493 365.953 167.776 372.844 163.288C379.734 158.801 385.363 155.265 385.441 155.369C385.519 155.472 379.985 159.207 373.103 163.686C366.221 168.165 360.575 171.701 360.506 171.606Z" fill="#E0E0E0"/>
<path d="M352.672 207.192C352.984 207.039 353.312 206.92 353.649 206.838L356.347 206.017C358.621 205.316 361.768 204.348 365.192 203.146C368.616 201.944 371.694 200.777 373.916 199.904L376.509 198.875C376.825 198.721 377.159 198.611 377.504 198.546C377.217 198.743 376.91 198.908 376.587 199.039C375.982 199.333 375.109 199.74 373.993 200.215C371.815 201.166 368.754 202.402 365.347 203.596C361.941 204.789 358.742 205.723 356.442 206.336C355.283 206.639 354.35 206.872 353.693 207.019C353.361 207.118 353.018 207.176 352.672 207.192Z" fill="#E0E0E0"/>
<path d="M335.035 190.281C335.311 190.445 335.567 190.642 335.795 190.868C336.262 191.266 336.937 191.854 337.749 192.598C339.392 194.076 341.632 196.134 344.087 198.425C346.542 200.716 348.747 202.817 350.329 204.356C351.116 205.117 351.747 205.748 352.18 206.189C352.418 206.404 352.633 206.645 352.819 206.907C352.54 206.751 352.284 206.556 352.059 206.327C351.583 205.93 350.917 205.333 350.096 204.598C348.462 203.128 346.214 201.071 343.758 198.771C341.303 196.471 339.098 194.379 337.525 192.848C336.729 192.079 336.098 191.456 335.666 191.007C335.425 190.793 335.213 190.549 335.035 190.281Z" fill="#E0E0E0"/>
<path d="M324.124 220.836C324.473 221.054 324.798 221.309 325.092 221.597L327.608 223.801C329.717 225.677 332.605 228.289 335.787 231.202C338.969 234.116 341.839 236.77 343.871 238.707L346.283 241.024C346.6 241.283 346.889 241.572 347.148 241.889C346.803 241.664 346.479 241.41 346.179 241.128L343.663 238.923C341.554 237.047 338.666 234.427 335.484 231.522C332.303 228.617 329.432 225.954 327.409 224.017L324.971 221.752C324.657 221.477 324.373 221.17 324.124 220.836Z" fill="#E0E0E0"/>
<path d="M346.715 241.258C347.107 241.064 347.514 240.905 347.934 240.782L351.323 239.615C354.176 238.629 358.119 237.255 362.433 235.62C366.748 233.986 370.612 232.413 373.396 231.254L376.708 229.88C377.105 229.692 377.519 229.542 377.944 229.43C377.581 229.678 377.193 229.886 376.786 230.052C376.025 230.424 374.918 230.917 373.535 231.557C370.777 232.802 366.921 234.427 362.598 236.061C358.275 237.695 354.315 239.044 351.427 239.909C349.983 240.358 348.833 240.704 347.969 240.929C347.562 241.079 347.143 241.19 346.715 241.258Z" fill="#E0E0E0"/>
<path d="M68.4524 277.39C88.416 265.994 94.9005 242.062 96.1196 220.127C96.3271 216.461 97.0793 212.657 95.6354 209.294C94.1916 205.93 90.3441 203.371 86.9376 204.608C84.1103 205.636 82.6146 208.68 80.8854 211.153C78.5389 214.444 75.3113 217.006 71.5736 218.545C69.1355 219.539 66.1958 220.006 64.017 218.545C61.0255 216.513 61.0515 212.13 61.4232 208.507C62.1091 201.728 62.7691 194.962 63.4032 188.206C63.7577 184.583 64.1121 180.874 63.2994 177.329C62.4867 173.785 60.282 170.343 56.9187 169.064C53.5554 167.784 49.0941 169.375 48.0392 172.868C47.6069 174.321 47.7626 175.877 47.5291 177.373C47.2957 178.868 46.4311 180.477 44.9353 180.771C43.4396 181.065 42.0908 179.906 41.1052 178.739C37.6468 174.727 35.5804 169.773 33.635 164.853C31.6897 159.934 29.8221 154.928 26.7874 150.613C23.7526 146.299 19.3432 142.711 14.1729 141.967C9.00258 141.224 3.16653 143.904 1.38546 148.884C-0.395617 153.864 2.10308 159.346 4.97355 163.79C9.25505 170.367 14.4615 176.292 20.4326 181.384C21.5047 182.301 22.6632 183.295 23.0264 184.679C23.5884 187.169 21.0724 189.365 18.6169 189.944C15.8243 190.592 12.9106 190.039 10.0574 190.117C7.20421 190.195 4.00519 191.154 2.69965 193.74C0.866699 197.31 3.61612 201.521 6.43472 204.314C12.0834 209.979 18.6674 214.626 25.8968 218.052C28.4906 219.271 31.2055 220.386 33.1854 222.462C35.1654 224.537 36.1683 227.917 34.638 230.355C33.1076 232.793 29.6838 233.312 26.9344 232.534C24.1849 231.756 21.8246 230.009 19.2481 228.764C14.4323 226.421 7.95641 226.171 4.36832 230.191C2.00797 232.837 1.46327 236.762 2.21547 240.238C2.96767 243.713 4.8525 246.826 6.89295 249.748C14.0259 259.864 23.5711 268.354 34.7849 273.43C45.9988 278.505 56.6074 280.571 68.5043 277.424" fill="#F5F5F5"/>
<path d="M67.2592 293.627C67.1677 283.392 66.0994 273.19 64.0688 263.158C61.526 250.91 58.2842 238.818 54.3594 226.94L51.2987 217.594C50.2958 214.524 49.3015 211.481 48.1429 208.559C45.9154 202.961 43.3782 197.491 40.5431 192.175C37.8715 187.082 35.1566 182.344 32.5801 177.935C30.0036 173.525 27.5049 169.461 25.084 165.83C21.2846 160.132 17.0406 154.743 12.3917 149.714C10.749 147.933 9.4348 146.593 8.52697 145.694L7.48945 144.682C7.37468 144.563 7.25034 144.453 7.11768 144.354C7.21507 144.485 7.32199 144.609 7.43758 144.725L8.43186 145.789C9.29646 146.714 10.5934 148.089 12.2015 149.896C16.7666 154.988 20.9428 160.415 24.695 166.133C27.0899 169.738 29.5454 173.81 32.1046 178.237C34.6638 182.664 37.3614 187.402 40.007 192.486C42.8208 197.778 45.3462 203.218 47.5723 208.783C48.7135 211.689 49.6992 214.706 50.6935 217.784C51.6878 220.862 52.6993 223.974 53.7282 227.139C57.6394 238.988 60.8895 251.044 63.4636 263.253C65.5139 273.243 66.6254 283.403 66.7837 293.601" fill="#E0E0E0"/>
<path d="M47.9868 208.515C48.2164 208.034 48.3849 207.526 48.4883 207.002C48.7736 206.017 49.1281 204.581 49.5517 202.792C50.4163 199.221 51.3933 194.258 52.4741 188.777C53.5548 183.295 54.6183 178.358 55.5175 174.813C55.9584 173.084 56.3302 171.606 56.6069 170.62C56.7757 170.115 56.8916 169.593 56.9527 169.064C56.6965 169.531 56.4962 170.028 56.3561 170.542C56.0103 171.511 55.5607 172.928 55.0592 174.692C54.039 178.211 52.8977 183.157 51.817 188.647L49.0849 202.731C48.7477 204.417 48.4623 205.844 48.2203 206.985C48.0944 207.487 48.0162 207.999 47.9868 208.515Z" fill="#E0E0E0"/>
<path d="M2.1123 195.52C2.7138 195.703 3.32996 195.833 3.9539 195.91C5.14705 196.126 6.8676 196.428 8.97722 196.878C13.2138 197.742 19.0152 199.109 25.3527 200.916C31.6902 202.723 37.3534 204.625 41.417 206.103C43.4488 206.829 45.0829 207.461 46.2069 207.893C46.7791 208.155 47.3756 208.361 47.9879 208.507C47.4587 208.164 46.8969 207.874 46.3106 207.642C45.2126 207.132 43.6044 206.432 41.5813 205.645C37.5522 204.037 31.8978 202.074 25.5343 200.25C20.1142 198.679 14.6167 197.389 9.06368 196.385C6.93677 196.005 5.19892 195.771 3.99713 195.633C3.37429 195.532 2.74277 195.494 2.1123 195.52Z" fill="#E0E0E0"/>
<path d="M63.5674 262.25C63.7177 262.088 63.843 261.905 63.9392 261.705L64.8989 260.089C65.7635 258.688 66.8529 256.63 68.2189 254.037C70.9597 248.901 74.5305 241.681 78.352 233.658C82.1736 225.634 85.6665 218.389 88.3036 213.201L91.4334 207.063L92.298 205.386C92.4045 205.194 92.4886 204.991 92.5488 204.78C92.4028 204.943 92.2778 205.123 92.177 205.316L91.2259 206.933C90.4045 208.342 89.2719 210.392 87.8972 212.985C85.1564 218.13 81.5943 225.349 77.7641 233.373C73.9339 241.396 70.4496 248.633 67.8212 253.829L64.6827 259.968L63.8181 261.645C63.7069 261.834 63.6225 262.038 63.5674 262.25Z" fill="#E0E0E0"/>
<path d="M3.37354 236.572C3.55632 236.704 3.75726 236.809 3.97011 236.883L5.69931 237.653L12.1406 240.419C17.5875 242.745 25.1096 246.057 33.3233 249.723C41.537 253.388 49.0936 256.639 54.5924 258.853C57.3332 259.968 59.5639 260.841 61.1201 261.447L62.9099 262.104C63.1155 262.188 63.3301 262.249 63.5497 262.285C63.371 262.152 63.1726 262.047 62.9617 261.974L61.2325 261.204L54.7567 258.412C49.3097 256.077 41.7877 252.766 33.574 249.1C25.3603 245.434 17.7951 242.183 12.3048 239.97C9.56407 238.863 7.3334 237.981 5.77712 237.376L3.9874 236.728C3.78958 236.652 3.58354 236.6 3.37354 236.572Z" fill="#E0E0E0"/>
<path d="M129.84 16.5828V87.9468H27.3499L23.6494 17.0842L129.84 16.5828Z" fill="#E0E0E0"/>
<path d="M23.6494 17.0934L23.6494 87.8003H126.139V17.0934H23.6494Z" fill="white"/>
<path d="M126.631 88.2843H23.1646V16.6003H126.631V88.2843ZM24.1415 87.3073H125.654V17.5687H24.1415V87.3073Z" fill="#E0E0E0"/>
<path d="M115.037 25.8689H34.7505V79.0072H115.037V25.8689Z" fill="white"/>
<path d="M115.046 25.8689H114.648H113.55H109.141L92.5923 25.9294L34.7938 26.0418L35.0272 25.8084C35.0272 42.0456 35.0272 60.0379 35.0272 78.9467L34.7679 78.6959L115.063 78.7478L114.856 78.9467C114.908 62.7787 114.942 49.5503 114.968 40.2904C114.968 35.6735 114.968 32.0681 115.02 29.5953C115.02 28.3763 115.02 27.4338 115.02 26.7854C115.02 26.1369 115.02 25.8084 115.02 25.8084C115.02 25.8084 115.02 26.1196 115.02 26.7422C115.02 27.3647 115.02 28.3071 115.02 29.5175C115.02 31.973 115.02 35.5697 115.072 40.1607C115.072 49.4206 115.132 62.7268 115.176 78.9467V79.1542H114.977L34.6814 79.2061H34.4307V78.9467C34.4307 60.0379 34.4307 42.0456 34.4307 25.8084V25.575H34.6555L92.5836 25.696L109.08 25.7565H113.403H114.519L115.046 25.8689Z" fill="#E0E0E0"/>
<path d="M23.6318 16.8857C24.2503 17.1981 24.8306 17.5811 25.361 18.027C26.4158 18.7879 27.8424 19.86 29.3814 21.0963C30.9204 22.3327 32.2778 23.4913 33.2375 24.3645C33.7869 24.8014 34.278 25.307 34.6987 25.8689C34.6036 25.9813 32.1049 23.9495 29.0615 21.4854C26.0181 19.0213 23.5626 17.0068 23.6318 16.8857Z" fill="#E0E0E0"/>
<path d="M126.147 17.0845C124.461 18.7419 122.658 20.2762 120.752 21.6755C118.953 23.2085 117.046 24.61 115.045 25.8688C116.743 24.2135 118.554 22.6794 120.466 21.2778C122.258 19.7468 124.156 18.3455 126.147 17.0845Z" fill="#E0E0E0"/>
<path d="M126.061 87.809L114.64 78.5405L126.061 87.809Z" fill="white"/>
<path d="M114.639 78.5405C116.691 79.8887 118.652 81.3704 120.51 82.9759C122.47 84.456 124.325 86.071 126.061 87.809C124.006 86.4643 122.045 84.9824 120.19 83.3736C117.008 80.8231 114.544 78.6529 114.639 78.5405Z" fill="#E0E0E0"/>
<path d="M23.6318 87.7999C25.302 86.1583 27.0876 84.6384 28.9751 83.2521C30.7568 81.7374 32.6435 80.3506 34.6209 79.1021C32.9551 80.745 31.1722 82.265 29.2863 83.6499C27.5018 85.1649 25.6122 86.5517 23.6318 87.7999Z" fill="#E0E0E0"/>
<path d="M51.0566 42.4351V60.2285H101.575V42.4351H51.0566Z" fill="#E0E0E0"/>
<path d="M366.497 0H311.699V79.4307H366.497V0Z" fill="#E0E0E0"/>
<path d="M363.756 0H308.958V79.4307H363.756V0Z" fill="#F5F5F5"/>
<path d="M356.944 8.60278H315.763V70.828H356.944V8.60278Z" fill="white"/>
<path d="M356.952 70.8278C356.952 70.8278 356.952 70.724 356.952 70.5251V69.6605C356.952 68.8738 356.952 67.7325 356.952 66.2454C356.952 63.2625 356.952 58.9222 356.952 53.432C356.952 42.4603 356.909 26.9148 356.883 8.61984L357.021 8.75817H315.762L315.918 8.61119C315.918 32.0851 315.918 53.726 315.918 70.8623L315.797 70.7413L345.773 70.8105H354.055H356.234H356.986H356.26H354.107H345.85L315.797 70.871H315.685V70.75C315.685 53.6395 315.685 31.9986 315.685 8.49879V8.45557H357.185V8.5939C357.185 26.9321 357.142 42.4948 357.125 53.4925C357.125 58.9655 357.125 63.3057 357.082 66.28C357.082 67.7498 357.082 68.8738 357.082 69.6605V70.5251C356.952 70.7327 356.952 70.8278 356.952 70.8278Z" fill="#E0E0E0"/>
<path d="M363.912 0C363.634 0.503651 363.307 0.978605 362.935 1.41795C362.295 2.28255 361.396 3.43246 360.341 4.68613C359.287 5.9398 358.344 7.04649 357.627 7.83327C357.271 8.27631 356.878 8.68715 356.451 9.061C356.759 8.57587 357.109 8.11875 357.497 7.69493L360.134 4.49592C361.128 3.27683 362.036 2.17879 362.771 1.28825C363.114 0.827222 363.496 0.396246 363.912 0Z" fill="#E0E0E0"/>
<path d="M357.159 70.6294C359.21 73.8834 361.62 76.8967 364.344 79.6126L357.159 70.6294Z" fill="white"/>
<path d="M364.344 79.6126C363.888 79.2762 363.468 78.8938 363.09 78.4713C362.355 77.7277 361.361 76.6643 360.376 75.4193C359.528 74.353 358.734 73.2449 357.998 72.0992C357.66 71.64 357.371 71.1475 357.133 70.6294C357.505 71.0547 357.844 71.5086 358.145 71.9868C358.75 72.8514 359.597 73.9927 360.583 75.2291C361.569 76.4654 362.52 77.5548 363.22 78.3243C363.625 78.7261 364.001 79.1567 364.344 79.6126Z" fill="#E0E0E0"/>
<path d="M308.949 79.3701L316.125 70.5166L308.949 79.3701Z" fill="white"/>
<path d="M316.126 70.5166C315.054 72.0846 313.9 73.5941 312.667 75.0385C310.679 77.4766 309.019 79.422 308.958 79.3615C310.031 77.7949 311.186 76.2856 312.416 74.8396C313.577 73.3353 314.815 71.8923 316.126 70.5166Z" fill="#E0E0E0"/>
<path d="M308.949 0C310.176 1.32606 311.33 2.71719 312.408 4.16737C313.567 5.54968 314.652 6.99272 315.659 8.49036C314.429 7.16685 313.274 5.77555 312.2 4.32299C311.041 2.94068 309.955 1.49765 308.949 0Z" fill="#E0E0E0"/>
<path d="M344.121 21.2346H330.331V60.3837H344.121V21.2346Z" fill="#E0E0E0"/>
<path d="M378.057 323.775C378.057 323.905 293.827 324 189.963 324C86.0986 324 1.85205 323.939 1.85205 323.775C1.85205 323.611 86.0554 323.55 189.963 323.55C293.87 323.55 378.057 323.689 378.057 323.775Z" fill="#263238"/>
<path d="M272.377 174.199C273.019 176.81 272.944 179.546 272.16 182.118C271.377 184.69 269.913 187.002 267.924 188.811C265.287 191.146 261.872 192.494 259.451 195.062C257.953 196.77 256.922 198.837 256.46 201.061C255.998 203.285 256.12 205.591 256.814 207.755C257.549 209.902 258.711 211.878 260.232 213.563C261.752 215.249 263.598 216.608 265.659 217.559C268.465 218.87 271.541 219.499 274.637 219.394C277.732 219.288 280.759 218.452 283.47 216.954C290.153 213.176 294.044 205.593 295.029 197.976C296.015 190.359 294.467 182.647 292.436 175.237" fill="#263238"/>
<path d="M356.667 308.515C363.584 307.382 370.068 309.492 376.916 311.005C378.737 311.545 380.659 311.648 382.527 311.308C385.493 310.547 387.602 307.659 388.061 304.633C388.431 301.982 387.816 299.287 386.331 297.059C385.736 296.099 384.925 295.291 383.962 294.699C382.931 294.182 381.803 293.887 380.651 293.834C376.455 293.496 372.245 294.29 368.46 296.134C364.686 297.969 361.262 300.45 358.344 303.466C356.892 304.918 357.324 306.587 356.684 308.541" fill="#263238"/>
<path d="M216.437 196.878C215.328 190.282 215.463 183.538 216.835 176.992C217.415 173.791 218.588 170.727 220.293 167.957C220.874 166.924 221.759 166.094 222.826 165.579C223.602 165.322 224.434 165.285 225.229 165.472C226.025 165.66 226.753 166.065 227.331 166.643C228.07 167.412 228.637 168.329 228.995 169.334C229.352 170.338 229.493 171.407 229.406 172.47C229.252 174.595 228.731 176.678 227.867 178.626C225.195 185.456 220.95 191.128 216.411 196.869" fill="#263238"/>
<path d="M350.451 221.873C352.015 222.989 386.764 297.837 386.764 297.837C383.969 296.643 380.874 296.341 377.902 296.972L376.017 297.474C372.643 298.381 369.444 299.842 366.549 301.797L356.632 308.506C356.24 308.28 355.907 307.964 355.662 307.584C355.417 307.203 355.266 306.769 355.223 306.319V306.033L328.282 259.795L350.451 221.873Z" fill="#FFAE19"/>
<path d="M219.973 102.714L229.242 155.394C232.225 162.484 267.008 205.437 267.008 205.437L255.509 242.39L209.823 179.923C205.581 175.387 203.273 169.376 203.39 163.167L205.172 106.881L219.973 102.714Z" fill="#FFBE9D"/>
<path d="M269.299 197.18L293.153 198.987L313.956 202.212C313.956 202.212 350.45 211.801 350.45 215.795C350.45 217.126 340.49 248.849 334.888 267.853C333.514 272.468 332.394 277.156 331.533 281.894L350.45 323.775H260.679V285.378C260.679 285.378 254.627 234.946 255.69 228.055C256.754 221.164 269.299 197.18 269.299 197.18Z" fill="#FFAE19"/>
<path d="M208.656 81.4281C208.797 76.0624 209.346 70.7152 210.299 65.433C210.429 64.6808 210.74 63.7729 211.492 63.7038C212.426 63.5827 212.901 64.7845 213.022 65.7183C213.852 72.0887 213.585 78.5539 212.236 84.8346" fill="#EB996E"/>
<path d="M219.29 192.978C229.527 183.831 229.873 167.983 229 155.368C228.829 154.447 228.969 153.495 229.398 152.662C230.375 151.27 232.752 151.797 233.721 153.198C234.689 154.599 234.585 156.44 234.533 158.135C235.061 156.7 237.309 156.708 238.363 157.815C239.418 158.922 239.6 160.59 239.721 162.138L240.058 166.357L269.965 194.889C269.965 194.889 270.786 192.295 272.982 193.791C275.178 195.287 276.596 198.443 276.596 198.443L255.526 244.431L216.42 196.878C217.172 195.439 218.14 194.124 219.29 192.978Z" fill="#FFAE19"/>
<path d="M259.875 224.804C256.755 228.784 254.425 233.324 253.01 238.18C251.601 243.067 251.755 248.273 253.451 253.068C254.763 256.386 256.913 259.307 259.691 261.547C262.468 263.786 265.779 265.268 269.299 265.847" fill="#FFAE19"/>
<path d="M356.666 308.515L355.534 323.775H377.693L382.881 296.756C376.131 296.379 369.473 298.465 364.145 302.627L356.666 308.515Z" fill="#FFBE9D"/>
<path d="M229.709 189.598C229.834 189.178 229.996 188.77 230.193 188.379C230.539 187.618 231.006 186.494 231.533 185.094C232.061 183.693 232.623 181.998 233.15 180.096C233.698 178.02 234.134 175.916 234.456 173.793C234.754 171.669 234.936 169.53 235 167.387C235 165.407 235 163.625 234.879 162.13C234.758 160.634 234.646 159.432 234.533 158.602C234.459 158.171 234.418 157.734 234.412 157.297C234.553 157.712 234.651 158.141 234.706 158.576C234.931 159.743 235.095 160.92 235.199 162.104C235.368 163.862 235.44 165.629 235.415 167.395C235.35 171.726 234.722 176.03 233.548 180.2C233.065 181.899 232.488 183.571 231.819 185.206C231.248 186.607 230.738 187.713 230.34 188.457C230.159 188.853 229.948 189.234 229.709 189.598Z" fill="#263238"/>
<path d="M236.219 181.566C236.501 180.822 236.825 180.095 237.188 179.387C238.701 175.878 239.579 172.128 239.781 168.311C239.78 167.517 239.823 166.723 239.911 165.934C240.081 166.717 240.145 167.52 240.101 168.32C240.072 172.198 239.186 176.021 237.507 179.517C237.177 180.257 236.744 180.947 236.219 181.566Z" fill="#263238"/>
<path d="M271.339 205.481C271.27 205.438 271.633 204.876 271.84 203.856C272.083 202.522 272.006 201.15 271.616 199.853C271.205 198.546 270.705 197.269 270.12 196.031C269.847 195.518 269.643 194.972 269.515 194.406C269.857 194.868 270.147 195.366 270.379 195.893C271.064 197.11 271.617 198.397 272.031 199.731C272.444 201.097 272.477 202.55 272.126 203.933C272.017 204.514 271.744 205.051 271.339 205.481Z" fill="#263238"/>
<path d="M266.143 266.383C266.008 266.327 265.88 266.255 265.762 266.167L264.742 265.493C263.878 264.896 262.589 264.023 261.085 262.839C259.307 261.469 257.68 259.912 256.234 258.196C254.455 256.07 253.173 253.574 252.482 250.89C251.822 248.204 251.652 245.422 251.981 242.676C252.246 240.449 252.741 238.256 253.459 236.131C253.935 234.699 254.486 233.294 255.11 231.92C255.335 231.436 255.508 231.056 255.638 230.814C255.695 230.679 255.768 230.551 255.854 230.433C255.69 230.963 255.497 231.482 255.275 231.99C254.886 232.975 254.324 234.41 253.762 236.226C253.098 238.341 252.64 240.516 252.396 242.719C252.095 245.415 252.27 248.143 252.914 250.777C253.587 253.402 254.83 255.846 256.554 257.936C257.97 259.642 259.554 261.201 261.284 262.588C262.754 263.798 263.99 264.706 264.846 265.355L265.814 266.098C266.039 266.271 266.151 266.366 266.143 266.383Z" fill="#263238"/>
<path d="M315.123 274.934C315.003 274.997 314.875 275.044 314.742 275.072C314.483 275.141 314.111 275.271 313.618 275.366C312.225 275.668 310.807 275.839 309.382 275.876C304.63 276.022 299.944 274.742 295.927 272.201C291.91 269.66 288.745 265.974 286.841 261.619C286.261 260.316 285.807 258.961 285.484 257.573C285.363 257.08 285.32 256.708 285.268 256.431C285.238 256.298 285.224 256.162 285.225 256.025C285.402 256.513 285.546 257.013 285.657 257.521C287.033 262.741 290.115 267.351 294.412 270.619C298.709 273.887 303.975 275.625 309.373 275.556C310.784 275.549 312.192 275.428 313.584 275.193C314.092 275.08 314.605 274.993 315.123 274.934Z" fill="#263238"/>
<path d="M328.878 291.785C328.757 291.785 329.899 286.969 331.472 281.107C333.046 275.245 334.343 270.516 334.455 270.55C334.568 270.585 333.435 275.357 331.905 281.219C330.374 287.081 328.999 291.785 328.878 291.785Z" fill="#263238"/>
<path d="M340.94 281.591C340.836 281.652 337.361 275.971 333.159 268.899C328.957 261.827 325.671 256.042 325.784 255.982C325.896 255.921 329.363 261.593 333.565 268.666C337.767 275.738 341.087 281.522 340.94 281.591Z" fill="#263238"/>
<path d="M374.132 295.589C374.132 295.676 372.869 295.779 370.898 296.281C369.747 296.574 368.617 296.946 367.517 297.396C366.176 297.964 364.881 298.634 363.644 299.402C362.423 300.188 361.267 301.07 360.186 302.039C359.304 302.845 358.481 303.711 357.722 304.633C356.425 306.198 355.785 307.296 355.707 307.227C355.811 306.947 355.948 306.68 356.113 306.431C356.514 305.724 356.968 305.047 357.471 304.408C358.21 303.453 359.022 302.557 359.9 301.728C360.988 300.721 362.162 299.812 363.411 299.013C364.67 298.23 365.995 297.559 367.37 297.007C368.493 296.564 369.649 296.214 370.829 295.961C371.619 295.778 372.423 295.656 373.232 295.598C373.53 295.552 373.833 295.549 374.132 295.589Z" fill="#263238"/>
<path d="M378.368 290.384C378.368 290.479 376.976 290.306 374.754 290.497C373.458 290.614 372.174 290.839 370.915 291.171C367.83 291.99 364.946 293.435 362.442 295.416C361.424 296.226 360.476 297.12 359.606 298.088C358.128 299.748 357.436 300.958 357.358 300.915C357.475 300.609 357.629 300.319 357.817 300.05C358.002 299.717 358.21 299.396 358.439 299.091C358.727 298.672 359.036 298.268 359.364 297.88C360.214 296.866 361.158 295.933 362.183 295.096C363.451 294.08 364.818 293.193 366.264 292.451C367.719 291.738 369.243 291.176 370.812 290.773C372.098 290.45 373.412 290.25 374.737 290.177C375.241 290.151 375.746 290.151 376.25 290.177C376.634 290.178 377.018 290.201 377.4 290.246C377.727 290.251 378.053 290.297 378.368 290.384Z" fill="#263238"/>
<g opacity="0.3">
<path d="M286.151 257.867C284.119 261.723 285.813 266.426 287.672 270.378C289.116 273.438 290.724 276.542 293.353 278.678C294.644 279.734 296.14 280.511 297.746 280.961C299.352 281.411 301.034 281.525 302.686 281.294C304.339 281.064 305.925 280.494 307.347 279.621C308.768 278.749 309.994 277.591 310.947 276.222C305.436 276.141 300.078 274.393 295.578 271.21C291.079 268.026 287.647 263.556 285.736 258.386" fill="black"/>
</g>
<g opacity="0.3">
<path d="M325.843 255.982C324.287 259.691 325.463 264.766 327.088 268.441C328.714 272.115 330.443 276.222 329.138 280.035C328.801 280.712 328.626 281.458 328.627 282.214C328.714 282.957 329.492 283.675 330.192 283.329C330.554 283.075 330.805 282.691 330.893 282.257C332.12 278.557 333.351 274.859 334.585 271.164" fill="black"/>
</g>
<path d="M244.053 207.141C244.192 204.819 244.481 202.509 244.917 200.224C245.211 197.927 245.653 195.651 246.24 193.411C246.11 195.733 245.821 198.044 245.376 200.328C245.085 202.625 244.643 204.901 244.053 207.141Z" fill="#FAFAFA"/>
<path d="M234.948 205.23C234.836 205.299 233.349 203.224 231.291 200.838C229.233 198.451 227.417 196.662 227.504 196.566C229.054 197.7 230.444 199.038 231.637 200.544C232.939 201.955 234.052 203.531 234.948 205.23Z" fill="#FAFAFA"/>
<path d="M242.764 182.957C242.504 183.515 242.176 184.037 241.787 184.514C241.13 185.439 240.171 186.675 239.055 187.972C237.94 189.269 236.868 190.436 236.064 191.232C235.661 191.694 235.198 192.101 234.689 192.442C234.594 192.356 236.487 190.307 238.709 187.678C240.931 185.05 242.661 182.845 242.764 182.957Z" fill="#FAFAFA"/>
<path d="M239.712 172.073C239.583 172.125 239.09 171.027 238.139 169.929C237.188 168.831 236.168 168.2 236.237 168.07C237.136 168.329 237.924 168.879 238.476 169.635C239.141 170.292 239.575 171.148 239.712 172.073Z" fill="#FAFAFA"/>
<path d="M231.827 178.782C231.121 179.114 230.358 179.311 229.579 179.361C228.823 179.558 228.036 179.605 227.262 179.499C228.724 178.969 230.274 178.725 231.827 178.782Z" fill="#FAFAFA"/>
<path d="M251.722 188.388C251.742 187.042 251.646 185.697 251.437 184.368C251.079 183.069 250.607 181.805 250.027 180.589C251.008 181.597 251.651 182.884 251.869 184.273C252.239 185.627 252.188 187.063 251.722 188.388Z" fill="#FAFAFA"/>
<path d="M262.347 199.817C260.753 197.272 258.611 195.113 256.079 193.497C257.509 194.052 258.806 194.901 259.886 195.99C260.966 197.079 261.805 198.383 262.347 199.817Z" fill="#FAFAFA"/>
<path d="M245.29 219.651C242.716 220.616 239.864 220.519 237.361 219.383C237.405 219.254 239.091 219.798 241.313 219.859C243.535 219.919 245.255 219.522 245.29 219.651Z" fill="#FAFAFA"/>
<path d="M253.295 223.758C253.174 223.706 253.849 221.718 254.411 219.193C254.973 216.669 255.224 214.576 255.353 214.594C255.442 216.175 255.273 217.761 254.852 219.288C254.577 220.852 254.051 222.362 253.295 223.758Z" fill="#FAFAFA"/>
<path d="M270.786 224.424C269.418 223.268 268.154 221.995 267.008 220.62C265.743 219.347 264.586 217.97 263.549 216.504C264.912 217.666 266.173 218.942 267.319 220.317C268.583 221.591 269.743 222.964 270.786 224.424Z" fill="#FAFAFA"/>
<path d="M278.931 244.629C277.894 243.877 276.948 243.007 276.112 242.036C275.175 241.165 274.339 240.19 273.622 239.131C274.659 239.883 275.605 240.753 276.441 241.724C277.386 242.587 278.222 243.563 278.931 244.629Z" fill="#FAFAFA"/>
<path d="M263.791 246.558C262.797 247.616 261.627 248.493 260.333 249.151C259.115 249.962 257.763 250.548 256.338 250.881C256.338 250.76 258.068 250.016 260.108 248.797C262.148 247.578 263.705 246.454 263.791 246.558Z" fill="#FAFAFA"/>
<path d="M270.76 265.778C270.631 265.778 271.149 263.478 271.409 260.633C271.668 257.789 271.59 255.446 271.72 255.446C272.038 257.157 272.084 258.908 271.858 260.633C271.772 262.396 271.401 264.133 270.76 265.778Z" fill="#FAFAFA"/>
<path d="M296.966 250.155C295.538 249.281 294.271 248.166 293.222 246.861C292.066 245.654 291.132 244.251 290.464 242.719C290.577 242.641 291.761 244.518 293.56 246.567C295.358 248.616 297.053 250.042 296.966 250.155Z" fill="#FAFAFA"/>
<path d="M306.537 258.308C306.433 258.23 307.747 256.432 309.217 254.123C310.687 251.815 311.768 249.878 311.88 249.939C311.319 251.511 310.548 253 309.589 254.365C308.759 255.815 307.732 257.141 306.537 258.308Z" fill="#FAFAFA"/>
<path d="M305.137 238.352C302.185 237.862 299.288 237.08 296.491 236.018C297.982 236.196 299.452 236.514 300.883 236.969C302.344 237.285 303.769 237.749 305.137 238.352Z" fill="#FAFAFA"/>
<path d="M298.159 273.473C298.006 272.111 298.006 270.737 298.159 269.375C298.17 268.005 298.327 266.64 298.626 265.302C298.782 266.664 298.782 268.039 298.626 269.401C298.618 270.771 298.461 272.136 298.159 273.473Z" fill="#FAFAFA"/>
<path d="M304.194 285.499C304.647 284.103 305.011 282.679 305.283 281.237C305.403 279.773 305.426 278.303 305.352 276.836C305.799 278.275 305.926 279.793 305.726 281.286C305.526 282.779 305.003 284.211 304.194 285.482V285.499Z" fill="#FAFAFA"/>
<path d="M288.553 282.845C288.112 279.858 288.697 276.81 290.213 274.199C290.334 274.251 289.539 276.075 289.089 278.47C288.64 280.865 288.683 282.837 288.553 282.845Z" fill="#FAFAFA"/>
<path d="M274.288 288.941C272.878 287.962 271.522 286.908 270.224 285.785C268.836 284.779 267.5 283.703 266.221 282.56C267.775 283.334 269.227 284.299 270.544 285.431C271.925 286.45 273.181 287.628 274.288 288.941Z" fill="#FAFAFA"/>
<path d="M283.946 271.977C280.637 274.076 277.167 275.912 273.57 277.467C275.198 276.347 276.909 275.352 278.689 274.493C280.374 273.52 282.131 272.679 283.946 271.977Z" fill="#FAFAFA"/>
<path d="M313.955 310.045C313.771 310.105 313.584 310.151 313.393 310.184C313.021 310.253 312.477 310.391 311.768 310.486C309.765 310.792 307.74 310.922 305.715 310.875C300.485 310.799 295.33 309.615 290.59 307.4C285.851 305.185 281.635 301.991 278.221 298.027C276.238 295.746 274.54 293.231 273.163 290.54C272.225 288.736 271.45 286.853 270.846 284.911C270.613 284.228 270.5 283.684 270.397 283.32C270.339 283.135 270.301 282.943 270.284 282.75C270.367 282.925 270.434 283.107 270.483 283.294C270.613 283.649 270.751 284.159 271.01 284.859C272.668 289.599 275.222 293.975 278.532 297.751C281.955 301.623 286.132 304.756 290.808 306.958C295.483 309.159 300.559 310.384 305.724 310.555C307.745 310.63 309.768 310.549 311.776 310.313C312.494 310.244 313.039 310.132 313.41 310.097C313.589 310.059 313.772 310.042 313.955 310.045Z" fill="#263238"/>
<path d="M288.121 305.566C287.826 304.194 287.968 302.764 288.528 301.477C288.95 300.138 289.785 298.966 290.914 298.131C290.15 299.236 289.493 300.412 288.951 301.641C288.555 302.921 288.277 304.235 288.121 305.566Z" fill="#FAFAFA"/>
<path d="M281.006 302.593C280.185 303.228 279.431 303.947 278.758 304.737C278.196 305.607 277.721 306.531 277.34 307.495C277.369 306.399 277.737 305.339 278.393 304.461C279.05 303.583 279.963 302.93 281.006 302.593Z" fill="#FAFAFA"/>
<path d="M308.37 318.882C306.955 318.768 305.588 318.316 304.385 317.564C303.181 316.812 302.176 315.781 301.454 314.559C303.334 316.589 305.721 318.081 308.37 318.882Z" fill="#FAFAFA"/>
<path d="M312.624 294.932C312.443 296.203 311.906 297.397 311.075 298.376C310.244 299.355 309.154 300.079 307.93 300.465C308.94 299.768 309.879 298.971 310.731 298.088C311.469 297.104 312.104 296.046 312.624 294.932Z" fill="#FAFAFA"/>
<path d="M324.719 312.786C324.616 312.699 325.757 311.255 326.812 309.267C327.867 307.278 328.429 305.523 328.541 305.566C328.051 308.316 326.708 310.842 324.702 312.786H324.719Z" fill="#FAFAFA"/>
<path d="M340.706 315.129C340.758 315.259 339.184 315.881 337.602 317.187C336.02 318.492 335.069 319.893 334.957 319.78C335.453 318.588 336.27 317.555 337.317 316.798C338.27 315.938 339.443 315.36 340.706 315.129Z" fill="#FAFAFA"/>
<path d="M328.516 294.664C328.377 294.707 327.651 292.183 326.034 289.382C324.417 286.58 322.688 284.609 322.801 284.522C323.275 284.857 323.693 285.266 324.037 285.733C325.857 287.859 327.243 290.32 328.118 292.978C328.335 293.517 328.469 294.085 328.516 294.664Z" fill="#FAFAFA"/>
<path d="M330.902 268.925C328.211 269.854 325.428 270.495 322.602 270.836C325.293 269.909 328.076 269.268 330.902 268.925Z" fill="#FAFAFA"/>
<path d="M323.544 261.23C322.557 260.312 321.67 259.292 320.899 258.186C320.018 257.168 319.25 256.058 318.607 254.875C319.604 255.781 320.492 256.799 321.253 257.91C322.142 258.925 322.91 260.039 323.544 261.23Z" fill="#FAFAFA"/>
<path d="M341.805 256.613C339.003 256.544 336.246 255.89 333.712 254.694C335.081 254.928 336.435 255.243 337.767 255.636C339.131 255.88 340.48 256.206 341.805 256.613Z" fill="#FAFAFA"/>
<path d="M354.773 256.379C355.145 255.156 355.587 253.955 356.096 252.783C356.461 251.554 356.903 250.35 357.419 249.177C357.349 250.471 357.056 251.743 356.555 252.938C356.169 254.182 355.566 255.347 354.773 256.379Z" fill="#FAFAFA"/>
<path d="M351.817 273.949C349.135 273.35 346.713 271.915 344.9 269.85C344.986 269.747 346.352 270.94 348.246 272.055C350.139 273.17 351.86 273.819 351.817 273.949Z" fill="#FAFAFA"/>
<path d="M360.238 273.412C360.411 271.677 360.73 269.959 361.189 268.276C361.502 266.567 361.959 264.886 362.555 263.253C362.07 266.704 361.286 270.106 360.212 273.421L360.238 273.412Z" fill="#FAFAFA"/>
<path d="M353.208 293.056C351.05 290.613 349.123 287.977 347.45 285.179C348.583 286.352 349.608 287.626 350.511 288.983C351.534 290.255 352.437 291.618 353.208 293.056Z" fill="#FAFAFA"/>
<path d="M365.209 285.542C365.088 285.603 364.301 284.038 363.056 282.291C361.811 280.545 360.609 279.274 360.705 279.179C361.792 279.941 362.718 280.91 363.428 282.032C364.254 283.069 364.86 284.263 365.209 285.542Z" fill="#FAFAFA"/>
<path d="M376.466 283.856C375.48 282.699 374.557 281.489 373.699 280.234C372.717 279.076 371.793 277.87 370.933 276.62C373.233 278.647 375.113 281.105 376.466 283.856Z" fill="#FAFAFA"/>
<path d="M373.794 291.318C373.64 290.279 373.291 289.279 372.765 288.37C372.133 287.53 371.35 286.815 370.457 286.26C370.457 286.208 370.855 286.26 371.399 286.528C372.102 286.902 372.697 287.45 373.129 288.119C373.569 288.786 373.833 289.553 373.898 290.35C373.985 290.92 373.872 291.318 373.794 291.318Z" fill="#FAFAFA"/>
<path d="M365.045 301.546C364.976 301.546 365.002 301.313 364.933 301.01C364.851 300.621 364.641 300.271 364.336 300.016C364.017 299.78 363.626 299.661 363.229 299.679C362.918 299.679 362.719 299.756 362.685 299.679C362.65 299.601 362.814 299.445 363.186 299.341C363.431 299.278 363.687 299.271 363.934 299.322C364.181 299.373 364.414 299.481 364.613 299.636C364.812 299.792 364.972 299.991 365.082 300.219C365.191 300.447 365.247 300.697 365.244 300.95C365.235 301.365 365.097 301.563 365.045 301.546Z" fill="#FAFAFA"/>
<path d="M275.092 317.896C273.477 317.273 272.01 316.322 270.783 315.101C269.557 313.88 268.598 312.418 267.968 310.806C269.731 313.722 272.176 316.167 275.092 317.93V317.896Z" fill="#FAFAFA"/>
<path d="M220.06 103.302C218.668 90.1516 216.152 77.7792 215.469 64.8881C215.496 64.5648 215.456 64.2395 215.35 63.9328C215.244 63.6262 215.076 63.3449 214.855 63.107C214.667 62.9969 214.458 62.9263 214.242 62.8995C214.026 62.8726 213.806 62.89 213.597 62.9507C213.387 63.0113 213.192 63.1139 213.024 63.2523C212.855 63.3906 212.716 63.5618 212.616 63.7554C212.239 64.5646 212.089 65.4614 212.184 66.3492C212.199 73.2048 211.029 80.0113 208.725 86.4684C207.247 90.6618 205.267 94.6821 204.16 98.9792C203.054 103.276 205.137 104.737 207.074 108.741" fill="#FFBE9D"/>
<path d="M207.1 108.724C205.387 107.41 204.059 105.66 203.254 103.656C202.449 101.653 202.198 99.4705 202.526 97.3369C202.967 94.7431 204.255 92.3913 205.276 89.9705C206.296 87.5496 207.083 84.8607 206.46 82.3101C206.116 81.3635 205.884 80.3798 205.768 79.3791C205.768 78.3762 206.417 77.2522 207.42 77.209C207.799 77.2396 208.166 77.3578 208.491 77.5544C208.817 77.7509 209.092 78.0204 209.296 78.3416C210.982 80.4253 212.331 86.5121 211.483 91.0599" fill="#FFBE9D"/>
<path d="M211.483 91.0593C211.483 91.0593 211.569 90.359 211.621 89.0967C211.676 87.3161 211.528 85.5352 211.18 83.788C210.948 82.5846 210.6 81.4063 210.143 80.2691C209.902 79.6504 209.576 79.0684 209.175 78.5399C208.994 78.2563 208.758 78.0126 208.48 77.8237C208.202 77.6349 207.888 77.5049 207.558 77.4418C207.218 77.458 206.893 77.5851 206.632 77.8037C206.371 78.0224 206.189 78.3204 206.114 78.6523C205.928 79.3894 205.977 80.1659 206.252 80.8743C206.543 81.6653 206.746 82.4858 206.857 83.3211C206.941 84.1861 206.909 85.0584 206.762 85.9149C206.157 89.4252 204.29 92.2611 203.304 95.071C202.818 96.3839 202.558 97.7695 202.534 99.1692C202.529 100.388 202.71 101.601 203.07 102.766C203.594 104.465 204.479 106.031 205.664 107.357C206.529 108.282 207.091 108.688 207.065 108.732C206.91 108.653 206.765 108.558 206.633 108.446C206.242 108.149 205.875 107.823 205.535 107.469C204.271 106.166 203.324 104.589 202.768 102.861C202.374 101.67 202.17 100.424 202.163 99.1692C202.17 97.7245 202.424 96.2917 202.915 94.9327C203.866 92.0622 205.707 89.2263 206.278 85.8458C206.426 85.0242 206.458 84.1861 206.373 83.3557C206.269 82.544 206.075 81.7465 205.794 80.9781C205.495 80.184 205.453 79.3161 205.673 78.4967C205.802 78.0876 206.037 77.7204 206.356 77.4332C206.515 77.2847 206.703 77.1704 206.909 77.0976C207.114 77.0247 207.332 76.9947 207.549 77.0095C207.945 77.0619 208.326 77.1977 208.665 77.4078C209.005 77.6179 209.297 77.8977 209.52 78.2286C209.941 78.8009 210.278 79.4296 210.523 80.0962C210.98 81.2574 211.316 82.4627 211.526 83.6929C211.854 85.4656 211.955 87.2725 211.829 89.0707C211.798 89.5586 211.735 90.0439 211.639 90.5232C211.613 90.7084 211.56 90.8889 211.483 91.0593Z" fill="#EB996E"/>
<path d="M324.513 161.274C324.795 162.511 325.465 163.625 326.424 164.455C327.383 165.286 328.583 165.788 329.847 165.891C331.114 165.953 332.377 165.692 333.516 165.132C334.654 164.573 335.632 163.733 336.358 162.692C337.793 160.575 338.371 157.991 337.974 155.464C337.482 151.824 335.061 148.322 331.55 147.241C328.04 146.161 323.674 148.106 322.705 151.634L318.659 157.279L324.513 161.274Z" fill="#263238"/>
<path d="M319.732 150.18C320.124 147.052 319.884 143.876 319.026 140.842C318.168 137.807 316.709 134.977 314.735 132.517C312.762 130.057 310.315 128.019 307.539 126.524C304.763 125.028 301.714 124.105 298.575 123.81C286.03 122.617 274.868 131.963 272.991 144.431C271.34 155.359 269.922 166.392 269.974 170.369C270.13 182.473 277.193 187.159 280.064 188.525C281.094 188.897 282.161 189.161 283.246 189.312C283.256 189.314 283.266 189.318 283.275 189.324C283.283 189.33 283.291 189.338 283.296 189.347C283.302 189.356 283.306 189.366 283.307 189.376C283.309 189.386 283.309 189.397 283.306 189.407L280.626 203.241C279.407 212.328 284.482 220.438 293.552 221.761C302.621 223.084 309.772 216.106 311.164 207.011L319.732 150.18Z" fill="#FFBE9D"/>
<path d="M275.074 151.495C275.273 151.78 276.864 150.924 278.913 151.227C280.962 151.529 282.302 152.774 282.562 152.549C282.691 152.454 282.51 151.979 281.93 151.408C281.135 150.665 280.13 150.185 279.051 150.033C277.987 149.879 276.901 150.063 275.947 150.561C275.23 150.95 274.97 151.365 275.074 151.495Z" fill="#263238"/>
<path d="M293.266 155.438C293.465 155.723 295.064 154.867 297.105 155.17C299.145 155.472 300.502 156.717 300.762 156.492C300.883 156.397 300.71 155.922 300.122 155.342C299.328 154.603 298.326 154.126 297.252 153.976C296.187 153.821 295.101 154.006 294.148 154.504C293.447 154.893 293.171 155.308 293.266 155.438Z" fill="#263238"/>
<path d="M286.193 165.104C285.164 164.611 284.078 164.248 282.959 164.023C282.441 163.893 281.965 163.712 281.931 163.349C281.965 162.804 282.164 162.282 282.501 161.853L284.628 158.1C287.594 152.749 289.816 148.322 289.608 148.201C289.401 148.08 286.807 152.325 283.841 157.711L281.775 161.49C281.361 162.077 281.16 162.787 281.204 163.504C281.259 163.694 281.355 163.87 281.485 164.02C281.615 164.169 281.776 164.288 281.957 164.369C282.234 164.487 282.524 164.571 282.821 164.62C283.92 164.923 285.053 165.086 286.193 165.104Z" fill="#263238"/>
<path d="M283.323 189.399C283.323 189.399 291.104 191.197 301.868 186.701C301.868 186.701 297.234 196.688 282.605 193.134L283.323 189.399Z" fill="#EB996E"/>
<path d="M286.34 170.162C286.799 169.741 287.355 169.441 287.959 169.289C288.563 169.138 289.196 169.141 289.799 169.298C290.244 169.407 290.662 169.605 291.03 169.878C291.399 170.151 291.709 170.494 291.943 170.888C292.167 171.268 292.269 171.708 292.233 172.148C292.198 172.587 292.027 173.005 291.744 173.344C291.364 173.665 290.896 173.864 290.4 173.915C289.905 173.966 289.406 173.867 288.969 173.629C288.051 173.151 287.239 172.492 286.582 171.693C286.371 171.497 286.201 171.262 286.081 171.001C286.021 170.877 286 170.737 286.022 170.601C286.044 170.465 286.106 170.339 286.202 170.24" fill="#EB996E"/>
<path d="M292.004 167.395C291.675 167.325 291.347 169.547 289.22 170.853C287.093 172.159 284.758 171.562 284.698 171.873C284.646 172.012 285.165 172.383 286.159 172.556C287.456 172.762 288.784 172.504 289.911 171.83C290.993 171.18 291.78 170.135 292.107 168.916C292.324 167.991 292.159 167.403 292.004 167.395Z" fill="#263238"/>
<path d="M294.675 148.78C294.796 149.368 296.88 149.402 299.231 150.042C301.583 150.682 303.442 151.616 303.831 151.166C304.004 150.95 303.745 150.379 303.044 149.722C302.095 148.91 300.974 148.324 299.765 148.01C298.556 147.695 297.292 147.66 296.067 147.907C295.116 148.131 294.632 148.503 294.675 148.78Z" fill="#263238"/>
<path d="M277.14 145.192C277.426 145.711 278.913 145.434 280.599 145.659C282.285 145.884 283.685 146.42 284.057 145.987C284.239 145.771 284.057 145.27 283.512 144.742C282.748 144.091 281.807 143.681 280.809 143.568C279.811 143.454 278.801 143.64 277.91 144.103C277.279 144.492 277.011 144.941 277.14 145.192Z" fill="#263238"/>
<path d="M270.622 141.725C273.121 145.538 281.058 143.178 285.848 140.558C288.35 142.154 291.376 142.711 294.282 142.11C297.189 141.509 299.746 139.799 301.411 137.341C304.151 140.8 309.728 139.676 311.786 135.742C313.844 131.808 312.65 126.387 309.884 122.946C307.117 119.505 303.019 117.758 298.99 117.023C289.436 115.294 279.035 118.96 273.32 127.597C270.683 131.583 269.101 136.952 270.666 141.725" fill="#263238"/>
<path d="M297.027 118.38C297.027 118.553 294.77 118.121 291.225 118.709C286.621 119.475 282.4 121.746 279.225 125.168C276.236 128.75 274.259 133.066 273.501 137.67C273.238 139.589 273.137 141.526 273.199 143.463C273.014 142.963 272.906 142.438 272.879 141.906C272.727 140.468 272.751 139.016 272.948 137.583C273.575 132.801 275.561 128.3 278.671 124.614C281.959 121.055 286.388 118.757 291.191 118.121C292.624 117.928 294.075 117.905 295.514 118.052C296.032 118.083 296.542 118.194 297.027 118.38Z" fill="#455A64"/>
<path d="M284.11 136.157C283.967 135.719 283.903 135.26 283.919 134.8C283.874 133.545 284.005 132.291 284.308 131.073C284.771 129.031 285.647 127.105 286.882 125.413C288.116 123.722 289.684 122.301 291.489 121.239C293.293 120.176 295.296 119.494 297.374 119.235C299.452 118.975 301.561 119.144 303.572 119.73C304.785 120.062 305.948 120.557 307.03 121.199C307.447 121.416 307.82 121.71 308.128 122.064C306.62 121.35 305.052 120.772 303.442 120.335C299.526 119.337 295.375 119.928 291.893 121.979C288.411 124.029 285.88 127.373 284.853 131.281C284.006 134.168 284.274 136.157 284.11 136.157Z" fill="#455A64"/>
<path d="M307.031 132.007C306.093 135.391 305.554 138.873 305.422 142.382C305.293 145.911 306.39 149.375 308.526 152.187C311.864 156.207 317.432 157.435 322.567 158.412C325.315 151.558 326.143 144.086 324.962 136.797C324.374 133.261 323.233 129.655 320.743 127.079C318.892 125.252 316.487 124.092 313.905 123.779C311.324 123.466 308.711 124.018 306.477 125.35" fill="#263238"/>
<path d="M309.883 148.746C308.534 151.668 308.63 155.049 309.097 158.256C309.563 161.464 310.376 164.602 310.342 167.819C310.307 171.035 309.287 174.45 306.762 176.465C305.997 176.975 305.279 177.554 304.618 178.194C304.292 178.519 304.073 178.936 303.993 179.389C303.913 179.843 303.974 180.31 304.168 180.727C304.652 181.505 306.114 181.488 306.321 180.597L306.191 180.822C306.064 181.038 305.996 181.283 305.993 181.533C305.99 181.783 306.053 182.03 306.176 182.248C306.298 182.466 306.476 182.648 306.691 182.776C306.907 182.903 307.152 182.972 307.402 182.975C308.285 182.933 309.151 182.71 309.945 182.32C310.739 181.931 311.445 181.383 312.019 180.71C313.67 178.799 314.327 176.231 314.76 173.793C316.091 166.159 315.832 158.23 317.941 150.786" fill="#263238"/>
<path d="M280.565 198.883C281.16 201.484 282.308 203.926 283.931 206.044C285.554 208.162 287.613 209.906 289.969 211.157C292.326 212.409 294.924 213.139 297.587 213.298C300.25 213.456 302.917 213.04 305.405 212.077C309.883 210.348 313.497 206.976 316.982 203.682C317.605 207.432 317.434 211.271 316.478 214.951C315.522 218.63 313.804 222.067 311.434 225.04C309.064 228.012 306.095 230.453 302.721 232.204C299.347 233.956 295.643 234.978 291.848 235.205C286.116 235.551 279.96 233.805 276.354 229.335C273.838 226.222 272.827 222.098 272.896 218.095C273.071 214.086 273.834 210.124 275.161 206.336C276.181 203.068 277.798 199.42 281.101 198.512" fill="#FFAE19"/>
<path d="M321.582 158.636C325.04 160.495 326.891 164.385 327.556 168.224C328.222 172.063 327.885 176.006 328.049 179.888C328.214 183.77 328.957 187.851 331.421 190.868C334.015 194.084 338.122 195.606 341.796 197.569C349.854 201.892 356.495 209.267 358.915 218.103C361.336 226.939 359.14 237.124 352.526 243.479C346.474 249.237 337.741 251.26 329.407 251.26C323.467 251.26 316.939 249.981 313.23 245.338C309.521 240.695 309.772 234.185 311.069 228.461C312.365 222.737 314.743 217.178 314.838 211.307C313.951 214.942 312.403 218.382 310.273 221.458C309.659 222.322 308.613 223.273 307.679 222.772C306.746 222.27 307.031 220.654 307.515 219.573C314.674 203.638 312.184 171.518 316.429 153.924" fill="#263238"/>
<path d="M315.685 156.83C315.901 156.76 324.262 155.178 323.181 163.444C322.1 171.709 314.034 168.925 314.051 168.692C314.068 168.459 315.685 156.83 315.685 156.83Z" fill="#FFBE9D"/>
<path d="M316.982 165.891C316.982 165.891 317.111 166.003 317.345 166.15C317.668 166.34 318.052 166.399 318.417 166.314C319.334 166.107 320.25 164.81 320.483 163.331C320.593 162.624 320.545 161.901 320.345 161.213C320.301 160.945 320.193 160.691 320.028 160.474C319.864 160.257 319.649 160.083 319.403 159.968C319.247 159.913 319.078 159.911 318.922 159.963C318.765 160.015 318.63 160.117 318.538 160.254C318.4 160.47 318.426 160.643 318.382 160.651C318.339 160.66 318.227 160.487 318.331 160.158C318.405 159.959 318.545 159.791 318.728 159.683C318.857 159.606 319 159.556 319.149 159.536C319.298 159.517 319.449 159.529 319.593 159.57C319.924 159.682 320.221 159.877 320.455 160.136C320.69 160.394 320.854 160.709 320.933 161.049C321.189 161.811 321.257 162.624 321.132 163.418C320.864 165.078 319.809 166.522 318.538 166.712C318.308 166.749 318.072 166.733 317.849 166.666C317.626 166.598 317.421 166.481 317.25 166.323C316.973 166.09 316.956 165.899 316.982 165.891Z" fill="#EB996E"/>
<path d="M272.022 216.694C272.428 215.812 272.896 214.96 273.423 214.144C274.628 212.149 275.628 210.037 276.406 207.841C277.162 205.643 277.416 203.303 277.15 200.993C276.981 200.046 276.762 199.107 276.492 198.183C276.655 198.394 276.781 198.631 276.864 198.884C277.146 199.546 277.349 200.24 277.469 200.95C277.833 203.31 277.616 205.722 276.838 207.979C276.054 210.209 275 212.334 273.7 214.308C273.216 215.069 272.835 215.674 272.515 216.081C272.195 216.487 272.048 216.712 272.022 216.694Z" fill="#263238"/>
<path d="M276.233 207.158C276.112 207.158 275.879 206.449 275.135 205.956C274.392 205.464 273.648 205.464 273.631 205.334C273.614 205.204 273.812 205.187 274.15 205.178C274.597 205.182 275.031 205.324 275.395 205.585C275.761 205.84 276.043 206.198 276.207 206.613C276.32 206.933 276.294 207.141 276.233 207.158Z" fill="#FAFAFA"/>
<path d="M281.576 207.14C280.928 206.412 280.217 205.744 279.449 205.143C278.598 204.667 277.7 204.278 276.769 203.985C277.284 203.913 277.808 203.946 278.31 204.081C278.812 204.217 279.282 204.451 279.691 204.771C280.605 205.285 281.281 206.135 281.576 207.14Z" fill="#FAFAFA"/>
<path d="M284.931 224.683C284.951 223.491 285.119 222.306 285.432 221.156C285.599 219.968 285.916 218.806 286.375 217.697C286.355 218.892 286.186 220.08 285.873 221.233C285.706 222.418 285.389 223.578 284.931 224.683Z" fill="#FAFAFA"/>
<path d="M298.419 227.329C298.203 224.847 298.281 222.348 298.652 219.885C298.88 222.366 298.802 224.866 298.419 227.329Z" fill="#FAFAFA"/>
<path d="M23.0348 265.752L9.70264 323.81L37.8972 323.896L50.9181 272.841L23.0348 265.752Z" fill="#B78876"/>
<path d="M161.492 194.422C158.812 190.834 155.734 187.385 154.324 183.131C153.641 181.073 153.373 178.894 152.647 176.854C151.921 174.813 150.598 172.825 148.575 172.055C146.551 171.286 145.012 172.055 143.698 173.508L134.023 201.806L139.6 223.542C145.168 222.289 152.137 220.801 157.342 218.458C162.547 216.115 165.988 212.363 166.351 206.665C166.602 202.195 164.172 198.019 161.492 194.422Z" fill="#263238"/>
<path d="M73.4495 189.425C73.4495 189.425 39.8166 204.063 35.6146 210.668C31.4127 217.274 17.5791 264.369 17.5791 264.369L53.0277 274.744L52.4225 323.775H139.315L138.597 237.315L127.703 189.538C127.703 189.538 108.518 188.301 106.737 187.428C104.956 186.555 73.4495 189.425 73.4495 189.425Z" fill="#FFAE19"/>
<path d="M192.972 69.5833C193.248 67.6033 191.856 65.4246 192.859 63.6867C193.523 62.7911 194.471 62.1478 195.548 61.8624C196.07 61.6238 196.635 61.4915 197.208 61.4733C197.494 61.4687 197.775 61.5482 198.017 61.7019C198.258 61.8556 198.449 62.0768 198.566 62.3379C198.628 62.6686 198.599 63.01 198.482 63.3253C198.364 63.6407 198.163 63.9181 197.9 64.1277C197.373 64.5416 196.93 65.0522 196.594 65.6321C196.36 67.0552 196.469 68.5139 196.914 69.8859C198.066 72.9049 199.022 75.9951 199.776 79.1371" fill="#B78876"/>
<path d="M185.874 70.2574C185.995 67.2572 188.467 55.4381 188.554 52.438C190.586 53.0605 191.761 55.222 192.142 57.3143C192.522 59.4067 192.323 61.5595 192.687 63.6518C193.171 66.4618 194.632 68.9951 196.102 71.4332C197.572 73.8714 199.111 76.3528 199.776 79.1195C200.442 81.8862 202.949 89.0797 200.995 91.1547" fill="#B78876"/>
<path d="M185.311 90.4893L173.285 147.622C172.861 150.216 127.703 189.598 127.703 189.598L136.617 225.211L195.41 167.689C199.655 163.151 201.965 157.138 201.851 150.925L200.848 97.3196L185.311 90.4893Z" fill="#B78876"/>
<path d="M183.254 70.6205L185.312 90.5063L200.874 97.3539C200.874 97.3539 201.065 95.9447 201.739 89.0538C202.474 81.4626 194.312 78.2031 190.672 72.6264C189.116 70.2315 189.522 65.822 188.32 60.3577C188.182 59.7266 187.318 55.905 186.851 53.8559C186.605 52.7172 185.938 51.7135 184.983 51.046C184.274 50.5791 183.479 50.3457 182.899 51.046C182.32 51.7463 183.254 70.6205 183.254 70.6205Z" fill="#B78876"/>
<path d="M192.972 93.792C194.702 92.2963 195.117 89.616 194.468 87.394C193.674 85.206 192.421 83.2131 190.794 81.5493C189.168 79.8897 187.801 77.9952 186.739 75.9294C186.082 74.4423 185.77 72.7996 185.01 71.3384C184.249 69.8772 182.96 68.5371 181.335 68.4766C182.641 76.6989 182.606 81.4456 185.278 90.4547" fill="#B78876"/>
<path d="M182.951 77.8657C182.951 77.8657 182.891 77.6409 182.796 77.2086C182.701 76.7763 182.536 76.0587 182.381 75.3238C182.009 73.5946 181.516 71.3899 181.006 68.8566L180.954 68.6145H181.205C181.737 68.5951 182.268 68.6814 182.766 68.8684C183.265 69.0553 183.722 69.3393 184.11 69.7039C185.297 70.8336 186.142 72.2749 186.548 73.8626C186.893 75.0966 187.347 76.2974 187.905 77.4507C188.329 78.2083 188.839 78.9134 189.427 79.5517C189.642 79.7969 189.817 80.074 189.946 80.373C189.709 80.1537 189.49 79.9167 189.289 79.6641C188.645 79.0561 188.087 78.3639 187.629 77.6063C187.018 76.4493 186.52 75.2361 186.142 73.9837C185.74 72.4754 184.932 71.1059 183.807 70.0238C183.106 69.3657 182.175 69.0088 181.213 69.0295L181.421 68.7701C182.467 73.975 183.142 77.8744 182.951 77.8657Z" fill="#7C5142"/>
<path d="M189.946 72.8081C189.319 70.1333 188.839 67.4259 188.511 64.6982C188.031 61.992 187.699 59.2615 187.517 56.519C188.149 59.1958 188.628 61.9064 188.952 64.6376C189.432 67.341 189.764 70.0685 189.946 72.8081Z" fill="#7C5142"/>
<path d="M194.9 73.4826C194.9 73.4826 194.961 73.5691 195.013 73.7852H194.883C194.24 71.9354 193.714 70.0468 193.309 68.1308C192.938 66.4621 192.67 64.9404 192.505 63.8078C192.372 63.2153 192.319 62.6073 192.35 62.0007C192.479 62.0007 193.007 64.6896 193.75 68.0529C194.347 70.7418 194.9 73.0071 195.013 73.7679H194.883C194.874 73.5864 194.874 73.4826 194.9 73.4826Z" fill="#7C5142"/>
<path d="M197.97 84.4365C197.901 84.4365 197.589 83.9869 196.967 83.3211C195.322 81.5738 193.09 80.496 190.698 80.295C190.198 80.2994 189.698 80.2676 189.203 80.1999C189.681 80.0143 190.195 79.9375 190.707 79.9751C191.953 79.9908 193.181 80.28 194.303 80.8223C195.425 81.3646 196.414 82.1469 197.2 83.1136C197.554 83.4901 197.817 83.9426 197.97 84.4365Z" fill="#7C5142"/>
<path d="M186.721 92.0629C186.293 91.3189 185.948 90.5303 185.692 89.7112C184.981 87.7712 184.386 85.7906 183.911 83.78C183.427 81.7862 183.063 79.7652 182.821 77.7278C182.68 76.8709 182.628 76.0017 182.666 75.134C182.883 75.9602 183.039 76.8011 183.133 77.65C183.392 79.1977 183.79 81.3419 184.343 83.7022C184.896 86.0626 185.519 88.129 185.995 89.6334C186.293 90.4254 186.535 91.2372 186.721 92.0629Z" fill="#7C5142"/>
<path d="M117.147 190.627C117.917 189.447 119.112 188.609 120.484 188.287C121.856 187.965 123.299 188.184 124.513 188.898C130.86 183.71 137.353 178.678 143.699 173.516C141.624 183.892 140.24 198.356 144.883 207.85C144.883 207.85 150.737 218.726 160.057 217.066L151.74 225.211L138.624 237.376" fill="#FFAE19"/>
<path d="M115.088 195.469C115.098 194.077 115.523 192.719 116.307 191.57C116.97 190.342 117.981 189.337 119.213 188.682C117.259 190.537 115.835 192.88 115.088 195.469Z" fill="#263238"/>
<path d="M121.945 201.867C121.586 201.29 121.339 200.651 121.219 199.982C120.846 198.378 120.801 196.716 121.088 195.095C121.375 193.474 121.987 191.927 122.888 190.549C123.231 189.96 123.683 189.44 124.219 189.019C124.28 189.071 123.778 189.659 123.165 190.748C122.366 192.126 121.813 193.633 121.53 195.201C121.26 196.771 121.26 198.377 121.53 199.947C121.747 201.071 122.015 201.798 121.945 201.867Z" fill="#263238"/>
<path d="M153.711 224.069C153.072 224.466 152.375 224.758 151.644 224.934C149.647 225.415 147.557 225.353 145.592 224.752C142.682 223.828 140.135 222.014 138.312 219.565C136.122 216.561 134.643 213.099 133.989 209.44C132.768 202.851 132.419 196.13 132.951 189.451C133.15 186.857 133.436 184.834 133.678 183.398C133.79 182.689 133.894 182.145 133.972 181.773C133.999 181.581 134.045 181.393 134.11 181.211C134.116 181.405 134.099 181.6 134.058 181.79L133.851 183.424C133.669 184.842 133.427 186.883 133.271 189.477C132.829 196.128 133.218 202.808 134.43 209.362C135.077 212.927 136.51 216.302 138.623 219.245C140.372 221.668 142.836 223.483 145.67 224.432C147.583 225.049 149.624 225.159 151.592 224.752C152.313 224.572 153.02 224.344 153.711 224.069Z" fill="#FAFAFA"/>
<path d="M53.1921 289.338C53.071 289.338 52.9673 277.043 52.9673 261.887C52.9673 246.731 53.071 234.436 53.1921 234.436C53.3131 234.436 53.4169 246.722 53.4169 261.887C53.4169 277.052 53.3218 289.338 53.1921 289.338Z" fill="#263238"/>
<path d="M52.5008 224.952C52.4057 224.952 52.4316 223.724 52.0079 221.813C51.7555 220.697 51.3935 219.608 50.9272 218.562C50.3461 217.29 49.6302 216.085 48.7916 214.966C47.9297 213.862 46.953 212.854 45.8779 211.957C44.9927 211.233 44.0402 210.596 43.0334 210.055C41.3042 209.147 40.1024 208.844 40.1283 208.758C40.4234 208.773 40.7147 208.831 40.9929 208.931C41.3206 209.012 41.6415 209.119 41.9526 209.251C42.3768 209.397 42.79 209.573 43.189 209.778C44.2277 210.286 45.2076 210.907 46.1114 211.628C47.2213 212.535 48.2275 213.561 49.1115 214.689C49.9744 215.837 50.6999 217.082 51.273 218.398C51.7439 219.474 52.0947 220.599 52.3192 221.753C52.4079 222.192 52.4685 222.637 52.5008 223.084C52.5412 223.42 52.5585 223.758 52.5526 224.096C52.5683 224.382 52.5509 224.669 52.5008 224.952Z" fill="#263238"/>
<path d="M111.717 189.044C111.789 189.284 111.838 189.53 111.864 189.779C111.98 190.48 112.056 191.187 112.089 191.897C112.192 194.521 111.826 197.141 111.008 199.636C109.79 203.355 107.63 206.697 104.74 209.336C101.114 212.505 96.5606 214.416 91.7596 214.783C86.9585 215.151 82.1673 213.956 78.1013 211.377C74.851 209.202 72.2181 206.223 70.4583 202.731C69.2794 200.386 68.527 197.851 68.2362 195.243C68.166 194.537 68.1342 193.827 68.1411 193.116C68.1203 192.869 68.1203 192.62 68.1411 192.373C68.1817 192.616 68.2019 192.862 68.2016 193.108C68.2238 193.813 68.2815 194.518 68.3746 195.217C68.7287 197.788 69.5181 200.279 70.709 202.584C72.473 206.006 75.0833 208.92 78.2915 211.048C82.2839 213.559 86.976 214.723 91.6788 214.369C96.3816 214.016 100.847 212.164 104.42 209.086C107.279 206.501 109.428 203.226 110.662 199.575C111.491 197.116 111.9 194.535 111.873 191.941C111.873 191.024 111.795 190.315 111.726 189.831C111.656 189.347 111.708 189.053 111.717 189.044Z" fill="#263238"/>
<path d="M52.4488 264.057C52.4488 264.178 45.264 261.921 36.497 259.025C27.7299 256.129 20.6489 253.682 20.6921 253.561C20.7353 253.44 27.8683 255.696 36.644 258.593C45.4196 261.489 52.4834 263.936 52.4488 264.057Z" fill="#FAFAFA"/>
<path d="M137.759 252.056C137.759 252.186 118.694 252.368 95.1771 252.463C71.66 252.558 52.5869 252.541 52.5869 252.463C52.5869 252.385 71.6513 252.152 95.1771 252.056C118.703 251.961 137.759 251.935 137.759 252.056Z" fill="#FAFAFA"/>
<path d="M138.191 259.587C138.191 259.708 119.023 259.812 95.3932 259.812C71.7637 259.812 52.5869 259.708 52.5869 259.587C52.5869 259.466 71.7464 259.362 95.3932 259.362C119.04 259.362 138.191 259.457 138.191 259.587Z" fill="#FAFAFA"/>
<path d="M126.45 268.735C126.391 268.975 126.31 269.21 126.208 269.435C126.017 269.919 125.758 270.576 125.438 271.406L124.867 272.824C124.643 273.343 124.375 273.888 124.098 274.484C123.527 275.66 122.939 277.026 122.118 278.461L120.873 280.727C120.441 281.513 119.922 282.292 119.42 283.122C118.435 284.79 117.224 286.468 115.962 288.257C113.155 292.06 110.062 295.644 106.711 298.978C103.312 302.266 99.6673 305.289 95.8083 308.022C93.9926 309.232 92.2894 310.417 90.6207 311.368C89.7561 311.852 88.9952 312.354 88.1998 312.777L85.8827 313.97C84.4388 314.757 83.0554 315.328 81.8709 315.873C81.2744 316.132 80.721 316.391 80.2023 316.607L78.767 317.152L76.7871 317.887C76.5587 317.985 76.3212 318.06 76.0781 318.112C76.2939 317.99 76.5195 317.886 76.7525 317.801L78.7065 316.988L80.1158 316.409C80.6346 316.184 81.1793 315.916 81.7672 315.639C82.943 315.077 84.3091 314.489 85.7357 313.685L88.0096 312.475C88.7964 312.042 89.5832 311.532 90.4132 311.048C92.0819 310.088 93.7678 308.895 95.6008 307.685C103.302 302.251 110.076 295.609 115.659 288.015C116.913 286.243 118.132 284.557 119.118 282.923C119.628 282.101 120.155 281.332 120.596 280.554L121.85 278.306C122.715 276.896 123.294 275.539 123.882 274.372C124.167 273.784 124.452 273.248 124.686 272.738C124.919 272.228 125.11 271.761 125.291 271.337C125.646 270.524 125.931 269.885 126.156 269.4C126.242 269.174 126.34 268.951 126.45 268.735Z" fill="#263238"/>
<g opacity="0.3">
<path d="M122.939 276.222C117.129 283.295 111.042 288.422 102.509 291.724C98.4192 293.298 94.1394 294.379 90.1796 296.255C86.2197 298.131 82.4846 300.958 80.669 304.961C79.2943 308.057 79.96 312.743 83.2628 313.417C84.5459 313.575 85.8475 313.374 87.0238 312.838C103.927 306.708 115.037 291.223 122.887 276.222" fill="black"/>
</g>
<path d="M62.4784 122.393C58.8298 125.255 58.5877 130.607 58.7693 135.241C58.9509 139.875 59.0027 145.149 55.6222 148.348C52.8554 150.985 48.0137 151.962 47.2182 155.706C47.0169 156.588 47.0974 157.511 47.4484 158.345C47.7994 159.179 48.4031 159.881 49.1746 160.354C49.946 160.827 50.8464 161.045 51.7487 160.979C52.651 160.913 53.5098 160.566 54.2042 159.986C53.0284 162.917 53.5644 166.669 56.0631 168.632C58.5618 170.594 62.928 169.66 63.8445 166.652C63.7028 167.149 63.6638 167.671 63.7296 168.184C63.7955 168.697 63.965 169.192 64.2277 169.638C64.4905 170.084 64.8411 170.472 65.2582 170.778C65.6754 171.084 66.1504 171.303 66.6545 171.42C67.1585 171.537 67.6812 171.551 68.1907 171.46C68.7002 171.369 69.1859 171.176 69.6185 170.892C70.051 170.607 70.4213 170.238 70.7069 169.807C70.9925 169.375 71.1875 168.89 71.2801 168.381" fill="#263238"/>
<path d="M115.426 155.948C115.6 156.555 115.897 157.12 116.298 157.608C116.7 158.096 117.197 158.496 117.76 158.783C118.322 159.071 118.938 159.239 119.568 159.279C120.199 159.318 120.831 159.228 121.425 159.013C122.019 158.797 122.562 158.463 123.021 158.029C123.48 157.595 123.845 157.071 124.094 156.49C124.342 155.909 124.468 155.284 124.464 154.652C124.461 154.02 124.327 153.396 124.072 152.818C123.354 151.02 121.478 149.662 121.435 147.734C121.322 145.4 123.778 143.852 125.931 142.944C128.084 142.037 130.608 140.826 130.945 138.518C131.283 136.209 129.355 134.437 127.746 132.855C126.138 131.272 124.591 128.869 125.723 126.915C126.303 125.92 127.452 125.384 128.196 124.511C129.873 122.574 129.199 119.324 127.262 117.672C125.326 116.021 122.55 115.64 120.017 115.943C117.484 116.246 115.063 117.197 112.581 117.811C108.467 118.804 104.191 118.932 100.024 118.188C95.8566 117.444 91.8893 115.843 88.3726 113.488" fill="#263238"/>
<path d="M64.9593 140.221L73.856 191.785C74.2247 193.944 75.0168 196.007 76.1868 197.858C77.3567 199.709 78.8814 201.309 80.6728 202.568C82.4643 203.827 84.4872 204.718 86.6248 205.191C88.7625 205.665 90.9727 205.71 93.128 205.325C97.2116 204.594 100.873 202.36 103.392 199.063C105.911 195.767 107.104 191.647 106.737 187.514C106.33 182.941 105.985 179.154 105.985 179.154C105.985 179.154 118.902 175.834 117.786 162.726C117.242 156.38 115.071 143.402 112.962 131.678C111.868 125.61 108.53 120.177 103.611 116.458C98.6931 112.74 92.555 111.009 86.4187 111.611L85.1564 111.732C81.9406 112.236 78.8584 113.379 76.0916 115.094C73.3248 116.808 70.9295 119.06 69.047 121.715C67.1645 124.37 65.8329 127.376 65.1308 130.554C64.4288 133.733 64.3704 137.019 64.9593 140.221Z" fill="#B78876"/>
<path d="M110.204 140.143C110.26 140.631 110.122 141.121 109.819 141.508C109.517 141.895 109.074 142.147 108.587 142.209C108.351 142.253 108.109 142.248 107.875 142.196C107.64 142.143 107.419 142.044 107.224 141.905C107.029 141.765 106.864 141.588 106.738 141.383C106.613 141.179 106.53 140.951 106.495 140.714C106.438 140.226 106.577 139.735 106.879 139.349C107.182 138.962 107.625 138.71 108.112 138.647C108.348 138.604 108.59 138.609 108.824 138.661C109.058 138.713 109.279 138.812 109.475 138.952C109.67 139.091 109.835 139.269 109.96 139.473C110.086 139.678 110.168 139.906 110.204 140.143Z" fill="#263238"/>
<path d="M110.774 138.353C110.566 138.612 109.045 137.704 107.03 137.903C105.016 138.102 103.632 139.261 103.39 139.036C103.278 138.932 103.468 138.474 104.064 137.938C104.879 137.247 105.888 136.827 106.952 136.736C107.999 136.632 109.053 136.862 109.961 137.393C110.627 137.808 110.877 138.232 110.774 138.353Z" fill="#263238"/>
<path d="M90.491 142.451C90.5403 142.938 90.3982 143.425 90.0948 143.809C89.7915 144.193 89.3507 144.444 88.8656 144.509C88.6297 144.551 88.3878 144.545 88.1541 144.492C87.9204 144.44 87.6996 144.341 87.5047 144.201C87.3097 144.062 87.1446 143.885 87.019 143.681C86.8934 143.477 86.8099 143.25 86.7733 143.013C86.7215 142.526 86.8613 142.038 87.1631 141.652C87.4649 141.267 87.9049 141.014 88.3901 140.947C88.6271 140.905 88.8701 140.91 89.1049 140.964C89.3396 141.017 89.5614 141.117 89.7571 141.257C89.9528 141.397 90.1185 141.575 90.2446 141.78C90.3706 141.985 90.4544 142.213 90.491 142.451Z" fill="#263238"/>
<path d="M91.0013 140.653C90.7938 140.921 89.2721 140.013 87.2576 140.212C85.243 140.411 83.8683 141.569 83.6176 141.345C83.5052 141.241 83.6954 140.783 84.292 140.247C85.108 139.558 86.1164 139.139 87.1797 139.045C88.2272 138.936 89.2818 139.167 90.1885 139.702C90.8543 140.117 91.0704 140.541 91.0013 140.653Z" fill="#263238"/>
<path d="M99.7766 154.893C99.7766 154.772 100.987 154.434 102.984 153.976C103.494 153.872 103.979 153.725 104.03 153.362C104.016 152.829 103.844 152.312 103.538 151.875L101.627 148.106C98.9725 142.728 97.0012 138.292 97.2174 138.189C97.4335 138.085 99.7593 142.356 102.405 147.699L104.247 151.503C104.63 152.091 104.792 152.796 104.705 153.492C104.653 153.686 104.556 153.865 104.423 154.016C104.289 154.166 104.122 154.283 103.935 154.357C103.656 154.459 103.366 154.528 103.071 154.564C101.99 154.807 100.884 154.917 99.7766 154.893Z" fill="#263238"/>
<path d="M90.7502 132.699C90.6033 133.27 88.5714 133.2 86.237 133.719C83.9026 134.238 82.0437 135.068 81.6892 134.584C81.525 134.368 81.8016 133.814 82.5538 133.209C83.5141 132.451 84.6397 131.929 85.8393 131.687C87.0358 131.424 88.2779 131.451 89.462 131.765C90.3352 132.051 90.8108 132.44 90.7502 132.699Z" fill="#263238"/>
<path d="M109.469 132.586C109.157 133.079 107.739 132.741 106.01 132.88C104.281 133.018 102.958 133.494 102.552 133.044C102.388 132.828 102.552 132.344 103.14 131.851C103.914 131.239 104.86 130.882 105.846 130.831C106.828 130.75 107.811 130.98 108.656 131.488C109.356 131.903 109.598 132.352 109.469 132.586Z" fill="#263238"/>
<path d="M77.79 124.451L77.7208 124.52C75.794 126.369 74.6544 128.89 74.5391 131.558C74.5391 131.653 74.5391 131.748 74.5391 131.826C74.3921 135.621 74.8503 139.417 74.6688 143.204C74.4872 146.991 73.5621 150.916 71.0461 153.761C70.0172 154.928 68.0805 155.853 67.0257 154.703C66.6587 154.219 66.4368 153.64 66.3859 153.034C64.8123 144.077 61.5615 136.304 60.6623 126.854C60.5333 125.591 60.7084 124.314 61.1732 123.132C61.638 121.95 62.3788 120.896 63.3339 120.059C65.1668 118.442 67.4407 116.739 69.7406 117.569C72.0404 118.399 75.2826 122.229 77.1588 123.802" fill="#263238"/>
<path d="M69.9566 145.719C69.7232 145.65 60.6881 143.938 61.8467 152.87C63.0053 161.801 71.7377 158.801 71.7204 158.541C71.7031 158.282 69.9566 145.719 69.9566 145.719Z" fill="#B78876"/>
<path d="M68.59 155.516C68.59 155.516 68.4517 155.645 68.2009 155.792C68.0293 155.897 67.8386 155.967 67.6398 155.998C67.4409 156.03 67.238 156.021 67.0424 155.974C66.0567 155.749 65.0624 154.348 64.8117 152.749C64.689 151.984 64.7392 151.201 64.9587 150.458C65.008 150.167 65.1264 149.893 65.304 149.659C65.4815 149.424 65.7131 149.235 65.9789 149.109C66.1515 149.041 66.3421 149.035 66.5186 149.092C66.695 149.149 66.8465 149.265 66.9473 149.42C67.1029 149.654 67.0683 149.844 67.1202 149.852C67.1721 149.861 67.2931 149.68 67.1721 149.316C67.0939 149.1 66.9444 148.917 66.7484 148.798C66.4847 148.652 66.1759 148.612 65.8838 148.685C65.5256 148.806 65.2042 149.017 64.9501 149.297C64.6959 149.576 64.5173 149.917 64.4313 150.285C64.1504 151.119 64.0762 152.009 64.2151 152.879C64.5091 154.668 65.6504 156.233 66.9905 156.441C67.2395 156.481 67.4944 156.464 67.7357 156.39C67.977 156.317 68.1983 156.189 68.3825 156.017C68.59 155.732 68.59 155.524 68.59 155.516Z" fill="#7C5142"/>
<path d="M69.5591 118.986C66.9653 115.614 72.5506 109.873 76.839 108.049C81.1274 106.225 87.171 107.807 91.7188 108.836C94.5806 109.493 97.477 110.504 100.365 110.098C102.301 109.711 104.169 109.038 105.907 108.101C107.643 107.148 109.555 106.56 111.527 106.372C112.514 106.296 113.503 106.493 114.387 106.939C115.271 107.386 116.016 108.065 116.541 108.905C117.458 110.634 116.637 113.228 114.717 113.703C115.307 113.297 115.988 113.04 116.699 112.955C117.411 112.87 118.132 112.958 118.802 113.213C119.471 113.468 120.069 113.882 120.544 114.419C121.018 114.956 121.355 115.6 121.526 116.296C121.696 116.992 121.696 117.719 121.523 118.415C121.351 119.11 121.012 119.754 120.537 120.289C120.061 120.825 119.462 121.238 118.792 121.491C118.121 121.744 117.4 121.831 116.688 121.744C117.873 120.655 119.983 122.064 119.983 123.664C119.983 125.263 118.642 126.577 117.242 127.364C113.662 129.37 109.253 129.266 105.258 128.341C101.264 127.416 97.477 125.747 93.4998 124.71C89.5227 123.672 82.8566 121.805 79.1388 123.543C76.4067 124.814 74.764 128.419 73.0866 127.866C72.2929 127.536 71.5876 127.025 71.0275 126.373C70.4674 125.722 70.0681 124.947 69.8617 124.113C69.4754 122.436 69.3645 120.707 69.5331 118.995" fill="#263238"/>
<path d="M70.0688 147.25C70.1803 151.998 70.7244 156.727 71.6943 161.377C72.6636 166.043 74.8774 170.36 78.101 173.871C82.424 178.306 88.0957 182.516 94.2344 183.563C100.935 184.669 109.131 183.269 114.587 179.24C117.181 177.329 119.057 173.187 118.253 170.058C119.351 169.539 120.291 168.737 120.975 167.734C121.659 166.731 122.063 165.563 122.144 164.351C122.282 161.93 120.804 158.904 118.893 158.584C120.328 158.342 120.743 156.06 120.198 154.772C119.654 153.483 117.76 153.094 116.325 153.371C114.906 153.742 113.587 154.421 112.46 155.359C111.34 156.299 110.076 157.052 108.716 157.59C104.082 159.095 99.3874 154.996 94.5197 155.195C90.1189 155.368 86.2023 159.025 81.836 158.411C80.624 158.18 79.4741 157.697 78.4612 156.992C77.4483 156.288 76.595 155.378 75.9568 154.322C74.608 152.256 75.1959 144.621 74.6685 142.218" fill="#263238"/>
<g opacity="0.6">
<path d="M105.388 167.836C105.023 167.751 104.665 167.641 104.316 167.508C103.469 167.265 102.578 167.221 101.711 167.379C100.844 167.536 100.026 167.891 99.3182 168.415C98.7649 168.813 98.4536 169.133 98.4536 169.09C98.4536 169.046 98.6265 168.666 99.1539 168.225C99.8641 167.6 100.732 167.181 101.663 167.013C102.594 166.846 103.553 166.936 104.437 167.274C105.076 167.49 105.414 167.793 105.388 167.836Z" fill="#455A64"/>
</g>
<path d="M95.9208 157.902C96.2493 157.85 96.4655 160.037 98.5146 161.36C100.564 162.683 102.838 162.268 102.889 162.57C102.933 162.7 102.414 163.046 101.428 163.167C100.151 163.317 98.8618 163.011 97.7883 162.302C96.7601 161.616 96.0404 160.555 95.7824 159.345C95.5836 158.464 95.7738 157.902 95.9208 157.902Z" fill="white"/>
<path d="M89.4189 182.102C89.6145 182.146 89.8034 182.216 89.9809 182.309C90.3527 182.448 90.8974 182.638 91.615 182.837C93.6487 183.386 95.7359 183.714 97.8401 183.814C99.2812 183.899 100.727 183.87 102.163 183.727C103.82 183.579 105.457 183.26 107.048 182.776C108.805 182.251 110.481 181.486 112.028 180.502C113.711 179.487 115.179 178.154 116.351 176.577C117.744 174.72 118.363 172.396 118.08 170.093V169.911L118.236 169.842C119.312 169.342 120.243 168.577 120.942 167.62C121.282 167.168 121.571 166.681 121.807 166.167C122.013 165.668 122.142 165.14 122.187 164.602C122.281 163.628 122.142 162.646 121.781 161.736C121.421 160.827 120.848 160.016 120.112 159.372L119.983 159.268L120.086 159.138C120.476 158.643 120.731 158.055 120.825 157.432C120.919 156.809 120.849 156.172 120.622 155.585C120.445 155.139 120.176 154.735 119.834 154.398C119.491 154.062 119.083 153.8 118.634 153.631C118.061 153.402 117.441 153.316 116.827 153.38C116.403 153.432 116.196 153.51 116.187 153.484C116.387 153.389 116.599 153.325 116.818 153.293C117.639 153.16 118.482 153.303 119.214 153.698C119.945 154.094 120.526 154.721 120.864 155.481C121.12 156.115 121.207 156.804 121.116 157.482C121.025 158.159 120.76 158.802 120.346 159.346V159.112C121.136 159.786 121.753 160.639 122.147 161.6C122.541 162.561 122.7 163.602 122.611 164.637C122.567 165.231 122.43 165.815 122.205 166.366C121.954 166.908 121.65 167.424 121.297 167.905C120.561 168.932 119.572 169.751 118.426 170.283L118.556 170.023C118.903 172.445 118.282 174.905 116.827 176.871C115.62 178.494 114.107 179.866 112.374 180.909C110.796 181.913 109.08 182.685 107.282 183.2C105.662 183.687 103.996 184 102.31 184.134C100.845 184.25 99.374 184.25 97.9093 184.134C95.7886 184.001 93.6907 183.621 91.6583 183.001C91.1072 182.83 90.5673 182.625 90.0415 182.387C89.8243 182.315 89.6156 182.219 89.4189 182.102Z" fill="#455A64"/>
<path d="M50.2269 159.285C50.0614 159.24 49.9059 159.163 49.7687 159.06C49.3791 158.769 49.0795 158.373 48.9041 157.919C48.6119 157.189 48.5486 156.387 48.7225 155.619C48.9953 154.603 49.605 153.71 50.4517 153.086C51.4465 152.336 52.556 151.752 53.7372 151.357C55.0609 150.941 56.3409 150.396 57.5587 149.731C58.8402 148.92 59.8445 147.738 60.4378 146.342C61.0887 144.84 61.4355 143.224 61.4581 141.587C61.5272 138.206 60.7491 134.999 60.6626 132.016C60.5762 129.033 61.0949 126.249 62.4524 124.381C63.469 122.884 65.0126 121.825 66.7754 121.416C67.2534 121.32 67.743 121.297 68.2279 121.346C68.3971 121.366 68.5647 121.398 68.7293 121.442C68.0888 121.411 67.4469 121.46 66.8186 121.589C65.1195 122.037 63.6452 123.096 62.6772 124.563C61.4148 126.378 60.8874 129.076 61.0431 131.998C61.1987 134.921 61.9077 138.128 61.9077 141.604C61.8717 143.303 61.4984 144.978 60.8096 146.532C60.174 148.005 59.1029 149.248 57.7403 150.094C56.4891 150.772 55.1707 151.316 53.8064 151.72C52.6588 152.083 51.5761 152.626 50.5987 153.328C49.7958 153.896 49.208 154.719 48.93 155.662C48.7416 156.382 48.7747 157.141 49.0251 157.841C49.253 158.443 49.6762 158.952 50.2269 159.285Z" fill="#455A64"/>
<path d="M115.046 113.556C115.168 113.482 115.299 113.421 115.435 113.375C115.599 113.301 115.77 113.244 115.945 113.202C116.179 113.133 116.419 113.084 116.662 113.055C117.469 112.967 118.285 113.064 119.049 113.338C119.813 113.612 120.505 114.056 121.072 114.637C121.639 115.398 122.049 116.263 122.279 117.183C122.509 118.103 122.554 119.06 122.412 119.998C122.242 121.161 121.841 122.278 121.232 123.283C120.623 124.289 119.819 125.162 118.867 125.851C116.675 127.447 114.055 128.35 111.345 128.445C108.407 128.56 105.468 128.246 102.621 127.511C98.099 126.401 93.8081 124.501 89.9462 121.9C88.2954 120.765 86.5612 119.756 84.7586 118.882C83.1797 118.152 81.4799 117.718 79.744 117.603C77.2153 117.428 74.6837 117.898 72.3862 118.969C70.7694 119.73 69.9999 120.387 69.9653 120.335C70.6754 119.724 71.4633 119.209 72.3084 118.804C74.6194 117.662 77.1872 117.137 79.7612 117.283C81.5533 117.375 83.3126 117.8 84.9488 118.536C86.7774 119.408 88.5376 120.417 90.2142 121.554C94.0487 124.104 98.2963 125.971 102.768 127.07C105.571 127.806 108.466 128.132 111.362 128.038C113.99 127.946 116.531 127.08 118.668 125.548C119.585 124.892 120.363 124.061 120.957 123.102C121.551 122.143 121.948 121.077 122.127 119.963C122.279 119.062 122.251 118.139 122.045 117.249C121.839 116.359 121.458 115.518 120.925 114.775C120.388 114.213 119.734 113.777 119.009 113.497C118.284 113.218 117.506 113.102 116.732 113.159C116.16 113.248 115.596 113.381 115.046 113.556Z" fill="#455A64"/>
<path d="M110.464 105.939C110.463 106.62 110.324 107.293 110.057 107.919C109.307 109.639 108.005 111.06 106.357 111.957C105.244 112.605 104.022 113.044 102.751 113.254C101.295 113.466 99.8155 113.466 98.3591 113.254C95.2725 112.865 92.0822 111.654 88.7275 110.608C85.3729 109.562 81.9923 108.939 79.0181 109.579C76.3826 110.155 73.9956 111.546 72.1964 113.556C70.9707 114.897 70.0321 116.474 69.4383 118.191C69.0406 119.418 68.9628 120.136 68.9109 120.127C68.8897 119.955 68.8897 119.781 68.9109 119.609C68.9801 119.111 69.087 118.62 69.2308 118.139C69.7679 116.363 70.6855 114.725 71.9197 113.34C73.7366 111.241 76.1793 109.78 78.8884 109.173C81.9663 108.49 85.442 109.121 88.814 110.176C92.1859 111.231 95.3503 112.441 98.3678 112.839C99.7869 113.046 101.228 113.046 102.648 112.839C103.88 112.652 105.069 112.245 106.158 111.637C107.769 110.792 109.064 109.448 109.85 107.807C110.104 107.202 110.309 106.577 110.464 105.939Z" fill="#455A64"/>
<path d="M175.905 51.2193C175.827 51.3144 170.968 47.3632 165.046 42.3917C159.123 37.4203 154.394 33.2702 154.48 33.2097C154.567 33.1492 159.417 37.0658 165.34 42.0459C171.262 47.026 175.991 51.1242 175.905 51.2193Z" fill="#263238"/>
<path d="M200.563 45.2968C200.442 45.2968 199.949 37.6192 199.474 28.1345C198.998 18.6499 198.704 10.9549 198.825 10.9463C198.946 10.9377 199.439 18.6239 199.923 28.1172C200.407 37.6105 200.684 45.2968 200.563 45.2968Z" fill="#263238"/>
<path d="M184.863 39.8062C184.742 39.8062 183.229 35.4832 181.473 30.0103C179.718 24.5374 178.395 20.1193 178.516 20.0847C178.638 20.0501 180.151 24.4077 181.906 29.8719C183.661 35.3362 184.975 39.7716 184.863 39.8062Z" fill="#263238"/>
<path d="M170.864 59.3291C168.587 58.5281 166.361 57.5898 164.198 56.5191C161.971 55.5805 159.805 54.5034 157.713 53.2942C159.99 54.0951 162.216 55.0335 164.379 56.1041C166.605 57.0448 168.771 58.1219 170.864 59.3291Z" fill="#263238"/>
<path d="M148.134 49.395C148.134 49.516 147.399 49.5333 146.525 49.395C145.652 49.2566 144.961 49.101 144.978 48.9799C144.995 48.8589 145.713 48.8416 146.577 48.9799C147.442 49.1183 148.134 49.2739 148.134 49.395Z" fill="#263238"/>
<path d="M179.078 14.4998C178.948 14.4998 178.853 13.7995 178.853 12.9262C178.853 12.053 178.948 11.344 179.078 11.344C179.208 11.344 179.303 12.053 179.303 12.9262C179.303 13.7995 179.199 14.4998 179.078 14.4998Z" fill="#263238"/>
<path d="M231.136 26.7076C231.231 26.794 227.237 31.3677 222.231 36.9271C217.225 42.4865 213.092 46.9305 212.979 46.8441C212.867 46.7576 216.879 42.1925 221.885 36.6245C226.891 31.0565 231.049 26.6297 231.136 26.7076Z" fill="#263238"/>
<path d="M237.49 20.4227C237.576 20.5091 237.118 21.1143 236.461 21.7714C235.804 22.4285 235.207 22.8781 235.121 22.7917C235.034 22.7052 235.493 22.1 236.15 21.4515C236.807 20.8031 237.403 20.3016 237.49 20.4227Z" fill="#263238"/>
<path d="M252.897 42.5559C252.526 42.823 252.133 43.0573 251.721 43.2562C250.952 43.6799 249.828 44.2765 248.427 44.9854C245.617 46.4034 241.683 48.2536 237.256 50.0952C232.83 51.9368 228.74 53.4066 225.749 54.4182C224.261 54.911 223.051 55.2828 222.204 55.5335C221.775 55.6893 221.332 55.8022 220.881 55.8707C221.29 55.6684 221.715 55.5007 222.152 55.3693L225.61 54.1156C228.567 53.0521 232.622 51.5218 237.049 49.7061C241.476 47.8905 245.41 46.0662 248.289 44.7261L251.643 43.1352C252.046 42.9114 252.465 42.7178 252.897 42.5559Z" fill="#263238"/>
<path d="M240.258 63.842C239.519 64.1711 238.748 64.4231 237.958 64.5942C236.523 64.992 234.499 65.4588 232.269 65.8479C230.038 66.237 227.946 66.4531 226.485 66.5569C225.684 66.6587 224.876 66.6732 224.072 66.6001C224.857 66.4192 225.655 66.2978 226.459 66.237C227.928 66.0554 229.96 65.7787 232.191 65.3724C234.422 64.966 236.436 64.577 237.889 64.2657C238.664 64.0518 239.457 63.91 240.258 63.842Z" fill="#263238"/>
<path d="M251.748 61.715C250.102 62.0148 248.415 62.0148 246.768 61.715C248.415 61.4153 250.102 61.4153 251.748 61.715Z" fill="#263238"/>
<path d="M186.765 276.222C187.982 276.429 189.145 276.879 190.185 277.544C191.224 278.21 192.12 279.077 192.817 280.096C194.195 282.153 195.082 284.498 195.411 286.952C196.198 291.655 194.927 296.999 193.18 301.443C188.382 299.186 185.823 293.601 184.707 290.678C182.978 286.07 182.537 276.654 186.722 276.222" fill="#FFAE19"/>
<path d="M200.296 308.091C199.573 306.913 199.176 305.564 199.144 304.182C199.112 302.8 199.447 301.434 200.114 300.223C200.798 299.024 201.715 297.974 202.811 297.133C203.907 296.293 205.159 295.68 206.495 295.33C207.092 295.102 207.732 295.007 208.369 295.052C209.007 295.096 209.627 295.28 210.187 295.589C210.652 295.962 211.01 296.453 211.223 297.011C211.436 297.569 211.496 298.173 211.397 298.762C211.183 299.939 210.664 301.039 209.893 301.953C207.385 305.186 204.377 307.849 200.296 308.091Z" fill="#FFAE19"/>
<path d="M199.085 322.997C198.985 322.677 198.93 322.346 198.921 322.011C198.86 321.371 198.774 320.438 198.713 319.288C198.495 316.28 198.678 313.256 199.258 310.296C199.878 307.306 201.291 304.538 203.347 302.281C203.982 301.619 204.696 301.038 205.474 300.552C205.734 300.353 206.027 300.201 206.339 300.102C205.356 300.84 204.436 301.658 203.59 302.549C201.672 304.809 200.352 307.514 199.751 310.417C199.178 313.337 198.946 316.314 199.059 319.288C199.142 320.522 199.151 321.761 199.085 322.997Z" fill="#263238"/>
<path d="M187.905 283.39C188.148 283.886 188.35 284.4 188.51 284.929C188.865 285.932 189.375 287.384 189.946 289.191C191.13 292.805 192.678 297.837 194.269 303.414C195.86 308.99 197.139 314.092 198.021 317.792C198.462 319.642 198.799 321.138 199.015 322.184C199.159 322.717 199.258 323.26 199.309 323.81C199.098 323.301 198.933 322.774 198.817 322.236C198.514 321.112 198.125 319.642 197.658 317.913C196.681 314.239 195.324 309.163 193.75 303.587C192.176 298.01 190.689 292.969 189.6 289.329L188.329 285.006C188.143 284.48 188.001 283.939 187.905 283.39Z" fill="#263238"/>
<path d="M193.906 312.536C192.699 309.892 190.882 307.572 188.603 305.769C186.324 303.965 183.649 302.728 180.799 302.161C179.346 301.884 177.557 301.918 176.744 303.164C175.931 304.409 176.631 306.069 177.505 307.262C179.368 309.736 181.923 311.602 184.847 312.624C187.772 313.646 190.933 313.778 193.932 313.003" fill="#FFAE19"/>
<path d="M182.389 306.302C182.713 306.29 183.036 306.325 183.349 306.406C183.72 306.457 184.087 306.535 184.447 306.639C184.933 306.754 185.412 306.895 185.882 307.063C187.111 307.493 188.293 308.047 189.41 308.714C192.168 310.347 194.503 312.607 196.223 315.311C196.914 316.403 197.493 317.562 197.952 318.77C198.139 319.232 198.298 319.706 198.428 320.188C198.547 320.546 198.64 320.913 198.704 321.286C198.795 321.594 198.836 321.915 198.825 322.237C198.73 322.237 198.462 320.914 197.606 318.917C197.098 317.75 196.487 316.63 195.782 315.571C194.909 314.282 193.91 313.082 192.799 311.991C191.674 310.917 190.446 309.956 189.133 309.121C188.05 308.447 186.91 307.868 185.727 307.392C183.721 306.631 182.372 306.406 182.389 306.302Z" fill="#263238"/>
</svg>
