<svg id="Livello_1" data-name="Livello 1"
    xmlns="http://www.w3.org/2000/svg"
    xmlns:xlink="http://www.w3.org/1999/xlink" 
    x="0px" y="0px" width="100" height="100" viewBox="0 0 48 48">
    <defs>
        <linearGradient id="linear-gradient" x1="24" y1="48" x2="24" gradientUnits="userSpaceOnUse">
            <stop offset="0" stop-color="#1d93d2"/>
            <stop offset="1" stop-color="#38b0e3"/>
        </linearGradient>
    </defs>
    <title>Telegram_logo</title>
    <circle cx="24" cy="24" r="24" fill="url(#linear-gradient)"/>
    <path d="M16.246,25.754l2.847,7.881s.356.737.737.737,6.051-5.898,6.051-5.898l6.305-12.178L16.347,23.72Z" fill="#c8daea"/>
    <path d="M20.021,27.776l-.547,5.809s-.229,1.78,1.551,0,3.483-3.153,3.483-3.153" fill="#a9c6d8"/>
    <path d="M16.297,26.036,10.44,24.127s-.7-.284-.475-.928c.046-.133.14-.246.42-.44,1.298-.905,24.021-9.072,24.021-9.072s.642-.216,1.02-.072a.553.553,0,0,1,.377.411,1.871,1.871,0,0,1,.051.517c0,.15-.02.29-.034.508-.138,2.233-4.28,18.899-4.28,18.899s-.248.975-1.136,1.009a1.626,1.626,0,0,1-1.555-.709c-1.742-1.499-7.764-5.545-9.094-6.435a.254.254,0,0,1-.109-.18c-.019-.094.083-.21.083-.21s10.485-9.32,10.764-10.298c.022-.076-.06-.113-.17-.08-.696.256-12.769,7.88-14.101,8.721A.642.642,0,0,1,16.297,26.036Z" fill="#fff"/>
</svg>