<svg width="25" height="24" viewBox="0 0 25 24" fill="none" xmlns="http://www.w3.org/2000/svg">
<path d="M16.1365 12.1137C15.7222 12.1137 15.3865 12.4494 15.3865 12.8637C15.3865 13.2779 15.7222 13.6137 16.1365 13.6137H18.8637C19.2779 13.6137 19.6137 13.2779 19.6137 12.8637C19.6137 12.4494 19.2779 12.1137 18.8637 12.1137H16.1365Z" fill="#625C89"/>
<path fill-rule="evenodd" clip-rule="evenodd" d="M20.1476 3.37747C20.225 3.82143 20.2437 4.34902 20.2489 4.95264C20.3357 4.99789 20.4208 5.04606 20.5045 5.09732C21.2782 5.57144 21.9287 6.22194 22.4028 6.99564C22.9248 7.84749 23.1146 8.83477 23.193 10.0896C23.2501 11.0025 23.2501 12.1128 23.2501 13.4765V13.5048C23.2501 14.2868 23.2501 14.9834 23.2398 15.6034C23.2078 17.5313 23.083 18.8944 22.4028 20.0044C21.9287 20.7781 21.2782 21.4286 20.5045 21.9027C19.7656 22.3554 18.9275 22.5572 17.904 22.6545C16.8998 22.75 15.6429 22.75 14.0395 22.75H10.9607C9.35738 22.75 8.10037 22.75 7.0962 22.6545C6.07265 22.5572 5.23455 22.3554 4.49573 21.9027C3.72203 21.4286 3.07153 20.7781 2.59741 20.0044C2.14466 19.2656 1.94288 18.4274 1.84556 17.4039C1.75008 16.3997 1.75009 15.1427 1.7501 13.5394L1.75018 13.0136C1.737 12.5195 1.74104 11.967 1.74541 11.3713C1.74771 11.0574 1.7501 10.7314 1.7501 10.3956L1.7501 10.3523C1.75009 8.64004 1.75008 7.29622 1.86092 6.22968C1.97397 5.14188 2.20904 4.25462 2.73922 3.49386C3.05954 3.03422 3.44815 2.62873 3.89147 2.29294C4.62978 1.73371 5.49376 1.4851 6.54738 1.36609C7.5753 1.24999 8.86846 1.24999 10.5066 1.25L15.9746 1.25C16.7732 1.24997 17.45 1.24994 17.9896 1.32557C18.566 1.40636 19.0949 1.58607 19.5181 2.02728C19.8855 2.41026 20.0595 2.87228 20.1476 3.37747ZM15.9219 2.75C16.7876 2.75 17.3582 2.75173 17.7814 2.81105C18.1797 2.86688 18.3347 2.96039 18.4356 3.06563C18.529 3.16295 18.6132 3.30988 18.6699 3.63506C18.7078 3.85249 18.7284 4.11824 18.7394 4.45819C18.3266 4.38265 17.8812 4.33609 17.396 4.30615C16.486 4.25 15.3801 4.25 14.0233 4.25H10.9607C9.35735 4.25 8.10039 4.24999 7.0962 4.34547C6.07265 4.44279 5.23455 4.64457 4.49573 5.09732C4.09745 5.34139 3.73181 5.6322 3.40608 5.96249C3.51584 5.23516 3.69559 4.74505 3.96986 4.35149C4.20144 4.01919 4.48085 3.72824 4.79716 3.48865C5.23489 3.15709 5.79774 2.9603 6.71573 2.85661C7.64969 2.75112 8.85816 2.75 10.5532 2.75H15.9219ZM5.27948 6.37628C5.743 6.09224 6.32443 5.92562 7.23818 5.83874C8.1631 5.7508 9.34886 5.75 11.0001 5.75H14.0001C15.3847 5.75 16.445 5.75033 17.3036 5.80331C18.1614 5.85624 18.7611 5.95942 19.2338 6.13895C19.4109 6.2062 19.5711 6.28461 19.7207 6.37628C20.2926 6.72672 20.7734 7.20752 21.1238 7.77939C21.3704 8.18183 21.5276 8.671 21.6217 9.38638H16.1365C14.216 9.38638 12.6592 10.9432 12.6592 12.8637C12.6592 14.7841 14.216 16.3409 16.1365 16.3409H21.7194C21.6617 17.8013 21.5023 18.603 21.1238 19.2206C20.7734 19.7925 20.2926 20.2733 19.7207 20.6237C19.2572 20.9078 18.6758 21.0744 17.762 21.1613C16.8371 21.2492 15.6513 21.25 14.0001 21.25H11.0001C9.34886 21.25 8.1631 21.2492 7.23818 21.1613C6.32443 21.0744 5.743 20.9078 5.27948 20.6237C4.70762 20.2733 4.22681 19.7925 3.87637 19.2206C3.59233 18.7571 3.42571 18.1757 3.33883 17.2619C3.25089 16.337 3.2501 15.1512 3.2501 13.5C3.2501 11.8488 3.25089 10.663 3.33883 9.73809C3.42571 8.82434 3.59233 8.24291 3.87637 7.77939C4.22681 7.20752 4.70762 6.72672 5.27948 6.37628ZM14.1592 12.8637C14.1592 11.7716 15.0444 10.8864 16.1365 10.8864H21.7277C21.7499 11.6103 21.7501 12.4644 21.7501 13.5C21.7501 13.9839 21.7501 14.429 21.7477 14.8409H16.1365C15.0444 14.8409 14.1592 13.9557 14.1592 12.8637Z" fill="#625C89"/>
</svg>
